%TF.GenerationSoftware,KiCad,Pcbnew,5.1.8*%
%TF.CreationDate,2020-11-15T21:37:53+00:00*%
%TF.ProjectId,rs232_isolator_panel,72733233-325f-4697-936f-6c61746f725f,rev?*%
%TF.SameCoordinates,PX1d905c0PY2625a00*%
%TF.FileFunction,Profile,NP*%
%FSLAX46Y46*%
G04 Gerber Fmt 4.6, Leading zero omitted, Abs format (unit mm)*
G04 Created by KiCad (PCBNEW 5.1.8) date 2020-11-15 21:37:53*
%MOMM*%
%LPD*%
G01*
G04 APERTURE LIST*
%TA.AperFunction,Profile*%
%ADD10C,0.050000*%
%TD*%
G04 APERTURE END LIST*
D10*
X51000000Y-87000000D02*
G75*
G02*
X49000000Y-87000000I-1000000J0D01*
G01*
X51000000Y-32000000D02*
X54000000Y-32000000D01*
X51000000Y-55000000D02*
X51000000Y-39000000D01*
X7000000Y-27000000D02*
G75*
G02*
X9000000Y-27000000I1000000J0D01*
G01*
X51000000Y-64000000D02*
X54000000Y-64000000D01*
X93000000Y-94000000D02*
X93000000Y-91000000D01*
X46000000Y-32000000D02*
G75*
G02*
X46000000Y-30000000I0J1000000D01*
G01*
X51000000Y-35000000D02*
G75*
G02*
X49000000Y-35000000I-1000000J0D01*
G01*
X46000000Y0D02*
X49000000Y0D01*
X93000000Y-35000000D02*
X93000000Y-27000000D01*
X88000000Y-94000000D02*
X91000000Y-94000000D01*
X51000000Y-23000000D02*
G75*
G02*
X49000000Y-23000000I-1000000J0D01*
G01*
X42000000Y-62000000D02*
G75*
G02*
X42000000Y-64000000I0J-1000000D01*
G01*
X7000000Y-59000000D02*
G75*
G02*
X9000000Y-59000000I1000000J0D01*
G01*
X9000000Y-23000000D02*
X9000000Y-7000000D01*
X12000000Y-62000000D02*
G75*
G02*
X12000000Y-64000000I0J-1000000D01*
G01*
X91000000Y-35000000D02*
X91000000Y-32000000D01*
X51000000Y0D02*
X54000000Y0D01*
X54000000Y-30000000D02*
X51000000Y-30000000D01*
X91000000Y-67000000D02*
X91000000Y-64000000D01*
X91000000Y-27000000D02*
G75*
G02*
X93000000Y-27000000I1000000J0D01*
G01*
X93000000Y0D02*
X100000000Y0D01*
X58000000Y0D02*
X84000000Y0D01*
X54000000Y-62000000D02*
X51000000Y-62000000D01*
X93000000Y-87000000D02*
G75*
G02*
X91000000Y-87000000I-1000000J0D01*
G01*
X7000000Y-23000000D02*
X7000000Y-7000000D01*
X49000000Y-94000000D02*
X49000000Y-91000000D01*
X49000000Y-27000000D02*
G75*
G02*
X51000000Y-27000000I1000000J0D01*
G01*
X91000000Y-55000000D02*
X91000000Y-39000000D01*
X58000000Y-64000000D02*
G75*
G02*
X58000000Y-62000000I0J1000000D01*
G01*
X51000000Y-55000000D02*
G75*
G02*
X49000000Y-55000000I-1000000J0D01*
G01*
X9000000Y0D02*
X12000000Y0D01*
X7000000Y-39000000D02*
G75*
G02*
X9000000Y-39000000I1000000J0D01*
G01*
X0Y0D02*
X7000000Y0D01*
X49000000Y-35000000D02*
X49000000Y-32000000D01*
X49000000Y-30000000D02*
X49000000Y-27000000D01*
X9000000Y-67000000D02*
X9000000Y-64000000D01*
X9000000Y-87000000D02*
G75*
G02*
X7000000Y-87000000I-1000000J0D01*
G01*
X49000000Y-59000000D02*
G75*
G02*
X51000000Y-59000000I1000000J0D01*
G01*
X12000000Y-62000000D02*
X9000000Y-62000000D01*
X49000000Y-23000000D02*
X49000000Y-7000000D01*
X9000000Y-30000000D02*
X9000000Y-27000000D01*
X54000000Y-94000000D02*
X58000000Y-94000000D01*
X46000000Y-94000000D02*
X49000000Y-94000000D01*
X58000000Y-94000000D02*
X84000000Y-94000000D01*
X51000000Y-67000000D02*
G75*
G02*
X49000000Y-67000000I-1000000J0D01*
G01*
X16000000Y-62000000D02*
X42000000Y-62000000D01*
X9000000Y-94000000D02*
X9000000Y-91000000D01*
X88000000Y-64000000D02*
G75*
G02*
X88000000Y-62000000I0J1000000D01*
G01*
X58000000Y-64000000D02*
X84000000Y-64000000D01*
X9000000Y-35000000D02*
X9000000Y-32000000D01*
X91000000Y-3000000D02*
X91000000Y0D01*
X91000000Y-87000000D02*
X91000000Y-71000000D01*
X0Y-94000000D02*
X0Y0D01*
X91000000Y-23000000D02*
X91000000Y-7000000D01*
X7000000Y-67000000D02*
X7000000Y-59000000D01*
X54000000Y0D02*
X58000000Y0D01*
X51000000Y-94000000D02*
X51000000Y-91000000D01*
X88000000Y-32000000D02*
G75*
G02*
X88000000Y-30000000I0J1000000D01*
G01*
X91000000Y-30000000D02*
X91000000Y-27000000D01*
X7000000Y-91000000D02*
G75*
G02*
X9000000Y-91000000I1000000J0D01*
G01*
X88000000Y-30000000D02*
X91000000Y-30000000D01*
X9000000Y-35000000D02*
G75*
G02*
X7000000Y-35000000I-1000000J0D01*
G01*
X12000000Y0D02*
X16000000Y0D01*
X91000000Y-94000000D02*
X91000000Y-91000000D01*
X49000000Y-71000000D02*
G75*
G02*
X51000000Y-71000000I1000000J0D01*
G01*
X100000000Y0D02*
X100000000Y-94000000D01*
X9000000Y-3000000D02*
X9000000Y0D01*
X93000000Y-3000000D02*
G75*
G02*
X91000000Y-3000000I-1000000J0D01*
G01*
X16000000Y-30000000D02*
X42000000Y-30000000D01*
X91000000Y-91000000D02*
G75*
G02*
X93000000Y-91000000I1000000J0D01*
G01*
X7000000Y-94000000D02*
X7000000Y-91000000D01*
X49000000Y-3000000D02*
X49000000Y0D01*
X9000000Y-32000000D02*
X12000000Y-32000000D01*
X9000000Y-62000000D02*
X9000000Y-59000000D01*
X100000000Y-94000000D02*
X93000000Y-94000000D01*
X46000000Y-30000000D02*
X49000000Y-30000000D01*
X42000000Y-30000000D02*
G75*
G02*
X42000000Y-32000000I0J-1000000D01*
G01*
X46000000Y-62000000D02*
X49000000Y-62000000D01*
X9000000Y-87000000D02*
X9000000Y-71000000D01*
X54000000Y-62000000D02*
G75*
G02*
X54000000Y-64000000I0J-1000000D01*
G01*
X51000000Y-87000000D02*
X51000000Y-71000000D01*
X93000000Y-7000000D02*
X93000000Y-23000000D01*
X51000000Y-3000000D02*
X51000000Y0D01*
X49000000Y-62000000D02*
X49000000Y-59000000D01*
X88000000Y0D02*
X91000000Y0D01*
X49000000Y-91000000D02*
G75*
G02*
X51000000Y-91000000I1000000J0D01*
G01*
X93000000Y-35000000D02*
G75*
G02*
X91000000Y-35000000I-1000000J0D01*
G01*
X7000000Y-94000000D02*
X0Y-94000000D01*
X58000000Y-62000000D02*
X84000000Y-62000000D01*
X88000000Y-64000000D02*
X91000000Y-64000000D01*
X42000000Y0D02*
X46000000Y0D01*
X7000000Y-87000000D02*
X7000000Y-71000000D01*
X12000000Y-94000000D02*
X9000000Y-94000000D01*
X93000000Y0D02*
X93000000Y-3000000D01*
X84000000Y-30000000D02*
G75*
G02*
X84000000Y-32000000I0J-1000000D01*
G01*
X91000000Y-59000000D02*
G75*
G02*
X93000000Y-59000000I1000000J0D01*
G01*
X9000000Y-3000000D02*
G75*
G02*
X7000000Y-3000000I-1000000J0D01*
G01*
X51000000Y-62000000D02*
X51000000Y-59000000D01*
X88000000Y-62000000D02*
X91000000Y-62000000D01*
X91000000Y-62000000D02*
X91000000Y-59000000D01*
X7000000Y-7000000D02*
G75*
G02*
X9000000Y-7000000I1000000J0D01*
G01*
X91000000Y-39000000D02*
G75*
G02*
X93000000Y-39000000I1000000J0D01*
G01*
X51000000Y-30000000D02*
X51000000Y-27000000D01*
X93000000Y-55000000D02*
X93000000Y-39000000D01*
X51000000Y-67000000D02*
X51000000Y-64000000D01*
X84000000Y-94000000D02*
X88000000Y-94000000D01*
X49000000Y-67000000D02*
X49000000Y-64000000D01*
X88000000Y-32000000D02*
X91000000Y-32000000D01*
X49000000Y-39000000D02*
G75*
G02*
X51000000Y-39000000I1000000J0D01*
G01*
X16000000Y-64000000D02*
G75*
G02*
X16000000Y-62000000I0J1000000D01*
G01*
X93000000Y-87000000D02*
X93000000Y-71000000D01*
X93000000Y-67000000D02*
X93000000Y-59000000D01*
X93000000Y-23000000D02*
G75*
G02*
X91000000Y-23000000I-1000000J0D01*
G01*
X16000000Y0D02*
X42000000Y0D01*
X46000000Y-64000000D02*
X49000000Y-64000000D01*
X7000000Y-3000000D02*
X7000000Y0D01*
X9000000Y-55000000D02*
G75*
G02*
X7000000Y-55000000I-1000000J0D01*
G01*
X93000000Y-67000000D02*
G75*
G02*
X91000000Y-67000000I-1000000J0D01*
G01*
X46000000Y-64000000D02*
G75*
G02*
X46000000Y-62000000I0J1000000D01*
G01*
X51000000Y-23000000D02*
X51000000Y-7000000D01*
X54000000Y-30000000D02*
G75*
G02*
X54000000Y-32000000I0J-1000000D01*
G01*
X58000000Y-32000000D02*
X84000000Y-32000000D01*
X9000000Y-55000000D02*
X9000000Y-39000000D01*
X93000000Y-55000000D02*
G75*
G02*
X91000000Y-55000000I-1000000J0D01*
G01*
X51000000Y-35000000D02*
X51000000Y-32000000D01*
X51000000Y-3000000D02*
G75*
G02*
X49000000Y-3000000I-1000000J0D01*
G01*
X12000000Y-30000000D02*
X9000000Y-30000000D01*
X16000000Y-32000000D02*
G75*
G02*
X16000000Y-30000000I0J1000000D01*
G01*
X12000000Y-94000000D02*
X16000000Y-94000000D01*
X7000000Y-35000000D02*
X7000000Y-27000000D01*
X46000000Y-32000000D02*
X49000000Y-32000000D01*
X88000000Y0D02*
X84000000Y0D01*
X16000000Y-64000000D02*
X42000000Y-64000000D01*
X54000000Y-94000000D02*
X51000000Y-94000000D01*
X16000000Y-32000000D02*
X42000000Y-32000000D01*
X42000000Y-94000000D02*
X46000000Y-94000000D01*
X58000000Y-30000000D02*
X84000000Y-30000000D01*
X91000000Y-71000000D02*
G75*
G02*
X93000000Y-71000000I1000000J0D01*
G01*
X58000000Y-32000000D02*
G75*
G02*
X58000000Y-30000000I0J1000000D01*
G01*
X9000000Y-23000000D02*
G75*
G02*
X7000000Y-23000000I-1000000J0D01*
G01*
X16000000Y-94000000D02*
X42000000Y-94000000D01*
X9000000Y-64000000D02*
X12000000Y-64000000D01*
X49000000Y-87000000D02*
X49000000Y-71000000D01*
X7000000Y-71000000D02*
G75*
G02*
X9000000Y-71000000I1000000J0D01*
G01*
X49000000Y-7000000D02*
G75*
G02*
X51000000Y-7000000I1000000J0D01*
G01*
X7000000Y-55000000D02*
X7000000Y-39000000D01*
X84000000Y-62000000D02*
G75*
G02*
X84000000Y-64000000I0J-1000000D01*
G01*
X9000000Y-67000000D02*
G75*
G02*
X7000000Y-67000000I-1000000J0D01*
G01*
X12000000Y-30000000D02*
G75*
G02*
X12000000Y-32000000I0J-1000000D01*
G01*
X49000000Y-55000000D02*
X49000000Y-39000000D01*
X91000000Y-7000000D02*
G75*
G02*
X93000000Y-7000000I1000000J0D01*
G01*
M02*
