M48
; DRILL file {KiCad 5.1.8} date Sun Nov 15 21:37:55 2020
; FORMAT={-:-/ absolute / metric / decimal}
; #@! TF.CreationDate,2020-11-15T21:37:55+00:00
; #@! TF.GenerationSoftware,Kicad,Pcbnew,5.1.8
; #@! TF.FileFunction,Plated,1,2,PTH
FMAT,2
METRIC
T1C0.400
T2C0.800
%
G90
G05
T1
X13.506Y-14.746
X13.506Y-15.762
X13.506Y-22.366
X13.506Y-46.746
X13.506Y-47.762
X13.506Y-54.366
X13.506Y-78.746
X13.506Y-79.762
X13.506Y-86.366
X13.76Y-10.936
X13.76Y-42.936
X13.76Y-74.936
X14.268Y-25.16
X14.268Y-57.16
X14.268Y-89.16
X15.03Y-11.444
X15.03Y-43.444
X15.03Y-75.444
X15.284Y-20.588
X15.284Y-52.588
X15.284Y-84.588
X19.856Y-13.095
X19.856Y-45.095
X19.856Y-77.095
X20.11Y-27.446
X20.11Y-59.446
X20.11Y-91.446
X21.126Y-14.365
X21.126Y-20.588
X21.126Y-46.365
X21.126Y-52.588
X21.126Y-78.365
X21.126Y-84.588
X21.38Y-7.634
X21.38Y-39.634
X21.38Y-71.634
X35.35Y-24.906
X35.35Y-56.906
X35.35Y-88.906
X37.128Y-11.825
X37.128Y-43.825
X37.128Y-75.825
X37.89Y-5.094
X37.89Y-18.175
X37.89Y-24.906
X37.89Y-37.094
X37.89Y-50.175
X37.89Y-56.906
X37.89Y-69.094
X37.89Y-82.175
X37.89Y-88.906
X38.652Y-19.064
X38.652Y-51.064
X38.652Y-83.064
X40.43Y-24.906
X40.43Y-56.906
X40.43Y-88.906
X41.7Y-7.634
X41.7Y-39.634
X41.7Y-71.634
X42.97Y-24.906
X42.97Y-56.906
X42.97Y-88.906
X44.494Y-20.588
X44.494Y-52.588
X44.494Y-84.588
X44.748Y-2.3
X44.748Y-7.634
X44.748Y-34.3
X44.748Y-39.634
X44.748Y-66.3
X44.748Y-71.634
X45.002Y-22.62
X45.002Y-54.62
X45.002Y-86.62
X46.526Y-7.634
X46.526Y-39.634
X46.526Y-71.634
X55.506Y-14.746
X55.506Y-15.762
X55.506Y-22.366
X55.506Y-46.746
X55.506Y-47.762
X55.506Y-54.366
X55.506Y-78.746
X55.506Y-79.762
X55.506Y-86.366
X55.76Y-10.936
X55.76Y-42.936
X55.76Y-74.936
X56.268Y-25.16
X56.268Y-57.16
X56.268Y-89.16
X57.03Y-11.444
X57.03Y-43.444
X57.03Y-75.444
X57.284Y-20.588
X57.284Y-52.588
X57.284Y-84.588
X61.856Y-13.095
X61.856Y-45.095
X61.856Y-77.095
X62.11Y-27.446
X62.11Y-59.446
X62.11Y-91.446
X63.126Y-14.365
X63.126Y-20.588
X63.126Y-46.365
X63.126Y-52.588
X63.126Y-78.365
X63.126Y-84.588
X63.38Y-7.634
X63.38Y-39.634
X63.38Y-71.634
X77.35Y-24.906
X77.35Y-56.906
X77.35Y-88.906
X79.128Y-11.825
X79.128Y-43.825
X79.128Y-75.825
X79.89Y-5.094
X79.89Y-18.175
X79.89Y-24.906
X79.89Y-37.094
X79.89Y-50.175
X79.89Y-56.906
X79.89Y-69.094
X79.89Y-82.175
X79.89Y-88.906
X80.652Y-19.064
X80.652Y-51.064
X80.652Y-83.064
X82.43Y-24.906
X82.43Y-56.906
X82.43Y-88.906
X83.7Y-7.634
X83.7Y-39.634
X83.7Y-71.634
X84.97Y-24.906
X84.97Y-56.906
X84.97Y-88.906
X86.494Y-20.588
X86.494Y-52.588
X86.494Y-84.588
X86.748Y-2.3
X86.748Y-7.634
X86.748Y-34.3
X86.748Y-39.634
X86.748Y-66.3
X86.748Y-71.634
X87.002Y-22.62
X87.002Y-54.62
X87.002Y-86.62
X88.526Y-7.634
X88.526Y-39.634
X88.526Y-71.634
T2
X67.19Y-36.84
X67.19Y-39.38
X67.19Y-41.92
X67.19Y-44.46
X74.81Y-36.84
X74.81Y-39.38
X74.81Y-41.92
X74.81Y-44.46
X25.19Y-68.84
X25.19Y-71.38
X25.19Y-73.92
X25.19Y-76.46
X32.81Y-68.84
X32.81Y-71.38
X32.81Y-73.92
X32.81Y-76.46
X25.19Y-17.54
X25.19Y-20.08
X25.19Y-22.62
X25.19Y-25.16
X32.81Y-17.54
X32.81Y-20.08
X32.81Y-22.62
X32.81Y-25.16
X25.19Y-36.84
X25.19Y-39.38
X25.19Y-41.92
X25.19Y-44.46
X32.81Y-36.84
X32.81Y-39.38
X32.81Y-41.92
X32.81Y-44.46
X67.19Y-17.54
X67.19Y-20.08
X67.19Y-22.62
X67.19Y-25.16
X74.81Y-17.54
X74.81Y-20.08
X74.81Y-22.62
X74.81Y-25.16
X67.19Y-4.84
X67.19Y-7.38
X67.19Y-9.92
X67.19Y-12.46
X74.81Y-4.84
X74.81Y-7.38
X74.81Y-9.92
X74.81Y-12.46
X25.19Y-4.84
X25.19Y-7.38
X25.19Y-9.92
X25.19Y-12.46
X32.81Y-4.84
X32.81Y-7.38
X32.81Y-9.92
X32.81Y-12.46
X67.19Y-68.84
X67.19Y-71.38
X67.19Y-73.92
X67.19Y-76.46
X74.81Y-68.84
X74.81Y-71.38
X74.81Y-73.92
X74.81Y-76.46
X25.19Y-81.54
X25.19Y-84.08
X25.19Y-86.62
X25.19Y-89.16
X32.81Y-81.54
X32.81Y-84.08
X32.81Y-86.62
X32.81Y-89.16
X67.19Y-81.54
X67.19Y-84.08
X67.19Y-86.62
X67.19Y-89.16
X74.81Y-81.54
X74.81Y-84.08
X74.81Y-86.62
X74.81Y-89.16
X67.19Y-49.54
X67.19Y-52.08
X67.19Y-54.62
X67.19Y-57.16
X74.81Y-49.54
X74.81Y-52.08
X74.81Y-54.62
X74.81Y-57.16
X25.19Y-49.54
X25.19Y-52.08
X25.19Y-54.62
X25.19Y-57.16
X32.81Y-49.54
X32.81Y-52.08
X32.81Y-54.62
X32.81Y-57.16
T0
M30
