%TF.GenerationSoftware,KiCad,Pcbnew,5.1.8*%
%TF.CreationDate,2020-11-15T21:37:53+00:00*%
%TF.ProjectId,rs232_isolator_panel,72733233-325f-4697-936f-6c61746f725f,rev?*%
%TF.SameCoordinates,PX1d905c0PY2625a00*%
%TF.FileFunction,Soldermask,Top*%
%TF.FilePolarity,Negative*%
%FSLAX46Y46*%
G04 Gerber Fmt 4.6, Leading zero omitted, Abs format (unit mm)*
G04 Created by KiCad (PCBNEW 5.1.8) date 2020-11-15 21:37:53*
%MOMM*%
%LPD*%
G01*
G04 APERTURE LIST*
%ADD10C,0.500000*%
%ADD11O,1.600000X1.600000*%
%ADD12R,1.600000X1.600000*%
%ADD13R,3.480000X1.846667*%
G04 APERTURE END LIST*
D10*
%TO.C,mouse-bite-2mm-slot*%
X91250000Y-37000000D03*
X92750000Y-37000000D03*
X91250000Y-36250000D03*
X91250000Y-37750000D03*
X92750000Y-37750000D03*
X92750000Y-36250000D03*
%TD*%
%TO.C,mouse-bite-2mm-slot*%
X49250000Y-37000000D03*
X50750000Y-37000000D03*
X49250000Y-36250000D03*
X49250000Y-37750000D03*
X50750000Y-37750000D03*
X50750000Y-36250000D03*
%TD*%
%TO.C,mouse-bite-2mm-slot*%
X7250000Y-37000000D03*
X8750000Y-37000000D03*
X7250000Y-36250000D03*
X7250000Y-37750000D03*
X8750000Y-37750000D03*
X8750000Y-36250000D03*
%TD*%
%TO.C,mouse-bite-2mm-slot*%
X91250000Y-69000000D03*
X92750000Y-69000000D03*
X91250000Y-68250000D03*
X91250000Y-69750000D03*
X92750000Y-69750000D03*
X92750000Y-68250000D03*
%TD*%
%TO.C,mouse-bite-2mm-slot*%
X49250000Y-69000000D03*
X50750000Y-69000000D03*
X49250000Y-68250000D03*
X49250000Y-69750000D03*
X50750000Y-69750000D03*
X50750000Y-68250000D03*
%TD*%
%TO.C,mouse-bite-2mm-slot*%
X7250000Y-69000000D03*
X8750000Y-69000000D03*
X7250000Y-68250000D03*
X7250000Y-69750000D03*
X8750000Y-69750000D03*
X8750000Y-68250000D03*
%TD*%
%TO.C,mouse-bite-2mm-slot*%
X7250000Y-5000000D03*
X8750000Y-5000000D03*
X7250000Y-4250000D03*
X7250000Y-5750000D03*
X8750000Y-5750000D03*
X8750000Y-4250000D03*
%TD*%
%TO.C,mouse-bite-2mm-slot*%
X8750000Y-56250000D03*
X8750000Y-57750000D03*
X7250000Y-57750000D03*
X7250000Y-56250000D03*
X8750000Y-57000000D03*
X7250000Y-57000000D03*
%TD*%
%TO.C,mouse-bite-2mm-slot*%
X56000000Y-63750000D03*
X56000000Y-62250000D03*
X55250000Y-63750000D03*
X56750000Y-63750000D03*
X56750000Y-62250000D03*
X55250000Y-62250000D03*
%TD*%
%TO.C,mouse-bite-2mm-slot*%
X14000000Y-63750000D03*
X14000000Y-62250000D03*
X13250000Y-63750000D03*
X14750000Y-63750000D03*
X14750000Y-62250000D03*
X13250000Y-62250000D03*
%TD*%
%TO.C,mouse-bite-2mm-slot*%
X44000000Y-63750000D03*
X44000000Y-62250000D03*
X43250000Y-63750000D03*
X44750000Y-63750000D03*
X44750000Y-62250000D03*
X43250000Y-62250000D03*
%TD*%
%TO.C,mouse-bite-2mm-slot*%
X49250000Y-57000000D03*
X50750000Y-57000000D03*
X49250000Y-56250000D03*
X49250000Y-57750000D03*
X50750000Y-57750000D03*
X50750000Y-56250000D03*
%TD*%
%TO.C,mouse-bite-2mm-slot*%
X49250000Y-89000000D03*
X50750000Y-89000000D03*
X49250000Y-88250000D03*
X49250000Y-89750000D03*
X50750000Y-89750000D03*
X50750000Y-88250000D03*
%TD*%
%TO.C,mouse-bite-2mm-slot*%
X8750000Y-24250000D03*
X8750000Y-25750000D03*
X7250000Y-25750000D03*
X7250000Y-24250000D03*
X8750000Y-25000000D03*
X7250000Y-25000000D03*
%TD*%
%TO.C,mouse-bite-2mm-slot*%
X43250000Y-30250000D03*
X44750000Y-30250000D03*
X44750000Y-31750000D03*
X43250000Y-31750000D03*
X44000000Y-30250000D03*
X44000000Y-31750000D03*
%TD*%
%TO.C,mouse-bite-2mm-slot*%
X91250000Y-89000000D03*
X92750000Y-89000000D03*
X91250000Y-88250000D03*
X91250000Y-89750000D03*
X92750000Y-89750000D03*
X92750000Y-88250000D03*
%TD*%
%TO.C,mouse-bite-2mm-slot*%
X91250000Y-25000000D03*
X92750000Y-25000000D03*
X91250000Y-24250000D03*
X91250000Y-25750000D03*
X92750000Y-25750000D03*
X92750000Y-24250000D03*
%TD*%
%TO.C,mouse-bite-2mm-slot*%
X91250000Y-57000000D03*
X92750000Y-57000000D03*
X91250000Y-56250000D03*
X91250000Y-57750000D03*
X92750000Y-57750000D03*
X92750000Y-56250000D03*
%TD*%
%TO.C,mouse-bite-2mm-slot*%
X92750000Y-4250000D03*
X92750000Y-5750000D03*
X91250000Y-5750000D03*
X91250000Y-4250000D03*
X92750000Y-5000000D03*
X91250000Y-5000000D03*
%TD*%
%TO.C,mouse-bite-2mm-slot*%
X55250000Y-30250000D03*
X56750000Y-30250000D03*
X56750000Y-31750000D03*
X55250000Y-31750000D03*
X56000000Y-30250000D03*
X56000000Y-31750000D03*
%TD*%
%TO.C,mouse-bite-2mm-slot*%
X49250000Y-25000000D03*
X50750000Y-25000000D03*
X49250000Y-24250000D03*
X49250000Y-25750000D03*
X50750000Y-25750000D03*
X50750000Y-24250000D03*
%TD*%
%TO.C,mouse-bite-2mm-slot*%
X8750000Y-88250000D03*
X8750000Y-89750000D03*
X7250000Y-89750000D03*
X7250000Y-88250000D03*
X8750000Y-89000000D03*
X7250000Y-89000000D03*
%TD*%
%TO.C,mouse-bite-2mm-slot*%
X85250000Y-30250000D03*
X86750000Y-30250000D03*
X86750000Y-31750000D03*
X85250000Y-31750000D03*
X86000000Y-30250000D03*
X86000000Y-31750000D03*
%TD*%
%TO.C,mouse-bite-2mm-slot*%
X50750000Y-4250000D03*
X50750000Y-5750000D03*
X49250000Y-5750000D03*
X49250000Y-4250000D03*
X50750000Y-5000000D03*
X49250000Y-5000000D03*
%TD*%
%TO.C,mouse-bite-2mm-slot*%
X13250000Y-30250000D03*
X14750000Y-30250000D03*
X14750000Y-31750000D03*
X13250000Y-31750000D03*
X14000000Y-30250000D03*
X14000000Y-31750000D03*
%TD*%
%TO.C,mouse-bite-2mm-slot*%
X86000000Y-63750000D03*
X86000000Y-62250000D03*
X85250000Y-63750000D03*
X86750000Y-63750000D03*
X86750000Y-62250000D03*
X85250000Y-62250000D03*
%TD*%
%TO.C,R1*%
G36*
G01*
X54890000Y-90880001D02*
X54890000Y-89979999D01*
G75*
G02*
X55139999Y-89730000I249999J0D01*
G01*
X55840001Y-89730000D01*
G75*
G02*
X56090000Y-89979999I0J-249999D01*
G01*
X56090000Y-90880001D01*
G75*
G02*
X55840001Y-91130000I-249999J0D01*
G01*
X55139999Y-91130000D01*
G75*
G02*
X54890000Y-90880001I0J249999D01*
G01*
G37*
G36*
G01*
X52890000Y-90880001D02*
X52890000Y-89979999D01*
G75*
G02*
X53139999Y-89730000I249999J0D01*
G01*
X53840001Y-89730000D01*
G75*
G02*
X54090000Y-89979999I0J-249999D01*
G01*
X54090000Y-90880001D01*
G75*
G02*
X53840001Y-91130000I-249999J0D01*
G01*
X53139999Y-91130000D01*
G75*
G02*
X52890000Y-90880001I0J249999D01*
G01*
G37*
%TD*%
%TO.C,R1*%
G36*
G01*
X12890000Y-90880001D02*
X12890000Y-89979999D01*
G75*
G02*
X13139999Y-89730000I249999J0D01*
G01*
X13840001Y-89730000D01*
G75*
G02*
X14090000Y-89979999I0J-249999D01*
G01*
X14090000Y-90880001D01*
G75*
G02*
X13840001Y-91130000I-249999J0D01*
G01*
X13139999Y-91130000D01*
G75*
G02*
X12890000Y-90880001I0J249999D01*
G01*
G37*
G36*
G01*
X10890000Y-90880001D02*
X10890000Y-89979999D01*
G75*
G02*
X11139999Y-89730000I249999J0D01*
G01*
X11840001Y-89730000D01*
G75*
G02*
X12090000Y-89979999I0J-249999D01*
G01*
X12090000Y-90880001D01*
G75*
G02*
X11840001Y-91130000I-249999J0D01*
G01*
X11139999Y-91130000D01*
G75*
G02*
X10890000Y-90880001I0J249999D01*
G01*
G37*
%TD*%
%TO.C,R1*%
G36*
G01*
X54890000Y-58880001D02*
X54890000Y-57979999D01*
G75*
G02*
X55139999Y-57730000I249999J0D01*
G01*
X55840001Y-57730000D01*
G75*
G02*
X56090000Y-57979999I0J-249999D01*
G01*
X56090000Y-58880001D01*
G75*
G02*
X55840001Y-59130000I-249999J0D01*
G01*
X55139999Y-59130000D01*
G75*
G02*
X54890000Y-58880001I0J249999D01*
G01*
G37*
G36*
G01*
X52890000Y-58880001D02*
X52890000Y-57979999D01*
G75*
G02*
X53139999Y-57730000I249999J0D01*
G01*
X53840001Y-57730000D01*
G75*
G02*
X54090000Y-57979999I0J-249999D01*
G01*
X54090000Y-58880001D01*
G75*
G02*
X53840001Y-59130000I-249999J0D01*
G01*
X53139999Y-59130000D01*
G75*
G02*
X52890000Y-58880001I0J249999D01*
G01*
G37*
%TD*%
%TO.C,R1*%
G36*
G01*
X12890000Y-58880001D02*
X12890000Y-57979999D01*
G75*
G02*
X13139999Y-57730000I249999J0D01*
G01*
X13840001Y-57730000D01*
G75*
G02*
X14090000Y-57979999I0J-249999D01*
G01*
X14090000Y-58880001D01*
G75*
G02*
X13840001Y-59130000I-249999J0D01*
G01*
X13139999Y-59130000D01*
G75*
G02*
X12890000Y-58880001I0J249999D01*
G01*
G37*
G36*
G01*
X10890000Y-58880001D02*
X10890000Y-57979999D01*
G75*
G02*
X11139999Y-57730000I249999J0D01*
G01*
X11840001Y-57730000D01*
G75*
G02*
X12090000Y-57979999I0J-249999D01*
G01*
X12090000Y-58880001D01*
G75*
G02*
X11840001Y-59130000I-249999J0D01*
G01*
X11139999Y-59130000D01*
G75*
G02*
X10890000Y-58880001I0J249999D01*
G01*
G37*
%TD*%
%TO.C,R1*%
G36*
G01*
X54890000Y-26880001D02*
X54890000Y-25979999D01*
G75*
G02*
X55139999Y-25730000I249999J0D01*
G01*
X55840001Y-25730000D01*
G75*
G02*
X56090000Y-25979999I0J-249999D01*
G01*
X56090000Y-26880001D01*
G75*
G02*
X55840001Y-27130000I-249999J0D01*
G01*
X55139999Y-27130000D01*
G75*
G02*
X54890000Y-26880001I0J249999D01*
G01*
G37*
G36*
G01*
X52890000Y-26880001D02*
X52890000Y-25979999D01*
G75*
G02*
X53139999Y-25730000I249999J0D01*
G01*
X53840001Y-25730000D01*
G75*
G02*
X54090000Y-25979999I0J-249999D01*
G01*
X54090000Y-26880001D01*
G75*
G02*
X53840001Y-27130000I-249999J0D01*
G01*
X53139999Y-27130000D01*
G75*
G02*
X52890000Y-26880001I0J249999D01*
G01*
G37*
%TD*%
%TO.C,C6*%
G36*
G01*
X65125000Y-69025000D02*
X64175000Y-69025000D01*
G75*
G02*
X63925000Y-68775000I0J250000D01*
G01*
X63925000Y-68100000D01*
G75*
G02*
X64175000Y-67850000I250000J0D01*
G01*
X65125000Y-67850000D01*
G75*
G02*
X65375000Y-68100000I0J-250000D01*
G01*
X65375000Y-68775000D01*
G75*
G02*
X65125000Y-69025000I-250000J0D01*
G01*
G37*
G36*
G01*
X65125000Y-71100000D02*
X64175000Y-71100000D01*
G75*
G02*
X63925000Y-70850000I0J250000D01*
G01*
X63925000Y-70175000D01*
G75*
G02*
X64175000Y-69925000I250000J0D01*
G01*
X65125000Y-69925000D01*
G75*
G02*
X65375000Y-70175000I0J-250000D01*
G01*
X65375000Y-70850000D01*
G75*
G02*
X65125000Y-71100000I-250000J0D01*
G01*
G37*
%TD*%
%TO.C,C6*%
G36*
G01*
X23125000Y-69025000D02*
X22175000Y-69025000D01*
G75*
G02*
X21925000Y-68775000I0J250000D01*
G01*
X21925000Y-68100000D01*
G75*
G02*
X22175000Y-67850000I250000J0D01*
G01*
X23125000Y-67850000D01*
G75*
G02*
X23375000Y-68100000I0J-250000D01*
G01*
X23375000Y-68775000D01*
G75*
G02*
X23125000Y-69025000I-250000J0D01*
G01*
G37*
G36*
G01*
X23125000Y-71100000D02*
X22175000Y-71100000D01*
G75*
G02*
X21925000Y-70850000I0J250000D01*
G01*
X21925000Y-70175000D01*
G75*
G02*
X22175000Y-69925000I250000J0D01*
G01*
X23125000Y-69925000D01*
G75*
G02*
X23375000Y-70175000I0J-250000D01*
G01*
X23375000Y-70850000D01*
G75*
G02*
X23125000Y-71100000I-250000J0D01*
G01*
G37*
%TD*%
%TO.C,C6*%
G36*
G01*
X65125000Y-37025000D02*
X64175000Y-37025000D01*
G75*
G02*
X63925000Y-36775000I0J250000D01*
G01*
X63925000Y-36100000D01*
G75*
G02*
X64175000Y-35850000I250000J0D01*
G01*
X65125000Y-35850000D01*
G75*
G02*
X65375000Y-36100000I0J-250000D01*
G01*
X65375000Y-36775000D01*
G75*
G02*
X65125000Y-37025000I-250000J0D01*
G01*
G37*
G36*
G01*
X65125000Y-39100000D02*
X64175000Y-39100000D01*
G75*
G02*
X63925000Y-38850000I0J250000D01*
G01*
X63925000Y-38175000D01*
G75*
G02*
X64175000Y-37925000I250000J0D01*
G01*
X65125000Y-37925000D01*
G75*
G02*
X65375000Y-38175000I0J-250000D01*
G01*
X65375000Y-38850000D01*
G75*
G02*
X65125000Y-39100000I-250000J0D01*
G01*
G37*
%TD*%
%TO.C,C6*%
G36*
G01*
X23125000Y-37025000D02*
X22175000Y-37025000D01*
G75*
G02*
X21925000Y-36775000I0J250000D01*
G01*
X21925000Y-36100000D01*
G75*
G02*
X22175000Y-35850000I250000J0D01*
G01*
X23125000Y-35850000D01*
G75*
G02*
X23375000Y-36100000I0J-250000D01*
G01*
X23375000Y-36775000D01*
G75*
G02*
X23125000Y-37025000I-250000J0D01*
G01*
G37*
G36*
G01*
X23125000Y-39100000D02*
X22175000Y-39100000D01*
G75*
G02*
X21925000Y-38850000I0J250000D01*
G01*
X21925000Y-38175000D01*
G75*
G02*
X22175000Y-37925000I250000J0D01*
G01*
X23125000Y-37925000D01*
G75*
G02*
X23375000Y-38175000I0J-250000D01*
G01*
X23375000Y-38850000D01*
G75*
G02*
X23125000Y-39100000I-250000J0D01*
G01*
G37*
%TD*%
%TO.C,C6*%
G36*
G01*
X65125000Y-5025000D02*
X64175000Y-5025000D01*
G75*
G02*
X63925000Y-4775000I0J250000D01*
G01*
X63925000Y-4100000D01*
G75*
G02*
X64175000Y-3850000I250000J0D01*
G01*
X65125000Y-3850000D01*
G75*
G02*
X65375000Y-4100000I0J-250000D01*
G01*
X65375000Y-4775000D01*
G75*
G02*
X65125000Y-5025000I-250000J0D01*
G01*
G37*
G36*
G01*
X65125000Y-7100000D02*
X64175000Y-7100000D01*
G75*
G02*
X63925000Y-6850000I0J250000D01*
G01*
X63925000Y-6175000D01*
G75*
G02*
X64175000Y-5925000I250000J0D01*
G01*
X65125000Y-5925000D01*
G75*
G02*
X65375000Y-6175000I0J-250000D01*
G01*
X65375000Y-6850000D01*
G75*
G02*
X65125000Y-7100000I-250000J0D01*
G01*
G37*
%TD*%
%TO.C,C1*%
G36*
G01*
X60045000Y-73470000D02*
X59095000Y-73470000D01*
G75*
G02*
X58845000Y-73220000I0J250000D01*
G01*
X58845000Y-72545000D01*
G75*
G02*
X59095000Y-72295000I250000J0D01*
G01*
X60045000Y-72295000D01*
G75*
G02*
X60295000Y-72545000I0J-250000D01*
G01*
X60295000Y-73220000D01*
G75*
G02*
X60045000Y-73470000I-250000J0D01*
G01*
G37*
G36*
G01*
X60045000Y-75545000D02*
X59095000Y-75545000D01*
G75*
G02*
X58845000Y-75295000I0J250000D01*
G01*
X58845000Y-74620000D01*
G75*
G02*
X59095000Y-74370000I250000J0D01*
G01*
X60045000Y-74370000D01*
G75*
G02*
X60295000Y-74620000I0J-250000D01*
G01*
X60295000Y-75295000D01*
G75*
G02*
X60045000Y-75545000I-250000J0D01*
G01*
G37*
%TD*%
%TO.C,C1*%
G36*
G01*
X18045000Y-73470000D02*
X17095000Y-73470000D01*
G75*
G02*
X16845000Y-73220000I0J250000D01*
G01*
X16845000Y-72545000D01*
G75*
G02*
X17095000Y-72295000I250000J0D01*
G01*
X18045000Y-72295000D01*
G75*
G02*
X18295000Y-72545000I0J-250000D01*
G01*
X18295000Y-73220000D01*
G75*
G02*
X18045000Y-73470000I-250000J0D01*
G01*
G37*
G36*
G01*
X18045000Y-75545000D02*
X17095000Y-75545000D01*
G75*
G02*
X16845000Y-75295000I0J250000D01*
G01*
X16845000Y-74620000D01*
G75*
G02*
X17095000Y-74370000I250000J0D01*
G01*
X18045000Y-74370000D01*
G75*
G02*
X18295000Y-74620000I0J-250000D01*
G01*
X18295000Y-75295000D01*
G75*
G02*
X18045000Y-75545000I-250000J0D01*
G01*
G37*
%TD*%
%TO.C,C1*%
G36*
G01*
X60045000Y-41470000D02*
X59095000Y-41470000D01*
G75*
G02*
X58845000Y-41220000I0J250000D01*
G01*
X58845000Y-40545000D01*
G75*
G02*
X59095000Y-40295000I250000J0D01*
G01*
X60045000Y-40295000D01*
G75*
G02*
X60295000Y-40545000I0J-250000D01*
G01*
X60295000Y-41220000D01*
G75*
G02*
X60045000Y-41470000I-250000J0D01*
G01*
G37*
G36*
G01*
X60045000Y-43545000D02*
X59095000Y-43545000D01*
G75*
G02*
X58845000Y-43295000I0J250000D01*
G01*
X58845000Y-42620000D01*
G75*
G02*
X59095000Y-42370000I250000J0D01*
G01*
X60045000Y-42370000D01*
G75*
G02*
X60295000Y-42620000I0J-250000D01*
G01*
X60295000Y-43295000D01*
G75*
G02*
X60045000Y-43545000I-250000J0D01*
G01*
G37*
%TD*%
%TO.C,C1*%
G36*
G01*
X18045000Y-41470000D02*
X17095000Y-41470000D01*
G75*
G02*
X16845000Y-41220000I0J250000D01*
G01*
X16845000Y-40545000D01*
G75*
G02*
X17095000Y-40295000I250000J0D01*
G01*
X18045000Y-40295000D01*
G75*
G02*
X18295000Y-40545000I0J-250000D01*
G01*
X18295000Y-41220000D01*
G75*
G02*
X18045000Y-41470000I-250000J0D01*
G01*
G37*
G36*
G01*
X18045000Y-43545000D02*
X17095000Y-43545000D01*
G75*
G02*
X16845000Y-43295000I0J250000D01*
G01*
X16845000Y-42620000D01*
G75*
G02*
X17095000Y-42370000I250000J0D01*
G01*
X18045000Y-42370000D01*
G75*
G02*
X18295000Y-42620000I0J-250000D01*
G01*
X18295000Y-43295000D01*
G75*
G02*
X18045000Y-43545000I-250000J0D01*
G01*
G37*
%TD*%
%TO.C,C1*%
G36*
G01*
X60045000Y-9470000D02*
X59095000Y-9470000D01*
G75*
G02*
X58845000Y-9220000I0J250000D01*
G01*
X58845000Y-8545000D01*
G75*
G02*
X59095000Y-8295000I250000J0D01*
G01*
X60045000Y-8295000D01*
G75*
G02*
X60295000Y-8545000I0J-250000D01*
G01*
X60295000Y-9220000D01*
G75*
G02*
X60045000Y-9470000I-250000J0D01*
G01*
G37*
G36*
G01*
X60045000Y-11545000D02*
X59095000Y-11545000D01*
G75*
G02*
X58845000Y-11295000I0J250000D01*
G01*
X58845000Y-10620000D01*
G75*
G02*
X59095000Y-10370000I250000J0D01*
G01*
X60045000Y-10370000D01*
G75*
G02*
X60295000Y-10620000I0J-250000D01*
G01*
X60295000Y-11295000D01*
G75*
G02*
X60045000Y-11545000I-250000J0D01*
G01*
G37*
%TD*%
%TO.C,R3*%
G36*
G01*
X54890000Y-88340001D02*
X54890000Y-87439999D01*
G75*
G02*
X55139999Y-87190000I249999J0D01*
G01*
X55840001Y-87190000D01*
G75*
G02*
X56090000Y-87439999I0J-249999D01*
G01*
X56090000Y-88340001D01*
G75*
G02*
X55840001Y-88590000I-249999J0D01*
G01*
X55139999Y-88590000D01*
G75*
G02*
X54890000Y-88340001I0J249999D01*
G01*
G37*
G36*
G01*
X52890000Y-88340001D02*
X52890000Y-87439999D01*
G75*
G02*
X53139999Y-87190000I249999J0D01*
G01*
X53840001Y-87190000D01*
G75*
G02*
X54090000Y-87439999I0J-249999D01*
G01*
X54090000Y-88340001D01*
G75*
G02*
X53840001Y-88590000I-249999J0D01*
G01*
X53139999Y-88590000D01*
G75*
G02*
X52890000Y-88340001I0J249999D01*
G01*
G37*
%TD*%
%TO.C,R3*%
G36*
G01*
X12890000Y-88340001D02*
X12890000Y-87439999D01*
G75*
G02*
X13139999Y-87190000I249999J0D01*
G01*
X13840001Y-87190000D01*
G75*
G02*
X14090000Y-87439999I0J-249999D01*
G01*
X14090000Y-88340001D01*
G75*
G02*
X13840001Y-88590000I-249999J0D01*
G01*
X13139999Y-88590000D01*
G75*
G02*
X12890000Y-88340001I0J249999D01*
G01*
G37*
G36*
G01*
X10890000Y-88340001D02*
X10890000Y-87439999D01*
G75*
G02*
X11139999Y-87190000I249999J0D01*
G01*
X11840001Y-87190000D01*
G75*
G02*
X12090000Y-87439999I0J-249999D01*
G01*
X12090000Y-88340001D01*
G75*
G02*
X11840001Y-88590000I-249999J0D01*
G01*
X11139999Y-88590000D01*
G75*
G02*
X10890000Y-88340001I0J249999D01*
G01*
G37*
%TD*%
%TO.C,R3*%
G36*
G01*
X54890000Y-56340001D02*
X54890000Y-55439999D01*
G75*
G02*
X55139999Y-55190000I249999J0D01*
G01*
X55840001Y-55190000D01*
G75*
G02*
X56090000Y-55439999I0J-249999D01*
G01*
X56090000Y-56340001D01*
G75*
G02*
X55840001Y-56590000I-249999J0D01*
G01*
X55139999Y-56590000D01*
G75*
G02*
X54890000Y-56340001I0J249999D01*
G01*
G37*
G36*
G01*
X52890000Y-56340001D02*
X52890000Y-55439999D01*
G75*
G02*
X53139999Y-55190000I249999J0D01*
G01*
X53840001Y-55190000D01*
G75*
G02*
X54090000Y-55439999I0J-249999D01*
G01*
X54090000Y-56340001D01*
G75*
G02*
X53840001Y-56590000I-249999J0D01*
G01*
X53139999Y-56590000D01*
G75*
G02*
X52890000Y-56340001I0J249999D01*
G01*
G37*
%TD*%
%TO.C,R3*%
G36*
G01*
X12890000Y-56340001D02*
X12890000Y-55439999D01*
G75*
G02*
X13139999Y-55190000I249999J0D01*
G01*
X13840001Y-55190000D01*
G75*
G02*
X14090000Y-55439999I0J-249999D01*
G01*
X14090000Y-56340001D01*
G75*
G02*
X13840001Y-56590000I-249999J0D01*
G01*
X13139999Y-56590000D01*
G75*
G02*
X12890000Y-56340001I0J249999D01*
G01*
G37*
G36*
G01*
X10890000Y-56340001D02*
X10890000Y-55439999D01*
G75*
G02*
X11139999Y-55190000I249999J0D01*
G01*
X11840001Y-55190000D01*
G75*
G02*
X12090000Y-55439999I0J-249999D01*
G01*
X12090000Y-56340001D01*
G75*
G02*
X11840001Y-56590000I-249999J0D01*
G01*
X11139999Y-56590000D01*
G75*
G02*
X10890000Y-56340001I0J249999D01*
G01*
G37*
%TD*%
%TO.C,R3*%
G36*
G01*
X54890000Y-24340001D02*
X54890000Y-23439999D01*
G75*
G02*
X55139999Y-23190000I249999J0D01*
G01*
X55840001Y-23190000D01*
G75*
G02*
X56090000Y-23439999I0J-249999D01*
G01*
X56090000Y-24340001D01*
G75*
G02*
X55840001Y-24590000I-249999J0D01*
G01*
X55139999Y-24590000D01*
G75*
G02*
X54890000Y-24340001I0J249999D01*
G01*
G37*
G36*
G01*
X52890000Y-24340001D02*
X52890000Y-23439999D01*
G75*
G02*
X53139999Y-23190000I249999J0D01*
G01*
X53840001Y-23190000D01*
G75*
G02*
X54090000Y-23439999I0J-249999D01*
G01*
X54090000Y-24340001D01*
G75*
G02*
X53840001Y-24590000I-249999J0D01*
G01*
X53139999Y-24590000D01*
G75*
G02*
X52890000Y-24340001I0J249999D01*
G01*
G37*
%TD*%
%TO.C,C8*%
G36*
G01*
X81955000Y-87070000D02*
X82905000Y-87070000D01*
G75*
G02*
X83155000Y-87320000I0J-250000D01*
G01*
X83155000Y-87995000D01*
G75*
G02*
X82905000Y-88245000I-250000J0D01*
G01*
X81955000Y-88245000D01*
G75*
G02*
X81705000Y-87995000I0J250000D01*
G01*
X81705000Y-87320000D01*
G75*
G02*
X81955000Y-87070000I250000J0D01*
G01*
G37*
G36*
G01*
X81955000Y-84995000D02*
X82905000Y-84995000D01*
G75*
G02*
X83155000Y-85245000I0J-250000D01*
G01*
X83155000Y-85920000D01*
G75*
G02*
X82905000Y-86170000I-250000J0D01*
G01*
X81955000Y-86170000D01*
G75*
G02*
X81705000Y-85920000I0J250000D01*
G01*
X81705000Y-85245000D01*
G75*
G02*
X81955000Y-84995000I250000J0D01*
G01*
G37*
%TD*%
%TO.C,C8*%
G36*
G01*
X39955000Y-87070000D02*
X40905000Y-87070000D01*
G75*
G02*
X41155000Y-87320000I0J-250000D01*
G01*
X41155000Y-87995000D01*
G75*
G02*
X40905000Y-88245000I-250000J0D01*
G01*
X39955000Y-88245000D01*
G75*
G02*
X39705000Y-87995000I0J250000D01*
G01*
X39705000Y-87320000D01*
G75*
G02*
X39955000Y-87070000I250000J0D01*
G01*
G37*
G36*
G01*
X39955000Y-84995000D02*
X40905000Y-84995000D01*
G75*
G02*
X41155000Y-85245000I0J-250000D01*
G01*
X41155000Y-85920000D01*
G75*
G02*
X40905000Y-86170000I-250000J0D01*
G01*
X39955000Y-86170000D01*
G75*
G02*
X39705000Y-85920000I0J250000D01*
G01*
X39705000Y-85245000D01*
G75*
G02*
X39955000Y-84995000I250000J0D01*
G01*
G37*
%TD*%
%TO.C,C8*%
G36*
G01*
X81955000Y-55070000D02*
X82905000Y-55070000D01*
G75*
G02*
X83155000Y-55320000I0J-250000D01*
G01*
X83155000Y-55995000D01*
G75*
G02*
X82905000Y-56245000I-250000J0D01*
G01*
X81955000Y-56245000D01*
G75*
G02*
X81705000Y-55995000I0J250000D01*
G01*
X81705000Y-55320000D01*
G75*
G02*
X81955000Y-55070000I250000J0D01*
G01*
G37*
G36*
G01*
X81955000Y-52995000D02*
X82905000Y-52995000D01*
G75*
G02*
X83155000Y-53245000I0J-250000D01*
G01*
X83155000Y-53920000D01*
G75*
G02*
X82905000Y-54170000I-250000J0D01*
G01*
X81955000Y-54170000D01*
G75*
G02*
X81705000Y-53920000I0J250000D01*
G01*
X81705000Y-53245000D01*
G75*
G02*
X81955000Y-52995000I250000J0D01*
G01*
G37*
%TD*%
%TO.C,C8*%
G36*
G01*
X39955000Y-55070000D02*
X40905000Y-55070000D01*
G75*
G02*
X41155000Y-55320000I0J-250000D01*
G01*
X41155000Y-55995000D01*
G75*
G02*
X40905000Y-56245000I-250000J0D01*
G01*
X39955000Y-56245000D01*
G75*
G02*
X39705000Y-55995000I0J250000D01*
G01*
X39705000Y-55320000D01*
G75*
G02*
X39955000Y-55070000I250000J0D01*
G01*
G37*
G36*
G01*
X39955000Y-52995000D02*
X40905000Y-52995000D01*
G75*
G02*
X41155000Y-53245000I0J-250000D01*
G01*
X41155000Y-53920000D01*
G75*
G02*
X40905000Y-54170000I-250000J0D01*
G01*
X39955000Y-54170000D01*
G75*
G02*
X39705000Y-53920000I0J250000D01*
G01*
X39705000Y-53245000D01*
G75*
G02*
X39955000Y-52995000I250000J0D01*
G01*
G37*
%TD*%
%TO.C,C8*%
G36*
G01*
X81955000Y-23070000D02*
X82905000Y-23070000D01*
G75*
G02*
X83155000Y-23320000I0J-250000D01*
G01*
X83155000Y-23995000D01*
G75*
G02*
X82905000Y-24245000I-250000J0D01*
G01*
X81955000Y-24245000D01*
G75*
G02*
X81705000Y-23995000I0J250000D01*
G01*
X81705000Y-23320000D01*
G75*
G02*
X81955000Y-23070000I250000J0D01*
G01*
G37*
G36*
G01*
X81955000Y-20995000D02*
X82905000Y-20995000D01*
G75*
G02*
X83155000Y-21245000I0J-250000D01*
G01*
X83155000Y-21920000D01*
G75*
G02*
X82905000Y-22170000I-250000J0D01*
G01*
X81955000Y-22170000D01*
G75*
G02*
X81705000Y-21920000I0J250000D01*
G01*
X81705000Y-21245000D01*
G75*
G02*
X81955000Y-20995000I250000J0D01*
G01*
G37*
%TD*%
D11*
%TO.C,U2*%
X74810000Y-81540000D03*
X67190000Y-89160000D03*
X74810000Y-84080000D03*
X67190000Y-86620000D03*
X74810000Y-86620000D03*
X67190000Y-84080000D03*
X74810000Y-89160000D03*
D12*
X67190000Y-81540000D03*
%TD*%
D11*
%TO.C,U2*%
X32810000Y-81540000D03*
X25190000Y-89160000D03*
X32810000Y-84080000D03*
X25190000Y-86620000D03*
X32810000Y-86620000D03*
X25190000Y-84080000D03*
X32810000Y-89160000D03*
D12*
X25190000Y-81540000D03*
%TD*%
D11*
%TO.C,U2*%
X74810000Y-49540000D03*
X67190000Y-57160000D03*
X74810000Y-52080000D03*
X67190000Y-54620000D03*
X74810000Y-54620000D03*
X67190000Y-52080000D03*
X74810000Y-57160000D03*
D12*
X67190000Y-49540000D03*
%TD*%
D11*
%TO.C,U2*%
X32810000Y-49540000D03*
X25190000Y-57160000D03*
X32810000Y-52080000D03*
X25190000Y-54620000D03*
X32810000Y-54620000D03*
X25190000Y-52080000D03*
X32810000Y-57160000D03*
D12*
X25190000Y-49540000D03*
%TD*%
D11*
%TO.C,U2*%
X74810000Y-17540000D03*
X67190000Y-25160000D03*
X74810000Y-20080000D03*
X67190000Y-22620000D03*
X74810000Y-22620000D03*
X67190000Y-20080000D03*
X74810000Y-25160000D03*
D12*
X67190000Y-17540000D03*
%TD*%
D13*
%TO.C,J2*%
X89000000Y-84540000D03*
X89000000Y-81770000D03*
X89000000Y-79000000D03*
X89000000Y-76230000D03*
X89000000Y-73460000D03*
%TD*%
%TO.C,J2*%
X47000000Y-84540000D03*
X47000000Y-81770000D03*
X47000000Y-79000000D03*
X47000000Y-76230000D03*
X47000000Y-73460000D03*
%TD*%
%TO.C,J2*%
X89000000Y-52540000D03*
X89000000Y-49770000D03*
X89000000Y-47000000D03*
X89000000Y-44230000D03*
X89000000Y-41460000D03*
%TD*%
%TO.C,J2*%
X47000000Y-52540000D03*
X47000000Y-49770000D03*
X47000000Y-47000000D03*
X47000000Y-44230000D03*
X47000000Y-41460000D03*
%TD*%
%TO.C,J2*%
X89000000Y-20540000D03*
X89000000Y-17770000D03*
X89000000Y-15000000D03*
X89000000Y-12230000D03*
X89000000Y-9460000D03*
%TD*%
%TO.C,R5*%
G36*
G01*
X64199999Y-89560000D02*
X65100001Y-89560000D01*
G75*
G02*
X65350000Y-89809999I0J-249999D01*
G01*
X65350000Y-90510001D01*
G75*
G02*
X65100001Y-90760000I-249999J0D01*
G01*
X64199999Y-90760000D01*
G75*
G02*
X63950000Y-90510001I0J249999D01*
G01*
X63950000Y-89809999D01*
G75*
G02*
X64199999Y-89560000I249999J0D01*
G01*
G37*
G36*
G01*
X64199999Y-87560000D02*
X65100001Y-87560000D01*
G75*
G02*
X65350000Y-87809999I0J-249999D01*
G01*
X65350000Y-88510001D01*
G75*
G02*
X65100001Y-88760000I-249999J0D01*
G01*
X64199999Y-88760000D01*
G75*
G02*
X63950000Y-88510001I0J249999D01*
G01*
X63950000Y-87809999D01*
G75*
G02*
X64199999Y-87560000I249999J0D01*
G01*
G37*
%TD*%
%TO.C,R5*%
G36*
G01*
X22199999Y-89560000D02*
X23100001Y-89560000D01*
G75*
G02*
X23350000Y-89809999I0J-249999D01*
G01*
X23350000Y-90510001D01*
G75*
G02*
X23100001Y-90760000I-249999J0D01*
G01*
X22199999Y-90760000D01*
G75*
G02*
X21950000Y-90510001I0J249999D01*
G01*
X21950000Y-89809999D01*
G75*
G02*
X22199999Y-89560000I249999J0D01*
G01*
G37*
G36*
G01*
X22199999Y-87560000D02*
X23100001Y-87560000D01*
G75*
G02*
X23350000Y-87809999I0J-249999D01*
G01*
X23350000Y-88510001D01*
G75*
G02*
X23100001Y-88760000I-249999J0D01*
G01*
X22199999Y-88760000D01*
G75*
G02*
X21950000Y-88510001I0J249999D01*
G01*
X21950000Y-87809999D01*
G75*
G02*
X22199999Y-87560000I249999J0D01*
G01*
G37*
%TD*%
%TO.C,R5*%
G36*
G01*
X64199999Y-57560000D02*
X65100001Y-57560000D01*
G75*
G02*
X65350000Y-57809999I0J-249999D01*
G01*
X65350000Y-58510001D01*
G75*
G02*
X65100001Y-58760000I-249999J0D01*
G01*
X64199999Y-58760000D01*
G75*
G02*
X63950000Y-58510001I0J249999D01*
G01*
X63950000Y-57809999D01*
G75*
G02*
X64199999Y-57560000I249999J0D01*
G01*
G37*
G36*
G01*
X64199999Y-55560000D02*
X65100001Y-55560000D01*
G75*
G02*
X65350000Y-55809999I0J-249999D01*
G01*
X65350000Y-56510001D01*
G75*
G02*
X65100001Y-56760000I-249999J0D01*
G01*
X64199999Y-56760000D01*
G75*
G02*
X63950000Y-56510001I0J249999D01*
G01*
X63950000Y-55809999D01*
G75*
G02*
X64199999Y-55560000I249999J0D01*
G01*
G37*
%TD*%
%TO.C,R5*%
G36*
G01*
X22199999Y-57560000D02*
X23100001Y-57560000D01*
G75*
G02*
X23350000Y-57809999I0J-249999D01*
G01*
X23350000Y-58510001D01*
G75*
G02*
X23100001Y-58760000I-249999J0D01*
G01*
X22199999Y-58760000D01*
G75*
G02*
X21950000Y-58510001I0J249999D01*
G01*
X21950000Y-57809999D01*
G75*
G02*
X22199999Y-57560000I249999J0D01*
G01*
G37*
G36*
G01*
X22199999Y-55560000D02*
X23100001Y-55560000D01*
G75*
G02*
X23350000Y-55809999I0J-249999D01*
G01*
X23350000Y-56510001D01*
G75*
G02*
X23100001Y-56760000I-249999J0D01*
G01*
X22199999Y-56760000D01*
G75*
G02*
X21950000Y-56510001I0J249999D01*
G01*
X21950000Y-55809999D01*
G75*
G02*
X22199999Y-55560000I249999J0D01*
G01*
G37*
%TD*%
%TO.C,R5*%
G36*
G01*
X64199999Y-25560000D02*
X65100001Y-25560000D01*
G75*
G02*
X65350000Y-25809999I0J-249999D01*
G01*
X65350000Y-26510001D01*
G75*
G02*
X65100001Y-26760000I-249999J0D01*
G01*
X64199999Y-26760000D01*
G75*
G02*
X63950000Y-26510001I0J249999D01*
G01*
X63950000Y-25809999D01*
G75*
G02*
X64199999Y-25560000I249999J0D01*
G01*
G37*
G36*
G01*
X64199999Y-23560000D02*
X65100001Y-23560000D01*
G75*
G02*
X65350000Y-23809999I0J-249999D01*
G01*
X65350000Y-24510001D01*
G75*
G02*
X65100001Y-24760000I-249999J0D01*
G01*
X64199999Y-24760000D01*
G75*
G02*
X63950000Y-24510001I0J249999D01*
G01*
X63950000Y-23809999D01*
G75*
G02*
X64199999Y-23560000I249999J0D01*
G01*
G37*
%TD*%
%TO.C,R4*%
G36*
G01*
X57900000Y-87439999D02*
X57900000Y-88340001D01*
G75*
G02*
X57650001Y-88590000I-249999J0D01*
G01*
X56949999Y-88590000D01*
G75*
G02*
X56700000Y-88340001I0J249999D01*
G01*
X56700000Y-87439999D01*
G75*
G02*
X56949999Y-87190000I249999J0D01*
G01*
X57650001Y-87190000D01*
G75*
G02*
X57900000Y-87439999I0J-249999D01*
G01*
G37*
G36*
G01*
X59900000Y-87439999D02*
X59900000Y-88340001D01*
G75*
G02*
X59650001Y-88590000I-249999J0D01*
G01*
X58949999Y-88590000D01*
G75*
G02*
X58700000Y-88340001I0J249999D01*
G01*
X58700000Y-87439999D01*
G75*
G02*
X58949999Y-87190000I249999J0D01*
G01*
X59650001Y-87190000D01*
G75*
G02*
X59900000Y-87439999I0J-249999D01*
G01*
G37*
%TD*%
%TO.C,R4*%
G36*
G01*
X15900000Y-87439999D02*
X15900000Y-88340001D01*
G75*
G02*
X15650001Y-88590000I-249999J0D01*
G01*
X14949999Y-88590000D01*
G75*
G02*
X14700000Y-88340001I0J249999D01*
G01*
X14700000Y-87439999D01*
G75*
G02*
X14949999Y-87190000I249999J0D01*
G01*
X15650001Y-87190000D01*
G75*
G02*
X15900000Y-87439999I0J-249999D01*
G01*
G37*
G36*
G01*
X17900000Y-87439999D02*
X17900000Y-88340001D01*
G75*
G02*
X17650001Y-88590000I-249999J0D01*
G01*
X16949999Y-88590000D01*
G75*
G02*
X16700000Y-88340001I0J249999D01*
G01*
X16700000Y-87439999D01*
G75*
G02*
X16949999Y-87190000I249999J0D01*
G01*
X17650001Y-87190000D01*
G75*
G02*
X17900000Y-87439999I0J-249999D01*
G01*
G37*
%TD*%
%TO.C,R4*%
G36*
G01*
X57900000Y-55439999D02*
X57900000Y-56340001D01*
G75*
G02*
X57650001Y-56590000I-249999J0D01*
G01*
X56949999Y-56590000D01*
G75*
G02*
X56700000Y-56340001I0J249999D01*
G01*
X56700000Y-55439999D01*
G75*
G02*
X56949999Y-55190000I249999J0D01*
G01*
X57650001Y-55190000D01*
G75*
G02*
X57900000Y-55439999I0J-249999D01*
G01*
G37*
G36*
G01*
X59900000Y-55439999D02*
X59900000Y-56340001D01*
G75*
G02*
X59650001Y-56590000I-249999J0D01*
G01*
X58949999Y-56590000D01*
G75*
G02*
X58700000Y-56340001I0J249999D01*
G01*
X58700000Y-55439999D01*
G75*
G02*
X58949999Y-55190000I249999J0D01*
G01*
X59650001Y-55190000D01*
G75*
G02*
X59900000Y-55439999I0J-249999D01*
G01*
G37*
%TD*%
%TO.C,R4*%
G36*
G01*
X15900000Y-55439999D02*
X15900000Y-56340001D01*
G75*
G02*
X15650001Y-56590000I-249999J0D01*
G01*
X14949999Y-56590000D01*
G75*
G02*
X14700000Y-56340001I0J249999D01*
G01*
X14700000Y-55439999D01*
G75*
G02*
X14949999Y-55190000I249999J0D01*
G01*
X15650001Y-55190000D01*
G75*
G02*
X15900000Y-55439999I0J-249999D01*
G01*
G37*
G36*
G01*
X17900000Y-55439999D02*
X17900000Y-56340001D01*
G75*
G02*
X17650001Y-56590000I-249999J0D01*
G01*
X16949999Y-56590000D01*
G75*
G02*
X16700000Y-56340001I0J249999D01*
G01*
X16700000Y-55439999D01*
G75*
G02*
X16949999Y-55190000I249999J0D01*
G01*
X17650001Y-55190000D01*
G75*
G02*
X17900000Y-55439999I0J-249999D01*
G01*
G37*
%TD*%
%TO.C,R4*%
G36*
G01*
X57900000Y-23439999D02*
X57900000Y-24340001D01*
G75*
G02*
X57650001Y-24590000I-249999J0D01*
G01*
X56949999Y-24590000D01*
G75*
G02*
X56700000Y-24340001I0J249999D01*
G01*
X56700000Y-23439999D01*
G75*
G02*
X56949999Y-23190000I249999J0D01*
G01*
X57650001Y-23190000D01*
G75*
G02*
X57900000Y-23439999I0J-249999D01*
G01*
G37*
G36*
G01*
X59900000Y-23439999D02*
X59900000Y-24340001D01*
G75*
G02*
X59650001Y-24590000I-249999J0D01*
G01*
X58949999Y-24590000D01*
G75*
G02*
X58700000Y-24340001I0J249999D01*
G01*
X58700000Y-23439999D01*
G75*
G02*
X58949999Y-23190000I249999J0D01*
G01*
X59650001Y-23190000D01*
G75*
G02*
X59900000Y-23439999I0J-249999D01*
G01*
G37*
%TD*%
D11*
%TO.C,U3*%
X67190000Y-76460000D03*
X74810000Y-68840000D03*
X67190000Y-73920000D03*
X74810000Y-71380000D03*
X67190000Y-71380000D03*
X74810000Y-73920000D03*
X67190000Y-68840000D03*
D12*
X74810000Y-76460000D03*
%TD*%
D11*
%TO.C,U3*%
X25190000Y-76460000D03*
X32810000Y-68840000D03*
X25190000Y-73920000D03*
X32810000Y-71380000D03*
X25190000Y-71380000D03*
X32810000Y-73920000D03*
X25190000Y-68840000D03*
D12*
X32810000Y-76460000D03*
%TD*%
D11*
%TO.C,U3*%
X67190000Y-44460000D03*
X74810000Y-36840000D03*
X67190000Y-41920000D03*
X74810000Y-39380000D03*
X67190000Y-39380000D03*
X74810000Y-41920000D03*
X67190000Y-36840000D03*
D12*
X74810000Y-44460000D03*
%TD*%
D11*
%TO.C,U3*%
X25190000Y-44460000D03*
X32810000Y-36840000D03*
X25190000Y-41920000D03*
X32810000Y-39380000D03*
X25190000Y-39380000D03*
X32810000Y-41920000D03*
X25190000Y-36840000D03*
D12*
X32810000Y-44460000D03*
%TD*%
D11*
%TO.C,U3*%
X67190000Y-12460000D03*
X74810000Y-4840000D03*
X67190000Y-9920000D03*
X74810000Y-7380000D03*
X67190000Y-7380000D03*
X74810000Y-9920000D03*
X67190000Y-4840000D03*
D12*
X74810000Y-12460000D03*
%TD*%
%TO.C,R12*%
G36*
G01*
X87110000Y-69659999D02*
X87110000Y-70560001D01*
G75*
G02*
X86860001Y-70810000I-249999J0D01*
G01*
X86159999Y-70810000D01*
G75*
G02*
X85910000Y-70560001I0J249999D01*
G01*
X85910000Y-69659999D01*
G75*
G02*
X86159999Y-69410000I249999J0D01*
G01*
X86860001Y-69410000D01*
G75*
G02*
X87110000Y-69659999I0J-249999D01*
G01*
G37*
G36*
G01*
X89110000Y-69659999D02*
X89110000Y-70560001D01*
G75*
G02*
X88860001Y-70810000I-249999J0D01*
G01*
X88159999Y-70810000D01*
G75*
G02*
X87910000Y-70560001I0J249999D01*
G01*
X87910000Y-69659999D01*
G75*
G02*
X88159999Y-69410000I249999J0D01*
G01*
X88860001Y-69410000D01*
G75*
G02*
X89110000Y-69659999I0J-249999D01*
G01*
G37*
%TD*%
%TO.C,R12*%
G36*
G01*
X45110000Y-69659999D02*
X45110000Y-70560001D01*
G75*
G02*
X44860001Y-70810000I-249999J0D01*
G01*
X44159999Y-70810000D01*
G75*
G02*
X43910000Y-70560001I0J249999D01*
G01*
X43910000Y-69659999D01*
G75*
G02*
X44159999Y-69410000I249999J0D01*
G01*
X44860001Y-69410000D01*
G75*
G02*
X45110000Y-69659999I0J-249999D01*
G01*
G37*
G36*
G01*
X47110000Y-69659999D02*
X47110000Y-70560001D01*
G75*
G02*
X46860001Y-70810000I-249999J0D01*
G01*
X46159999Y-70810000D01*
G75*
G02*
X45910000Y-70560001I0J249999D01*
G01*
X45910000Y-69659999D01*
G75*
G02*
X46159999Y-69410000I249999J0D01*
G01*
X46860001Y-69410000D01*
G75*
G02*
X47110000Y-69659999I0J-249999D01*
G01*
G37*
%TD*%
%TO.C,R12*%
G36*
G01*
X87110000Y-37659999D02*
X87110000Y-38560001D01*
G75*
G02*
X86860001Y-38810000I-249999J0D01*
G01*
X86159999Y-38810000D01*
G75*
G02*
X85910000Y-38560001I0J249999D01*
G01*
X85910000Y-37659999D01*
G75*
G02*
X86159999Y-37410000I249999J0D01*
G01*
X86860001Y-37410000D01*
G75*
G02*
X87110000Y-37659999I0J-249999D01*
G01*
G37*
G36*
G01*
X89110000Y-37659999D02*
X89110000Y-38560001D01*
G75*
G02*
X88860001Y-38810000I-249999J0D01*
G01*
X88159999Y-38810000D01*
G75*
G02*
X87910000Y-38560001I0J249999D01*
G01*
X87910000Y-37659999D01*
G75*
G02*
X88159999Y-37410000I249999J0D01*
G01*
X88860001Y-37410000D01*
G75*
G02*
X89110000Y-37659999I0J-249999D01*
G01*
G37*
%TD*%
%TO.C,R12*%
G36*
G01*
X45110000Y-37659999D02*
X45110000Y-38560001D01*
G75*
G02*
X44860001Y-38810000I-249999J0D01*
G01*
X44159999Y-38810000D01*
G75*
G02*
X43910000Y-38560001I0J249999D01*
G01*
X43910000Y-37659999D01*
G75*
G02*
X44159999Y-37410000I249999J0D01*
G01*
X44860001Y-37410000D01*
G75*
G02*
X45110000Y-37659999I0J-249999D01*
G01*
G37*
G36*
G01*
X47110000Y-37659999D02*
X47110000Y-38560001D01*
G75*
G02*
X46860001Y-38810000I-249999J0D01*
G01*
X46159999Y-38810000D01*
G75*
G02*
X45910000Y-38560001I0J249999D01*
G01*
X45910000Y-37659999D01*
G75*
G02*
X46159999Y-37410000I249999J0D01*
G01*
X46860001Y-37410000D01*
G75*
G02*
X47110000Y-37659999I0J-249999D01*
G01*
G37*
%TD*%
%TO.C,R12*%
G36*
G01*
X87110000Y-5659999D02*
X87110000Y-6560001D01*
G75*
G02*
X86860001Y-6810000I-249999J0D01*
G01*
X86159999Y-6810000D01*
G75*
G02*
X85910000Y-6560001I0J249999D01*
G01*
X85910000Y-5659999D01*
G75*
G02*
X86159999Y-5410000I249999J0D01*
G01*
X86860001Y-5410000D01*
G75*
G02*
X87110000Y-5659999I0J-249999D01*
G01*
G37*
G36*
G01*
X89110000Y-5659999D02*
X89110000Y-6560001D01*
G75*
G02*
X88860001Y-6810000I-249999J0D01*
G01*
X88159999Y-6810000D01*
G75*
G02*
X87910000Y-6560001I0J249999D01*
G01*
X87910000Y-5659999D01*
G75*
G02*
X88159999Y-5410000I249999J0D01*
G01*
X88860001Y-5410000D01*
G75*
G02*
X89110000Y-5659999I0J-249999D01*
G01*
G37*
%TD*%
%TO.C,R9*%
G36*
G01*
X84100000Y-68020001D02*
X84100000Y-67119999D01*
G75*
G02*
X84349999Y-66870000I249999J0D01*
G01*
X85050001Y-66870000D01*
G75*
G02*
X85300000Y-67119999I0J-249999D01*
G01*
X85300000Y-68020001D01*
G75*
G02*
X85050001Y-68270000I-249999J0D01*
G01*
X84349999Y-68270000D01*
G75*
G02*
X84100000Y-68020001I0J249999D01*
G01*
G37*
G36*
G01*
X82100000Y-68020001D02*
X82100000Y-67119999D01*
G75*
G02*
X82349999Y-66870000I249999J0D01*
G01*
X83050001Y-66870000D01*
G75*
G02*
X83300000Y-67119999I0J-249999D01*
G01*
X83300000Y-68020001D01*
G75*
G02*
X83050001Y-68270000I-249999J0D01*
G01*
X82349999Y-68270000D01*
G75*
G02*
X82100000Y-68020001I0J249999D01*
G01*
G37*
%TD*%
%TO.C,R9*%
G36*
G01*
X42100000Y-68020001D02*
X42100000Y-67119999D01*
G75*
G02*
X42349999Y-66870000I249999J0D01*
G01*
X43050001Y-66870000D01*
G75*
G02*
X43300000Y-67119999I0J-249999D01*
G01*
X43300000Y-68020001D01*
G75*
G02*
X43050001Y-68270000I-249999J0D01*
G01*
X42349999Y-68270000D01*
G75*
G02*
X42100000Y-68020001I0J249999D01*
G01*
G37*
G36*
G01*
X40100000Y-68020001D02*
X40100000Y-67119999D01*
G75*
G02*
X40349999Y-66870000I249999J0D01*
G01*
X41050001Y-66870000D01*
G75*
G02*
X41300000Y-67119999I0J-249999D01*
G01*
X41300000Y-68020001D01*
G75*
G02*
X41050001Y-68270000I-249999J0D01*
G01*
X40349999Y-68270000D01*
G75*
G02*
X40100000Y-68020001I0J249999D01*
G01*
G37*
%TD*%
%TO.C,R9*%
G36*
G01*
X84100000Y-36020001D02*
X84100000Y-35119999D01*
G75*
G02*
X84349999Y-34870000I249999J0D01*
G01*
X85050001Y-34870000D01*
G75*
G02*
X85300000Y-35119999I0J-249999D01*
G01*
X85300000Y-36020001D01*
G75*
G02*
X85050001Y-36270000I-249999J0D01*
G01*
X84349999Y-36270000D01*
G75*
G02*
X84100000Y-36020001I0J249999D01*
G01*
G37*
G36*
G01*
X82100000Y-36020001D02*
X82100000Y-35119999D01*
G75*
G02*
X82349999Y-34870000I249999J0D01*
G01*
X83050001Y-34870000D01*
G75*
G02*
X83300000Y-35119999I0J-249999D01*
G01*
X83300000Y-36020001D01*
G75*
G02*
X83050001Y-36270000I-249999J0D01*
G01*
X82349999Y-36270000D01*
G75*
G02*
X82100000Y-36020001I0J249999D01*
G01*
G37*
%TD*%
%TO.C,R9*%
G36*
G01*
X42100000Y-36020001D02*
X42100000Y-35119999D01*
G75*
G02*
X42349999Y-34870000I249999J0D01*
G01*
X43050001Y-34870000D01*
G75*
G02*
X43300000Y-35119999I0J-249999D01*
G01*
X43300000Y-36020001D01*
G75*
G02*
X43050001Y-36270000I-249999J0D01*
G01*
X42349999Y-36270000D01*
G75*
G02*
X42100000Y-36020001I0J249999D01*
G01*
G37*
G36*
G01*
X40100000Y-36020001D02*
X40100000Y-35119999D01*
G75*
G02*
X40349999Y-34870000I249999J0D01*
G01*
X41050001Y-34870000D01*
G75*
G02*
X41300000Y-35119999I0J-249999D01*
G01*
X41300000Y-36020001D01*
G75*
G02*
X41050001Y-36270000I-249999J0D01*
G01*
X40349999Y-36270000D01*
G75*
G02*
X40100000Y-36020001I0J249999D01*
G01*
G37*
%TD*%
%TO.C,R9*%
G36*
G01*
X84100000Y-4020001D02*
X84100000Y-3119999D01*
G75*
G02*
X84349999Y-2870000I249999J0D01*
G01*
X85050001Y-2870000D01*
G75*
G02*
X85300000Y-3119999I0J-249999D01*
G01*
X85300000Y-4020001D01*
G75*
G02*
X85050001Y-4270000I-249999J0D01*
G01*
X84349999Y-4270000D01*
G75*
G02*
X84100000Y-4020001I0J249999D01*
G01*
G37*
G36*
G01*
X82100000Y-4020001D02*
X82100000Y-3119999D01*
G75*
G02*
X82349999Y-2870000I249999J0D01*
G01*
X83050001Y-2870000D01*
G75*
G02*
X83300000Y-3119999I0J-249999D01*
G01*
X83300000Y-4020001D01*
G75*
G02*
X83050001Y-4270000I-249999J0D01*
G01*
X82349999Y-4270000D01*
G75*
G02*
X82100000Y-4020001I0J249999D01*
G01*
G37*
%TD*%
%TO.C,R11*%
G36*
G01*
X84100000Y-70560001D02*
X84100000Y-69659999D01*
G75*
G02*
X84349999Y-69410000I249999J0D01*
G01*
X85050001Y-69410000D01*
G75*
G02*
X85300000Y-69659999I0J-249999D01*
G01*
X85300000Y-70560001D01*
G75*
G02*
X85050001Y-70810000I-249999J0D01*
G01*
X84349999Y-70810000D01*
G75*
G02*
X84100000Y-70560001I0J249999D01*
G01*
G37*
G36*
G01*
X82100000Y-70560001D02*
X82100000Y-69659999D01*
G75*
G02*
X82349999Y-69410000I249999J0D01*
G01*
X83050001Y-69410000D01*
G75*
G02*
X83300000Y-69659999I0J-249999D01*
G01*
X83300000Y-70560001D01*
G75*
G02*
X83050001Y-70810000I-249999J0D01*
G01*
X82349999Y-70810000D01*
G75*
G02*
X82100000Y-70560001I0J249999D01*
G01*
G37*
%TD*%
%TO.C,R11*%
G36*
G01*
X42100000Y-70560001D02*
X42100000Y-69659999D01*
G75*
G02*
X42349999Y-69410000I249999J0D01*
G01*
X43050001Y-69410000D01*
G75*
G02*
X43300000Y-69659999I0J-249999D01*
G01*
X43300000Y-70560001D01*
G75*
G02*
X43050001Y-70810000I-249999J0D01*
G01*
X42349999Y-70810000D01*
G75*
G02*
X42100000Y-70560001I0J249999D01*
G01*
G37*
G36*
G01*
X40100000Y-70560001D02*
X40100000Y-69659999D01*
G75*
G02*
X40349999Y-69410000I249999J0D01*
G01*
X41050001Y-69410000D01*
G75*
G02*
X41300000Y-69659999I0J-249999D01*
G01*
X41300000Y-70560001D01*
G75*
G02*
X41050001Y-70810000I-249999J0D01*
G01*
X40349999Y-70810000D01*
G75*
G02*
X40100000Y-70560001I0J249999D01*
G01*
G37*
%TD*%
%TO.C,R11*%
G36*
G01*
X84100000Y-38560001D02*
X84100000Y-37659999D01*
G75*
G02*
X84349999Y-37410000I249999J0D01*
G01*
X85050001Y-37410000D01*
G75*
G02*
X85300000Y-37659999I0J-249999D01*
G01*
X85300000Y-38560001D01*
G75*
G02*
X85050001Y-38810000I-249999J0D01*
G01*
X84349999Y-38810000D01*
G75*
G02*
X84100000Y-38560001I0J249999D01*
G01*
G37*
G36*
G01*
X82100000Y-38560001D02*
X82100000Y-37659999D01*
G75*
G02*
X82349999Y-37410000I249999J0D01*
G01*
X83050001Y-37410000D01*
G75*
G02*
X83300000Y-37659999I0J-249999D01*
G01*
X83300000Y-38560001D01*
G75*
G02*
X83050001Y-38810000I-249999J0D01*
G01*
X82349999Y-38810000D01*
G75*
G02*
X82100000Y-38560001I0J249999D01*
G01*
G37*
%TD*%
%TO.C,R11*%
G36*
G01*
X42100000Y-38560001D02*
X42100000Y-37659999D01*
G75*
G02*
X42349999Y-37410000I249999J0D01*
G01*
X43050001Y-37410000D01*
G75*
G02*
X43300000Y-37659999I0J-249999D01*
G01*
X43300000Y-38560001D01*
G75*
G02*
X43050001Y-38810000I-249999J0D01*
G01*
X42349999Y-38810000D01*
G75*
G02*
X42100000Y-38560001I0J249999D01*
G01*
G37*
G36*
G01*
X40100000Y-38560001D02*
X40100000Y-37659999D01*
G75*
G02*
X40349999Y-37410000I249999J0D01*
G01*
X41050001Y-37410000D01*
G75*
G02*
X41300000Y-37659999I0J-249999D01*
G01*
X41300000Y-38560001D01*
G75*
G02*
X41050001Y-38810000I-249999J0D01*
G01*
X40349999Y-38810000D01*
G75*
G02*
X40100000Y-38560001I0J249999D01*
G01*
G37*
%TD*%
%TO.C,R11*%
G36*
G01*
X84100000Y-6560001D02*
X84100000Y-5659999D01*
G75*
G02*
X84349999Y-5410000I249999J0D01*
G01*
X85050001Y-5410000D01*
G75*
G02*
X85300000Y-5659999I0J-249999D01*
G01*
X85300000Y-6560001D01*
G75*
G02*
X85050001Y-6810000I-249999J0D01*
G01*
X84349999Y-6810000D01*
G75*
G02*
X84100000Y-6560001I0J249999D01*
G01*
G37*
G36*
G01*
X82100000Y-6560001D02*
X82100000Y-5659999D01*
G75*
G02*
X82349999Y-5410000I249999J0D01*
G01*
X83050001Y-5410000D01*
G75*
G02*
X83300000Y-5659999I0J-249999D01*
G01*
X83300000Y-6560001D01*
G75*
G02*
X83050001Y-6810000I-249999J0D01*
G01*
X82349999Y-6810000D01*
G75*
G02*
X82100000Y-6560001I0J249999D01*
G01*
G37*
%TD*%
%TO.C,R7*%
G36*
G01*
X84519999Y-87020000D02*
X85420001Y-87020000D01*
G75*
G02*
X85670000Y-87269999I0J-249999D01*
G01*
X85670000Y-87970001D01*
G75*
G02*
X85420001Y-88220000I-249999J0D01*
G01*
X84519999Y-88220000D01*
G75*
G02*
X84270000Y-87970001I0J249999D01*
G01*
X84270000Y-87269999D01*
G75*
G02*
X84519999Y-87020000I249999J0D01*
G01*
G37*
G36*
G01*
X84519999Y-85020000D02*
X85420001Y-85020000D01*
G75*
G02*
X85670000Y-85269999I0J-249999D01*
G01*
X85670000Y-85970001D01*
G75*
G02*
X85420001Y-86220000I-249999J0D01*
G01*
X84519999Y-86220000D01*
G75*
G02*
X84270000Y-85970001I0J249999D01*
G01*
X84270000Y-85269999D01*
G75*
G02*
X84519999Y-85020000I249999J0D01*
G01*
G37*
%TD*%
%TO.C,R7*%
G36*
G01*
X42519999Y-87020000D02*
X43420001Y-87020000D01*
G75*
G02*
X43670000Y-87269999I0J-249999D01*
G01*
X43670000Y-87970001D01*
G75*
G02*
X43420001Y-88220000I-249999J0D01*
G01*
X42519999Y-88220000D01*
G75*
G02*
X42270000Y-87970001I0J249999D01*
G01*
X42270000Y-87269999D01*
G75*
G02*
X42519999Y-87020000I249999J0D01*
G01*
G37*
G36*
G01*
X42519999Y-85020000D02*
X43420001Y-85020000D01*
G75*
G02*
X43670000Y-85269999I0J-249999D01*
G01*
X43670000Y-85970001D01*
G75*
G02*
X43420001Y-86220000I-249999J0D01*
G01*
X42519999Y-86220000D01*
G75*
G02*
X42270000Y-85970001I0J249999D01*
G01*
X42270000Y-85269999D01*
G75*
G02*
X42519999Y-85020000I249999J0D01*
G01*
G37*
%TD*%
%TO.C,R7*%
G36*
G01*
X84519999Y-55020000D02*
X85420001Y-55020000D01*
G75*
G02*
X85670000Y-55269999I0J-249999D01*
G01*
X85670000Y-55970001D01*
G75*
G02*
X85420001Y-56220000I-249999J0D01*
G01*
X84519999Y-56220000D01*
G75*
G02*
X84270000Y-55970001I0J249999D01*
G01*
X84270000Y-55269999D01*
G75*
G02*
X84519999Y-55020000I249999J0D01*
G01*
G37*
G36*
G01*
X84519999Y-53020000D02*
X85420001Y-53020000D01*
G75*
G02*
X85670000Y-53269999I0J-249999D01*
G01*
X85670000Y-53970001D01*
G75*
G02*
X85420001Y-54220000I-249999J0D01*
G01*
X84519999Y-54220000D01*
G75*
G02*
X84270000Y-53970001I0J249999D01*
G01*
X84270000Y-53269999D01*
G75*
G02*
X84519999Y-53020000I249999J0D01*
G01*
G37*
%TD*%
%TO.C,R7*%
G36*
G01*
X42519999Y-55020000D02*
X43420001Y-55020000D01*
G75*
G02*
X43670000Y-55269999I0J-249999D01*
G01*
X43670000Y-55970001D01*
G75*
G02*
X43420001Y-56220000I-249999J0D01*
G01*
X42519999Y-56220000D01*
G75*
G02*
X42270000Y-55970001I0J249999D01*
G01*
X42270000Y-55269999D01*
G75*
G02*
X42519999Y-55020000I249999J0D01*
G01*
G37*
G36*
G01*
X42519999Y-53020000D02*
X43420001Y-53020000D01*
G75*
G02*
X43670000Y-53269999I0J-249999D01*
G01*
X43670000Y-53970001D01*
G75*
G02*
X43420001Y-54220000I-249999J0D01*
G01*
X42519999Y-54220000D01*
G75*
G02*
X42270000Y-53970001I0J249999D01*
G01*
X42270000Y-53269999D01*
G75*
G02*
X42519999Y-53020000I249999J0D01*
G01*
G37*
%TD*%
%TO.C,R7*%
G36*
G01*
X84519999Y-23020000D02*
X85420001Y-23020000D01*
G75*
G02*
X85670000Y-23269999I0J-249999D01*
G01*
X85670000Y-23970001D01*
G75*
G02*
X85420001Y-24220000I-249999J0D01*
G01*
X84519999Y-24220000D01*
G75*
G02*
X84270000Y-23970001I0J249999D01*
G01*
X84270000Y-23269999D01*
G75*
G02*
X84519999Y-23020000I249999J0D01*
G01*
G37*
G36*
G01*
X84519999Y-21020000D02*
X85420001Y-21020000D01*
G75*
G02*
X85670000Y-21269999I0J-249999D01*
G01*
X85670000Y-21970001D01*
G75*
G02*
X85420001Y-22220000I-249999J0D01*
G01*
X84519999Y-22220000D01*
G75*
G02*
X84270000Y-21970001I0J249999D01*
G01*
X84270000Y-21269999D01*
G75*
G02*
X84519999Y-21020000I249999J0D01*
G01*
G37*
%TD*%
%TO.C,C11*%
G36*
G01*
X85445000Y-78550000D02*
X84495000Y-78550000D01*
G75*
G02*
X84245000Y-78300000I0J250000D01*
G01*
X84245000Y-77625000D01*
G75*
G02*
X84495000Y-77375000I250000J0D01*
G01*
X85445000Y-77375000D01*
G75*
G02*
X85695000Y-77625000I0J-250000D01*
G01*
X85695000Y-78300000D01*
G75*
G02*
X85445000Y-78550000I-250000J0D01*
G01*
G37*
G36*
G01*
X85445000Y-80625000D02*
X84495000Y-80625000D01*
G75*
G02*
X84245000Y-80375000I0J250000D01*
G01*
X84245000Y-79700000D01*
G75*
G02*
X84495000Y-79450000I250000J0D01*
G01*
X85445000Y-79450000D01*
G75*
G02*
X85695000Y-79700000I0J-250000D01*
G01*
X85695000Y-80375000D01*
G75*
G02*
X85445000Y-80625000I-250000J0D01*
G01*
G37*
%TD*%
%TO.C,C11*%
G36*
G01*
X43445000Y-78550000D02*
X42495000Y-78550000D01*
G75*
G02*
X42245000Y-78300000I0J250000D01*
G01*
X42245000Y-77625000D01*
G75*
G02*
X42495000Y-77375000I250000J0D01*
G01*
X43445000Y-77375000D01*
G75*
G02*
X43695000Y-77625000I0J-250000D01*
G01*
X43695000Y-78300000D01*
G75*
G02*
X43445000Y-78550000I-250000J0D01*
G01*
G37*
G36*
G01*
X43445000Y-80625000D02*
X42495000Y-80625000D01*
G75*
G02*
X42245000Y-80375000I0J250000D01*
G01*
X42245000Y-79700000D01*
G75*
G02*
X42495000Y-79450000I250000J0D01*
G01*
X43445000Y-79450000D01*
G75*
G02*
X43695000Y-79700000I0J-250000D01*
G01*
X43695000Y-80375000D01*
G75*
G02*
X43445000Y-80625000I-250000J0D01*
G01*
G37*
%TD*%
%TO.C,C11*%
G36*
G01*
X85445000Y-46550000D02*
X84495000Y-46550000D01*
G75*
G02*
X84245000Y-46300000I0J250000D01*
G01*
X84245000Y-45625000D01*
G75*
G02*
X84495000Y-45375000I250000J0D01*
G01*
X85445000Y-45375000D01*
G75*
G02*
X85695000Y-45625000I0J-250000D01*
G01*
X85695000Y-46300000D01*
G75*
G02*
X85445000Y-46550000I-250000J0D01*
G01*
G37*
G36*
G01*
X85445000Y-48625000D02*
X84495000Y-48625000D01*
G75*
G02*
X84245000Y-48375000I0J250000D01*
G01*
X84245000Y-47700000D01*
G75*
G02*
X84495000Y-47450000I250000J0D01*
G01*
X85445000Y-47450000D01*
G75*
G02*
X85695000Y-47700000I0J-250000D01*
G01*
X85695000Y-48375000D01*
G75*
G02*
X85445000Y-48625000I-250000J0D01*
G01*
G37*
%TD*%
%TO.C,C11*%
G36*
G01*
X43445000Y-46550000D02*
X42495000Y-46550000D01*
G75*
G02*
X42245000Y-46300000I0J250000D01*
G01*
X42245000Y-45625000D01*
G75*
G02*
X42495000Y-45375000I250000J0D01*
G01*
X43445000Y-45375000D01*
G75*
G02*
X43695000Y-45625000I0J-250000D01*
G01*
X43695000Y-46300000D01*
G75*
G02*
X43445000Y-46550000I-250000J0D01*
G01*
G37*
G36*
G01*
X43445000Y-48625000D02*
X42495000Y-48625000D01*
G75*
G02*
X42245000Y-48375000I0J250000D01*
G01*
X42245000Y-47700000D01*
G75*
G02*
X42495000Y-47450000I250000J0D01*
G01*
X43445000Y-47450000D01*
G75*
G02*
X43695000Y-47700000I0J-250000D01*
G01*
X43695000Y-48375000D01*
G75*
G02*
X43445000Y-48625000I-250000J0D01*
G01*
G37*
%TD*%
%TO.C,C11*%
G36*
G01*
X85445000Y-14550000D02*
X84495000Y-14550000D01*
G75*
G02*
X84245000Y-14300000I0J250000D01*
G01*
X84245000Y-13625000D01*
G75*
G02*
X84495000Y-13375000I250000J0D01*
G01*
X85445000Y-13375000D01*
G75*
G02*
X85695000Y-13625000I0J-250000D01*
G01*
X85695000Y-14300000D01*
G75*
G02*
X85445000Y-14550000I-250000J0D01*
G01*
G37*
G36*
G01*
X85445000Y-16625000D02*
X84495000Y-16625000D01*
G75*
G02*
X84245000Y-16375000I0J250000D01*
G01*
X84245000Y-15700000D01*
G75*
G02*
X84495000Y-15450000I250000J0D01*
G01*
X85445000Y-15450000D01*
G75*
G02*
X85695000Y-15700000I0J-250000D01*
G01*
X85695000Y-16375000D01*
G75*
G02*
X85445000Y-16625000I-250000J0D01*
G01*
G37*
%TD*%
%TO.C,C7*%
G36*
G01*
X76875000Y-87070000D02*
X77825000Y-87070000D01*
G75*
G02*
X78075000Y-87320000I0J-250000D01*
G01*
X78075000Y-87995000D01*
G75*
G02*
X77825000Y-88245000I-250000J0D01*
G01*
X76875000Y-88245000D01*
G75*
G02*
X76625000Y-87995000I0J250000D01*
G01*
X76625000Y-87320000D01*
G75*
G02*
X76875000Y-87070000I250000J0D01*
G01*
G37*
G36*
G01*
X76875000Y-84995000D02*
X77825000Y-84995000D01*
G75*
G02*
X78075000Y-85245000I0J-250000D01*
G01*
X78075000Y-85920000D01*
G75*
G02*
X77825000Y-86170000I-250000J0D01*
G01*
X76875000Y-86170000D01*
G75*
G02*
X76625000Y-85920000I0J250000D01*
G01*
X76625000Y-85245000D01*
G75*
G02*
X76875000Y-84995000I250000J0D01*
G01*
G37*
%TD*%
%TO.C,C7*%
G36*
G01*
X34875000Y-87070000D02*
X35825000Y-87070000D01*
G75*
G02*
X36075000Y-87320000I0J-250000D01*
G01*
X36075000Y-87995000D01*
G75*
G02*
X35825000Y-88245000I-250000J0D01*
G01*
X34875000Y-88245000D01*
G75*
G02*
X34625000Y-87995000I0J250000D01*
G01*
X34625000Y-87320000D01*
G75*
G02*
X34875000Y-87070000I250000J0D01*
G01*
G37*
G36*
G01*
X34875000Y-84995000D02*
X35825000Y-84995000D01*
G75*
G02*
X36075000Y-85245000I0J-250000D01*
G01*
X36075000Y-85920000D01*
G75*
G02*
X35825000Y-86170000I-250000J0D01*
G01*
X34875000Y-86170000D01*
G75*
G02*
X34625000Y-85920000I0J250000D01*
G01*
X34625000Y-85245000D01*
G75*
G02*
X34875000Y-84995000I250000J0D01*
G01*
G37*
%TD*%
%TO.C,C7*%
G36*
G01*
X76875000Y-55070000D02*
X77825000Y-55070000D01*
G75*
G02*
X78075000Y-55320000I0J-250000D01*
G01*
X78075000Y-55995000D01*
G75*
G02*
X77825000Y-56245000I-250000J0D01*
G01*
X76875000Y-56245000D01*
G75*
G02*
X76625000Y-55995000I0J250000D01*
G01*
X76625000Y-55320000D01*
G75*
G02*
X76875000Y-55070000I250000J0D01*
G01*
G37*
G36*
G01*
X76875000Y-52995000D02*
X77825000Y-52995000D01*
G75*
G02*
X78075000Y-53245000I0J-250000D01*
G01*
X78075000Y-53920000D01*
G75*
G02*
X77825000Y-54170000I-250000J0D01*
G01*
X76875000Y-54170000D01*
G75*
G02*
X76625000Y-53920000I0J250000D01*
G01*
X76625000Y-53245000D01*
G75*
G02*
X76875000Y-52995000I250000J0D01*
G01*
G37*
%TD*%
%TO.C,C7*%
G36*
G01*
X34875000Y-55070000D02*
X35825000Y-55070000D01*
G75*
G02*
X36075000Y-55320000I0J-250000D01*
G01*
X36075000Y-55995000D01*
G75*
G02*
X35825000Y-56245000I-250000J0D01*
G01*
X34875000Y-56245000D01*
G75*
G02*
X34625000Y-55995000I0J250000D01*
G01*
X34625000Y-55320000D01*
G75*
G02*
X34875000Y-55070000I250000J0D01*
G01*
G37*
G36*
G01*
X34875000Y-52995000D02*
X35825000Y-52995000D01*
G75*
G02*
X36075000Y-53245000I0J-250000D01*
G01*
X36075000Y-53920000D01*
G75*
G02*
X35825000Y-54170000I-250000J0D01*
G01*
X34875000Y-54170000D01*
G75*
G02*
X34625000Y-53920000I0J250000D01*
G01*
X34625000Y-53245000D01*
G75*
G02*
X34875000Y-52995000I250000J0D01*
G01*
G37*
%TD*%
%TO.C,C7*%
G36*
G01*
X76875000Y-23070000D02*
X77825000Y-23070000D01*
G75*
G02*
X78075000Y-23320000I0J-250000D01*
G01*
X78075000Y-23995000D01*
G75*
G02*
X77825000Y-24245000I-250000J0D01*
G01*
X76875000Y-24245000D01*
G75*
G02*
X76625000Y-23995000I0J250000D01*
G01*
X76625000Y-23320000D01*
G75*
G02*
X76875000Y-23070000I250000J0D01*
G01*
G37*
G36*
G01*
X76875000Y-20995000D02*
X77825000Y-20995000D01*
G75*
G02*
X78075000Y-21245000I0J-250000D01*
G01*
X78075000Y-21920000D01*
G75*
G02*
X77825000Y-22170000I-250000J0D01*
G01*
X76875000Y-22170000D01*
G75*
G02*
X76625000Y-21920000I0J250000D01*
G01*
X76625000Y-21245000D01*
G75*
G02*
X76875000Y-20995000I250000J0D01*
G01*
G37*
%TD*%
D13*
%TO.C,J1*%
X53000000Y-84540000D03*
X53000000Y-81770000D03*
X53000000Y-79000000D03*
X53000000Y-76230000D03*
X53000000Y-73460000D03*
%TD*%
%TO.C,J1*%
X11000000Y-84540000D03*
X11000000Y-81770000D03*
X11000000Y-79000000D03*
X11000000Y-76230000D03*
X11000000Y-73460000D03*
%TD*%
%TO.C,J1*%
X53000000Y-52540000D03*
X53000000Y-49770000D03*
X53000000Y-47000000D03*
X53000000Y-44230000D03*
X53000000Y-41460000D03*
%TD*%
%TO.C,J1*%
X11000000Y-52540000D03*
X11000000Y-49770000D03*
X11000000Y-47000000D03*
X11000000Y-44230000D03*
X11000000Y-41460000D03*
%TD*%
%TO.C,J1*%
X53000000Y-20540000D03*
X53000000Y-17770000D03*
X53000000Y-15000000D03*
X53000000Y-12230000D03*
X53000000Y-9460000D03*
%TD*%
%TO.C,U1*%
G36*
G01*
X63610000Y-77245000D02*
X63610000Y-76945000D01*
G75*
G02*
X63760000Y-76795000I150000J0D01*
G01*
X65410000Y-76795000D01*
G75*
G02*
X65560000Y-76945000I0J-150000D01*
G01*
X65560000Y-77245000D01*
G75*
G02*
X65410000Y-77395000I-150000J0D01*
G01*
X63760000Y-77395000D01*
G75*
G02*
X63610000Y-77245000I0J150000D01*
G01*
G37*
G36*
G01*
X63610000Y-78515000D02*
X63610000Y-78215000D01*
G75*
G02*
X63760000Y-78065000I150000J0D01*
G01*
X65410000Y-78065000D01*
G75*
G02*
X65560000Y-78215000I0J-150000D01*
G01*
X65560000Y-78515000D01*
G75*
G02*
X65410000Y-78665000I-150000J0D01*
G01*
X63760000Y-78665000D01*
G75*
G02*
X63610000Y-78515000I0J150000D01*
G01*
G37*
G36*
G01*
X63610000Y-79785000D02*
X63610000Y-79485000D01*
G75*
G02*
X63760000Y-79335000I150000J0D01*
G01*
X65410000Y-79335000D01*
G75*
G02*
X65560000Y-79485000I0J-150000D01*
G01*
X65560000Y-79785000D01*
G75*
G02*
X65410000Y-79935000I-150000J0D01*
G01*
X63760000Y-79935000D01*
G75*
G02*
X63610000Y-79785000I0J150000D01*
G01*
G37*
G36*
G01*
X63610000Y-81055000D02*
X63610000Y-80755000D01*
G75*
G02*
X63760000Y-80605000I150000J0D01*
G01*
X65410000Y-80605000D01*
G75*
G02*
X65560000Y-80755000I0J-150000D01*
G01*
X65560000Y-81055000D01*
G75*
G02*
X65410000Y-81205000I-150000J0D01*
G01*
X63760000Y-81205000D01*
G75*
G02*
X63610000Y-81055000I0J150000D01*
G01*
G37*
G36*
G01*
X63610000Y-82325000D02*
X63610000Y-82025000D01*
G75*
G02*
X63760000Y-81875000I150000J0D01*
G01*
X65410000Y-81875000D01*
G75*
G02*
X65560000Y-82025000I0J-150000D01*
G01*
X65560000Y-82325000D01*
G75*
G02*
X65410000Y-82475000I-150000J0D01*
G01*
X63760000Y-82475000D01*
G75*
G02*
X63610000Y-82325000I0J150000D01*
G01*
G37*
G36*
G01*
X63610000Y-83595000D02*
X63610000Y-83295000D01*
G75*
G02*
X63760000Y-83145000I150000J0D01*
G01*
X65410000Y-83145000D01*
G75*
G02*
X65560000Y-83295000I0J-150000D01*
G01*
X65560000Y-83595000D01*
G75*
G02*
X65410000Y-83745000I-150000J0D01*
G01*
X63760000Y-83745000D01*
G75*
G02*
X63610000Y-83595000I0J150000D01*
G01*
G37*
G36*
G01*
X63610000Y-84865000D02*
X63610000Y-84565000D01*
G75*
G02*
X63760000Y-84415000I150000J0D01*
G01*
X65410000Y-84415000D01*
G75*
G02*
X65560000Y-84565000I0J-150000D01*
G01*
X65560000Y-84865000D01*
G75*
G02*
X65410000Y-85015000I-150000J0D01*
G01*
X63760000Y-85015000D01*
G75*
G02*
X63610000Y-84865000I0J150000D01*
G01*
G37*
G36*
G01*
X63610000Y-86135000D02*
X63610000Y-85835000D01*
G75*
G02*
X63760000Y-85685000I150000J0D01*
G01*
X65410000Y-85685000D01*
G75*
G02*
X65560000Y-85835000I0J-150000D01*
G01*
X65560000Y-86135000D01*
G75*
G02*
X65410000Y-86285000I-150000J0D01*
G01*
X63760000Y-86285000D01*
G75*
G02*
X63610000Y-86135000I0J150000D01*
G01*
G37*
G36*
G01*
X58660000Y-86135000D02*
X58660000Y-85835000D01*
G75*
G02*
X58810000Y-85685000I150000J0D01*
G01*
X60460000Y-85685000D01*
G75*
G02*
X60610000Y-85835000I0J-150000D01*
G01*
X60610000Y-86135000D01*
G75*
G02*
X60460000Y-86285000I-150000J0D01*
G01*
X58810000Y-86285000D01*
G75*
G02*
X58660000Y-86135000I0J150000D01*
G01*
G37*
G36*
G01*
X58660000Y-84865000D02*
X58660000Y-84565000D01*
G75*
G02*
X58810000Y-84415000I150000J0D01*
G01*
X60460000Y-84415000D01*
G75*
G02*
X60610000Y-84565000I0J-150000D01*
G01*
X60610000Y-84865000D01*
G75*
G02*
X60460000Y-85015000I-150000J0D01*
G01*
X58810000Y-85015000D01*
G75*
G02*
X58660000Y-84865000I0J150000D01*
G01*
G37*
G36*
G01*
X58660000Y-83595000D02*
X58660000Y-83295000D01*
G75*
G02*
X58810000Y-83145000I150000J0D01*
G01*
X60460000Y-83145000D01*
G75*
G02*
X60610000Y-83295000I0J-150000D01*
G01*
X60610000Y-83595000D01*
G75*
G02*
X60460000Y-83745000I-150000J0D01*
G01*
X58810000Y-83745000D01*
G75*
G02*
X58660000Y-83595000I0J150000D01*
G01*
G37*
G36*
G01*
X58660000Y-82325000D02*
X58660000Y-82025000D01*
G75*
G02*
X58810000Y-81875000I150000J0D01*
G01*
X60460000Y-81875000D01*
G75*
G02*
X60610000Y-82025000I0J-150000D01*
G01*
X60610000Y-82325000D01*
G75*
G02*
X60460000Y-82475000I-150000J0D01*
G01*
X58810000Y-82475000D01*
G75*
G02*
X58660000Y-82325000I0J150000D01*
G01*
G37*
G36*
G01*
X58660000Y-81055000D02*
X58660000Y-80755000D01*
G75*
G02*
X58810000Y-80605000I150000J0D01*
G01*
X60460000Y-80605000D01*
G75*
G02*
X60610000Y-80755000I0J-150000D01*
G01*
X60610000Y-81055000D01*
G75*
G02*
X60460000Y-81205000I-150000J0D01*
G01*
X58810000Y-81205000D01*
G75*
G02*
X58660000Y-81055000I0J150000D01*
G01*
G37*
G36*
G01*
X58660000Y-79785000D02*
X58660000Y-79485000D01*
G75*
G02*
X58810000Y-79335000I150000J0D01*
G01*
X60460000Y-79335000D01*
G75*
G02*
X60610000Y-79485000I0J-150000D01*
G01*
X60610000Y-79785000D01*
G75*
G02*
X60460000Y-79935000I-150000J0D01*
G01*
X58810000Y-79935000D01*
G75*
G02*
X58660000Y-79785000I0J150000D01*
G01*
G37*
G36*
G01*
X58660000Y-78515000D02*
X58660000Y-78215000D01*
G75*
G02*
X58810000Y-78065000I150000J0D01*
G01*
X60460000Y-78065000D01*
G75*
G02*
X60610000Y-78215000I0J-150000D01*
G01*
X60610000Y-78515000D01*
G75*
G02*
X60460000Y-78665000I-150000J0D01*
G01*
X58810000Y-78665000D01*
G75*
G02*
X58660000Y-78515000I0J150000D01*
G01*
G37*
G36*
G01*
X58660000Y-77245000D02*
X58660000Y-76945000D01*
G75*
G02*
X58810000Y-76795000I150000J0D01*
G01*
X60460000Y-76795000D01*
G75*
G02*
X60610000Y-76945000I0J-150000D01*
G01*
X60610000Y-77245000D01*
G75*
G02*
X60460000Y-77395000I-150000J0D01*
G01*
X58810000Y-77395000D01*
G75*
G02*
X58660000Y-77245000I0J150000D01*
G01*
G37*
%TD*%
%TO.C,U1*%
G36*
G01*
X21610000Y-77245000D02*
X21610000Y-76945000D01*
G75*
G02*
X21760000Y-76795000I150000J0D01*
G01*
X23410000Y-76795000D01*
G75*
G02*
X23560000Y-76945000I0J-150000D01*
G01*
X23560000Y-77245000D01*
G75*
G02*
X23410000Y-77395000I-150000J0D01*
G01*
X21760000Y-77395000D01*
G75*
G02*
X21610000Y-77245000I0J150000D01*
G01*
G37*
G36*
G01*
X21610000Y-78515000D02*
X21610000Y-78215000D01*
G75*
G02*
X21760000Y-78065000I150000J0D01*
G01*
X23410000Y-78065000D01*
G75*
G02*
X23560000Y-78215000I0J-150000D01*
G01*
X23560000Y-78515000D01*
G75*
G02*
X23410000Y-78665000I-150000J0D01*
G01*
X21760000Y-78665000D01*
G75*
G02*
X21610000Y-78515000I0J150000D01*
G01*
G37*
G36*
G01*
X21610000Y-79785000D02*
X21610000Y-79485000D01*
G75*
G02*
X21760000Y-79335000I150000J0D01*
G01*
X23410000Y-79335000D01*
G75*
G02*
X23560000Y-79485000I0J-150000D01*
G01*
X23560000Y-79785000D01*
G75*
G02*
X23410000Y-79935000I-150000J0D01*
G01*
X21760000Y-79935000D01*
G75*
G02*
X21610000Y-79785000I0J150000D01*
G01*
G37*
G36*
G01*
X21610000Y-81055000D02*
X21610000Y-80755000D01*
G75*
G02*
X21760000Y-80605000I150000J0D01*
G01*
X23410000Y-80605000D01*
G75*
G02*
X23560000Y-80755000I0J-150000D01*
G01*
X23560000Y-81055000D01*
G75*
G02*
X23410000Y-81205000I-150000J0D01*
G01*
X21760000Y-81205000D01*
G75*
G02*
X21610000Y-81055000I0J150000D01*
G01*
G37*
G36*
G01*
X21610000Y-82325000D02*
X21610000Y-82025000D01*
G75*
G02*
X21760000Y-81875000I150000J0D01*
G01*
X23410000Y-81875000D01*
G75*
G02*
X23560000Y-82025000I0J-150000D01*
G01*
X23560000Y-82325000D01*
G75*
G02*
X23410000Y-82475000I-150000J0D01*
G01*
X21760000Y-82475000D01*
G75*
G02*
X21610000Y-82325000I0J150000D01*
G01*
G37*
G36*
G01*
X21610000Y-83595000D02*
X21610000Y-83295000D01*
G75*
G02*
X21760000Y-83145000I150000J0D01*
G01*
X23410000Y-83145000D01*
G75*
G02*
X23560000Y-83295000I0J-150000D01*
G01*
X23560000Y-83595000D01*
G75*
G02*
X23410000Y-83745000I-150000J0D01*
G01*
X21760000Y-83745000D01*
G75*
G02*
X21610000Y-83595000I0J150000D01*
G01*
G37*
G36*
G01*
X21610000Y-84865000D02*
X21610000Y-84565000D01*
G75*
G02*
X21760000Y-84415000I150000J0D01*
G01*
X23410000Y-84415000D01*
G75*
G02*
X23560000Y-84565000I0J-150000D01*
G01*
X23560000Y-84865000D01*
G75*
G02*
X23410000Y-85015000I-150000J0D01*
G01*
X21760000Y-85015000D01*
G75*
G02*
X21610000Y-84865000I0J150000D01*
G01*
G37*
G36*
G01*
X21610000Y-86135000D02*
X21610000Y-85835000D01*
G75*
G02*
X21760000Y-85685000I150000J0D01*
G01*
X23410000Y-85685000D01*
G75*
G02*
X23560000Y-85835000I0J-150000D01*
G01*
X23560000Y-86135000D01*
G75*
G02*
X23410000Y-86285000I-150000J0D01*
G01*
X21760000Y-86285000D01*
G75*
G02*
X21610000Y-86135000I0J150000D01*
G01*
G37*
G36*
G01*
X16660000Y-86135000D02*
X16660000Y-85835000D01*
G75*
G02*
X16810000Y-85685000I150000J0D01*
G01*
X18460000Y-85685000D01*
G75*
G02*
X18610000Y-85835000I0J-150000D01*
G01*
X18610000Y-86135000D01*
G75*
G02*
X18460000Y-86285000I-150000J0D01*
G01*
X16810000Y-86285000D01*
G75*
G02*
X16660000Y-86135000I0J150000D01*
G01*
G37*
G36*
G01*
X16660000Y-84865000D02*
X16660000Y-84565000D01*
G75*
G02*
X16810000Y-84415000I150000J0D01*
G01*
X18460000Y-84415000D01*
G75*
G02*
X18610000Y-84565000I0J-150000D01*
G01*
X18610000Y-84865000D01*
G75*
G02*
X18460000Y-85015000I-150000J0D01*
G01*
X16810000Y-85015000D01*
G75*
G02*
X16660000Y-84865000I0J150000D01*
G01*
G37*
G36*
G01*
X16660000Y-83595000D02*
X16660000Y-83295000D01*
G75*
G02*
X16810000Y-83145000I150000J0D01*
G01*
X18460000Y-83145000D01*
G75*
G02*
X18610000Y-83295000I0J-150000D01*
G01*
X18610000Y-83595000D01*
G75*
G02*
X18460000Y-83745000I-150000J0D01*
G01*
X16810000Y-83745000D01*
G75*
G02*
X16660000Y-83595000I0J150000D01*
G01*
G37*
G36*
G01*
X16660000Y-82325000D02*
X16660000Y-82025000D01*
G75*
G02*
X16810000Y-81875000I150000J0D01*
G01*
X18460000Y-81875000D01*
G75*
G02*
X18610000Y-82025000I0J-150000D01*
G01*
X18610000Y-82325000D01*
G75*
G02*
X18460000Y-82475000I-150000J0D01*
G01*
X16810000Y-82475000D01*
G75*
G02*
X16660000Y-82325000I0J150000D01*
G01*
G37*
G36*
G01*
X16660000Y-81055000D02*
X16660000Y-80755000D01*
G75*
G02*
X16810000Y-80605000I150000J0D01*
G01*
X18460000Y-80605000D01*
G75*
G02*
X18610000Y-80755000I0J-150000D01*
G01*
X18610000Y-81055000D01*
G75*
G02*
X18460000Y-81205000I-150000J0D01*
G01*
X16810000Y-81205000D01*
G75*
G02*
X16660000Y-81055000I0J150000D01*
G01*
G37*
G36*
G01*
X16660000Y-79785000D02*
X16660000Y-79485000D01*
G75*
G02*
X16810000Y-79335000I150000J0D01*
G01*
X18460000Y-79335000D01*
G75*
G02*
X18610000Y-79485000I0J-150000D01*
G01*
X18610000Y-79785000D01*
G75*
G02*
X18460000Y-79935000I-150000J0D01*
G01*
X16810000Y-79935000D01*
G75*
G02*
X16660000Y-79785000I0J150000D01*
G01*
G37*
G36*
G01*
X16660000Y-78515000D02*
X16660000Y-78215000D01*
G75*
G02*
X16810000Y-78065000I150000J0D01*
G01*
X18460000Y-78065000D01*
G75*
G02*
X18610000Y-78215000I0J-150000D01*
G01*
X18610000Y-78515000D01*
G75*
G02*
X18460000Y-78665000I-150000J0D01*
G01*
X16810000Y-78665000D01*
G75*
G02*
X16660000Y-78515000I0J150000D01*
G01*
G37*
G36*
G01*
X16660000Y-77245000D02*
X16660000Y-76945000D01*
G75*
G02*
X16810000Y-76795000I150000J0D01*
G01*
X18460000Y-76795000D01*
G75*
G02*
X18610000Y-76945000I0J-150000D01*
G01*
X18610000Y-77245000D01*
G75*
G02*
X18460000Y-77395000I-150000J0D01*
G01*
X16810000Y-77395000D01*
G75*
G02*
X16660000Y-77245000I0J150000D01*
G01*
G37*
%TD*%
%TO.C,U1*%
G36*
G01*
X63610000Y-45245000D02*
X63610000Y-44945000D01*
G75*
G02*
X63760000Y-44795000I150000J0D01*
G01*
X65410000Y-44795000D01*
G75*
G02*
X65560000Y-44945000I0J-150000D01*
G01*
X65560000Y-45245000D01*
G75*
G02*
X65410000Y-45395000I-150000J0D01*
G01*
X63760000Y-45395000D01*
G75*
G02*
X63610000Y-45245000I0J150000D01*
G01*
G37*
G36*
G01*
X63610000Y-46515000D02*
X63610000Y-46215000D01*
G75*
G02*
X63760000Y-46065000I150000J0D01*
G01*
X65410000Y-46065000D01*
G75*
G02*
X65560000Y-46215000I0J-150000D01*
G01*
X65560000Y-46515000D01*
G75*
G02*
X65410000Y-46665000I-150000J0D01*
G01*
X63760000Y-46665000D01*
G75*
G02*
X63610000Y-46515000I0J150000D01*
G01*
G37*
G36*
G01*
X63610000Y-47785000D02*
X63610000Y-47485000D01*
G75*
G02*
X63760000Y-47335000I150000J0D01*
G01*
X65410000Y-47335000D01*
G75*
G02*
X65560000Y-47485000I0J-150000D01*
G01*
X65560000Y-47785000D01*
G75*
G02*
X65410000Y-47935000I-150000J0D01*
G01*
X63760000Y-47935000D01*
G75*
G02*
X63610000Y-47785000I0J150000D01*
G01*
G37*
G36*
G01*
X63610000Y-49055000D02*
X63610000Y-48755000D01*
G75*
G02*
X63760000Y-48605000I150000J0D01*
G01*
X65410000Y-48605000D01*
G75*
G02*
X65560000Y-48755000I0J-150000D01*
G01*
X65560000Y-49055000D01*
G75*
G02*
X65410000Y-49205000I-150000J0D01*
G01*
X63760000Y-49205000D01*
G75*
G02*
X63610000Y-49055000I0J150000D01*
G01*
G37*
G36*
G01*
X63610000Y-50325000D02*
X63610000Y-50025000D01*
G75*
G02*
X63760000Y-49875000I150000J0D01*
G01*
X65410000Y-49875000D01*
G75*
G02*
X65560000Y-50025000I0J-150000D01*
G01*
X65560000Y-50325000D01*
G75*
G02*
X65410000Y-50475000I-150000J0D01*
G01*
X63760000Y-50475000D01*
G75*
G02*
X63610000Y-50325000I0J150000D01*
G01*
G37*
G36*
G01*
X63610000Y-51595000D02*
X63610000Y-51295000D01*
G75*
G02*
X63760000Y-51145000I150000J0D01*
G01*
X65410000Y-51145000D01*
G75*
G02*
X65560000Y-51295000I0J-150000D01*
G01*
X65560000Y-51595000D01*
G75*
G02*
X65410000Y-51745000I-150000J0D01*
G01*
X63760000Y-51745000D01*
G75*
G02*
X63610000Y-51595000I0J150000D01*
G01*
G37*
G36*
G01*
X63610000Y-52865000D02*
X63610000Y-52565000D01*
G75*
G02*
X63760000Y-52415000I150000J0D01*
G01*
X65410000Y-52415000D01*
G75*
G02*
X65560000Y-52565000I0J-150000D01*
G01*
X65560000Y-52865000D01*
G75*
G02*
X65410000Y-53015000I-150000J0D01*
G01*
X63760000Y-53015000D01*
G75*
G02*
X63610000Y-52865000I0J150000D01*
G01*
G37*
G36*
G01*
X63610000Y-54135000D02*
X63610000Y-53835000D01*
G75*
G02*
X63760000Y-53685000I150000J0D01*
G01*
X65410000Y-53685000D01*
G75*
G02*
X65560000Y-53835000I0J-150000D01*
G01*
X65560000Y-54135000D01*
G75*
G02*
X65410000Y-54285000I-150000J0D01*
G01*
X63760000Y-54285000D01*
G75*
G02*
X63610000Y-54135000I0J150000D01*
G01*
G37*
G36*
G01*
X58660000Y-54135000D02*
X58660000Y-53835000D01*
G75*
G02*
X58810000Y-53685000I150000J0D01*
G01*
X60460000Y-53685000D01*
G75*
G02*
X60610000Y-53835000I0J-150000D01*
G01*
X60610000Y-54135000D01*
G75*
G02*
X60460000Y-54285000I-150000J0D01*
G01*
X58810000Y-54285000D01*
G75*
G02*
X58660000Y-54135000I0J150000D01*
G01*
G37*
G36*
G01*
X58660000Y-52865000D02*
X58660000Y-52565000D01*
G75*
G02*
X58810000Y-52415000I150000J0D01*
G01*
X60460000Y-52415000D01*
G75*
G02*
X60610000Y-52565000I0J-150000D01*
G01*
X60610000Y-52865000D01*
G75*
G02*
X60460000Y-53015000I-150000J0D01*
G01*
X58810000Y-53015000D01*
G75*
G02*
X58660000Y-52865000I0J150000D01*
G01*
G37*
G36*
G01*
X58660000Y-51595000D02*
X58660000Y-51295000D01*
G75*
G02*
X58810000Y-51145000I150000J0D01*
G01*
X60460000Y-51145000D01*
G75*
G02*
X60610000Y-51295000I0J-150000D01*
G01*
X60610000Y-51595000D01*
G75*
G02*
X60460000Y-51745000I-150000J0D01*
G01*
X58810000Y-51745000D01*
G75*
G02*
X58660000Y-51595000I0J150000D01*
G01*
G37*
G36*
G01*
X58660000Y-50325000D02*
X58660000Y-50025000D01*
G75*
G02*
X58810000Y-49875000I150000J0D01*
G01*
X60460000Y-49875000D01*
G75*
G02*
X60610000Y-50025000I0J-150000D01*
G01*
X60610000Y-50325000D01*
G75*
G02*
X60460000Y-50475000I-150000J0D01*
G01*
X58810000Y-50475000D01*
G75*
G02*
X58660000Y-50325000I0J150000D01*
G01*
G37*
G36*
G01*
X58660000Y-49055000D02*
X58660000Y-48755000D01*
G75*
G02*
X58810000Y-48605000I150000J0D01*
G01*
X60460000Y-48605000D01*
G75*
G02*
X60610000Y-48755000I0J-150000D01*
G01*
X60610000Y-49055000D01*
G75*
G02*
X60460000Y-49205000I-150000J0D01*
G01*
X58810000Y-49205000D01*
G75*
G02*
X58660000Y-49055000I0J150000D01*
G01*
G37*
G36*
G01*
X58660000Y-47785000D02*
X58660000Y-47485000D01*
G75*
G02*
X58810000Y-47335000I150000J0D01*
G01*
X60460000Y-47335000D01*
G75*
G02*
X60610000Y-47485000I0J-150000D01*
G01*
X60610000Y-47785000D01*
G75*
G02*
X60460000Y-47935000I-150000J0D01*
G01*
X58810000Y-47935000D01*
G75*
G02*
X58660000Y-47785000I0J150000D01*
G01*
G37*
G36*
G01*
X58660000Y-46515000D02*
X58660000Y-46215000D01*
G75*
G02*
X58810000Y-46065000I150000J0D01*
G01*
X60460000Y-46065000D01*
G75*
G02*
X60610000Y-46215000I0J-150000D01*
G01*
X60610000Y-46515000D01*
G75*
G02*
X60460000Y-46665000I-150000J0D01*
G01*
X58810000Y-46665000D01*
G75*
G02*
X58660000Y-46515000I0J150000D01*
G01*
G37*
G36*
G01*
X58660000Y-45245000D02*
X58660000Y-44945000D01*
G75*
G02*
X58810000Y-44795000I150000J0D01*
G01*
X60460000Y-44795000D01*
G75*
G02*
X60610000Y-44945000I0J-150000D01*
G01*
X60610000Y-45245000D01*
G75*
G02*
X60460000Y-45395000I-150000J0D01*
G01*
X58810000Y-45395000D01*
G75*
G02*
X58660000Y-45245000I0J150000D01*
G01*
G37*
%TD*%
%TO.C,U1*%
G36*
G01*
X21610000Y-45245000D02*
X21610000Y-44945000D01*
G75*
G02*
X21760000Y-44795000I150000J0D01*
G01*
X23410000Y-44795000D01*
G75*
G02*
X23560000Y-44945000I0J-150000D01*
G01*
X23560000Y-45245000D01*
G75*
G02*
X23410000Y-45395000I-150000J0D01*
G01*
X21760000Y-45395000D01*
G75*
G02*
X21610000Y-45245000I0J150000D01*
G01*
G37*
G36*
G01*
X21610000Y-46515000D02*
X21610000Y-46215000D01*
G75*
G02*
X21760000Y-46065000I150000J0D01*
G01*
X23410000Y-46065000D01*
G75*
G02*
X23560000Y-46215000I0J-150000D01*
G01*
X23560000Y-46515000D01*
G75*
G02*
X23410000Y-46665000I-150000J0D01*
G01*
X21760000Y-46665000D01*
G75*
G02*
X21610000Y-46515000I0J150000D01*
G01*
G37*
G36*
G01*
X21610000Y-47785000D02*
X21610000Y-47485000D01*
G75*
G02*
X21760000Y-47335000I150000J0D01*
G01*
X23410000Y-47335000D01*
G75*
G02*
X23560000Y-47485000I0J-150000D01*
G01*
X23560000Y-47785000D01*
G75*
G02*
X23410000Y-47935000I-150000J0D01*
G01*
X21760000Y-47935000D01*
G75*
G02*
X21610000Y-47785000I0J150000D01*
G01*
G37*
G36*
G01*
X21610000Y-49055000D02*
X21610000Y-48755000D01*
G75*
G02*
X21760000Y-48605000I150000J0D01*
G01*
X23410000Y-48605000D01*
G75*
G02*
X23560000Y-48755000I0J-150000D01*
G01*
X23560000Y-49055000D01*
G75*
G02*
X23410000Y-49205000I-150000J0D01*
G01*
X21760000Y-49205000D01*
G75*
G02*
X21610000Y-49055000I0J150000D01*
G01*
G37*
G36*
G01*
X21610000Y-50325000D02*
X21610000Y-50025000D01*
G75*
G02*
X21760000Y-49875000I150000J0D01*
G01*
X23410000Y-49875000D01*
G75*
G02*
X23560000Y-50025000I0J-150000D01*
G01*
X23560000Y-50325000D01*
G75*
G02*
X23410000Y-50475000I-150000J0D01*
G01*
X21760000Y-50475000D01*
G75*
G02*
X21610000Y-50325000I0J150000D01*
G01*
G37*
G36*
G01*
X21610000Y-51595000D02*
X21610000Y-51295000D01*
G75*
G02*
X21760000Y-51145000I150000J0D01*
G01*
X23410000Y-51145000D01*
G75*
G02*
X23560000Y-51295000I0J-150000D01*
G01*
X23560000Y-51595000D01*
G75*
G02*
X23410000Y-51745000I-150000J0D01*
G01*
X21760000Y-51745000D01*
G75*
G02*
X21610000Y-51595000I0J150000D01*
G01*
G37*
G36*
G01*
X21610000Y-52865000D02*
X21610000Y-52565000D01*
G75*
G02*
X21760000Y-52415000I150000J0D01*
G01*
X23410000Y-52415000D01*
G75*
G02*
X23560000Y-52565000I0J-150000D01*
G01*
X23560000Y-52865000D01*
G75*
G02*
X23410000Y-53015000I-150000J0D01*
G01*
X21760000Y-53015000D01*
G75*
G02*
X21610000Y-52865000I0J150000D01*
G01*
G37*
G36*
G01*
X21610000Y-54135000D02*
X21610000Y-53835000D01*
G75*
G02*
X21760000Y-53685000I150000J0D01*
G01*
X23410000Y-53685000D01*
G75*
G02*
X23560000Y-53835000I0J-150000D01*
G01*
X23560000Y-54135000D01*
G75*
G02*
X23410000Y-54285000I-150000J0D01*
G01*
X21760000Y-54285000D01*
G75*
G02*
X21610000Y-54135000I0J150000D01*
G01*
G37*
G36*
G01*
X16660000Y-54135000D02*
X16660000Y-53835000D01*
G75*
G02*
X16810000Y-53685000I150000J0D01*
G01*
X18460000Y-53685000D01*
G75*
G02*
X18610000Y-53835000I0J-150000D01*
G01*
X18610000Y-54135000D01*
G75*
G02*
X18460000Y-54285000I-150000J0D01*
G01*
X16810000Y-54285000D01*
G75*
G02*
X16660000Y-54135000I0J150000D01*
G01*
G37*
G36*
G01*
X16660000Y-52865000D02*
X16660000Y-52565000D01*
G75*
G02*
X16810000Y-52415000I150000J0D01*
G01*
X18460000Y-52415000D01*
G75*
G02*
X18610000Y-52565000I0J-150000D01*
G01*
X18610000Y-52865000D01*
G75*
G02*
X18460000Y-53015000I-150000J0D01*
G01*
X16810000Y-53015000D01*
G75*
G02*
X16660000Y-52865000I0J150000D01*
G01*
G37*
G36*
G01*
X16660000Y-51595000D02*
X16660000Y-51295000D01*
G75*
G02*
X16810000Y-51145000I150000J0D01*
G01*
X18460000Y-51145000D01*
G75*
G02*
X18610000Y-51295000I0J-150000D01*
G01*
X18610000Y-51595000D01*
G75*
G02*
X18460000Y-51745000I-150000J0D01*
G01*
X16810000Y-51745000D01*
G75*
G02*
X16660000Y-51595000I0J150000D01*
G01*
G37*
G36*
G01*
X16660000Y-50325000D02*
X16660000Y-50025000D01*
G75*
G02*
X16810000Y-49875000I150000J0D01*
G01*
X18460000Y-49875000D01*
G75*
G02*
X18610000Y-50025000I0J-150000D01*
G01*
X18610000Y-50325000D01*
G75*
G02*
X18460000Y-50475000I-150000J0D01*
G01*
X16810000Y-50475000D01*
G75*
G02*
X16660000Y-50325000I0J150000D01*
G01*
G37*
G36*
G01*
X16660000Y-49055000D02*
X16660000Y-48755000D01*
G75*
G02*
X16810000Y-48605000I150000J0D01*
G01*
X18460000Y-48605000D01*
G75*
G02*
X18610000Y-48755000I0J-150000D01*
G01*
X18610000Y-49055000D01*
G75*
G02*
X18460000Y-49205000I-150000J0D01*
G01*
X16810000Y-49205000D01*
G75*
G02*
X16660000Y-49055000I0J150000D01*
G01*
G37*
G36*
G01*
X16660000Y-47785000D02*
X16660000Y-47485000D01*
G75*
G02*
X16810000Y-47335000I150000J0D01*
G01*
X18460000Y-47335000D01*
G75*
G02*
X18610000Y-47485000I0J-150000D01*
G01*
X18610000Y-47785000D01*
G75*
G02*
X18460000Y-47935000I-150000J0D01*
G01*
X16810000Y-47935000D01*
G75*
G02*
X16660000Y-47785000I0J150000D01*
G01*
G37*
G36*
G01*
X16660000Y-46515000D02*
X16660000Y-46215000D01*
G75*
G02*
X16810000Y-46065000I150000J0D01*
G01*
X18460000Y-46065000D01*
G75*
G02*
X18610000Y-46215000I0J-150000D01*
G01*
X18610000Y-46515000D01*
G75*
G02*
X18460000Y-46665000I-150000J0D01*
G01*
X16810000Y-46665000D01*
G75*
G02*
X16660000Y-46515000I0J150000D01*
G01*
G37*
G36*
G01*
X16660000Y-45245000D02*
X16660000Y-44945000D01*
G75*
G02*
X16810000Y-44795000I150000J0D01*
G01*
X18460000Y-44795000D01*
G75*
G02*
X18610000Y-44945000I0J-150000D01*
G01*
X18610000Y-45245000D01*
G75*
G02*
X18460000Y-45395000I-150000J0D01*
G01*
X16810000Y-45395000D01*
G75*
G02*
X16660000Y-45245000I0J150000D01*
G01*
G37*
%TD*%
%TO.C,U1*%
G36*
G01*
X63610000Y-13245000D02*
X63610000Y-12945000D01*
G75*
G02*
X63760000Y-12795000I150000J0D01*
G01*
X65410000Y-12795000D01*
G75*
G02*
X65560000Y-12945000I0J-150000D01*
G01*
X65560000Y-13245000D01*
G75*
G02*
X65410000Y-13395000I-150000J0D01*
G01*
X63760000Y-13395000D01*
G75*
G02*
X63610000Y-13245000I0J150000D01*
G01*
G37*
G36*
G01*
X63610000Y-14515000D02*
X63610000Y-14215000D01*
G75*
G02*
X63760000Y-14065000I150000J0D01*
G01*
X65410000Y-14065000D01*
G75*
G02*
X65560000Y-14215000I0J-150000D01*
G01*
X65560000Y-14515000D01*
G75*
G02*
X65410000Y-14665000I-150000J0D01*
G01*
X63760000Y-14665000D01*
G75*
G02*
X63610000Y-14515000I0J150000D01*
G01*
G37*
G36*
G01*
X63610000Y-15785000D02*
X63610000Y-15485000D01*
G75*
G02*
X63760000Y-15335000I150000J0D01*
G01*
X65410000Y-15335000D01*
G75*
G02*
X65560000Y-15485000I0J-150000D01*
G01*
X65560000Y-15785000D01*
G75*
G02*
X65410000Y-15935000I-150000J0D01*
G01*
X63760000Y-15935000D01*
G75*
G02*
X63610000Y-15785000I0J150000D01*
G01*
G37*
G36*
G01*
X63610000Y-17055000D02*
X63610000Y-16755000D01*
G75*
G02*
X63760000Y-16605000I150000J0D01*
G01*
X65410000Y-16605000D01*
G75*
G02*
X65560000Y-16755000I0J-150000D01*
G01*
X65560000Y-17055000D01*
G75*
G02*
X65410000Y-17205000I-150000J0D01*
G01*
X63760000Y-17205000D01*
G75*
G02*
X63610000Y-17055000I0J150000D01*
G01*
G37*
G36*
G01*
X63610000Y-18325000D02*
X63610000Y-18025000D01*
G75*
G02*
X63760000Y-17875000I150000J0D01*
G01*
X65410000Y-17875000D01*
G75*
G02*
X65560000Y-18025000I0J-150000D01*
G01*
X65560000Y-18325000D01*
G75*
G02*
X65410000Y-18475000I-150000J0D01*
G01*
X63760000Y-18475000D01*
G75*
G02*
X63610000Y-18325000I0J150000D01*
G01*
G37*
G36*
G01*
X63610000Y-19595000D02*
X63610000Y-19295000D01*
G75*
G02*
X63760000Y-19145000I150000J0D01*
G01*
X65410000Y-19145000D01*
G75*
G02*
X65560000Y-19295000I0J-150000D01*
G01*
X65560000Y-19595000D01*
G75*
G02*
X65410000Y-19745000I-150000J0D01*
G01*
X63760000Y-19745000D01*
G75*
G02*
X63610000Y-19595000I0J150000D01*
G01*
G37*
G36*
G01*
X63610000Y-20865000D02*
X63610000Y-20565000D01*
G75*
G02*
X63760000Y-20415000I150000J0D01*
G01*
X65410000Y-20415000D01*
G75*
G02*
X65560000Y-20565000I0J-150000D01*
G01*
X65560000Y-20865000D01*
G75*
G02*
X65410000Y-21015000I-150000J0D01*
G01*
X63760000Y-21015000D01*
G75*
G02*
X63610000Y-20865000I0J150000D01*
G01*
G37*
G36*
G01*
X63610000Y-22135000D02*
X63610000Y-21835000D01*
G75*
G02*
X63760000Y-21685000I150000J0D01*
G01*
X65410000Y-21685000D01*
G75*
G02*
X65560000Y-21835000I0J-150000D01*
G01*
X65560000Y-22135000D01*
G75*
G02*
X65410000Y-22285000I-150000J0D01*
G01*
X63760000Y-22285000D01*
G75*
G02*
X63610000Y-22135000I0J150000D01*
G01*
G37*
G36*
G01*
X58660000Y-22135000D02*
X58660000Y-21835000D01*
G75*
G02*
X58810000Y-21685000I150000J0D01*
G01*
X60460000Y-21685000D01*
G75*
G02*
X60610000Y-21835000I0J-150000D01*
G01*
X60610000Y-22135000D01*
G75*
G02*
X60460000Y-22285000I-150000J0D01*
G01*
X58810000Y-22285000D01*
G75*
G02*
X58660000Y-22135000I0J150000D01*
G01*
G37*
G36*
G01*
X58660000Y-20865000D02*
X58660000Y-20565000D01*
G75*
G02*
X58810000Y-20415000I150000J0D01*
G01*
X60460000Y-20415000D01*
G75*
G02*
X60610000Y-20565000I0J-150000D01*
G01*
X60610000Y-20865000D01*
G75*
G02*
X60460000Y-21015000I-150000J0D01*
G01*
X58810000Y-21015000D01*
G75*
G02*
X58660000Y-20865000I0J150000D01*
G01*
G37*
G36*
G01*
X58660000Y-19595000D02*
X58660000Y-19295000D01*
G75*
G02*
X58810000Y-19145000I150000J0D01*
G01*
X60460000Y-19145000D01*
G75*
G02*
X60610000Y-19295000I0J-150000D01*
G01*
X60610000Y-19595000D01*
G75*
G02*
X60460000Y-19745000I-150000J0D01*
G01*
X58810000Y-19745000D01*
G75*
G02*
X58660000Y-19595000I0J150000D01*
G01*
G37*
G36*
G01*
X58660000Y-18325000D02*
X58660000Y-18025000D01*
G75*
G02*
X58810000Y-17875000I150000J0D01*
G01*
X60460000Y-17875000D01*
G75*
G02*
X60610000Y-18025000I0J-150000D01*
G01*
X60610000Y-18325000D01*
G75*
G02*
X60460000Y-18475000I-150000J0D01*
G01*
X58810000Y-18475000D01*
G75*
G02*
X58660000Y-18325000I0J150000D01*
G01*
G37*
G36*
G01*
X58660000Y-17055000D02*
X58660000Y-16755000D01*
G75*
G02*
X58810000Y-16605000I150000J0D01*
G01*
X60460000Y-16605000D01*
G75*
G02*
X60610000Y-16755000I0J-150000D01*
G01*
X60610000Y-17055000D01*
G75*
G02*
X60460000Y-17205000I-150000J0D01*
G01*
X58810000Y-17205000D01*
G75*
G02*
X58660000Y-17055000I0J150000D01*
G01*
G37*
G36*
G01*
X58660000Y-15785000D02*
X58660000Y-15485000D01*
G75*
G02*
X58810000Y-15335000I150000J0D01*
G01*
X60460000Y-15335000D01*
G75*
G02*
X60610000Y-15485000I0J-150000D01*
G01*
X60610000Y-15785000D01*
G75*
G02*
X60460000Y-15935000I-150000J0D01*
G01*
X58810000Y-15935000D01*
G75*
G02*
X58660000Y-15785000I0J150000D01*
G01*
G37*
G36*
G01*
X58660000Y-14515000D02*
X58660000Y-14215000D01*
G75*
G02*
X58810000Y-14065000I150000J0D01*
G01*
X60460000Y-14065000D01*
G75*
G02*
X60610000Y-14215000I0J-150000D01*
G01*
X60610000Y-14515000D01*
G75*
G02*
X60460000Y-14665000I-150000J0D01*
G01*
X58810000Y-14665000D01*
G75*
G02*
X58660000Y-14515000I0J150000D01*
G01*
G37*
G36*
G01*
X58660000Y-13245000D02*
X58660000Y-12945000D01*
G75*
G02*
X58810000Y-12795000I150000J0D01*
G01*
X60460000Y-12795000D01*
G75*
G02*
X60610000Y-12945000I0J-150000D01*
G01*
X60610000Y-13245000D01*
G75*
G02*
X60460000Y-13395000I-150000J0D01*
G01*
X58810000Y-13395000D01*
G75*
G02*
X58660000Y-13245000I0J150000D01*
G01*
G37*
%TD*%
%TO.C,C10*%
G36*
G01*
X84495000Y-83260000D02*
X85445000Y-83260000D01*
G75*
G02*
X85695000Y-83510000I0J-250000D01*
G01*
X85695000Y-84185000D01*
G75*
G02*
X85445000Y-84435000I-250000J0D01*
G01*
X84495000Y-84435000D01*
G75*
G02*
X84245000Y-84185000I0J250000D01*
G01*
X84245000Y-83510000D01*
G75*
G02*
X84495000Y-83260000I250000J0D01*
G01*
G37*
G36*
G01*
X84495000Y-81185000D02*
X85445000Y-81185000D01*
G75*
G02*
X85695000Y-81435000I0J-250000D01*
G01*
X85695000Y-82110000D01*
G75*
G02*
X85445000Y-82360000I-250000J0D01*
G01*
X84495000Y-82360000D01*
G75*
G02*
X84245000Y-82110000I0J250000D01*
G01*
X84245000Y-81435000D01*
G75*
G02*
X84495000Y-81185000I250000J0D01*
G01*
G37*
%TD*%
%TO.C,C10*%
G36*
G01*
X42495000Y-83260000D02*
X43445000Y-83260000D01*
G75*
G02*
X43695000Y-83510000I0J-250000D01*
G01*
X43695000Y-84185000D01*
G75*
G02*
X43445000Y-84435000I-250000J0D01*
G01*
X42495000Y-84435000D01*
G75*
G02*
X42245000Y-84185000I0J250000D01*
G01*
X42245000Y-83510000D01*
G75*
G02*
X42495000Y-83260000I250000J0D01*
G01*
G37*
G36*
G01*
X42495000Y-81185000D02*
X43445000Y-81185000D01*
G75*
G02*
X43695000Y-81435000I0J-250000D01*
G01*
X43695000Y-82110000D01*
G75*
G02*
X43445000Y-82360000I-250000J0D01*
G01*
X42495000Y-82360000D01*
G75*
G02*
X42245000Y-82110000I0J250000D01*
G01*
X42245000Y-81435000D01*
G75*
G02*
X42495000Y-81185000I250000J0D01*
G01*
G37*
%TD*%
%TO.C,C10*%
G36*
G01*
X84495000Y-51260000D02*
X85445000Y-51260000D01*
G75*
G02*
X85695000Y-51510000I0J-250000D01*
G01*
X85695000Y-52185000D01*
G75*
G02*
X85445000Y-52435000I-250000J0D01*
G01*
X84495000Y-52435000D01*
G75*
G02*
X84245000Y-52185000I0J250000D01*
G01*
X84245000Y-51510000D01*
G75*
G02*
X84495000Y-51260000I250000J0D01*
G01*
G37*
G36*
G01*
X84495000Y-49185000D02*
X85445000Y-49185000D01*
G75*
G02*
X85695000Y-49435000I0J-250000D01*
G01*
X85695000Y-50110000D01*
G75*
G02*
X85445000Y-50360000I-250000J0D01*
G01*
X84495000Y-50360000D01*
G75*
G02*
X84245000Y-50110000I0J250000D01*
G01*
X84245000Y-49435000D01*
G75*
G02*
X84495000Y-49185000I250000J0D01*
G01*
G37*
%TD*%
%TO.C,C10*%
G36*
G01*
X42495000Y-51260000D02*
X43445000Y-51260000D01*
G75*
G02*
X43695000Y-51510000I0J-250000D01*
G01*
X43695000Y-52185000D01*
G75*
G02*
X43445000Y-52435000I-250000J0D01*
G01*
X42495000Y-52435000D01*
G75*
G02*
X42245000Y-52185000I0J250000D01*
G01*
X42245000Y-51510000D01*
G75*
G02*
X42495000Y-51260000I250000J0D01*
G01*
G37*
G36*
G01*
X42495000Y-49185000D02*
X43445000Y-49185000D01*
G75*
G02*
X43695000Y-49435000I0J-250000D01*
G01*
X43695000Y-50110000D01*
G75*
G02*
X43445000Y-50360000I-250000J0D01*
G01*
X42495000Y-50360000D01*
G75*
G02*
X42245000Y-50110000I0J250000D01*
G01*
X42245000Y-49435000D01*
G75*
G02*
X42495000Y-49185000I250000J0D01*
G01*
G37*
%TD*%
%TO.C,C10*%
G36*
G01*
X84495000Y-19260000D02*
X85445000Y-19260000D01*
G75*
G02*
X85695000Y-19510000I0J-250000D01*
G01*
X85695000Y-20185000D01*
G75*
G02*
X85445000Y-20435000I-250000J0D01*
G01*
X84495000Y-20435000D01*
G75*
G02*
X84245000Y-20185000I0J250000D01*
G01*
X84245000Y-19510000D01*
G75*
G02*
X84495000Y-19260000I250000J0D01*
G01*
G37*
G36*
G01*
X84495000Y-17185000D02*
X85445000Y-17185000D01*
G75*
G02*
X85695000Y-17435000I0J-250000D01*
G01*
X85695000Y-18110000D01*
G75*
G02*
X85445000Y-18360000I-250000J0D01*
G01*
X84495000Y-18360000D01*
G75*
G02*
X84245000Y-18110000I0J250000D01*
G01*
X84245000Y-17435000D01*
G75*
G02*
X84495000Y-17185000I250000J0D01*
G01*
G37*
%TD*%
%TO.C,C9*%
G36*
G01*
X79415000Y-87070000D02*
X80365000Y-87070000D01*
G75*
G02*
X80615000Y-87320000I0J-250000D01*
G01*
X80615000Y-87995000D01*
G75*
G02*
X80365000Y-88245000I-250000J0D01*
G01*
X79415000Y-88245000D01*
G75*
G02*
X79165000Y-87995000I0J250000D01*
G01*
X79165000Y-87320000D01*
G75*
G02*
X79415000Y-87070000I250000J0D01*
G01*
G37*
G36*
G01*
X79415000Y-84995000D02*
X80365000Y-84995000D01*
G75*
G02*
X80615000Y-85245000I0J-250000D01*
G01*
X80615000Y-85920000D01*
G75*
G02*
X80365000Y-86170000I-250000J0D01*
G01*
X79415000Y-86170000D01*
G75*
G02*
X79165000Y-85920000I0J250000D01*
G01*
X79165000Y-85245000D01*
G75*
G02*
X79415000Y-84995000I250000J0D01*
G01*
G37*
%TD*%
%TO.C,C9*%
G36*
G01*
X37415000Y-87070000D02*
X38365000Y-87070000D01*
G75*
G02*
X38615000Y-87320000I0J-250000D01*
G01*
X38615000Y-87995000D01*
G75*
G02*
X38365000Y-88245000I-250000J0D01*
G01*
X37415000Y-88245000D01*
G75*
G02*
X37165000Y-87995000I0J250000D01*
G01*
X37165000Y-87320000D01*
G75*
G02*
X37415000Y-87070000I250000J0D01*
G01*
G37*
G36*
G01*
X37415000Y-84995000D02*
X38365000Y-84995000D01*
G75*
G02*
X38615000Y-85245000I0J-250000D01*
G01*
X38615000Y-85920000D01*
G75*
G02*
X38365000Y-86170000I-250000J0D01*
G01*
X37415000Y-86170000D01*
G75*
G02*
X37165000Y-85920000I0J250000D01*
G01*
X37165000Y-85245000D01*
G75*
G02*
X37415000Y-84995000I250000J0D01*
G01*
G37*
%TD*%
%TO.C,C9*%
G36*
G01*
X79415000Y-55070000D02*
X80365000Y-55070000D01*
G75*
G02*
X80615000Y-55320000I0J-250000D01*
G01*
X80615000Y-55995000D01*
G75*
G02*
X80365000Y-56245000I-250000J0D01*
G01*
X79415000Y-56245000D01*
G75*
G02*
X79165000Y-55995000I0J250000D01*
G01*
X79165000Y-55320000D01*
G75*
G02*
X79415000Y-55070000I250000J0D01*
G01*
G37*
G36*
G01*
X79415000Y-52995000D02*
X80365000Y-52995000D01*
G75*
G02*
X80615000Y-53245000I0J-250000D01*
G01*
X80615000Y-53920000D01*
G75*
G02*
X80365000Y-54170000I-250000J0D01*
G01*
X79415000Y-54170000D01*
G75*
G02*
X79165000Y-53920000I0J250000D01*
G01*
X79165000Y-53245000D01*
G75*
G02*
X79415000Y-52995000I250000J0D01*
G01*
G37*
%TD*%
%TO.C,C9*%
G36*
G01*
X37415000Y-55070000D02*
X38365000Y-55070000D01*
G75*
G02*
X38615000Y-55320000I0J-250000D01*
G01*
X38615000Y-55995000D01*
G75*
G02*
X38365000Y-56245000I-250000J0D01*
G01*
X37415000Y-56245000D01*
G75*
G02*
X37165000Y-55995000I0J250000D01*
G01*
X37165000Y-55320000D01*
G75*
G02*
X37415000Y-55070000I250000J0D01*
G01*
G37*
G36*
G01*
X37415000Y-52995000D02*
X38365000Y-52995000D01*
G75*
G02*
X38615000Y-53245000I0J-250000D01*
G01*
X38615000Y-53920000D01*
G75*
G02*
X38365000Y-54170000I-250000J0D01*
G01*
X37415000Y-54170000D01*
G75*
G02*
X37165000Y-53920000I0J250000D01*
G01*
X37165000Y-53245000D01*
G75*
G02*
X37415000Y-52995000I250000J0D01*
G01*
G37*
%TD*%
%TO.C,C9*%
G36*
G01*
X79415000Y-23070000D02*
X80365000Y-23070000D01*
G75*
G02*
X80615000Y-23320000I0J-250000D01*
G01*
X80615000Y-23995000D01*
G75*
G02*
X80365000Y-24245000I-250000J0D01*
G01*
X79415000Y-24245000D01*
G75*
G02*
X79165000Y-23995000I0J250000D01*
G01*
X79165000Y-23320000D01*
G75*
G02*
X79415000Y-23070000I250000J0D01*
G01*
G37*
G36*
G01*
X79415000Y-20995000D02*
X80365000Y-20995000D01*
G75*
G02*
X80615000Y-21245000I0J-250000D01*
G01*
X80615000Y-21920000D01*
G75*
G02*
X80365000Y-22170000I-250000J0D01*
G01*
X79415000Y-22170000D01*
G75*
G02*
X79165000Y-21920000I0J250000D01*
G01*
X79165000Y-21245000D01*
G75*
G02*
X79415000Y-20995000I250000J0D01*
G01*
G37*
%TD*%
%TO.C,C4*%
G36*
G01*
X57505000Y-77280000D02*
X56555000Y-77280000D01*
G75*
G02*
X56305000Y-77030000I0J250000D01*
G01*
X56305000Y-76355000D01*
G75*
G02*
X56555000Y-76105000I250000J0D01*
G01*
X57505000Y-76105000D01*
G75*
G02*
X57755000Y-76355000I0J-250000D01*
G01*
X57755000Y-77030000D01*
G75*
G02*
X57505000Y-77280000I-250000J0D01*
G01*
G37*
G36*
G01*
X57505000Y-79355000D02*
X56555000Y-79355000D01*
G75*
G02*
X56305000Y-79105000I0J250000D01*
G01*
X56305000Y-78430000D01*
G75*
G02*
X56555000Y-78180000I250000J0D01*
G01*
X57505000Y-78180000D01*
G75*
G02*
X57755000Y-78430000I0J-250000D01*
G01*
X57755000Y-79105000D01*
G75*
G02*
X57505000Y-79355000I-250000J0D01*
G01*
G37*
%TD*%
%TO.C,C4*%
G36*
G01*
X15505000Y-77280000D02*
X14555000Y-77280000D01*
G75*
G02*
X14305000Y-77030000I0J250000D01*
G01*
X14305000Y-76355000D01*
G75*
G02*
X14555000Y-76105000I250000J0D01*
G01*
X15505000Y-76105000D01*
G75*
G02*
X15755000Y-76355000I0J-250000D01*
G01*
X15755000Y-77030000D01*
G75*
G02*
X15505000Y-77280000I-250000J0D01*
G01*
G37*
G36*
G01*
X15505000Y-79355000D02*
X14555000Y-79355000D01*
G75*
G02*
X14305000Y-79105000I0J250000D01*
G01*
X14305000Y-78430000D01*
G75*
G02*
X14555000Y-78180000I250000J0D01*
G01*
X15505000Y-78180000D01*
G75*
G02*
X15755000Y-78430000I0J-250000D01*
G01*
X15755000Y-79105000D01*
G75*
G02*
X15505000Y-79355000I-250000J0D01*
G01*
G37*
%TD*%
%TO.C,C4*%
G36*
G01*
X57505000Y-45280000D02*
X56555000Y-45280000D01*
G75*
G02*
X56305000Y-45030000I0J250000D01*
G01*
X56305000Y-44355000D01*
G75*
G02*
X56555000Y-44105000I250000J0D01*
G01*
X57505000Y-44105000D01*
G75*
G02*
X57755000Y-44355000I0J-250000D01*
G01*
X57755000Y-45030000D01*
G75*
G02*
X57505000Y-45280000I-250000J0D01*
G01*
G37*
G36*
G01*
X57505000Y-47355000D02*
X56555000Y-47355000D01*
G75*
G02*
X56305000Y-47105000I0J250000D01*
G01*
X56305000Y-46430000D01*
G75*
G02*
X56555000Y-46180000I250000J0D01*
G01*
X57505000Y-46180000D01*
G75*
G02*
X57755000Y-46430000I0J-250000D01*
G01*
X57755000Y-47105000D01*
G75*
G02*
X57505000Y-47355000I-250000J0D01*
G01*
G37*
%TD*%
%TO.C,C4*%
G36*
G01*
X15505000Y-45280000D02*
X14555000Y-45280000D01*
G75*
G02*
X14305000Y-45030000I0J250000D01*
G01*
X14305000Y-44355000D01*
G75*
G02*
X14555000Y-44105000I250000J0D01*
G01*
X15505000Y-44105000D01*
G75*
G02*
X15755000Y-44355000I0J-250000D01*
G01*
X15755000Y-45030000D01*
G75*
G02*
X15505000Y-45280000I-250000J0D01*
G01*
G37*
G36*
G01*
X15505000Y-47355000D02*
X14555000Y-47355000D01*
G75*
G02*
X14305000Y-47105000I0J250000D01*
G01*
X14305000Y-46430000D01*
G75*
G02*
X14555000Y-46180000I250000J0D01*
G01*
X15505000Y-46180000D01*
G75*
G02*
X15755000Y-46430000I0J-250000D01*
G01*
X15755000Y-47105000D01*
G75*
G02*
X15505000Y-47355000I-250000J0D01*
G01*
G37*
%TD*%
%TO.C,C4*%
G36*
G01*
X57505000Y-13280000D02*
X56555000Y-13280000D01*
G75*
G02*
X56305000Y-13030000I0J250000D01*
G01*
X56305000Y-12355000D01*
G75*
G02*
X56555000Y-12105000I250000J0D01*
G01*
X57505000Y-12105000D01*
G75*
G02*
X57755000Y-12355000I0J-250000D01*
G01*
X57755000Y-13030000D01*
G75*
G02*
X57505000Y-13280000I-250000J0D01*
G01*
G37*
G36*
G01*
X57505000Y-15355000D02*
X56555000Y-15355000D01*
G75*
G02*
X56305000Y-15105000I0J250000D01*
G01*
X56305000Y-14430000D01*
G75*
G02*
X56555000Y-14180000I250000J0D01*
G01*
X57505000Y-14180000D01*
G75*
G02*
X57755000Y-14430000I0J-250000D01*
G01*
X57755000Y-15105000D01*
G75*
G02*
X57505000Y-15355000I-250000J0D01*
G01*
G37*
%TD*%
%TO.C,C2*%
G36*
G01*
X56555000Y-81990000D02*
X57505000Y-81990000D01*
G75*
G02*
X57755000Y-82240000I0J-250000D01*
G01*
X57755000Y-82915000D01*
G75*
G02*
X57505000Y-83165000I-250000J0D01*
G01*
X56555000Y-83165000D01*
G75*
G02*
X56305000Y-82915000I0J250000D01*
G01*
X56305000Y-82240000D01*
G75*
G02*
X56555000Y-81990000I250000J0D01*
G01*
G37*
G36*
G01*
X56555000Y-79915000D02*
X57505000Y-79915000D01*
G75*
G02*
X57755000Y-80165000I0J-250000D01*
G01*
X57755000Y-80840000D01*
G75*
G02*
X57505000Y-81090000I-250000J0D01*
G01*
X56555000Y-81090000D01*
G75*
G02*
X56305000Y-80840000I0J250000D01*
G01*
X56305000Y-80165000D01*
G75*
G02*
X56555000Y-79915000I250000J0D01*
G01*
G37*
%TD*%
%TO.C,C2*%
G36*
G01*
X14555000Y-81990000D02*
X15505000Y-81990000D01*
G75*
G02*
X15755000Y-82240000I0J-250000D01*
G01*
X15755000Y-82915000D01*
G75*
G02*
X15505000Y-83165000I-250000J0D01*
G01*
X14555000Y-83165000D01*
G75*
G02*
X14305000Y-82915000I0J250000D01*
G01*
X14305000Y-82240000D01*
G75*
G02*
X14555000Y-81990000I250000J0D01*
G01*
G37*
G36*
G01*
X14555000Y-79915000D02*
X15505000Y-79915000D01*
G75*
G02*
X15755000Y-80165000I0J-250000D01*
G01*
X15755000Y-80840000D01*
G75*
G02*
X15505000Y-81090000I-250000J0D01*
G01*
X14555000Y-81090000D01*
G75*
G02*
X14305000Y-80840000I0J250000D01*
G01*
X14305000Y-80165000D01*
G75*
G02*
X14555000Y-79915000I250000J0D01*
G01*
G37*
%TD*%
%TO.C,C2*%
G36*
G01*
X56555000Y-49990000D02*
X57505000Y-49990000D01*
G75*
G02*
X57755000Y-50240000I0J-250000D01*
G01*
X57755000Y-50915000D01*
G75*
G02*
X57505000Y-51165000I-250000J0D01*
G01*
X56555000Y-51165000D01*
G75*
G02*
X56305000Y-50915000I0J250000D01*
G01*
X56305000Y-50240000D01*
G75*
G02*
X56555000Y-49990000I250000J0D01*
G01*
G37*
G36*
G01*
X56555000Y-47915000D02*
X57505000Y-47915000D01*
G75*
G02*
X57755000Y-48165000I0J-250000D01*
G01*
X57755000Y-48840000D01*
G75*
G02*
X57505000Y-49090000I-250000J0D01*
G01*
X56555000Y-49090000D01*
G75*
G02*
X56305000Y-48840000I0J250000D01*
G01*
X56305000Y-48165000D01*
G75*
G02*
X56555000Y-47915000I250000J0D01*
G01*
G37*
%TD*%
%TO.C,C2*%
G36*
G01*
X14555000Y-49990000D02*
X15505000Y-49990000D01*
G75*
G02*
X15755000Y-50240000I0J-250000D01*
G01*
X15755000Y-50915000D01*
G75*
G02*
X15505000Y-51165000I-250000J0D01*
G01*
X14555000Y-51165000D01*
G75*
G02*
X14305000Y-50915000I0J250000D01*
G01*
X14305000Y-50240000D01*
G75*
G02*
X14555000Y-49990000I250000J0D01*
G01*
G37*
G36*
G01*
X14555000Y-47915000D02*
X15505000Y-47915000D01*
G75*
G02*
X15755000Y-48165000I0J-250000D01*
G01*
X15755000Y-48840000D01*
G75*
G02*
X15505000Y-49090000I-250000J0D01*
G01*
X14555000Y-49090000D01*
G75*
G02*
X14305000Y-48840000I0J250000D01*
G01*
X14305000Y-48165000D01*
G75*
G02*
X14555000Y-47915000I250000J0D01*
G01*
G37*
%TD*%
%TO.C,C2*%
G36*
G01*
X56555000Y-17990000D02*
X57505000Y-17990000D01*
G75*
G02*
X57755000Y-18240000I0J-250000D01*
G01*
X57755000Y-18915000D01*
G75*
G02*
X57505000Y-19165000I-250000J0D01*
G01*
X56555000Y-19165000D01*
G75*
G02*
X56305000Y-18915000I0J250000D01*
G01*
X56305000Y-18240000D01*
G75*
G02*
X56555000Y-17990000I250000J0D01*
G01*
G37*
G36*
G01*
X56555000Y-15915000D02*
X57505000Y-15915000D01*
G75*
G02*
X57755000Y-16165000I0J-250000D01*
G01*
X57755000Y-16840000D01*
G75*
G02*
X57505000Y-17090000I-250000J0D01*
G01*
X56555000Y-17090000D01*
G75*
G02*
X56305000Y-16840000I0J250000D01*
G01*
X56305000Y-16165000D01*
G75*
G02*
X56555000Y-15915000I250000J0D01*
G01*
G37*
%TD*%
%TO.C,C3*%
G36*
G01*
X61635000Y-89610000D02*
X62585000Y-89610000D01*
G75*
G02*
X62835000Y-89860000I0J-250000D01*
G01*
X62835000Y-90535000D01*
G75*
G02*
X62585000Y-90785000I-250000J0D01*
G01*
X61635000Y-90785000D01*
G75*
G02*
X61385000Y-90535000I0J250000D01*
G01*
X61385000Y-89860000D01*
G75*
G02*
X61635000Y-89610000I250000J0D01*
G01*
G37*
G36*
G01*
X61635000Y-87535000D02*
X62585000Y-87535000D01*
G75*
G02*
X62835000Y-87785000I0J-250000D01*
G01*
X62835000Y-88460000D01*
G75*
G02*
X62585000Y-88710000I-250000J0D01*
G01*
X61635000Y-88710000D01*
G75*
G02*
X61385000Y-88460000I0J250000D01*
G01*
X61385000Y-87785000D01*
G75*
G02*
X61635000Y-87535000I250000J0D01*
G01*
G37*
%TD*%
%TO.C,C3*%
G36*
G01*
X19635000Y-89610000D02*
X20585000Y-89610000D01*
G75*
G02*
X20835000Y-89860000I0J-250000D01*
G01*
X20835000Y-90535000D01*
G75*
G02*
X20585000Y-90785000I-250000J0D01*
G01*
X19635000Y-90785000D01*
G75*
G02*
X19385000Y-90535000I0J250000D01*
G01*
X19385000Y-89860000D01*
G75*
G02*
X19635000Y-89610000I250000J0D01*
G01*
G37*
G36*
G01*
X19635000Y-87535000D02*
X20585000Y-87535000D01*
G75*
G02*
X20835000Y-87785000I0J-250000D01*
G01*
X20835000Y-88460000D01*
G75*
G02*
X20585000Y-88710000I-250000J0D01*
G01*
X19635000Y-88710000D01*
G75*
G02*
X19385000Y-88460000I0J250000D01*
G01*
X19385000Y-87785000D01*
G75*
G02*
X19635000Y-87535000I250000J0D01*
G01*
G37*
%TD*%
%TO.C,C3*%
G36*
G01*
X61635000Y-57610000D02*
X62585000Y-57610000D01*
G75*
G02*
X62835000Y-57860000I0J-250000D01*
G01*
X62835000Y-58535000D01*
G75*
G02*
X62585000Y-58785000I-250000J0D01*
G01*
X61635000Y-58785000D01*
G75*
G02*
X61385000Y-58535000I0J250000D01*
G01*
X61385000Y-57860000D01*
G75*
G02*
X61635000Y-57610000I250000J0D01*
G01*
G37*
G36*
G01*
X61635000Y-55535000D02*
X62585000Y-55535000D01*
G75*
G02*
X62835000Y-55785000I0J-250000D01*
G01*
X62835000Y-56460000D01*
G75*
G02*
X62585000Y-56710000I-250000J0D01*
G01*
X61635000Y-56710000D01*
G75*
G02*
X61385000Y-56460000I0J250000D01*
G01*
X61385000Y-55785000D01*
G75*
G02*
X61635000Y-55535000I250000J0D01*
G01*
G37*
%TD*%
%TO.C,C3*%
G36*
G01*
X19635000Y-57610000D02*
X20585000Y-57610000D01*
G75*
G02*
X20835000Y-57860000I0J-250000D01*
G01*
X20835000Y-58535000D01*
G75*
G02*
X20585000Y-58785000I-250000J0D01*
G01*
X19635000Y-58785000D01*
G75*
G02*
X19385000Y-58535000I0J250000D01*
G01*
X19385000Y-57860000D01*
G75*
G02*
X19635000Y-57610000I250000J0D01*
G01*
G37*
G36*
G01*
X19635000Y-55535000D02*
X20585000Y-55535000D01*
G75*
G02*
X20835000Y-55785000I0J-250000D01*
G01*
X20835000Y-56460000D01*
G75*
G02*
X20585000Y-56710000I-250000J0D01*
G01*
X19635000Y-56710000D01*
G75*
G02*
X19385000Y-56460000I0J250000D01*
G01*
X19385000Y-55785000D01*
G75*
G02*
X19635000Y-55535000I250000J0D01*
G01*
G37*
%TD*%
%TO.C,C3*%
G36*
G01*
X61635000Y-25610000D02*
X62585000Y-25610000D01*
G75*
G02*
X62835000Y-25860000I0J-250000D01*
G01*
X62835000Y-26535000D01*
G75*
G02*
X62585000Y-26785000I-250000J0D01*
G01*
X61635000Y-26785000D01*
G75*
G02*
X61385000Y-26535000I0J250000D01*
G01*
X61385000Y-25860000D01*
G75*
G02*
X61635000Y-25610000I250000J0D01*
G01*
G37*
G36*
G01*
X61635000Y-23535000D02*
X62585000Y-23535000D01*
G75*
G02*
X62835000Y-23785000I0J-250000D01*
G01*
X62835000Y-24460000D01*
G75*
G02*
X62585000Y-24710000I-250000J0D01*
G01*
X61635000Y-24710000D01*
G75*
G02*
X61385000Y-24460000I0J250000D01*
G01*
X61385000Y-23785000D01*
G75*
G02*
X61635000Y-23535000I250000J0D01*
G01*
G37*
%TD*%
%TO.C,U4*%
G36*
G01*
X78390000Y-83295000D02*
X78390000Y-83595000D01*
G75*
G02*
X78240000Y-83745000I-150000J0D01*
G01*
X76590000Y-83745000D01*
G75*
G02*
X76440000Y-83595000I0J150000D01*
G01*
X76440000Y-83295000D01*
G75*
G02*
X76590000Y-83145000I150000J0D01*
G01*
X78240000Y-83145000D01*
G75*
G02*
X78390000Y-83295000I0J-150000D01*
G01*
G37*
G36*
G01*
X78390000Y-82025000D02*
X78390000Y-82325000D01*
G75*
G02*
X78240000Y-82475000I-150000J0D01*
G01*
X76590000Y-82475000D01*
G75*
G02*
X76440000Y-82325000I0J150000D01*
G01*
X76440000Y-82025000D01*
G75*
G02*
X76590000Y-81875000I150000J0D01*
G01*
X78240000Y-81875000D01*
G75*
G02*
X78390000Y-82025000I0J-150000D01*
G01*
G37*
G36*
G01*
X78390000Y-80755000D02*
X78390000Y-81055000D01*
G75*
G02*
X78240000Y-81205000I-150000J0D01*
G01*
X76590000Y-81205000D01*
G75*
G02*
X76440000Y-81055000I0J150000D01*
G01*
X76440000Y-80755000D01*
G75*
G02*
X76590000Y-80605000I150000J0D01*
G01*
X78240000Y-80605000D01*
G75*
G02*
X78390000Y-80755000I0J-150000D01*
G01*
G37*
G36*
G01*
X78390000Y-79485000D02*
X78390000Y-79785000D01*
G75*
G02*
X78240000Y-79935000I-150000J0D01*
G01*
X76590000Y-79935000D01*
G75*
G02*
X76440000Y-79785000I0J150000D01*
G01*
X76440000Y-79485000D01*
G75*
G02*
X76590000Y-79335000I150000J0D01*
G01*
X78240000Y-79335000D01*
G75*
G02*
X78390000Y-79485000I0J-150000D01*
G01*
G37*
G36*
G01*
X78390000Y-78215000D02*
X78390000Y-78515000D01*
G75*
G02*
X78240000Y-78665000I-150000J0D01*
G01*
X76590000Y-78665000D01*
G75*
G02*
X76440000Y-78515000I0J150000D01*
G01*
X76440000Y-78215000D01*
G75*
G02*
X76590000Y-78065000I150000J0D01*
G01*
X78240000Y-78065000D01*
G75*
G02*
X78390000Y-78215000I0J-150000D01*
G01*
G37*
G36*
G01*
X78390000Y-76945000D02*
X78390000Y-77245000D01*
G75*
G02*
X78240000Y-77395000I-150000J0D01*
G01*
X76590000Y-77395000D01*
G75*
G02*
X76440000Y-77245000I0J150000D01*
G01*
X76440000Y-76945000D01*
G75*
G02*
X76590000Y-76795000I150000J0D01*
G01*
X78240000Y-76795000D01*
G75*
G02*
X78390000Y-76945000I0J-150000D01*
G01*
G37*
G36*
G01*
X78390000Y-75675000D02*
X78390000Y-75975000D01*
G75*
G02*
X78240000Y-76125000I-150000J0D01*
G01*
X76590000Y-76125000D01*
G75*
G02*
X76440000Y-75975000I0J150000D01*
G01*
X76440000Y-75675000D01*
G75*
G02*
X76590000Y-75525000I150000J0D01*
G01*
X78240000Y-75525000D01*
G75*
G02*
X78390000Y-75675000I0J-150000D01*
G01*
G37*
G36*
G01*
X78390000Y-74405000D02*
X78390000Y-74705000D01*
G75*
G02*
X78240000Y-74855000I-150000J0D01*
G01*
X76590000Y-74855000D01*
G75*
G02*
X76440000Y-74705000I0J150000D01*
G01*
X76440000Y-74405000D01*
G75*
G02*
X76590000Y-74255000I150000J0D01*
G01*
X78240000Y-74255000D01*
G75*
G02*
X78390000Y-74405000I0J-150000D01*
G01*
G37*
G36*
G01*
X83340000Y-74405000D02*
X83340000Y-74705000D01*
G75*
G02*
X83190000Y-74855000I-150000J0D01*
G01*
X81540000Y-74855000D01*
G75*
G02*
X81390000Y-74705000I0J150000D01*
G01*
X81390000Y-74405000D01*
G75*
G02*
X81540000Y-74255000I150000J0D01*
G01*
X83190000Y-74255000D01*
G75*
G02*
X83340000Y-74405000I0J-150000D01*
G01*
G37*
G36*
G01*
X83340000Y-75675000D02*
X83340000Y-75975000D01*
G75*
G02*
X83190000Y-76125000I-150000J0D01*
G01*
X81540000Y-76125000D01*
G75*
G02*
X81390000Y-75975000I0J150000D01*
G01*
X81390000Y-75675000D01*
G75*
G02*
X81540000Y-75525000I150000J0D01*
G01*
X83190000Y-75525000D01*
G75*
G02*
X83340000Y-75675000I0J-150000D01*
G01*
G37*
G36*
G01*
X83340000Y-76945000D02*
X83340000Y-77245000D01*
G75*
G02*
X83190000Y-77395000I-150000J0D01*
G01*
X81540000Y-77395000D01*
G75*
G02*
X81390000Y-77245000I0J150000D01*
G01*
X81390000Y-76945000D01*
G75*
G02*
X81540000Y-76795000I150000J0D01*
G01*
X83190000Y-76795000D01*
G75*
G02*
X83340000Y-76945000I0J-150000D01*
G01*
G37*
G36*
G01*
X83340000Y-78215000D02*
X83340000Y-78515000D01*
G75*
G02*
X83190000Y-78665000I-150000J0D01*
G01*
X81540000Y-78665000D01*
G75*
G02*
X81390000Y-78515000I0J150000D01*
G01*
X81390000Y-78215000D01*
G75*
G02*
X81540000Y-78065000I150000J0D01*
G01*
X83190000Y-78065000D01*
G75*
G02*
X83340000Y-78215000I0J-150000D01*
G01*
G37*
G36*
G01*
X83340000Y-79485000D02*
X83340000Y-79785000D01*
G75*
G02*
X83190000Y-79935000I-150000J0D01*
G01*
X81540000Y-79935000D01*
G75*
G02*
X81390000Y-79785000I0J150000D01*
G01*
X81390000Y-79485000D01*
G75*
G02*
X81540000Y-79335000I150000J0D01*
G01*
X83190000Y-79335000D01*
G75*
G02*
X83340000Y-79485000I0J-150000D01*
G01*
G37*
G36*
G01*
X83340000Y-80755000D02*
X83340000Y-81055000D01*
G75*
G02*
X83190000Y-81205000I-150000J0D01*
G01*
X81540000Y-81205000D01*
G75*
G02*
X81390000Y-81055000I0J150000D01*
G01*
X81390000Y-80755000D01*
G75*
G02*
X81540000Y-80605000I150000J0D01*
G01*
X83190000Y-80605000D01*
G75*
G02*
X83340000Y-80755000I0J-150000D01*
G01*
G37*
G36*
G01*
X83340000Y-82025000D02*
X83340000Y-82325000D01*
G75*
G02*
X83190000Y-82475000I-150000J0D01*
G01*
X81540000Y-82475000D01*
G75*
G02*
X81390000Y-82325000I0J150000D01*
G01*
X81390000Y-82025000D01*
G75*
G02*
X81540000Y-81875000I150000J0D01*
G01*
X83190000Y-81875000D01*
G75*
G02*
X83340000Y-82025000I0J-150000D01*
G01*
G37*
G36*
G01*
X83340000Y-83295000D02*
X83340000Y-83595000D01*
G75*
G02*
X83190000Y-83745000I-150000J0D01*
G01*
X81540000Y-83745000D01*
G75*
G02*
X81390000Y-83595000I0J150000D01*
G01*
X81390000Y-83295000D01*
G75*
G02*
X81540000Y-83145000I150000J0D01*
G01*
X83190000Y-83145000D01*
G75*
G02*
X83340000Y-83295000I0J-150000D01*
G01*
G37*
%TD*%
%TO.C,U4*%
G36*
G01*
X36390000Y-83295000D02*
X36390000Y-83595000D01*
G75*
G02*
X36240000Y-83745000I-150000J0D01*
G01*
X34590000Y-83745000D01*
G75*
G02*
X34440000Y-83595000I0J150000D01*
G01*
X34440000Y-83295000D01*
G75*
G02*
X34590000Y-83145000I150000J0D01*
G01*
X36240000Y-83145000D01*
G75*
G02*
X36390000Y-83295000I0J-150000D01*
G01*
G37*
G36*
G01*
X36390000Y-82025000D02*
X36390000Y-82325000D01*
G75*
G02*
X36240000Y-82475000I-150000J0D01*
G01*
X34590000Y-82475000D01*
G75*
G02*
X34440000Y-82325000I0J150000D01*
G01*
X34440000Y-82025000D01*
G75*
G02*
X34590000Y-81875000I150000J0D01*
G01*
X36240000Y-81875000D01*
G75*
G02*
X36390000Y-82025000I0J-150000D01*
G01*
G37*
G36*
G01*
X36390000Y-80755000D02*
X36390000Y-81055000D01*
G75*
G02*
X36240000Y-81205000I-150000J0D01*
G01*
X34590000Y-81205000D01*
G75*
G02*
X34440000Y-81055000I0J150000D01*
G01*
X34440000Y-80755000D01*
G75*
G02*
X34590000Y-80605000I150000J0D01*
G01*
X36240000Y-80605000D01*
G75*
G02*
X36390000Y-80755000I0J-150000D01*
G01*
G37*
G36*
G01*
X36390000Y-79485000D02*
X36390000Y-79785000D01*
G75*
G02*
X36240000Y-79935000I-150000J0D01*
G01*
X34590000Y-79935000D01*
G75*
G02*
X34440000Y-79785000I0J150000D01*
G01*
X34440000Y-79485000D01*
G75*
G02*
X34590000Y-79335000I150000J0D01*
G01*
X36240000Y-79335000D01*
G75*
G02*
X36390000Y-79485000I0J-150000D01*
G01*
G37*
G36*
G01*
X36390000Y-78215000D02*
X36390000Y-78515000D01*
G75*
G02*
X36240000Y-78665000I-150000J0D01*
G01*
X34590000Y-78665000D01*
G75*
G02*
X34440000Y-78515000I0J150000D01*
G01*
X34440000Y-78215000D01*
G75*
G02*
X34590000Y-78065000I150000J0D01*
G01*
X36240000Y-78065000D01*
G75*
G02*
X36390000Y-78215000I0J-150000D01*
G01*
G37*
G36*
G01*
X36390000Y-76945000D02*
X36390000Y-77245000D01*
G75*
G02*
X36240000Y-77395000I-150000J0D01*
G01*
X34590000Y-77395000D01*
G75*
G02*
X34440000Y-77245000I0J150000D01*
G01*
X34440000Y-76945000D01*
G75*
G02*
X34590000Y-76795000I150000J0D01*
G01*
X36240000Y-76795000D01*
G75*
G02*
X36390000Y-76945000I0J-150000D01*
G01*
G37*
G36*
G01*
X36390000Y-75675000D02*
X36390000Y-75975000D01*
G75*
G02*
X36240000Y-76125000I-150000J0D01*
G01*
X34590000Y-76125000D01*
G75*
G02*
X34440000Y-75975000I0J150000D01*
G01*
X34440000Y-75675000D01*
G75*
G02*
X34590000Y-75525000I150000J0D01*
G01*
X36240000Y-75525000D01*
G75*
G02*
X36390000Y-75675000I0J-150000D01*
G01*
G37*
G36*
G01*
X36390000Y-74405000D02*
X36390000Y-74705000D01*
G75*
G02*
X36240000Y-74855000I-150000J0D01*
G01*
X34590000Y-74855000D01*
G75*
G02*
X34440000Y-74705000I0J150000D01*
G01*
X34440000Y-74405000D01*
G75*
G02*
X34590000Y-74255000I150000J0D01*
G01*
X36240000Y-74255000D01*
G75*
G02*
X36390000Y-74405000I0J-150000D01*
G01*
G37*
G36*
G01*
X41340000Y-74405000D02*
X41340000Y-74705000D01*
G75*
G02*
X41190000Y-74855000I-150000J0D01*
G01*
X39540000Y-74855000D01*
G75*
G02*
X39390000Y-74705000I0J150000D01*
G01*
X39390000Y-74405000D01*
G75*
G02*
X39540000Y-74255000I150000J0D01*
G01*
X41190000Y-74255000D01*
G75*
G02*
X41340000Y-74405000I0J-150000D01*
G01*
G37*
G36*
G01*
X41340000Y-75675000D02*
X41340000Y-75975000D01*
G75*
G02*
X41190000Y-76125000I-150000J0D01*
G01*
X39540000Y-76125000D01*
G75*
G02*
X39390000Y-75975000I0J150000D01*
G01*
X39390000Y-75675000D01*
G75*
G02*
X39540000Y-75525000I150000J0D01*
G01*
X41190000Y-75525000D01*
G75*
G02*
X41340000Y-75675000I0J-150000D01*
G01*
G37*
G36*
G01*
X41340000Y-76945000D02*
X41340000Y-77245000D01*
G75*
G02*
X41190000Y-77395000I-150000J0D01*
G01*
X39540000Y-77395000D01*
G75*
G02*
X39390000Y-77245000I0J150000D01*
G01*
X39390000Y-76945000D01*
G75*
G02*
X39540000Y-76795000I150000J0D01*
G01*
X41190000Y-76795000D01*
G75*
G02*
X41340000Y-76945000I0J-150000D01*
G01*
G37*
G36*
G01*
X41340000Y-78215000D02*
X41340000Y-78515000D01*
G75*
G02*
X41190000Y-78665000I-150000J0D01*
G01*
X39540000Y-78665000D01*
G75*
G02*
X39390000Y-78515000I0J150000D01*
G01*
X39390000Y-78215000D01*
G75*
G02*
X39540000Y-78065000I150000J0D01*
G01*
X41190000Y-78065000D01*
G75*
G02*
X41340000Y-78215000I0J-150000D01*
G01*
G37*
G36*
G01*
X41340000Y-79485000D02*
X41340000Y-79785000D01*
G75*
G02*
X41190000Y-79935000I-150000J0D01*
G01*
X39540000Y-79935000D01*
G75*
G02*
X39390000Y-79785000I0J150000D01*
G01*
X39390000Y-79485000D01*
G75*
G02*
X39540000Y-79335000I150000J0D01*
G01*
X41190000Y-79335000D01*
G75*
G02*
X41340000Y-79485000I0J-150000D01*
G01*
G37*
G36*
G01*
X41340000Y-80755000D02*
X41340000Y-81055000D01*
G75*
G02*
X41190000Y-81205000I-150000J0D01*
G01*
X39540000Y-81205000D01*
G75*
G02*
X39390000Y-81055000I0J150000D01*
G01*
X39390000Y-80755000D01*
G75*
G02*
X39540000Y-80605000I150000J0D01*
G01*
X41190000Y-80605000D01*
G75*
G02*
X41340000Y-80755000I0J-150000D01*
G01*
G37*
G36*
G01*
X41340000Y-82025000D02*
X41340000Y-82325000D01*
G75*
G02*
X41190000Y-82475000I-150000J0D01*
G01*
X39540000Y-82475000D01*
G75*
G02*
X39390000Y-82325000I0J150000D01*
G01*
X39390000Y-82025000D01*
G75*
G02*
X39540000Y-81875000I150000J0D01*
G01*
X41190000Y-81875000D01*
G75*
G02*
X41340000Y-82025000I0J-150000D01*
G01*
G37*
G36*
G01*
X41340000Y-83295000D02*
X41340000Y-83595000D01*
G75*
G02*
X41190000Y-83745000I-150000J0D01*
G01*
X39540000Y-83745000D01*
G75*
G02*
X39390000Y-83595000I0J150000D01*
G01*
X39390000Y-83295000D01*
G75*
G02*
X39540000Y-83145000I150000J0D01*
G01*
X41190000Y-83145000D01*
G75*
G02*
X41340000Y-83295000I0J-150000D01*
G01*
G37*
%TD*%
%TO.C,U4*%
G36*
G01*
X78390000Y-51295000D02*
X78390000Y-51595000D01*
G75*
G02*
X78240000Y-51745000I-150000J0D01*
G01*
X76590000Y-51745000D01*
G75*
G02*
X76440000Y-51595000I0J150000D01*
G01*
X76440000Y-51295000D01*
G75*
G02*
X76590000Y-51145000I150000J0D01*
G01*
X78240000Y-51145000D01*
G75*
G02*
X78390000Y-51295000I0J-150000D01*
G01*
G37*
G36*
G01*
X78390000Y-50025000D02*
X78390000Y-50325000D01*
G75*
G02*
X78240000Y-50475000I-150000J0D01*
G01*
X76590000Y-50475000D01*
G75*
G02*
X76440000Y-50325000I0J150000D01*
G01*
X76440000Y-50025000D01*
G75*
G02*
X76590000Y-49875000I150000J0D01*
G01*
X78240000Y-49875000D01*
G75*
G02*
X78390000Y-50025000I0J-150000D01*
G01*
G37*
G36*
G01*
X78390000Y-48755000D02*
X78390000Y-49055000D01*
G75*
G02*
X78240000Y-49205000I-150000J0D01*
G01*
X76590000Y-49205000D01*
G75*
G02*
X76440000Y-49055000I0J150000D01*
G01*
X76440000Y-48755000D01*
G75*
G02*
X76590000Y-48605000I150000J0D01*
G01*
X78240000Y-48605000D01*
G75*
G02*
X78390000Y-48755000I0J-150000D01*
G01*
G37*
G36*
G01*
X78390000Y-47485000D02*
X78390000Y-47785000D01*
G75*
G02*
X78240000Y-47935000I-150000J0D01*
G01*
X76590000Y-47935000D01*
G75*
G02*
X76440000Y-47785000I0J150000D01*
G01*
X76440000Y-47485000D01*
G75*
G02*
X76590000Y-47335000I150000J0D01*
G01*
X78240000Y-47335000D01*
G75*
G02*
X78390000Y-47485000I0J-150000D01*
G01*
G37*
G36*
G01*
X78390000Y-46215000D02*
X78390000Y-46515000D01*
G75*
G02*
X78240000Y-46665000I-150000J0D01*
G01*
X76590000Y-46665000D01*
G75*
G02*
X76440000Y-46515000I0J150000D01*
G01*
X76440000Y-46215000D01*
G75*
G02*
X76590000Y-46065000I150000J0D01*
G01*
X78240000Y-46065000D01*
G75*
G02*
X78390000Y-46215000I0J-150000D01*
G01*
G37*
G36*
G01*
X78390000Y-44945000D02*
X78390000Y-45245000D01*
G75*
G02*
X78240000Y-45395000I-150000J0D01*
G01*
X76590000Y-45395000D01*
G75*
G02*
X76440000Y-45245000I0J150000D01*
G01*
X76440000Y-44945000D01*
G75*
G02*
X76590000Y-44795000I150000J0D01*
G01*
X78240000Y-44795000D01*
G75*
G02*
X78390000Y-44945000I0J-150000D01*
G01*
G37*
G36*
G01*
X78390000Y-43675000D02*
X78390000Y-43975000D01*
G75*
G02*
X78240000Y-44125000I-150000J0D01*
G01*
X76590000Y-44125000D01*
G75*
G02*
X76440000Y-43975000I0J150000D01*
G01*
X76440000Y-43675000D01*
G75*
G02*
X76590000Y-43525000I150000J0D01*
G01*
X78240000Y-43525000D01*
G75*
G02*
X78390000Y-43675000I0J-150000D01*
G01*
G37*
G36*
G01*
X78390000Y-42405000D02*
X78390000Y-42705000D01*
G75*
G02*
X78240000Y-42855000I-150000J0D01*
G01*
X76590000Y-42855000D01*
G75*
G02*
X76440000Y-42705000I0J150000D01*
G01*
X76440000Y-42405000D01*
G75*
G02*
X76590000Y-42255000I150000J0D01*
G01*
X78240000Y-42255000D01*
G75*
G02*
X78390000Y-42405000I0J-150000D01*
G01*
G37*
G36*
G01*
X83340000Y-42405000D02*
X83340000Y-42705000D01*
G75*
G02*
X83190000Y-42855000I-150000J0D01*
G01*
X81540000Y-42855000D01*
G75*
G02*
X81390000Y-42705000I0J150000D01*
G01*
X81390000Y-42405000D01*
G75*
G02*
X81540000Y-42255000I150000J0D01*
G01*
X83190000Y-42255000D01*
G75*
G02*
X83340000Y-42405000I0J-150000D01*
G01*
G37*
G36*
G01*
X83340000Y-43675000D02*
X83340000Y-43975000D01*
G75*
G02*
X83190000Y-44125000I-150000J0D01*
G01*
X81540000Y-44125000D01*
G75*
G02*
X81390000Y-43975000I0J150000D01*
G01*
X81390000Y-43675000D01*
G75*
G02*
X81540000Y-43525000I150000J0D01*
G01*
X83190000Y-43525000D01*
G75*
G02*
X83340000Y-43675000I0J-150000D01*
G01*
G37*
G36*
G01*
X83340000Y-44945000D02*
X83340000Y-45245000D01*
G75*
G02*
X83190000Y-45395000I-150000J0D01*
G01*
X81540000Y-45395000D01*
G75*
G02*
X81390000Y-45245000I0J150000D01*
G01*
X81390000Y-44945000D01*
G75*
G02*
X81540000Y-44795000I150000J0D01*
G01*
X83190000Y-44795000D01*
G75*
G02*
X83340000Y-44945000I0J-150000D01*
G01*
G37*
G36*
G01*
X83340000Y-46215000D02*
X83340000Y-46515000D01*
G75*
G02*
X83190000Y-46665000I-150000J0D01*
G01*
X81540000Y-46665000D01*
G75*
G02*
X81390000Y-46515000I0J150000D01*
G01*
X81390000Y-46215000D01*
G75*
G02*
X81540000Y-46065000I150000J0D01*
G01*
X83190000Y-46065000D01*
G75*
G02*
X83340000Y-46215000I0J-150000D01*
G01*
G37*
G36*
G01*
X83340000Y-47485000D02*
X83340000Y-47785000D01*
G75*
G02*
X83190000Y-47935000I-150000J0D01*
G01*
X81540000Y-47935000D01*
G75*
G02*
X81390000Y-47785000I0J150000D01*
G01*
X81390000Y-47485000D01*
G75*
G02*
X81540000Y-47335000I150000J0D01*
G01*
X83190000Y-47335000D01*
G75*
G02*
X83340000Y-47485000I0J-150000D01*
G01*
G37*
G36*
G01*
X83340000Y-48755000D02*
X83340000Y-49055000D01*
G75*
G02*
X83190000Y-49205000I-150000J0D01*
G01*
X81540000Y-49205000D01*
G75*
G02*
X81390000Y-49055000I0J150000D01*
G01*
X81390000Y-48755000D01*
G75*
G02*
X81540000Y-48605000I150000J0D01*
G01*
X83190000Y-48605000D01*
G75*
G02*
X83340000Y-48755000I0J-150000D01*
G01*
G37*
G36*
G01*
X83340000Y-50025000D02*
X83340000Y-50325000D01*
G75*
G02*
X83190000Y-50475000I-150000J0D01*
G01*
X81540000Y-50475000D01*
G75*
G02*
X81390000Y-50325000I0J150000D01*
G01*
X81390000Y-50025000D01*
G75*
G02*
X81540000Y-49875000I150000J0D01*
G01*
X83190000Y-49875000D01*
G75*
G02*
X83340000Y-50025000I0J-150000D01*
G01*
G37*
G36*
G01*
X83340000Y-51295000D02*
X83340000Y-51595000D01*
G75*
G02*
X83190000Y-51745000I-150000J0D01*
G01*
X81540000Y-51745000D01*
G75*
G02*
X81390000Y-51595000I0J150000D01*
G01*
X81390000Y-51295000D01*
G75*
G02*
X81540000Y-51145000I150000J0D01*
G01*
X83190000Y-51145000D01*
G75*
G02*
X83340000Y-51295000I0J-150000D01*
G01*
G37*
%TD*%
%TO.C,U4*%
G36*
G01*
X36390000Y-51295000D02*
X36390000Y-51595000D01*
G75*
G02*
X36240000Y-51745000I-150000J0D01*
G01*
X34590000Y-51745000D01*
G75*
G02*
X34440000Y-51595000I0J150000D01*
G01*
X34440000Y-51295000D01*
G75*
G02*
X34590000Y-51145000I150000J0D01*
G01*
X36240000Y-51145000D01*
G75*
G02*
X36390000Y-51295000I0J-150000D01*
G01*
G37*
G36*
G01*
X36390000Y-50025000D02*
X36390000Y-50325000D01*
G75*
G02*
X36240000Y-50475000I-150000J0D01*
G01*
X34590000Y-50475000D01*
G75*
G02*
X34440000Y-50325000I0J150000D01*
G01*
X34440000Y-50025000D01*
G75*
G02*
X34590000Y-49875000I150000J0D01*
G01*
X36240000Y-49875000D01*
G75*
G02*
X36390000Y-50025000I0J-150000D01*
G01*
G37*
G36*
G01*
X36390000Y-48755000D02*
X36390000Y-49055000D01*
G75*
G02*
X36240000Y-49205000I-150000J0D01*
G01*
X34590000Y-49205000D01*
G75*
G02*
X34440000Y-49055000I0J150000D01*
G01*
X34440000Y-48755000D01*
G75*
G02*
X34590000Y-48605000I150000J0D01*
G01*
X36240000Y-48605000D01*
G75*
G02*
X36390000Y-48755000I0J-150000D01*
G01*
G37*
G36*
G01*
X36390000Y-47485000D02*
X36390000Y-47785000D01*
G75*
G02*
X36240000Y-47935000I-150000J0D01*
G01*
X34590000Y-47935000D01*
G75*
G02*
X34440000Y-47785000I0J150000D01*
G01*
X34440000Y-47485000D01*
G75*
G02*
X34590000Y-47335000I150000J0D01*
G01*
X36240000Y-47335000D01*
G75*
G02*
X36390000Y-47485000I0J-150000D01*
G01*
G37*
G36*
G01*
X36390000Y-46215000D02*
X36390000Y-46515000D01*
G75*
G02*
X36240000Y-46665000I-150000J0D01*
G01*
X34590000Y-46665000D01*
G75*
G02*
X34440000Y-46515000I0J150000D01*
G01*
X34440000Y-46215000D01*
G75*
G02*
X34590000Y-46065000I150000J0D01*
G01*
X36240000Y-46065000D01*
G75*
G02*
X36390000Y-46215000I0J-150000D01*
G01*
G37*
G36*
G01*
X36390000Y-44945000D02*
X36390000Y-45245000D01*
G75*
G02*
X36240000Y-45395000I-150000J0D01*
G01*
X34590000Y-45395000D01*
G75*
G02*
X34440000Y-45245000I0J150000D01*
G01*
X34440000Y-44945000D01*
G75*
G02*
X34590000Y-44795000I150000J0D01*
G01*
X36240000Y-44795000D01*
G75*
G02*
X36390000Y-44945000I0J-150000D01*
G01*
G37*
G36*
G01*
X36390000Y-43675000D02*
X36390000Y-43975000D01*
G75*
G02*
X36240000Y-44125000I-150000J0D01*
G01*
X34590000Y-44125000D01*
G75*
G02*
X34440000Y-43975000I0J150000D01*
G01*
X34440000Y-43675000D01*
G75*
G02*
X34590000Y-43525000I150000J0D01*
G01*
X36240000Y-43525000D01*
G75*
G02*
X36390000Y-43675000I0J-150000D01*
G01*
G37*
G36*
G01*
X36390000Y-42405000D02*
X36390000Y-42705000D01*
G75*
G02*
X36240000Y-42855000I-150000J0D01*
G01*
X34590000Y-42855000D01*
G75*
G02*
X34440000Y-42705000I0J150000D01*
G01*
X34440000Y-42405000D01*
G75*
G02*
X34590000Y-42255000I150000J0D01*
G01*
X36240000Y-42255000D01*
G75*
G02*
X36390000Y-42405000I0J-150000D01*
G01*
G37*
G36*
G01*
X41340000Y-42405000D02*
X41340000Y-42705000D01*
G75*
G02*
X41190000Y-42855000I-150000J0D01*
G01*
X39540000Y-42855000D01*
G75*
G02*
X39390000Y-42705000I0J150000D01*
G01*
X39390000Y-42405000D01*
G75*
G02*
X39540000Y-42255000I150000J0D01*
G01*
X41190000Y-42255000D01*
G75*
G02*
X41340000Y-42405000I0J-150000D01*
G01*
G37*
G36*
G01*
X41340000Y-43675000D02*
X41340000Y-43975000D01*
G75*
G02*
X41190000Y-44125000I-150000J0D01*
G01*
X39540000Y-44125000D01*
G75*
G02*
X39390000Y-43975000I0J150000D01*
G01*
X39390000Y-43675000D01*
G75*
G02*
X39540000Y-43525000I150000J0D01*
G01*
X41190000Y-43525000D01*
G75*
G02*
X41340000Y-43675000I0J-150000D01*
G01*
G37*
G36*
G01*
X41340000Y-44945000D02*
X41340000Y-45245000D01*
G75*
G02*
X41190000Y-45395000I-150000J0D01*
G01*
X39540000Y-45395000D01*
G75*
G02*
X39390000Y-45245000I0J150000D01*
G01*
X39390000Y-44945000D01*
G75*
G02*
X39540000Y-44795000I150000J0D01*
G01*
X41190000Y-44795000D01*
G75*
G02*
X41340000Y-44945000I0J-150000D01*
G01*
G37*
G36*
G01*
X41340000Y-46215000D02*
X41340000Y-46515000D01*
G75*
G02*
X41190000Y-46665000I-150000J0D01*
G01*
X39540000Y-46665000D01*
G75*
G02*
X39390000Y-46515000I0J150000D01*
G01*
X39390000Y-46215000D01*
G75*
G02*
X39540000Y-46065000I150000J0D01*
G01*
X41190000Y-46065000D01*
G75*
G02*
X41340000Y-46215000I0J-150000D01*
G01*
G37*
G36*
G01*
X41340000Y-47485000D02*
X41340000Y-47785000D01*
G75*
G02*
X41190000Y-47935000I-150000J0D01*
G01*
X39540000Y-47935000D01*
G75*
G02*
X39390000Y-47785000I0J150000D01*
G01*
X39390000Y-47485000D01*
G75*
G02*
X39540000Y-47335000I150000J0D01*
G01*
X41190000Y-47335000D01*
G75*
G02*
X41340000Y-47485000I0J-150000D01*
G01*
G37*
G36*
G01*
X41340000Y-48755000D02*
X41340000Y-49055000D01*
G75*
G02*
X41190000Y-49205000I-150000J0D01*
G01*
X39540000Y-49205000D01*
G75*
G02*
X39390000Y-49055000I0J150000D01*
G01*
X39390000Y-48755000D01*
G75*
G02*
X39540000Y-48605000I150000J0D01*
G01*
X41190000Y-48605000D01*
G75*
G02*
X41340000Y-48755000I0J-150000D01*
G01*
G37*
G36*
G01*
X41340000Y-50025000D02*
X41340000Y-50325000D01*
G75*
G02*
X41190000Y-50475000I-150000J0D01*
G01*
X39540000Y-50475000D01*
G75*
G02*
X39390000Y-50325000I0J150000D01*
G01*
X39390000Y-50025000D01*
G75*
G02*
X39540000Y-49875000I150000J0D01*
G01*
X41190000Y-49875000D01*
G75*
G02*
X41340000Y-50025000I0J-150000D01*
G01*
G37*
G36*
G01*
X41340000Y-51295000D02*
X41340000Y-51595000D01*
G75*
G02*
X41190000Y-51745000I-150000J0D01*
G01*
X39540000Y-51745000D01*
G75*
G02*
X39390000Y-51595000I0J150000D01*
G01*
X39390000Y-51295000D01*
G75*
G02*
X39540000Y-51145000I150000J0D01*
G01*
X41190000Y-51145000D01*
G75*
G02*
X41340000Y-51295000I0J-150000D01*
G01*
G37*
%TD*%
%TO.C,U4*%
G36*
G01*
X78390000Y-19295000D02*
X78390000Y-19595000D01*
G75*
G02*
X78240000Y-19745000I-150000J0D01*
G01*
X76590000Y-19745000D01*
G75*
G02*
X76440000Y-19595000I0J150000D01*
G01*
X76440000Y-19295000D01*
G75*
G02*
X76590000Y-19145000I150000J0D01*
G01*
X78240000Y-19145000D01*
G75*
G02*
X78390000Y-19295000I0J-150000D01*
G01*
G37*
G36*
G01*
X78390000Y-18025000D02*
X78390000Y-18325000D01*
G75*
G02*
X78240000Y-18475000I-150000J0D01*
G01*
X76590000Y-18475000D01*
G75*
G02*
X76440000Y-18325000I0J150000D01*
G01*
X76440000Y-18025000D01*
G75*
G02*
X76590000Y-17875000I150000J0D01*
G01*
X78240000Y-17875000D01*
G75*
G02*
X78390000Y-18025000I0J-150000D01*
G01*
G37*
G36*
G01*
X78390000Y-16755000D02*
X78390000Y-17055000D01*
G75*
G02*
X78240000Y-17205000I-150000J0D01*
G01*
X76590000Y-17205000D01*
G75*
G02*
X76440000Y-17055000I0J150000D01*
G01*
X76440000Y-16755000D01*
G75*
G02*
X76590000Y-16605000I150000J0D01*
G01*
X78240000Y-16605000D01*
G75*
G02*
X78390000Y-16755000I0J-150000D01*
G01*
G37*
G36*
G01*
X78390000Y-15485000D02*
X78390000Y-15785000D01*
G75*
G02*
X78240000Y-15935000I-150000J0D01*
G01*
X76590000Y-15935000D01*
G75*
G02*
X76440000Y-15785000I0J150000D01*
G01*
X76440000Y-15485000D01*
G75*
G02*
X76590000Y-15335000I150000J0D01*
G01*
X78240000Y-15335000D01*
G75*
G02*
X78390000Y-15485000I0J-150000D01*
G01*
G37*
G36*
G01*
X78390000Y-14215000D02*
X78390000Y-14515000D01*
G75*
G02*
X78240000Y-14665000I-150000J0D01*
G01*
X76590000Y-14665000D01*
G75*
G02*
X76440000Y-14515000I0J150000D01*
G01*
X76440000Y-14215000D01*
G75*
G02*
X76590000Y-14065000I150000J0D01*
G01*
X78240000Y-14065000D01*
G75*
G02*
X78390000Y-14215000I0J-150000D01*
G01*
G37*
G36*
G01*
X78390000Y-12945000D02*
X78390000Y-13245000D01*
G75*
G02*
X78240000Y-13395000I-150000J0D01*
G01*
X76590000Y-13395000D01*
G75*
G02*
X76440000Y-13245000I0J150000D01*
G01*
X76440000Y-12945000D01*
G75*
G02*
X76590000Y-12795000I150000J0D01*
G01*
X78240000Y-12795000D01*
G75*
G02*
X78390000Y-12945000I0J-150000D01*
G01*
G37*
G36*
G01*
X78390000Y-11675000D02*
X78390000Y-11975000D01*
G75*
G02*
X78240000Y-12125000I-150000J0D01*
G01*
X76590000Y-12125000D01*
G75*
G02*
X76440000Y-11975000I0J150000D01*
G01*
X76440000Y-11675000D01*
G75*
G02*
X76590000Y-11525000I150000J0D01*
G01*
X78240000Y-11525000D01*
G75*
G02*
X78390000Y-11675000I0J-150000D01*
G01*
G37*
G36*
G01*
X78390000Y-10405000D02*
X78390000Y-10705000D01*
G75*
G02*
X78240000Y-10855000I-150000J0D01*
G01*
X76590000Y-10855000D01*
G75*
G02*
X76440000Y-10705000I0J150000D01*
G01*
X76440000Y-10405000D01*
G75*
G02*
X76590000Y-10255000I150000J0D01*
G01*
X78240000Y-10255000D01*
G75*
G02*
X78390000Y-10405000I0J-150000D01*
G01*
G37*
G36*
G01*
X83340000Y-10405000D02*
X83340000Y-10705000D01*
G75*
G02*
X83190000Y-10855000I-150000J0D01*
G01*
X81540000Y-10855000D01*
G75*
G02*
X81390000Y-10705000I0J150000D01*
G01*
X81390000Y-10405000D01*
G75*
G02*
X81540000Y-10255000I150000J0D01*
G01*
X83190000Y-10255000D01*
G75*
G02*
X83340000Y-10405000I0J-150000D01*
G01*
G37*
G36*
G01*
X83340000Y-11675000D02*
X83340000Y-11975000D01*
G75*
G02*
X83190000Y-12125000I-150000J0D01*
G01*
X81540000Y-12125000D01*
G75*
G02*
X81390000Y-11975000I0J150000D01*
G01*
X81390000Y-11675000D01*
G75*
G02*
X81540000Y-11525000I150000J0D01*
G01*
X83190000Y-11525000D01*
G75*
G02*
X83340000Y-11675000I0J-150000D01*
G01*
G37*
G36*
G01*
X83340000Y-12945000D02*
X83340000Y-13245000D01*
G75*
G02*
X83190000Y-13395000I-150000J0D01*
G01*
X81540000Y-13395000D01*
G75*
G02*
X81390000Y-13245000I0J150000D01*
G01*
X81390000Y-12945000D01*
G75*
G02*
X81540000Y-12795000I150000J0D01*
G01*
X83190000Y-12795000D01*
G75*
G02*
X83340000Y-12945000I0J-150000D01*
G01*
G37*
G36*
G01*
X83340000Y-14215000D02*
X83340000Y-14515000D01*
G75*
G02*
X83190000Y-14665000I-150000J0D01*
G01*
X81540000Y-14665000D01*
G75*
G02*
X81390000Y-14515000I0J150000D01*
G01*
X81390000Y-14215000D01*
G75*
G02*
X81540000Y-14065000I150000J0D01*
G01*
X83190000Y-14065000D01*
G75*
G02*
X83340000Y-14215000I0J-150000D01*
G01*
G37*
G36*
G01*
X83340000Y-15485000D02*
X83340000Y-15785000D01*
G75*
G02*
X83190000Y-15935000I-150000J0D01*
G01*
X81540000Y-15935000D01*
G75*
G02*
X81390000Y-15785000I0J150000D01*
G01*
X81390000Y-15485000D01*
G75*
G02*
X81540000Y-15335000I150000J0D01*
G01*
X83190000Y-15335000D01*
G75*
G02*
X83340000Y-15485000I0J-150000D01*
G01*
G37*
G36*
G01*
X83340000Y-16755000D02*
X83340000Y-17055000D01*
G75*
G02*
X83190000Y-17205000I-150000J0D01*
G01*
X81540000Y-17205000D01*
G75*
G02*
X81390000Y-17055000I0J150000D01*
G01*
X81390000Y-16755000D01*
G75*
G02*
X81540000Y-16605000I150000J0D01*
G01*
X83190000Y-16605000D01*
G75*
G02*
X83340000Y-16755000I0J-150000D01*
G01*
G37*
G36*
G01*
X83340000Y-18025000D02*
X83340000Y-18325000D01*
G75*
G02*
X83190000Y-18475000I-150000J0D01*
G01*
X81540000Y-18475000D01*
G75*
G02*
X81390000Y-18325000I0J150000D01*
G01*
X81390000Y-18025000D01*
G75*
G02*
X81540000Y-17875000I150000J0D01*
G01*
X83190000Y-17875000D01*
G75*
G02*
X83340000Y-18025000I0J-150000D01*
G01*
G37*
G36*
G01*
X83340000Y-19295000D02*
X83340000Y-19595000D01*
G75*
G02*
X83190000Y-19745000I-150000J0D01*
G01*
X81540000Y-19745000D01*
G75*
G02*
X81390000Y-19595000I0J150000D01*
G01*
X81390000Y-19295000D01*
G75*
G02*
X81540000Y-19145000I150000J0D01*
G01*
X83190000Y-19145000D01*
G75*
G02*
X83340000Y-19295000I0J-150000D01*
G01*
G37*
%TD*%
%TO.C,R8*%
G36*
G01*
X77800001Y-70980000D02*
X76899999Y-70980000D01*
G75*
G02*
X76650000Y-70730001I0J249999D01*
G01*
X76650000Y-70029999D01*
G75*
G02*
X76899999Y-69780000I249999J0D01*
G01*
X77800001Y-69780000D01*
G75*
G02*
X78050000Y-70029999I0J-249999D01*
G01*
X78050000Y-70730001D01*
G75*
G02*
X77800001Y-70980000I-249999J0D01*
G01*
G37*
G36*
G01*
X77800001Y-72980000D02*
X76899999Y-72980000D01*
G75*
G02*
X76650000Y-72730001I0J249999D01*
G01*
X76650000Y-72029999D01*
G75*
G02*
X76899999Y-71780000I249999J0D01*
G01*
X77800001Y-71780000D01*
G75*
G02*
X78050000Y-72029999I0J-249999D01*
G01*
X78050000Y-72730001D01*
G75*
G02*
X77800001Y-72980000I-249999J0D01*
G01*
G37*
%TD*%
%TO.C,R8*%
G36*
G01*
X35800001Y-70980000D02*
X34899999Y-70980000D01*
G75*
G02*
X34650000Y-70730001I0J249999D01*
G01*
X34650000Y-70029999D01*
G75*
G02*
X34899999Y-69780000I249999J0D01*
G01*
X35800001Y-69780000D01*
G75*
G02*
X36050000Y-70029999I0J-249999D01*
G01*
X36050000Y-70730001D01*
G75*
G02*
X35800001Y-70980000I-249999J0D01*
G01*
G37*
G36*
G01*
X35800001Y-72980000D02*
X34899999Y-72980000D01*
G75*
G02*
X34650000Y-72730001I0J249999D01*
G01*
X34650000Y-72029999D01*
G75*
G02*
X34899999Y-71780000I249999J0D01*
G01*
X35800001Y-71780000D01*
G75*
G02*
X36050000Y-72029999I0J-249999D01*
G01*
X36050000Y-72730001D01*
G75*
G02*
X35800001Y-72980000I-249999J0D01*
G01*
G37*
%TD*%
%TO.C,R8*%
G36*
G01*
X77800001Y-38980000D02*
X76899999Y-38980000D01*
G75*
G02*
X76650000Y-38730001I0J249999D01*
G01*
X76650000Y-38029999D01*
G75*
G02*
X76899999Y-37780000I249999J0D01*
G01*
X77800001Y-37780000D01*
G75*
G02*
X78050000Y-38029999I0J-249999D01*
G01*
X78050000Y-38730001D01*
G75*
G02*
X77800001Y-38980000I-249999J0D01*
G01*
G37*
G36*
G01*
X77800001Y-40980000D02*
X76899999Y-40980000D01*
G75*
G02*
X76650000Y-40730001I0J249999D01*
G01*
X76650000Y-40029999D01*
G75*
G02*
X76899999Y-39780000I249999J0D01*
G01*
X77800001Y-39780000D01*
G75*
G02*
X78050000Y-40029999I0J-249999D01*
G01*
X78050000Y-40730001D01*
G75*
G02*
X77800001Y-40980000I-249999J0D01*
G01*
G37*
%TD*%
%TO.C,R8*%
G36*
G01*
X35800001Y-38980000D02*
X34899999Y-38980000D01*
G75*
G02*
X34650000Y-38730001I0J249999D01*
G01*
X34650000Y-38029999D01*
G75*
G02*
X34899999Y-37780000I249999J0D01*
G01*
X35800001Y-37780000D01*
G75*
G02*
X36050000Y-38029999I0J-249999D01*
G01*
X36050000Y-38730001D01*
G75*
G02*
X35800001Y-38980000I-249999J0D01*
G01*
G37*
G36*
G01*
X35800001Y-40980000D02*
X34899999Y-40980000D01*
G75*
G02*
X34650000Y-40730001I0J249999D01*
G01*
X34650000Y-40029999D01*
G75*
G02*
X34899999Y-39780000I249999J0D01*
G01*
X35800001Y-39780000D01*
G75*
G02*
X36050000Y-40029999I0J-249999D01*
G01*
X36050000Y-40730001D01*
G75*
G02*
X35800001Y-40980000I-249999J0D01*
G01*
G37*
%TD*%
%TO.C,R8*%
G36*
G01*
X77800001Y-6980000D02*
X76899999Y-6980000D01*
G75*
G02*
X76650000Y-6730001I0J249999D01*
G01*
X76650000Y-6029999D01*
G75*
G02*
X76899999Y-5780000I249999J0D01*
G01*
X77800001Y-5780000D01*
G75*
G02*
X78050000Y-6029999I0J-249999D01*
G01*
X78050000Y-6730001D01*
G75*
G02*
X77800001Y-6980000I-249999J0D01*
G01*
G37*
G36*
G01*
X77800001Y-8980000D02*
X76899999Y-8980000D01*
G75*
G02*
X76650000Y-8730001I0J249999D01*
G01*
X76650000Y-8029999D01*
G75*
G02*
X76899999Y-7780000I249999J0D01*
G01*
X77800001Y-7780000D01*
G75*
G02*
X78050000Y-8029999I0J-249999D01*
G01*
X78050000Y-8730001D01*
G75*
G02*
X77800001Y-8980000I-249999J0D01*
G01*
G37*
%TD*%
%TO.C,R6*%
G36*
G01*
X61659999Y-69875000D02*
X62560001Y-69875000D01*
G75*
G02*
X62810000Y-70124999I0J-249999D01*
G01*
X62810000Y-70825001D01*
G75*
G02*
X62560001Y-71075000I-249999J0D01*
G01*
X61659999Y-71075000D01*
G75*
G02*
X61410000Y-70825001I0J249999D01*
G01*
X61410000Y-70124999D01*
G75*
G02*
X61659999Y-69875000I249999J0D01*
G01*
G37*
G36*
G01*
X61659999Y-67875000D02*
X62560001Y-67875000D01*
G75*
G02*
X62810000Y-68124999I0J-249999D01*
G01*
X62810000Y-68825001D01*
G75*
G02*
X62560001Y-69075000I-249999J0D01*
G01*
X61659999Y-69075000D01*
G75*
G02*
X61410000Y-68825001I0J249999D01*
G01*
X61410000Y-68124999D01*
G75*
G02*
X61659999Y-67875000I249999J0D01*
G01*
G37*
%TD*%
%TO.C,R6*%
G36*
G01*
X19659999Y-69875000D02*
X20560001Y-69875000D01*
G75*
G02*
X20810000Y-70124999I0J-249999D01*
G01*
X20810000Y-70825001D01*
G75*
G02*
X20560001Y-71075000I-249999J0D01*
G01*
X19659999Y-71075000D01*
G75*
G02*
X19410000Y-70825001I0J249999D01*
G01*
X19410000Y-70124999D01*
G75*
G02*
X19659999Y-69875000I249999J0D01*
G01*
G37*
G36*
G01*
X19659999Y-67875000D02*
X20560001Y-67875000D01*
G75*
G02*
X20810000Y-68124999I0J-249999D01*
G01*
X20810000Y-68825001D01*
G75*
G02*
X20560001Y-69075000I-249999J0D01*
G01*
X19659999Y-69075000D01*
G75*
G02*
X19410000Y-68825001I0J249999D01*
G01*
X19410000Y-68124999D01*
G75*
G02*
X19659999Y-67875000I249999J0D01*
G01*
G37*
%TD*%
%TO.C,R6*%
G36*
G01*
X61659999Y-37875000D02*
X62560001Y-37875000D01*
G75*
G02*
X62810000Y-38124999I0J-249999D01*
G01*
X62810000Y-38825001D01*
G75*
G02*
X62560001Y-39075000I-249999J0D01*
G01*
X61659999Y-39075000D01*
G75*
G02*
X61410000Y-38825001I0J249999D01*
G01*
X61410000Y-38124999D01*
G75*
G02*
X61659999Y-37875000I249999J0D01*
G01*
G37*
G36*
G01*
X61659999Y-35875000D02*
X62560001Y-35875000D01*
G75*
G02*
X62810000Y-36124999I0J-249999D01*
G01*
X62810000Y-36825001D01*
G75*
G02*
X62560001Y-37075000I-249999J0D01*
G01*
X61659999Y-37075000D01*
G75*
G02*
X61410000Y-36825001I0J249999D01*
G01*
X61410000Y-36124999D01*
G75*
G02*
X61659999Y-35875000I249999J0D01*
G01*
G37*
%TD*%
%TO.C,R6*%
G36*
G01*
X19659999Y-37875000D02*
X20560001Y-37875000D01*
G75*
G02*
X20810000Y-38124999I0J-249999D01*
G01*
X20810000Y-38825001D01*
G75*
G02*
X20560001Y-39075000I-249999J0D01*
G01*
X19659999Y-39075000D01*
G75*
G02*
X19410000Y-38825001I0J249999D01*
G01*
X19410000Y-38124999D01*
G75*
G02*
X19659999Y-37875000I249999J0D01*
G01*
G37*
G36*
G01*
X19659999Y-35875000D02*
X20560001Y-35875000D01*
G75*
G02*
X20810000Y-36124999I0J-249999D01*
G01*
X20810000Y-36825001D01*
G75*
G02*
X20560001Y-37075000I-249999J0D01*
G01*
X19659999Y-37075000D01*
G75*
G02*
X19410000Y-36825001I0J249999D01*
G01*
X19410000Y-36124999D01*
G75*
G02*
X19659999Y-35875000I249999J0D01*
G01*
G37*
%TD*%
%TO.C,R6*%
G36*
G01*
X61659999Y-5875000D02*
X62560001Y-5875000D01*
G75*
G02*
X62810000Y-6124999I0J-249999D01*
G01*
X62810000Y-6825001D01*
G75*
G02*
X62560001Y-7075000I-249999J0D01*
G01*
X61659999Y-7075000D01*
G75*
G02*
X61410000Y-6825001I0J249999D01*
G01*
X61410000Y-6124999D01*
G75*
G02*
X61659999Y-5875000I249999J0D01*
G01*
G37*
G36*
G01*
X61659999Y-3875000D02*
X62560001Y-3875000D01*
G75*
G02*
X62810000Y-4124999I0J-249999D01*
G01*
X62810000Y-4825001D01*
G75*
G02*
X62560001Y-5075000I-249999J0D01*
G01*
X61659999Y-5075000D01*
G75*
G02*
X61410000Y-4825001I0J249999D01*
G01*
X61410000Y-4124999D01*
G75*
G02*
X61659999Y-3875000I249999J0D01*
G01*
G37*
%TD*%
%TO.C,C12*%
G36*
G01*
X80365000Y-70930000D02*
X79415000Y-70930000D01*
G75*
G02*
X79165000Y-70680000I0J250000D01*
G01*
X79165000Y-70005000D01*
G75*
G02*
X79415000Y-69755000I250000J0D01*
G01*
X80365000Y-69755000D01*
G75*
G02*
X80615000Y-70005000I0J-250000D01*
G01*
X80615000Y-70680000D01*
G75*
G02*
X80365000Y-70930000I-250000J0D01*
G01*
G37*
G36*
G01*
X80365000Y-73005000D02*
X79415000Y-73005000D01*
G75*
G02*
X79165000Y-72755000I0J250000D01*
G01*
X79165000Y-72080000D01*
G75*
G02*
X79415000Y-71830000I250000J0D01*
G01*
X80365000Y-71830000D01*
G75*
G02*
X80615000Y-72080000I0J-250000D01*
G01*
X80615000Y-72755000D01*
G75*
G02*
X80365000Y-73005000I-250000J0D01*
G01*
G37*
%TD*%
%TO.C,C12*%
G36*
G01*
X38365000Y-70930000D02*
X37415000Y-70930000D01*
G75*
G02*
X37165000Y-70680000I0J250000D01*
G01*
X37165000Y-70005000D01*
G75*
G02*
X37415000Y-69755000I250000J0D01*
G01*
X38365000Y-69755000D01*
G75*
G02*
X38615000Y-70005000I0J-250000D01*
G01*
X38615000Y-70680000D01*
G75*
G02*
X38365000Y-70930000I-250000J0D01*
G01*
G37*
G36*
G01*
X38365000Y-73005000D02*
X37415000Y-73005000D01*
G75*
G02*
X37165000Y-72755000I0J250000D01*
G01*
X37165000Y-72080000D01*
G75*
G02*
X37415000Y-71830000I250000J0D01*
G01*
X38365000Y-71830000D01*
G75*
G02*
X38615000Y-72080000I0J-250000D01*
G01*
X38615000Y-72755000D01*
G75*
G02*
X38365000Y-73005000I-250000J0D01*
G01*
G37*
%TD*%
%TO.C,C12*%
G36*
G01*
X80365000Y-38930000D02*
X79415000Y-38930000D01*
G75*
G02*
X79165000Y-38680000I0J250000D01*
G01*
X79165000Y-38005000D01*
G75*
G02*
X79415000Y-37755000I250000J0D01*
G01*
X80365000Y-37755000D01*
G75*
G02*
X80615000Y-38005000I0J-250000D01*
G01*
X80615000Y-38680000D01*
G75*
G02*
X80365000Y-38930000I-250000J0D01*
G01*
G37*
G36*
G01*
X80365000Y-41005000D02*
X79415000Y-41005000D01*
G75*
G02*
X79165000Y-40755000I0J250000D01*
G01*
X79165000Y-40080000D01*
G75*
G02*
X79415000Y-39830000I250000J0D01*
G01*
X80365000Y-39830000D01*
G75*
G02*
X80615000Y-40080000I0J-250000D01*
G01*
X80615000Y-40755000D01*
G75*
G02*
X80365000Y-41005000I-250000J0D01*
G01*
G37*
%TD*%
%TO.C,C12*%
G36*
G01*
X38365000Y-38930000D02*
X37415000Y-38930000D01*
G75*
G02*
X37165000Y-38680000I0J250000D01*
G01*
X37165000Y-38005000D01*
G75*
G02*
X37415000Y-37755000I250000J0D01*
G01*
X38365000Y-37755000D01*
G75*
G02*
X38615000Y-38005000I0J-250000D01*
G01*
X38615000Y-38680000D01*
G75*
G02*
X38365000Y-38930000I-250000J0D01*
G01*
G37*
G36*
G01*
X38365000Y-41005000D02*
X37415000Y-41005000D01*
G75*
G02*
X37165000Y-40755000I0J250000D01*
G01*
X37165000Y-40080000D01*
G75*
G02*
X37415000Y-39830000I250000J0D01*
G01*
X38365000Y-39830000D01*
G75*
G02*
X38615000Y-40080000I0J-250000D01*
G01*
X38615000Y-40755000D01*
G75*
G02*
X38365000Y-41005000I-250000J0D01*
G01*
G37*
%TD*%
%TO.C,C12*%
G36*
G01*
X80365000Y-6930000D02*
X79415000Y-6930000D01*
G75*
G02*
X79165000Y-6680000I0J250000D01*
G01*
X79165000Y-6005000D01*
G75*
G02*
X79415000Y-5755000I250000J0D01*
G01*
X80365000Y-5755000D01*
G75*
G02*
X80615000Y-6005000I0J-250000D01*
G01*
X80615000Y-6680000D01*
G75*
G02*
X80365000Y-6930000I-250000J0D01*
G01*
G37*
G36*
G01*
X80365000Y-9005000D02*
X79415000Y-9005000D01*
G75*
G02*
X79165000Y-8755000I0J250000D01*
G01*
X79165000Y-8080000D01*
G75*
G02*
X79415000Y-7830000I250000J0D01*
G01*
X80365000Y-7830000D01*
G75*
G02*
X80615000Y-8080000I0J-250000D01*
G01*
X80615000Y-8755000D01*
G75*
G02*
X80365000Y-9005000I-250000J0D01*
G01*
G37*
%TD*%
%TO.C,C5*%
G36*
G01*
X61635000Y-74370000D02*
X62585000Y-74370000D01*
G75*
G02*
X62835000Y-74620000I0J-250000D01*
G01*
X62835000Y-75295000D01*
G75*
G02*
X62585000Y-75545000I-250000J0D01*
G01*
X61635000Y-75545000D01*
G75*
G02*
X61385000Y-75295000I0J250000D01*
G01*
X61385000Y-74620000D01*
G75*
G02*
X61635000Y-74370000I250000J0D01*
G01*
G37*
G36*
G01*
X61635000Y-72295000D02*
X62585000Y-72295000D01*
G75*
G02*
X62835000Y-72545000I0J-250000D01*
G01*
X62835000Y-73220000D01*
G75*
G02*
X62585000Y-73470000I-250000J0D01*
G01*
X61635000Y-73470000D01*
G75*
G02*
X61385000Y-73220000I0J250000D01*
G01*
X61385000Y-72545000D01*
G75*
G02*
X61635000Y-72295000I250000J0D01*
G01*
G37*
%TD*%
%TO.C,C5*%
G36*
G01*
X19635000Y-74370000D02*
X20585000Y-74370000D01*
G75*
G02*
X20835000Y-74620000I0J-250000D01*
G01*
X20835000Y-75295000D01*
G75*
G02*
X20585000Y-75545000I-250000J0D01*
G01*
X19635000Y-75545000D01*
G75*
G02*
X19385000Y-75295000I0J250000D01*
G01*
X19385000Y-74620000D01*
G75*
G02*
X19635000Y-74370000I250000J0D01*
G01*
G37*
G36*
G01*
X19635000Y-72295000D02*
X20585000Y-72295000D01*
G75*
G02*
X20835000Y-72545000I0J-250000D01*
G01*
X20835000Y-73220000D01*
G75*
G02*
X20585000Y-73470000I-250000J0D01*
G01*
X19635000Y-73470000D01*
G75*
G02*
X19385000Y-73220000I0J250000D01*
G01*
X19385000Y-72545000D01*
G75*
G02*
X19635000Y-72295000I250000J0D01*
G01*
G37*
%TD*%
%TO.C,C5*%
G36*
G01*
X61635000Y-42370000D02*
X62585000Y-42370000D01*
G75*
G02*
X62835000Y-42620000I0J-250000D01*
G01*
X62835000Y-43295000D01*
G75*
G02*
X62585000Y-43545000I-250000J0D01*
G01*
X61635000Y-43545000D01*
G75*
G02*
X61385000Y-43295000I0J250000D01*
G01*
X61385000Y-42620000D01*
G75*
G02*
X61635000Y-42370000I250000J0D01*
G01*
G37*
G36*
G01*
X61635000Y-40295000D02*
X62585000Y-40295000D01*
G75*
G02*
X62835000Y-40545000I0J-250000D01*
G01*
X62835000Y-41220000D01*
G75*
G02*
X62585000Y-41470000I-250000J0D01*
G01*
X61635000Y-41470000D01*
G75*
G02*
X61385000Y-41220000I0J250000D01*
G01*
X61385000Y-40545000D01*
G75*
G02*
X61635000Y-40295000I250000J0D01*
G01*
G37*
%TD*%
%TO.C,C5*%
G36*
G01*
X19635000Y-42370000D02*
X20585000Y-42370000D01*
G75*
G02*
X20835000Y-42620000I0J-250000D01*
G01*
X20835000Y-43295000D01*
G75*
G02*
X20585000Y-43545000I-250000J0D01*
G01*
X19635000Y-43545000D01*
G75*
G02*
X19385000Y-43295000I0J250000D01*
G01*
X19385000Y-42620000D01*
G75*
G02*
X19635000Y-42370000I250000J0D01*
G01*
G37*
G36*
G01*
X19635000Y-40295000D02*
X20585000Y-40295000D01*
G75*
G02*
X20835000Y-40545000I0J-250000D01*
G01*
X20835000Y-41220000D01*
G75*
G02*
X20585000Y-41470000I-250000J0D01*
G01*
X19635000Y-41470000D01*
G75*
G02*
X19385000Y-41220000I0J250000D01*
G01*
X19385000Y-40545000D01*
G75*
G02*
X19635000Y-40295000I250000J0D01*
G01*
G37*
%TD*%
%TO.C,C5*%
G36*
G01*
X61635000Y-10370000D02*
X62585000Y-10370000D01*
G75*
G02*
X62835000Y-10620000I0J-250000D01*
G01*
X62835000Y-11295000D01*
G75*
G02*
X62585000Y-11545000I-250000J0D01*
G01*
X61635000Y-11545000D01*
G75*
G02*
X61385000Y-11295000I0J250000D01*
G01*
X61385000Y-10620000D01*
G75*
G02*
X61635000Y-10370000I250000J0D01*
G01*
G37*
G36*
G01*
X61635000Y-8295000D02*
X62585000Y-8295000D01*
G75*
G02*
X62835000Y-8545000I0J-250000D01*
G01*
X62835000Y-9220000D01*
G75*
G02*
X62585000Y-9470000I-250000J0D01*
G01*
X61635000Y-9470000D01*
G75*
G02*
X61385000Y-9220000I0J250000D01*
G01*
X61385000Y-8545000D01*
G75*
G02*
X61635000Y-8295000I250000J0D01*
G01*
G37*
%TD*%
%TO.C,R2*%
G36*
G01*
X57900000Y-89979999D02*
X57900000Y-90880001D01*
G75*
G02*
X57650001Y-91130000I-249999J0D01*
G01*
X56949999Y-91130000D01*
G75*
G02*
X56700000Y-90880001I0J249999D01*
G01*
X56700000Y-89979999D01*
G75*
G02*
X56949999Y-89730000I249999J0D01*
G01*
X57650001Y-89730000D01*
G75*
G02*
X57900000Y-89979999I0J-249999D01*
G01*
G37*
G36*
G01*
X59900000Y-89979999D02*
X59900000Y-90880001D01*
G75*
G02*
X59650001Y-91130000I-249999J0D01*
G01*
X58949999Y-91130000D01*
G75*
G02*
X58700000Y-90880001I0J249999D01*
G01*
X58700000Y-89979999D01*
G75*
G02*
X58949999Y-89730000I249999J0D01*
G01*
X59650001Y-89730000D01*
G75*
G02*
X59900000Y-89979999I0J-249999D01*
G01*
G37*
%TD*%
%TO.C,R2*%
G36*
G01*
X15900000Y-89979999D02*
X15900000Y-90880001D01*
G75*
G02*
X15650001Y-91130000I-249999J0D01*
G01*
X14949999Y-91130000D01*
G75*
G02*
X14700000Y-90880001I0J249999D01*
G01*
X14700000Y-89979999D01*
G75*
G02*
X14949999Y-89730000I249999J0D01*
G01*
X15650001Y-89730000D01*
G75*
G02*
X15900000Y-89979999I0J-249999D01*
G01*
G37*
G36*
G01*
X17900000Y-89979999D02*
X17900000Y-90880001D01*
G75*
G02*
X17650001Y-91130000I-249999J0D01*
G01*
X16949999Y-91130000D01*
G75*
G02*
X16700000Y-90880001I0J249999D01*
G01*
X16700000Y-89979999D01*
G75*
G02*
X16949999Y-89730000I249999J0D01*
G01*
X17650001Y-89730000D01*
G75*
G02*
X17900000Y-89979999I0J-249999D01*
G01*
G37*
%TD*%
%TO.C,R2*%
G36*
G01*
X57900000Y-57979999D02*
X57900000Y-58880001D01*
G75*
G02*
X57650001Y-59130000I-249999J0D01*
G01*
X56949999Y-59130000D01*
G75*
G02*
X56700000Y-58880001I0J249999D01*
G01*
X56700000Y-57979999D01*
G75*
G02*
X56949999Y-57730000I249999J0D01*
G01*
X57650001Y-57730000D01*
G75*
G02*
X57900000Y-57979999I0J-249999D01*
G01*
G37*
G36*
G01*
X59900000Y-57979999D02*
X59900000Y-58880001D01*
G75*
G02*
X59650001Y-59130000I-249999J0D01*
G01*
X58949999Y-59130000D01*
G75*
G02*
X58700000Y-58880001I0J249999D01*
G01*
X58700000Y-57979999D01*
G75*
G02*
X58949999Y-57730000I249999J0D01*
G01*
X59650001Y-57730000D01*
G75*
G02*
X59900000Y-57979999I0J-249999D01*
G01*
G37*
%TD*%
%TO.C,R2*%
G36*
G01*
X15900000Y-57979999D02*
X15900000Y-58880001D01*
G75*
G02*
X15650001Y-59130000I-249999J0D01*
G01*
X14949999Y-59130000D01*
G75*
G02*
X14700000Y-58880001I0J249999D01*
G01*
X14700000Y-57979999D01*
G75*
G02*
X14949999Y-57730000I249999J0D01*
G01*
X15650001Y-57730000D01*
G75*
G02*
X15900000Y-57979999I0J-249999D01*
G01*
G37*
G36*
G01*
X17900000Y-57979999D02*
X17900000Y-58880001D01*
G75*
G02*
X17650001Y-59130000I-249999J0D01*
G01*
X16949999Y-59130000D01*
G75*
G02*
X16700000Y-58880001I0J249999D01*
G01*
X16700000Y-57979999D01*
G75*
G02*
X16949999Y-57730000I249999J0D01*
G01*
X17650001Y-57730000D01*
G75*
G02*
X17900000Y-57979999I0J-249999D01*
G01*
G37*
%TD*%
%TO.C,R2*%
G36*
G01*
X57900000Y-25979999D02*
X57900000Y-26880001D01*
G75*
G02*
X57650001Y-27130000I-249999J0D01*
G01*
X56949999Y-27130000D01*
G75*
G02*
X56700000Y-26880001I0J249999D01*
G01*
X56700000Y-25979999D01*
G75*
G02*
X56949999Y-25730000I249999J0D01*
G01*
X57650001Y-25730000D01*
G75*
G02*
X57900000Y-25979999I0J-249999D01*
G01*
G37*
G36*
G01*
X59900000Y-25979999D02*
X59900000Y-26880001D01*
G75*
G02*
X59650001Y-27130000I-249999J0D01*
G01*
X58949999Y-27130000D01*
G75*
G02*
X58700000Y-26880001I0J249999D01*
G01*
X58700000Y-25979999D01*
G75*
G02*
X58949999Y-25730000I249999J0D01*
G01*
X59650001Y-25730000D01*
G75*
G02*
X59900000Y-25979999I0J-249999D01*
G01*
G37*
%TD*%
%TO.C,R10*%
G36*
G01*
X87110000Y-67119999D02*
X87110000Y-68020001D01*
G75*
G02*
X86860001Y-68270000I-249999J0D01*
G01*
X86159999Y-68270000D01*
G75*
G02*
X85910000Y-68020001I0J249999D01*
G01*
X85910000Y-67119999D01*
G75*
G02*
X86159999Y-66870000I249999J0D01*
G01*
X86860001Y-66870000D01*
G75*
G02*
X87110000Y-67119999I0J-249999D01*
G01*
G37*
G36*
G01*
X89110000Y-67119999D02*
X89110000Y-68020001D01*
G75*
G02*
X88860001Y-68270000I-249999J0D01*
G01*
X88159999Y-68270000D01*
G75*
G02*
X87910000Y-68020001I0J249999D01*
G01*
X87910000Y-67119999D01*
G75*
G02*
X88159999Y-66870000I249999J0D01*
G01*
X88860001Y-66870000D01*
G75*
G02*
X89110000Y-67119999I0J-249999D01*
G01*
G37*
%TD*%
%TO.C,R10*%
G36*
G01*
X45110000Y-67119999D02*
X45110000Y-68020001D01*
G75*
G02*
X44860001Y-68270000I-249999J0D01*
G01*
X44159999Y-68270000D01*
G75*
G02*
X43910000Y-68020001I0J249999D01*
G01*
X43910000Y-67119999D01*
G75*
G02*
X44159999Y-66870000I249999J0D01*
G01*
X44860001Y-66870000D01*
G75*
G02*
X45110000Y-67119999I0J-249999D01*
G01*
G37*
G36*
G01*
X47110000Y-67119999D02*
X47110000Y-68020001D01*
G75*
G02*
X46860001Y-68270000I-249999J0D01*
G01*
X46159999Y-68270000D01*
G75*
G02*
X45910000Y-68020001I0J249999D01*
G01*
X45910000Y-67119999D01*
G75*
G02*
X46159999Y-66870000I249999J0D01*
G01*
X46860001Y-66870000D01*
G75*
G02*
X47110000Y-67119999I0J-249999D01*
G01*
G37*
%TD*%
%TO.C,R10*%
G36*
G01*
X87110000Y-35119999D02*
X87110000Y-36020001D01*
G75*
G02*
X86860001Y-36270000I-249999J0D01*
G01*
X86159999Y-36270000D01*
G75*
G02*
X85910000Y-36020001I0J249999D01*
G01*
X85910000Y-35119999D01*
G75*
G02*
X86159999Y-34870000I249999J0D01*
G01*
X86860001Y-34870000D01*
G75*
G02*
X87110000Y-35119999I0J-249999D01*
G01*
G37*
G36*
G01*
X89110000Y-35119999D02*
X89110000Y-36020001D01*
G75*
G02*
X88860001Y-36270000I-249999J0D01*
G01*
X88159999Y-36270000D01*
G75*
G02*
X87910000Y-36020001I0J249999D01*
G01*
X87910000Y-35119999D01*
G75*
G02*
X88159999Y-34870000I249999J0D01*
G01*
X88860001Y-34870000D01*
G75*
G02*
X89110000Y-35119999I0J-249999D01*
G01*
G37*
%TD*%
%TO.C,R10*%
G36*
G01*
X45110000Y-35119999D02*
X45110000Y-36020001D01*
G75*
G02*
X44860001Y-36270000I-249999J0D01*
G01*
X44159999Y-36270000D01*
G75*
G02*
X43910000Y-36020001I0J249999D01*
G01*
X43910000Y-35119999D01*
G75*
G02*
X44159999Y-34870000I249999J0D01*
G01*
X44860001Y-34870000D01*
G75*
G02*
X45110000Y-35119999I0J-249999D01*
G01*
G37*
G36*
G01*
X47110000Y-35119999D02*
X47110000Y-36020001D01*
G75*
G02*
X46860001Y-36270000I-249999J0D01*
G01*
X46159999Y-36270000D01*
G75*
G02*
X45910000Y-36020001I0J249999D01*
G01*
X45910000Y-35119999D01*
G75*
G02*
X46159999Y-34870000I249999J0D01*
G01*
X46860001Y-34870000D01*
G75*
G02*
X47110000Y-35119999I0J-249999D01*
G01*
G37*
%TD*%
%TO.C,R10*%
G36*
G01*
X87110000Y-3119999D02*
X87110000Y-4020001D01*
G75*
G02*
X86860001Y-4270000I-249999J0D01*
G01*
X86159999Y-4270000D01*
G75*
G02*
X85910000Y-4020001I0J249999D01*
G01*
X85910000Y-3119999D01*
G75*
G02*
X86159999Y-2870000I249999J0D01*
G01*
X86860001Y-2870000D01*
G75*
G02*
X87110000Y-3119999I0J-249999D01*
G01*
G37*
G36*
G01*
X89110000Y-3119999D02*
X89110000Y-4020001D01*
G75*
G02*
X88860001Y-4270000I-249999J0D01*
G01*
X88159999Y-4270000D01*
G75*
G02*
X87910000Y-4020001I0J249999D01*
G01*
X87910000Y-3119999D01*
G75*
G02*
X88159999Y-2870000I249999J0D01*
G01*
X88860001Y-2870000D01*
G75*
G02*
X89110000Y-3119999I0J-249999D01*
G01*
G37*
%TD*%
%TO.C,C1*%
G36*
G01*
X18045000Y-11545000D02*
X17095000Y-11545000D01*
G75*
G02*
X16845000Y-11295000I0J250000D01*
G01*
X16845000Y-10620000D01*
G75*
G02*
X17095000Y-10370000I250000J0D01*
G01*
X18045000Y-10370000D01*
G75*
G02*
X18295000Y-10620000I0J-250000D01*
G01*
X18295000Y-11295000D01*
G75*
G02*
X18045000Y-11545000I-250000J0D01*
G01*
G37*
G36*
G01*
X18045000Y-9470000D02*
X17095000Y-9470000D01*
G75*
G02*
X16845000Y-9220000I0J250000D01*
G01*
X16845000Y-8545000D01*
G75*
G02*
X17095000Y-8295000I250000J0D01*
G01*
X18045000Y-8295000D01*
G75*
G02*
X18295000Y-8545000I0J-250000D01*
G01*
X18295000Y-9220000D01*
G75*
G02*
X18045000Y-9470000I-250000J0D01*
G01*
G37*
%TD*%
%TO.C,C2*%
G36*
G01*
X14555000Y-15915000D02*
X15505000Y-15915000D01*
G75*
G02*
X15755000Y-16165000I0J-250000D01*
G01*
X15755000Y-16840000D01*
G75*
G02*
X15505000Y-17090000I-250000J0D01*
G01*
X14555000Y-17090000D01*
G75*
G02*
X14305000Y-16840000I0J250000D01*
G01*
X14305000Y-16165000D01*
G75*
G02*
X14555000Y-15915000I250000J0D01*
G01*
G37*
G36*
G01*
X14555000Y-17990000D02*
X15505000Y-17990000D01*
G75*
G02*
X15755000Y-18240000I0J-250000D01*
G01*
X15755000Y-18915000D01*
G75*
G02*
X15505000Y-19165000I-250000J0D01*
G01*
X14555000Y-19165000D01*
G75*
G02*
X14305000Y-18915000I0J250000D01*
G01*
X14305000Y-18240000D01*
G75*
G02*
X14555000Y-17990000I250000J0D01*
G01*
G37*
%TD*%
%TO.C,C3*%
G36*
G01*
X19635000Y-23535000D02*
X20585000Y-23535000D01*
G75*
G02*
X20835000Y-23785000I0J-250000D01*
G01*
X20835000Y-24460000D01*
G75*
G02*
X20585000Y-24710000I-250000J0D01*
G01*
X19635000Y-24710000D01*
G75*
G02*
X19385000Y-24460000I0J250000D01*
G01*
X19385000Y-23785000D01*
G75*
G02*
X19635000Y-23535000I250000J0D01*
G01*
G37*
G36*
G01*
X19635000Y-25610000D02*
X20585000Y-25610000D01*
G75*
G02*
X20835000Y-25860000I0J-250000D01*
G01*
X20835000Y-26535000D01*
G75*
G02*
X20585000Y-26785000I-250000J0D01*
G01*
X19635000Y-26785000D01*
G75*
G02*
X19385000Y-26535000I0J250000D01*
G01*
X19385000Y-25860000D01*
G75*
G02*
X19635000Y-25610000I250000J0D01*
G01*
G37*
%TD*%
%TO.C,C4*%
G36*
G01*
X15505000Y-15355000D02*
X14555000Y-15355000D01*
G75*
G02*
X14305000Y-15105000I0J250000D01*
G01*
X14305000Y-14430000D01*
G75*
G02*
X14555000Y-14180000I250000J0D01*
G01*
X15505000Y-14180000D01*
G75*
G02*
X15755000Y-14430000I0J-250000D01*
G01*
X15755000Y-15105000D01*
G75*
G02*
X15505000Y-15355000I-250000J0D01*
G01*
G37*
G36*
G01*
X15505000Y-13280000D02*
X14555000Y-13280000D01*
G75*
G02*
X14305000Y-13030000I0J250000D01*
G01*
X14305000Y-12355000D01*
G75*
G02*
X14555000Y-12105000I250000J0D01*
G01*
X15505000Y-12105000D01*
G75*
G02*
X15755000Y-12355000I0J-250000D01*
G01*
X15755000Y-13030000D01*
G75*
G02*
X15505000Y-13280000I-250000J0D01*
G01*
G37*
%TD*%
%TO.C,C5*%
G36*
G01*
X19635000Y-8295000D02*
X20585000Y-8295000D01*
G75*
G02*
X20835000Y-8545000I0J-250000D01*
G01*
X20835000Y-9220000D01*
G75*
G02*
X20585000Y-9470000I-250000J0D01*
G01*
X19635000Y-9470000D01*
G75*
G02*
X19385000Y-9220000I0J250000D01*
G01*
X19385000Y-8545000D01*
G75*
G02*
X19635000Y-8295000I250000J0D01*
G01*
G37*
G36*
G01*
X19635000Y-10370000D02*
X20585000Y-10370000D01*
G75*
G02*
X20835000Y-10620000I0J-250000D01*
G01*
X20835000Y-11295000D01*
G75*
G02*
X20585000Y-11545000I-250000J0D01*
G01*
X19635000Y-11545000D01*
G75*
G02*
X19385000Y-11295000I0J250000D01*
G01*
X19385000Y-10620000D01*
G75*
G02*
X19635000Y-10370000I250000J0D01*
G01*
G37*
%TD*%
%TO.C,C6*%
G36*
G01*
X23125000Y-7100000D02*
X22175000Y-7100000D01*
G75*
G02*
X21925000Y-6850000I0J250000D01*
G01*
X21925000Y-6175000D01*
G75*
G02*
X22175000Y-5925000I250000J0D01*
G01*
X23125000Y-5925000D01*
G75*
G02*
X23375000Y-6175000I0J-250000D01*
G01*
X23375000Y-6850000D01*
G75*
G02*
X23125000Y-7100000I-250000J0D01*
G01*
G37*
G36*
G01*
X23125000Y-5025000D02*
X22175000Y-5025000D01*
G75*
G02*
X21925000Y-4775000I0J250000D01*
G01*
X21925000Y-4100000D01*
G75*
G02*
X22175000Y-3850000I250000J0D01*
G01*
X23125000Y-3850000D01*
G75*
G02*
X23375000Y-4100000I0J-250000D01*
G01*
X23375000Y-4775000D01*
G75*
G02*
X23125000Y-5025000I-250000J0D01*
G01*
G37*
%TD*%
%TO.C,C7*%
G36*
G01*
X34875000Y-20995000D02*
X35825000Y-20995000D01*
G75*
G02*
X36075000Y-21245000I0J-250000D01*
G01*
X36075000Y-21920000D01*
G75*
G02*
X35825000Y-22170000I-250000J0D01*
G01*
X34875000Y-22170000D01*
G75*
G02*
X34625000Y-21920000I0J250000D01*
G01*
X34625000Y-21245000D01*
G75*
G02*
X34875000Y-20995000I250000J0D01*
G01*
G37*
G36*
G01*
X34875000Y-23070000D02*
X35825000Y-23070000D01*
G75*
G02*
X36075000Y-23320000I0J-250000D01*
G01*
X36075000Y-23995000D01*
G75*
G02*
X35825000Y-24245000I-250000J0D01*
G01*
X34875000Y-24245000D01*
G75*
G02*
X34625000Y-23995000I0J250000D01*
G01*
X34625000Y-23320000D01*
G75*
G02*
X34875000Y-23070000I250000J0D01*
G01*
G37*
%TD*%
%TO.C,C8*%
G36*
G01*
X39955000Y-20995000D02*
X40905000Y-20995000D01*
G75*
G02*
X41155000Y-21245000I0J-250000D01*
G01*
X41155000Y-21920000D01*
G75*
G02*
X40905000Y-22170000I-250000J0D01*
G01*
X39955000Y-22170000D01*
G75*
G02*
X39705000Y-21920000I0J250000D01*
G01*
X39705000Y-21245000D01*
G75*
G02*
X39955000Y-20995000I250000J0D01*
G01*
G37*
G36*
G01*
X39955000Y-23070000D02*
X40905000Y-23070000D01*
G75*
G02*
X41155000Y-23320000I0J-250000D01*
G01*
X41155000Y-23995000D01*
G75*
G02*
X40905000Y-24245000I-250000J0D01*
G01*
X39955000Y-24245000D01*
G75*
G02*
X39705000Y-23995000I0J250000D01*
G01*
X39705000Y-23320000D01*
G75*
G02*
X39955000Y-23070000I250000J0D01*
G01*
G37*
%TD*%
%TO.C,C9*%
G36*
G01*
X37415000Y-20995000D02*
X38365000Y-20995000D01*
G75*
G02*
X38615000Y-21245000I0J-250000D01*
G01*
X38615000Y-21920000D01*
G75*
G02*
X38365000Y-22170000I-250000J0D01*
G01*
X37415000Y-22170000D01*
G75*
G02*
X37165000Y-21920000I0J250000D01*
G01*
X37165000Y-21245000D01*
G75*
G02*
X37415000Y-20995000I250000J0D01*
G01*
G37*
G36*
G01*
X37415000Y-23070000D02*
X38365000Y-23070000D01*
G75*
G02*
X38615000Y-23320000I0J-250000D01*
G01*
X38615000Y-23995000D01*
G75*
G02*
X38365000Y-24245000I-250000J0D01*
G01*
X37415000Y-24245000D01*
G75*
G02*
X37165000Y-23995000I0J250000D01*
G01*
X37165000Y-23320000D01*
G75*
G02*
X37415000Y-23070000I250000J0D01*
G01*
G37*
%TD*%
%TO.C,C10*%
G36*
G01*
X42495000Y-17185000D02*
X43445000Y-17185000D01*
G75*
G02*
X43695000Y-17435000I0J-250000D01*
G01*
X43695000Y-18110000D01*
G75*
G02*
X43445000Y-18360000I-250000J0D01*
G01*
X42495000Y-18360000D01*
G75*
G02*
X42245000Y-18110000I0J250000D01*
G01*
X42245000Y-17435000D01*
G75*
G02*
X42495000Y-17185000I250000J0D01*
G01*
G37*
G36*
G01*
X42495000Y-19260000D02*
X43445000Y-19260000D01*
G75*
G02*
X43695000Y-19510000I0J-250000D01*
G01*
X43695000Y-20185000D01*
G75*
G02*
X43445000Y-20435000I-250000J0D01*
G01*
X42495000Y-20435000D01*
G75*
G02*
X42245000Y-20185000I0J250000D01*
G01*
X42245000Y-19510000D01*
G75*
G02*
X42495000Y-19260000I250000J0D01*
G01*
G37*
%TD*%
%TO.C,C11*%
G36*
G01*
X43445000Y-16625000D02*
X42495000Y-16625000D01*
G75*
G02*
X42245000Y-16375000I0J250000D01*
G01*
X42245000Y-15700000D01*
G75*
G02*
X42495000Y-15450000I250000J0D01*
G01*
X43445000Y-15450000D01*
G75*
G02*
X43695000Y-15700000I0J-250000D01*
G01*
X43695000Y-16375000D01*
G75*
G02*
X43445000Y-16625000I-250000J0D01*
G01*
G37*
G36*
G01*
X43445000Y-14550000D02*
X42495000Y-14550000D01*
G75*
G02*
X42245000Y-14300000I0J250000D01*
G01*
X42245000Y-13625000D01*
G75*
G02*
X42495000Y-13375000I250000J0D01*
G01*
X43445000Y-13375000D01*
G75*
G02*
X43695000Y-13625000I0J-250000D01*
G01*
X43695000Y-14300000D01*
G75*
G02*
X43445000Y-14550000I-250000J0D01*
G01*
G37*
%TD*%
%TO.C,C12*%
G36*
G01*
X38365000Y-9005000D02*
X37415000Y-9005000D01*
G75*
G02*
X37165000Y-8755000I0J250000D01*
G01*
X37165000Y-8080000D01*
G75*
G02*
X37415000Y-7830000I250000J0D01*
G01*
X38365000Y-7830000D01*
G75*
G02*
X38615000Y-8080000I0J-250000D01*
G01*
X38615000Y-8755000D01*
G75*
G02*
X38365000Y-9005000I-250000J0D01*
G01*
G37*
G36*
G01*
X38365000Y-6930000D02*
X37415000Y-6930000D01*
G75*
G02*
X37165000Y-6680000I0J250000D01*
G01*
X37165000Y-6005000D01*
G75*
G02*
X37415000Y-5755000I250000J0D01*
G01*
X38365000Y-5755000D01*
G75*
G02*
X38615000Y-6005000I0J-250000D01*
G01*
X38615000Y-6680000D01*
G75*
G02*
X38365000Y-6930000I-250000J0D01*
G01*
G37*
%TD*%
%TO.C,J1*%
X11000000Y-9460000D03*
X11000000Y-12230000D03*
X11000000Y-15000000D03*
X11000000Y-17770000D03*
X11000000Y-20540000D03*
%TD*%
%TO.C,R1*%
G36*
G01*
X10890000Y-26880001D02*
X10890000Y-25979999D01*
G75*
G02*
X11139999Y-25730000I249999J0D01*
G01*
X11840001Y-25730000D01*
G75*
G02*
X12090000Y-25979999I0J-249999D01*
G01*
X12090000Y-26880001D01*
G75*
G02*
X11840001Y-27130000I-249999J0D01*
G01*
X11139999Y-27130000D01*
G75*
G02*
X10890000Y-26880001I0J249999D01*
G01*
G37*
G36*
G01*
X12890000Y-26880001D02*
X12890000Y-25979999D01*
G75*
G02*
X13139999Y-25730000I249999J0D01*
G01*
X13840001Y-25730000D01*
G75*
G02*
X14090000Y-25979999I0J-249999D01*
G01*
X14090000Y-26880001D01*
G75*
G02*
X13840001Y-27130000I-249999J0D01*
G01*
X13139999Y-27130000D01*
G75*
G02*
X12890000Y-26880001I0J249999D01*
G01*
G37*
%TD*%
%TO.C,R2*%
G36*
G01*
X17900000Y-25979999D02*
X17900000Y-26880001D01*
G75*
G02*
X17650001Y-27130000I-249999J0D01*
G01*
X16949999Y-27130000D01*
G75*
G02*
X16700000Y-26880001I0J249999D01*
G01*
X16700000Y-25979999D01*
G75*
G02*
X16949999Y-25730000I249999J0D01*
G01*
X17650001Y-25730000D01*
G75*
G02*
X17900000Y-25979999I0J-249999D01*
G01*
G37*
G36*
G01*
X15900000Y-25979999D02*
X15900000Y-26880001D01*
G75*
G02*
X15650001Y-27130000I-249999J0D01*
G01*
X14949999Y-27130000D01*
G75*
G02*
X14700000Y-26880001I0J249999D01*
G01*
X14700000Y-25979999D01*
G75*
G02*
X14949999Y-25730000I249999J0D01*
G01*
X15650001Y-25730000D01*
G75*
G02*
X15900000Y-25979999I0J-249999D01*
G01*
G37*
%TD*%
%TO.C,R3*%
G36*
G01*
X10890000Y-24340001D02*
X10890000Y-23439999D01*
G75*
G02*
X11139999Y-23190000I249999J0D01*
G01*
X11840001Y-23190000D01*
G75*
G02*
X12090000Y-23439999I0J-249999D01*
G01*
X12090000Y-24340001D01*
G75*
G02*
X11840001Y-24590000I-249999J0D01*
G01*
X11139999Y-24590000D01*
G75*
G02*
X10890000Y-24340001I0J249999D01*
G01*
G37*
G36*
G01*
X12890000Y-24340001D02*
X12890000Y-23439999D01*
G75*
G02*
X13139999Y-23190000I249999J0D01*
G01*
X13840001Y-23190000D01*
G75*
G02*
X14090000Y-23439999I0J-249999D01*
G01*
X14090000Y-24340001D01*
G75*
G02*
X13840001Y-24590000I-249999J0D01*
G01*
X13139999Y-24590000D01*
G75*
G02*
X12890000Y-24340001I0J249999D01*
G01*
G37*
%TD*%
%TO.C,R4*%
G36*
G01*
X17900000Y-23439999D02*
X17900000Y-24340001D01*
G75*
G02*
X17650001Y-24590000I-249999J0D01*
G01*
X16949999Y-24590000D01*
G75*
G02*
X16700000Y-24340001I0J249999D01*
G01*
X16700000Y-23439999D01*
G75*
G02*
X16949999Y-23190000I249999J0D01*
G01*
X17650001Y-23190000D01*
G75*
G02*
X17900000Y-23439999I0J-249999D01*
G01*
G37*
G36*
G01*
X15900000Y-23439999D02*
X15900000Y-24340001D01*
G75*
G02*
X15650001Y-24590000I-249999J0D01*
G01*
X14949999Y-24590000D01*
G75*
G02*
X14700000Y-24340001I0J249999D01*
G01*
X14700000Y-23439999D01*
G75*
G02*
X14949999Y-23190000I249999J0D01*
G01*
X15650001Y-23190000D01*
G75*
G02*
X15900000Y-23439999I0J-249999D01*
G01*
G37*
%TD*%
%TO.C,R5*%
G36*
G01*
X22199999Y-23560000D02*
X23100001Y-23560000D01*
G75*
G02*
X23350000Y-23809999I0J-249999D01*
G01*
X23350000Y-24510001D01*
G75*
G02*
X23100001Y-24760000I-249999J0D01*
G01*
X22199999Y-24760000D01*
G75*
G02*
X21950000Y-24510001I0J249999D01*
G01*
X21950000Y-23809999D01*
G75*
G02*
X22199999Y-23560000I249999J0D01*
G01*
G37*
G36*
G01*
X22199999Y-25560000D02*
X23100001Y-25560000D01*
G75*
G02*
X23350000Y-25809999I0J-249999D01*
G01*
X23350000Y-26510001D01*
G75*
G02*
X23100001Y-26760000I-249999J0D01*
G01*
X22199999Y-26760000D01*
G75*
G02*
X21950000Y-26510001I0J249999D01*
G01*
X21950000Y-25809999D01*
G75*
G02*
X22199999Y-25560000I249999J0D01*
G01*
G37*
%TD*%
%TO.C,R6*%
G36*
G01*
X19659999Y-3875000D02*
X20560001Y-3875000D01*
G75*
G02*
X20810000Y-4124999I0J-249999D01*
G01*
X20810000Y-4825001D01*
G75*
G02*
X20560001Y-5075000I-249999J0D01*
G01*
X19659999Y-5075000D01*
G75*
G02*
X19410000Y-4825001I0J249999D01*
G01*
X19410000Y-4124999D01*
G75*
G02*
X19659999Y-3875000I249999J0D01*
G01*
G37*
G36*
G01*
X19659999Y-5875000D02*
X20560001Y-5875000D01*
G75*
G02*
X20810000Y-6124999I0J-249999D01*
G01*
X20810000Y-6825001D01*
G75*
G02*
X20560001Y-7075000I-249999J0D01*
G01*
X19659999Y-7075000D01*
G75*
G02*
X19410000Y-6825001I0J249999D01*
G01*
X19410000Y-6124999D01*
G75*
G02*
X19659999Y-5875000I249999J0D01*
G01*
G37*
%TD*%
%TO.C,R7*%
G36*
G01*
X42519999Y-21020000D02*
X43420001Y-21020000D01*
G75*
G02*
X43670000Y-21269999I0J-249999D01*
G01*
X43670000Y-21970001D01*
G75*
G02*
X43420001Y-22220000I-249999J0D01*
G01*
X42519999Y-22220000D01*
G75*
G02*
X42270000Y-21970001I0J249999D01*
G01*
X42270000Y-21269999D01*
G75*
G02*
X42519999Y-21020000I249999J0D01*
G01*
G37*
G36*
G01*
X42519999Y-23020000D02*
X43420001Y-23020000D01*
G75*
G02*
X43670000Y-23269999I0J-249999D01*
G01*
X43670000Y-23970001D01*
G75*
G02*
X43420001Y-24220000I-249999J0D01*
G01*
X42519999Y-24220000D01*
G75*
G02*
X42270000Y-23970001I0J249999D01*
G01*
X42270000Y-23269999D01*
G75*
G02*
X42519999Y-23020000I249999J0D01*
G01*
G37*
%TD*%
%TO.C,R8*%
G36*
G01*
X35800001Y-8980000D02*
X34899999Y-8980000D01*
G75*
G02*
X34650000Y-8730001I0J249999D01*
G01*
X34650000Y-8029999D01*
G75*
G02*
X34899999Y-7780000I249999J0D01*
G01*
X35800001Y-7780000D01*
G75*
G02*
X36050000Y-8029999I0J-249999D01*
G01*
X36050000Y-8730001D01*
G75*
G02*
X35800001Y-8980000I-249999J0D01*
G01*
G37*
G36*
G01*
X35800001Y-6980000D02*
X34899999Y-6980000D01*
G75*
G02*
X34650000Y-6730001I0J249999D01*
G01*
X34650000Y-6029999D01*
G75*
G02*
X34899999Y-5780000I249999J0D01*
G01*
X35800001Y-5780000D01*
G75*
G02*
X36050000Y-6029999I0J-249999D01*
G01*
X36050000Y-6730001D01*
G75*
G02*
X35800001Y-6980000I-249999J0D01*
G01*
G37*
%TD*%
%TO.C,R9*%
G36*
G01*
X40100000Y-4020001D02*
X40100000Y-3119999D01*
G75*
G02*
X40349999Y-2870000I249999J0D01*
G01*
X41050001Y-2870000D01*
G75*
G02*
X41300000Y-3119999I0J-249999D01*
G01*
X41300000Y-4020001D01*
G75*
G02*
X41050001Y-4270000I-249999J0D01*
G01*
X40349999Y-4270000D01*
G75*
G02*
X40100000Y-4020001I0J249999D01*
G01*
G37*
G36*
G01*
X42100000Y-4020001D02*
X42100000Y-3119999D01*
G75*
G02*
X42349999Y-2870000I249999J0D01*
G01*
X43050001Y-2870000D01*
G75*
G02*
X43300000Y-3119999I0J-249999D01*
G01*
X43300000Y-4020001D01*
G75*
G02*
X43050001Y-4270000I-249999J0D01*
G01*
X42349999Y-4270000D01*
G75*
G02*
X42100000Y-4020001I0J249999D01*
G01*
G37*
%TD*%
%TO.C,R10*%
G36*
G01*
X47110000Y-3119999D02*
X47110000Y-4020001D01*
G75*
G02*
X46860001Y-4270000I-249999J0D01*
G01*
X46159999Y-4270000D01*
G75*
G02*
X45910000Y-4020001I0J249999D01*
G01*
X45910000Y-3119999D01*
G75*
G02*
X46159999Y-2870000I249999J0D01*
G01*
X46860001Y-2870000D01*
G75*
G02*
X47110000Y-3119999I0J-249999D01*
G01*
G37*
G36*
G01*
X45110000Y-3119999D02*
X45110000Y-4020001D01*
G75*
G02*
X44860001Y-4270000I-249999J0D01*
G01*
X44159999Y-4270000D01*
G75*
G02*
X43910000Y-4020001I0J249999D01*
G01*
X43910000Y-3119999D01*
G75*
G02*
X44159999Y-2870000I249999J0D01*
G01*
X44860001Y-2870000D01*
G75*
G02*
X45110000Y-3119999I0J-249999D01*
G01*
G37*
%TD*%
%TO.C,R11*%
G36*
G01*
X40100000Y-6560001D02*
X40100000Y-5659999D01*
G75*
G02*
X40349999Y-5410000I249999J0D01*
G01*
X41050001Y-5410000D01*
G75*
G02*
X41300000Y-5659999I0J-249999D01*
G01*
X41300000Y-6560001D01*
G75*
G02*
X41050001Y-6810000I-249999J0D01*
G01*
X40349999Y-6810000D01*
G75*
G02*
X40100000Y-6560001I0J249999D01*
G01*
G37*
G36*
G01*
X42100000Y-6560001D02*
X42100000Y-5659999D01*
G75*
G02*
X42349999Y-5410000I249999J0D01*
G01*
X43050001Y-5410000D01*
G75*
G02*
X43300000Y-5659999I0J-249999D01*
G01*
X43300000Y-6560001D01*
G75*
G02*
X43050001Y-6810000I-249999J0D01*
G01*
X42349999Y-6810000D01*
G75*
G02*
X42100000Y-6560001I0J249999D01*
G01*
G37*
%TD*%
%TO.C,R12*%
G36*
G01*
X47110000Y-5659999D02*
X47110000Y-6560001D01*
G75*
G02*
X46860001Y-6810000I-249999J0D01*
G01*
X46159999Y-6810000D01*
G75*
G02*
X45910000Y-6560001I0J249999D01*
G01*
X45910000Y-5659999D01*
G75*
G02*
X46159999Y-5410000I249999J0D01*
G01*
X46860001Y-5410000D01*
G75*
G02*
X47110000Y-5659999I0J-249999D01*
G01*
G37*
G36*
G01*
X45110000Y-5659999D02*
X45110000Y-6560001D01*
G75*
G02*
X44860001Y-6810000I-249999J0D01*
G01*
X44159999Y-6810000D01*
G75*
G02*
X43910000Y-6560001I0J249999D01*
G01*
X43910000Y-5659999D01*
G75*
G02*
X44159999Y-5410000I249999J0D01*
G01*
X44860001Y-5410000D01*
G75*
G02*
X45110000Y-5659999I0J-249999D01*
G01*
G37*
%TD*%
D12*
%TO.C,U2*%
X25190000Y-17540000D03*
D11*
X32810000Y-25160000D03*
X25190000Y-20080000D03*
X32810000Y-22620000D03*
X25190000Y-22620000D03*
X32810000Y-20080000D03*
X25190000Y-25160000D03*
X32810000Y-17540000D03*
%TD*%
D12*
%TO.C,U3*%
X32810000Y-12460000D03*
D11*
X25190000Y-4840000D03*
X32810000Y-9920000D03*
X25190000Y-7380000D03*
X32810000Y-7380000D03*
X25190000Y-9920000D03*
X32810000Y-4840000D03*
X25190000Y-12460000D03*
%TD*%
D13*
%TO.C,J2*%
X47000000Y-9460000D03*
X47000000Y-12230000D03*
X47000000Y-15000000D03*
X47000000Y-17770000D03*
X47000000Y-20540000D03*
%TD*%
%TO.C,U1*%
G36*
G01*
X16660000Y-13245000D02*
X16660000Y-12945000D01*
G75*
G02*
X16810000Y-12795000I150000J0D01*
G01*
X18460000Y-12795000D01*
G75*
G02*
X18610000Y-12945000I0J-150000D01*
G01*
X18610000Y-13245000D01*
G75*
G02*
X18460000Y-13395000I-150000J0D01*
G01*
X16810000Y-13395000D01*
G75*
G02*
X16660000Y-13245000I0J150000D01*
G01*
G37*
G36*
G01*
X16660000Y-14515000D02*
X16660000Y-14215000D01*
G75*
G02*
X16810000Y-14065000I150000J0D01*
G01*
X18460000Y-14065000D01*
G75*
G02*
X18610000Y-14215000I0J-150000D01*
G01*
X18610000Y-14515000D01*
G75*
G02*
X18460000Y-14665000I-150000J0D01*
G01*
X16810000Y-14665000D01*
G75*
G02*
X16660000Y-14515000I0J150000D01*
G01*
G37*
G36*
G01*
X16660000Y-15785000D02*
X16660000Y-15485000D01*
G75*
G02*
X16810000Y-15335000I150000J0D01*
G01*
X18460000Y-15335000D01*
G75*
G02*
X18610000Y-15485000I0J-150000D01*
G01*
X18610000Y-15785000D01*
G75*
G02*
X18460000Y-15935000I-150000J0D01*
G01*
X16810000Y-15935000D01*
G75*
G02*
X16660000Y-15785000I0J150000D01*
G01*
G37*
G36*
G01*
X16660000Y-17055000D02*
X16660000Y-16755000D01*
G75*
G02*
X16810000Y-16605000I150000J0D01*
G01*
X18460000Y-16605000D01*
G75*
G02*
X18610000Y-16755000I0J-150000D01*
G01*
X18610000Y-17055000D01*
G75*
G02*
X18460000Y-17205000I-150000J0D01*
G01*
X16810000Y-17205000D01*
G75*
G02*
X16660000Y-17055000I0J150000D01*
G01*
G37*
G36*
G01*
X16660000Y-18325000D02*
X16660000Y-18025000D01*
G75*
G02*
X16810000Y-17875000I150000J0D01*
G01*
X18460000Y-17875000D01*
G75*
G02*
X18610000Y-18025000I0J-150000D01*
G01*
X18610000Y-18325000D01*
G75*
G02*
X18460000Y-18475000I-150000J0D01*
G01*
X16810000Y-18475000D01*
G75*
G02*
X16660000Y-18325000I0J150000D01*
G01*
G37*
G36*
G01*
X16660000Y-19595000D02*
X16660000Y-19295000D01*
G75*
G02*
X16810000Y-19145000I150000J0D01*
G01*
X18460000Y-19145000D01*
G75*
G02*
X18610000Y-19295000I0J-150000D01*
G01*
X18610000Y-19595000D01*
G75*
G02*
X18460000Y-19745000I-150000J0D01*
G01*
X16810000Y-19745000D01*
G75*
G02*
X16660000Y-19595000I0J150000D01*
G01*
G37*
G36*
G01*
X16660000Y-20865000D02*
X16660000Y-20565000D01*
G75*
G02*
X16810000Y-20415000I150000J0D01*
G01*
X18460000Y-20415000D01*
G75*
G02*
X18610000Y-20565000I0J-150000D01*
G01*
X18610000Y-20865000D01*
G75*
G02*
X18460000Y-21015000I-150000J0D01*
G01*
X16810000Y-21015000D01*
G75*
G02*
X16660000Y-20865000I0J150000D01*
G01*
G37*
G36*
G01*
X16660000Y-22135000D02*
X16660000Y-21835000D01*
G75*
G02*
X16810000Y-21685000I150000J0D01*
G01*
X18460000Y-21685000D01*
G75*
G02*
X18610000Y-21835000I0J-150000D01*
G01*
X18610000Y-22135000D01*
G75*
G02*
X18460000Y-22285000I-150000J0D01*
G01*
X16810000Y-22285000D01*
G75*
G02*
X16660000Y-22135000I0J150000D01*
G01*
G37*
G36*
G01*
X21610000Y-22135000D02*
X21610000Y-21835000D01*
G75*
G02*
X21760000Y-21685000I150000J0D01*
G01*
X23410000Y-21685000D01*
G75*
G02*
X23560000Y-21835000I0J-150000D01*
G01*
X23560000Y-22135000D01*
G75*
G02*
X23410000Y-22285000I-150000J0D01*
G01*
X21760000Y-22285000D01*
G75*
G02*
X21610000Y-22135000I0J150000D01*
G01*
G37*
G36*
G01*
X21610000Y-20865000D02*
X21610000Y-20565000D01*
G75*
G02*
X21760000Y-20415000I150000J0D01*
G01*
X23410000Y-20415000D01*
G75*
G02*
X23560000Y-20565000I0J-150000D01*
G01*
X23560000Y-20865000D01*
G75*
G02*
X23410000Y-21015000I-150000J0D01*
G01*
X21760000Y-21015000D01*
G75*
G02*
X21610000Y-20865000I0J150000D01*
G01*
G37*
G36*
G01*
X21610000Y-19595000D02*
X21610000Y-19295000D01*
G75*
G02*
X21760000Y-19145000I150000J0D01*
G01*
X23410000Y-19145000D01*
G75*
G02*
X23560000Y-19295000I0J-150000D01*
G01*
X23560000Y-19595000D01*
G75*
G02*
X23410000Y-19745000I-150000J0D01*
G01*
X21760000Y-19745000D01*
G75*
G02*
X21610000Y-19595000I0J150000D01*
G01*
G37*
G36*
G01*
X21610000Y-18325000D02*
X21610000Y-18025000D01*
G75*
G02*
X21760000Y-17875000I150000J0D01*
G01*
X23410000Y-17875000D01*
G75*
G02*
X23560000Y-18025000I0J-150000D01*
G01*
X23560000Y-18325000D01*
G75*
G02*
X23410000Y-18475000I-150000J0D01*
G01*
X21760000Y-18475000D01*
G75*
G02*
X21610000Y-18325000I0J150000D01*
G01*
G37*
G36*
G01*
X21610000Y-17055000D02*
X21610000Y-16755000D01*
G75*
G02*
X21760000Y-16605000I150000J0D01*
G01*
X23410000Y-16605000D01*
G75*
G02*
X23560000Y-16755000I0J-150000D01*
G01*
X23560000Y-17055000D01*
G75*
G02*
X23410000Y-17205000I-150000J0D01*
G01*
X21760000Y-17205000D01*
G75*
G02*
X21610000Y-17055000I0J150000D01*
G01*
G37*
G36*
G01*
X21610000Y-15785000D02*
X21610000Y-15485000D01*
G75*
G02*
X21760000Y-15335000I150000J0D01*
G01*
X23410000Y-15335000D01*
G75*
G02*
X23560000Y-15485000I0J-150000D01*
G01*
X23560000Y-15785000D01*
G75*
G02*
X23410000Y-15935000I-150000J0D01*
G01*
X21760000Y-15935000D01*
G75*
G02*
X21610000Y-15785000I0J150000D01*
G01*
G37*
G36*
G01*
X21610000Y-14515000D02*
X21610000Y-14215000D01*
G75*
G02*
X21760000Y-14065000I150000J0D01*
G01*
X23410000Y-14065000D01*
G75*
G02*
X23560000Y-14215000I0J-150000D01*
G01*
X23560000Y-14515000D01*
G75*
G02*
X23410000Y-14665000I-150000J0D01*
G01*
X21760000Y-14665000D01*
G75*
G02*
X21610000Y-14515000I0J150000D01*
G01*
G37*
G36*
G01*
X21610000Y-13245000D02*
X21610000Y-12945000D01*
G75*
G02*
X21760000Y-12795000I150000J0D01*
G01*
X23410000Y-12795000D01*
G75*
G02*
X23560000Y-12945000I0J-150000D01*
G01*
X23560000Y-13245000D01*
G75*
G02*
X23410000Y-13395000I-150000J0D01*
G01*
X21760000Y-13395000D01*
G75*
G02*
X21610000Y-13245000I0J150000D01*
G01*
G37*
%TD*%
%TO.C,U4*%
G36*
G01*
X41340000Y-19295000D02*
X41340000Y-19595000D01*
G75*
G02*
X41190000Y-19745000I-150000J0D01*
G01*
X39540000Y-19745000D01*
G75*
G02*
X39390000Y-19595000I0J150000D01*
G01*
X39390000Y-19295000D01*
G75*
G02*
X39540000Y-19145000I150000J0D01*
G01*
X41190000Y-19145000D01*
G75*
G02*
X41340000Y-19295000I0J-150000D01*
G01*
G37*
G36*
G01*
X41340000Y-18025000D02*
X41340000Y-18325000D01*
G75*
G02*
X41190000Y-18475000I-150000J0D01*
G01*
X39540000Y-18475000D01*
G75*
G02*
X39390000Y-18325000I0J150000D01*
G01*
X39390000Y-18025000D01*
G75*
G02*
X39540000Y-17875000I150000J0D01*
G01*
X41190000Y-17875000D01*
G75*
G02*
X41340000Y-18025000I0J-150000D01*
G01*
G37*
G36*
G01*
X41340000Y-16755000D02*
X41340000Y-17055000D01*
G75*
G02*
X41190000Y-17205000I-150000J0D01*
G01*
X39540000Y-17205000D01*
G75*
G02*
X39390000Y-17055000I0J150000D01*
G01*
X39390000Y-16755000D01*
G75*
G02*
X39540000Y-16605000I150000J0D01*
G01*
X41190000Y-16605000D01*
G75*
G02*
X41340000Y-16755000I0J-150000D01*
G01*
G37*
G36*
G01*
X41340000Y-15485000D02*
X41340000Y-15785000D01*
G75*
G02*
X41190000Y-15935000I-150000J0D01*
G01*
X39540000Y-15935000D01*
G75*
G02*
X39390000Y-15785000I0J150000D01*
G01*
X39390000Y-15485000D01*
G75*
G02*
X39540000Y-15335000I150000J0D01*
G01*
X41190000Y-15335000D01*
G75*
G02*
X41340000Y-15485000I0J-150000D01*
G01*
G37*
G36*
G01*
X41340000Y-14215000D02*
X41340000Y-14515000D01*
G75*
G02*
X41190000Y-14665000I-150000J0D01*
G01*
X39540000Y-14665000D01*
G75*
G02*
X39390000Y-14515000I0J150000D01*
G01*
X39390000Y-14215000D01*
G75*
G02*
X39540000Y-14065000I150000J0D01*
G01*
X41190000Y-14065000D01*
G75*
G02*
X41340000Y-14215000I0J-150000D01*
G01*
G37*
G36*
G01*
X41340000Y-12945000D02*
X41340000Y-13245000D01*
G75*
G02*
X41190000Y-13395000I-150000J0D01*
G01*
X39540000Y-13395000D01*
G75*
G02*
X39390000Y-13245000I0J150000D01*
G01*
X39390000Y-12945000D01*
G75*
G02*
X39540000Y-12795000I150000J0D01*
G01*
X41190000Y-12795000D01*
G75*
G02*
X41340000Y-12945000I0J-150000D01*
G01*
G37*
G36*
G01*
X41340000Y-11675000D02*
X41340000Y-11975000D01*
G75*
G02*
X41190000Y-12125000I-150000J0D01*
G01*
X39540000Y-12125000D01*
G75*
G02*
X39390000Y-11975000I0J150000D01*
G01*
X39390000Y-11675000D01*
G75*
G02*
X39540000Y-11525000I150000J0D01*
G01*
X41190000Y-11525000D01*
G75*
G02*
X41340000Y-11675000I0J-150000D01*
G01*
G37*
G36*
G01*
X41340000Y-10405000D02*
X41340000Y-10705000D01*
G75*
G02*
X41190000Y-10855000I-150000J0D01*
G01*
X39540000Y-10855000D01*
G75*
G02*
X39390000Y-10705000I0J150000D01*
G01*
X39390000Y-10405000D01*
G75*
G02*
X39540000Y-10255000I150000J0D01*
G01*
X41190000Y-10255000D01*
G75*
G02*
X41340000Y-10405000I0J-150000D01*
G01*
G37*
G36*
G01*
X36390000Y-10405000D02*
X36390000Y-10705000D01*
G75*
G02*
X36240000Y-10855000I-150000J0D01*
G01*
X34590000Y-10855000D01*
G75*
G02*
X34440000Y-10705000I0J150000D01*
G01*
X34440000Y-10405000D01*
G75*
G02*
X34590000Y-10255000I150000J0D01*
G01*
X36240000Y-10255000D01*
G75*
G02*
X36390000Y-10405000I0J-150000D01*
G01*
G37*
G36*
G01*
X36390000Y-11675000D02*
X36390000Y-11975000D01*
G75*
G02*
X36240000Y-12125000I-150000J0D01*
G01*
X34590000Y-12125000D01*
G75*
G02*
X34440000Y-11975000I0J150000D01*
G01*
X34440000Y-11675000D01*
G75*
G02*
X34590000Y-11525000I150000J0D01*
G01*
X36240000Y-11525000D01*
G75*
G02*
X36390000Y-11675000I0J-150000D01*
G01*
G37*
G36*
G01*
X36390000Y-12945000D02*
X36390000Y-13245000D01*
G75*
G02*
X36240000Y-13395000I-150000J0D01*
G01*
X34590000Y-13395000D01*
G75*
G02*
X34440000Y-13245000I0J150000D01*
G01*
X34440000Y-12945000D01*
G75*
G02*
X34590000Y-12795000I150000J0D01*
G01*
X36240000Y-12795000D01*
G75*
G02*
X36390000Y-12945000I0J-150000D01*
G01*
G37*
G36*
G01*
X36390000Y-14215000D02*
X36390000Y-14515000D01*
G75*
G02*
X36240000Y-14665000I-150000J0D01*
G01*
X34590000Y-14665000D01*
G75*
G02*
X34440000Y-14515000I0J150000D01*
G01*
X34440000Y-14215000D01*
G75*
G02*
X34590000Y-14065000I150000J0D01*
G01*
X36240000Y-14065000D01*
G75*
G02*
X36390000Y-14215000I0J-150000D01*
G01*
G37*
G36*
G01*
X36390000Y-15485000D02*
X36390000Y-15785000D01*
G75*
G02*
X36240000Y-15935000I-150000J0D01*
G01*
X34590000Y-15935000D01*
G75*
G02*
X34440000Y-15785000I0J150000D01*
G01*
X34440000Y-15485000D01*
G75*
G02*
X34590000Y-15335000I150000J0D01*
G01*
X36240000Y-15335000D01*
G75*
G02*
X36390000Y-15485000I0J-150000D01*
G01*
G37*
G36*
G01*
X36390000Y-16755000D02*
X36390000Y-17055000D01*
G75*
G02*
X36240000Y-17205000I-150000J0D01*
G01*
X34590000Y-17205000D01*
G75*
G02*
X34440000Y-17055000I0J150000D01*
G01*
X34440000Y-16755000D01*
G75*
G02*
X34590000Y-16605000I150000J0D01*
G01*
X36240000Y-16605000D01*
G75*
G02*
X36390000Y-16755000I0J-150000D01*
G01*
G37*
G36*
G01*
X36390000Y-18025000D02*
X36390000Y-18325000D01*
G75*
G02*
X36240000Y-18475000I-150000J0D01*
G01*
X34590000Y-18475000D01*
G75*
G02*
X34440000Y-18325000I0J150000D01*
G01*
X34440000Y-18025000D01*
G75*
G02*
X34590000Y-17875000I150000J0D01*
G01*
X36240000Y-17875000D01*
G75*
G02*
X36390000Y-18025000I0J-150000D01*
G01*
G37*
G36*
G01*
X36390000Y-19295000D02*
X36390000Y-19595000D01*
G75*
G02*
X36240000Y-19745000I-150000J0D01*
G01*
X34590000Y-19745000D01*
G75*
G02*
X34440000Y-19595000I0J150000D01*
G01*
X34440000Y-19295000D01*
G75*
G02*
X34590000Y-19145000I150000J0D01*
G01*
X36240000Y-19145000D01*
G75*
G02*
X36390000Y-19295000I0J-150000D01*
G01*
G37*
%TD*%
M02*
