M48
; DRILL file {KiCad 5.1.8} date Sun Nov 15 10:57:25 2020
; FORMAT={-:-/ absolute / metric / decimal}
; #@! TF.CreationDate,2020-11-15T10:57:25+00:00
; #@! TF.GenerationSoftware,Kicad,Pcbnew,5.1.8
; #@! TF.FileFunction,Plated,1,2,PTH
FMAT,2
METRIC
T1C0.400
T2C0.800
%
G90
G05
T1
X4.506Y-14.746
X4.506Y-15.762
X4.506Y-22.366
X4.76Y-10.936
X5.268Y-25.16
X6.03Y-11.444
X6.284Y-20.588
X10.856Y-13.095
X11.11Y-27.446
X12.126Y-14.365
X12.126Y-20.588
X12.38Y-7.634
X26.35Y-24.906
X28.128Y-11.825
X28.89Y-5.094
X28.89Y-18.175
X28.89Y-24.906
X29.652Y-19.064
X31.43Y-24.906
X32.7Y-7.634
X33.97Y-24.906
X35.494Y-20.588
X35.748Y-2.3
X35.748Y-7.634
X36.002Y-22.62
X37.526Y-7.634
T2
X16.19Y-17.54
X16.19Y-20.08
X16.19Y-22.62
X16.19Y-25.16
X23.81Y-17.54
X23.81Y-20.08
X23.81Y-22.62
X23.81Y-25.16
X16.19Y-4.84
X16.19Y-7.38
X16.19Y-9.92
X16.19Y-12.46
X23.81Y-4.84
X23.81Y-7.38
X23.81Y-9.92
X23.81Y-12.46
T0
M30
