%TF.GenerationSoftware,KiCad,Pcbnew,5.1.8*%
%TF.CreationDate,2020-11-15T10:57:14+00:00*%
%TF.ProjectId,rs232Isolator,72733233-3249-4736-9f6c-61746f722e6b,rev?*%
%TF.SameCoordinates,PX4421680PY42d7d10*%
%TF.FileFunction,Copper,L1,Top*%
%TF.FilePolarity,Positive*%
%FSLAX46Y46*%
G04 Gerber Fmt 4.6, Leading zero omitted, Abs format (unit mm)*
G04 Created by KiCad (PCBNEW 5.1.8) date 2020-11-15 10:57:14*
%MOMM*%
%LPD*%
G01*
G04 APERTURE LIST*
%TA.AperFunction,SMDPad,CuDef*%
%ADD10R,3.480000X1.846667*%
%TD*%
%TA.AperFunction,ComponentPad*%
%ADD11O,1.600000X1.600000*%
%TD*%
%TA.AperFunction,ComponentPad*%
%ADD12R,1.600000X1.600000*%
%TD*%
%TA.AperFunction,ViaPad*%
%ADD13C,0.800000*%
%TD*%
%TA.AperFunction,Conductor*%
%ADD14C,0.200000*%
%TD*%
G04 APERTURE END LIST*
%TO.P,U4,16*%
%TO.N,/5V2*%
%TA.AperFunction,SMDPad,CuDef*%
G36*
G01*
X27390000Y-19295000D02*
X27390000Y-19595000D01*
G75*
G02*
X27240000Y-19745000I-150000J0D01*
G01*
X25590000Y-19745000D01*
G75*
G02*
X25440000Y-19595000I0J150000D01*
G01*
X25440000Y-19295000D01*
G75*
G02*
X25590000Y-19145000I150000J0D01*
G01*
X27240000Y-19145000D01*
G75*
G02*
X27390000Y-19295000I0J-150000D01*
G01*
G37*
%TD.AperFunction*%
%TO.P,U4,15*%
%TO.N,/Gnd2*%
%TA.AperFunction,SMDPad,CuDef*%
G36*
G01*
X27390000Y-18025000D02*
X27390000Y-18325000D01*
G75*
G02*
X27240000Y-18475000I-150000J0D01*
G01*
X25590000Y-18475000D01*
G75*
G02*
X25440000Y-18325000I0J150000D01*
G01*
X25440000Y-18025000D01*
G75*
G02*
X25590000Y-17875000I150000J0D01*
G01*
X27240000Y-17875000D01*
G75*
G02*
X27390000Y-18025000I0J-150000D01*
G01*
G37*
%TD.AperFunction*%
%TO.P,U4,14*%
%TO.N,Net-(U4-Pad14)*%
%TA.AperFunction,SMDPad,CuDef*%
G36*
G01*
X27390000Y-16755000D02*
X27390000Y-17055000D01*
G75*
G02*
X27240000Y-17205000I-150000J0D01*
G01*
X25590000Y-17205000D01*
G75*
G02*
X25440000Y-17055000I0J150000D01*
G01*
X25440000Y-16755000D01*
G75*
G02*
X25590000Y-16605000I150000J0D01*
G01*
X27240000Y-16605000D01*
G75*
G02*
X27390000Y-16755000I0J-150000D01*
G01*
G37*
%TD.AperFunction*%
%TO.P,U4,13*%
%TO.N,Net-(U4-Pad13)*%
%TA.AperFunction,SMDPad,CuDef*%
G36*
G01*
X27390000Y-15485000D02*
X27390000Y-15785000D01*
G75*
G02*
X27240000Y-15935000I-150000J0D01*
G01*
X25590000Y-15935000D01*
G75*
G02*
X25440000Y-15785000I0J150000D01*
G01*
X25440000Y-15485000D01*
G75*
G02*
X25590000Y-15335000I150000J0D01*
G01*
X27240000Y-15335000D01*
G75*
G02*
X27390000Y-15485000I0J-150000D01*
G01*
G37*
%TD.AperFunction*%
%TO.P,U4,12*%
%TO.N,Net-(U4-Pad12)*%
%TA.AperFunction,SMDPad,CuDef*%
G36*
G01*
X27390000Y-14215000D02*
X27390000Y-14515000D01*
G75*
G02*
X27240000Y-14665000I-150000J0D01*
G01*
X25590000Y-14665000D01*
G75*
G02*
X25440000Y-14515000I0J150000D01*
G01*
X25440000Y-14215000D01*
G75*
G02*
X25590000Y-14065000I150000J0D01*
G01*
X27240000Y-14065000D01*
G75*
G02*
X27390000Y-14215000I0J-150000D01*
G01*
G37*
%TD.AperFunction*%
%TO.P,U4,11*%
%TO.N,Net-(U4-Pad11)*%
%TA.AperFunction,SMDPad,CuDef*%
G36*
G01*
X27390000Y-12945000D02*
X27390000Y-13245000D01*
G75*
G02*
X27240000Y-13395000I-150000J0D01*
G01*
X25590000Y-13395000D01*
G75*
G02*
X25440000Y-13245000I0J150000D01*
G01*
X25440000Y-12945000D01*
G75*
G02*
X25590000Y-12795000I150000J0D01*
G01*
X27240000Y-12795000D01*
G75*
G02*
X27390000Y-12945000I0J-150000D01*
G01*
G37*
%TD.AperFunction*%
%TO.P,U4,10*%
%TO.N,Net-(R7-Pad2)*%
%TA.AperFunction,SMDPad,CuDef*%
G36*
G01*
X27390000Y-11675000D02*
X27390000Y-11975000D01*
G75*
G02*
X27240000Y-12125000I-150000J0D01*
G01*
X25590000Y-12125000D01*
G75*
G02*
X25440000Y-11975000I0J150000D01*
G01*
X25440000Y-11675000D01*
G75*
G02*
X25590000Y-11525000I150000J0D01*
G01*
X27240000Y-11525000D01*
G75*
G02*
X27390000Y-11675000I0J-150000D01*
G01*
G37*
%TD.AperFunction*%
%TO.P,U4,9*%
%TO.N,Net-(R8-Pad1)*%
%TA.AperFunction,SMDPad,CuDef*%
G36*
G01*
X27390000Y-10405000D02*
X27390000Y-10705000D01*
G75*
G02*
X27240000Y-10855000I-150000J0D01*
G01*
X25590000Y-10855000D01*
G75*
G02*
X25440000Y-10705000I0J150000D01*
G01*
X25440000Y-10405000D01*
G75*
G02*
X25590000Y-10255000I150000J0D01*
G01*
X27240000Y-10255000D01*
G75*
G02*
X27390000Y-10405000I0J-150000D01*
G01*
G37*
%TD.AperFunction*%
%TO.P,U4,8*%
%TO.N,/Rx2*%
%TA.AperFunction,SMDPad,CuDef*%
G36*
G01*
X32340000Y-10405000D02*
X32340000Y-10705000D01*
G75*
G02*
X32190000Y-10855000I-150000J0D01*
G01*
X30540000Y-10855000D01*
G75*
G02*
X30390000Y-10705000I0J150000D01*
G01*
X30390000Y-10405000D01*
G75*
G02*
X30540000Y-10255000I150000J0D01*
G01*
X32190000Y-10255000D01*
G75*
G02*
X32340000Y-10405000I0J-150000D01*
G01*
G37*
%TD.AperFunction*%
%TO.P,U4,7*%
%TO.N,/Tx2*%
%TA.AperFunction,SMDPad,CuDef*%
G36*
G01*
X32340000Y-11675000D02*
X32340000Y-11975000D01*
G75*
G02*
X32190000Y-12125000I-150000J0D01*
G01*
X30540000Y-12125000D01*
G75*
G02*
X30390000Y-11975000I0J150000D01*
G01*
X30390000Y-11675000D01*
G75*
G02*
X30540000Y-11525000I150000J0D01*
G01*
X32190000Y-11525000D01*
G75*
G02*
X32340000Y-11675000I0J-150000D01*
G01*
G37*
%TD.AperFunction*%
%TO.P,U4,6*%
%TO.N,Net-(C12-Pad1)*%
%TA.AperFunction,SMDPad,CuDef*%
G36*
G01*
X32340000Y-12945000D02*
X32340000Y-13245000D01*
G75*
G02*
X32190000Y-13395000I-150000J0D01*
G01*
X30540000Y-13395000D01*
G75*
G02*
X30390000Y-13245000I0J150000D01*
G01*
X30390000Y-12945000D01*
G75*
G02*
X30540000Y-12795000I150000J0D01*
G01*
X32190000Y-12795000D01*
G75*
G02*
X32340000Y-12945000I0J-150000D01*
G01*
G37*
%TD.AperFunction*%
%TO.P,U4,5*%
%TO.N,Net-(C11-Pad2)*%
%TA.AperFunction,SMDPad,CuDef*%
G36*
G01*
X32340000Y-14215000D02*
X32340000Y-14515000D01*
G75*
G02*
X32190000Y-14665000I-150000J0D01*
G01*
X30540000Y-14665000D01*
G75*
G02*
X30390000Y-14515000I0J150000D01*
G01*
X30390000Y-14215000D01*
G75*
G02*
X30540000Y-14065000I150000J0D01*
G01*
X32190000Y-14065000D01*
G75*
G02*
X32340000Y-14215000I0J-150000D01*
G01*
G37*
%TD.AperFunction*%
%TO.P,U4,4*%
%TO.N,Net-(C11-Pad1)*%
%TA.AperFunction,SMDPad,CuDef*%
G36*
G01*
X32340000Y-15485000D02*
X32340000Y-15785000D01*
G75*
G02*
X32190000Y-15935000I-150000J0D01*
G01*
X30540000Y-15935000D01*
G75*
G02*
X30390000Y-15785000I0J150000D01*
G01*
X30390000Y-15485000D01*
G75*
G02*
X30540000Y-15335000I150000J0D01*
G01*
X32190000Y-15335000D01*
G75*
G02*
X32340000Y-15485000I0J-150000D01*
G01*
G37*
%TD.AperFunction*%
%TO.P,U4,3*%
%TO.N,Net-(C8-Pad2)*%
%TA.AperFunction,SMDPad,CuDef*%
G36*
G01*
X32340000Y-16755000D02*
X32340000Y-17055000D01*
G75*
G02*
X32190000Y-17205000I-150000J0D01*
G01*
X30540000Y-17205000D01*
G75*
G02*
X30390000Y-17055000I0J150000D01*
G01*
X30390000Y-16755000D01*
G75*
G02*
X30540000Y-16605000I150000J0D01*
G01*
X32190000Y-16605000D01*
G75*
G02*
X32340000Y-16755000I0J-150000D01*
G01*
G37*
%TD.AperFunction*%
%TO.P,U4,2*%
%TO.N,Net-(C10-Pad1)*%
%TA.AperFunction,SMDPad,CuDef*%
G36*
G01*
X32340000Y-18025000D02*
X32340000Y-18325000D01*
G75*
G02*
X32190000Y-18475000I-150000J0D01*
G01*
X30540000Y-18475000D01*
G75*
G02*
X30390000Y-18325000I0J150000D01*
G01*
X30390000Y-18025000D01*
G75*
G02*
X30540000Y-17875000I150000J0D01*
G01*
X32190000Y-17875000D01*
G75*
G02*
X32340000Y-18025000I0J-150000D01*
G01*
G37*
%TD.AperFunction*%
%TO.P,U4,1*%
%TO.N,Net-(C8-Pad1)*%
%TA.AperFunction,SMDPad,CuDef*%
G36*
G01*
X32340000Y-19295000D02*
X32340000Y-19595000D01*
G75*
G02*
X32190000Y-19745000I-150000J0D01*
G01*
X30540000Y-19745000D01*
G75*
G02*
X30390000Y-19595000I0J150000D01*
G01*
X30390000Y-19295000D01*
G75*
G02*
X30540000Y-19145000I150000J0D01*
G01*
X32190000Y-19145000D01*
G75*
G02*
X32340000Y-19295000I0J-150000D01*
G01*
G37*
%TD.AperFunction*%
%TD*%
%TO.P,U1,16*%
%TO.N,/5V1*%
%TA.AperFunction,SMDPad,CuDef*%
G36*
G01*
X12610000Y-13245000D02*
X12610000Y-12945000D01*
G75*
G02*
X12760000Y-12795000I150000J0D01*
G01*
X14410000Y-12795000D01*
G75*
G02*
X14560000Y-12945000I0J-150000D01*
G01*
X14560000Y-13245000D01*
G75*
G02*
X14410000Y-13395000I-150000J0D01*
G01*
X12760000Y-13395000D01*
G75*
G02*
X12610000Y-13245000I0J150000D01*
G01*
G37*
%TD.AperFunction*%
%TO.P,U1,15*%
%TO.N,/Gnd1*%
%TA.AperFunction,SMDPad,CuDef*%
G36*
G01*
X12610000Y-14515000D02*
X12610000Y-14215000D01*
G75*
G02*
X12760000Y-14065000I150000J0D01*
G01*
X14410000Y-14065000D01*
G75*
G02*
X14560000Y-14215000I0J-150000D01*
G01*
X14560000Y-14515000D01*
G75*
G02*
X14410000Y-14665000I-150000J0D01*
G01*
X12760000Y-14665000D01*
G75*
G02*
X12610000Y-14515000I0J150000D01*
G01*
G37*
%TD.AperFunction*%
%TO.P,U1,14*%
%TO.N,Net-(U1-Pad14)*%
%TA.AperFunction,SMDPad,CuDef*%
G36*
G01*
X12610000Y-15785000D02*
X12610000Y-15485000D01*
G75*
G02*
X12760000Y-15335000I150000J0D01*
G01*
X14410000Y-15335000D01*
G75*
G02*
X14560000Y-15485000I0J-150000D01*
G01*
X14560000Y-15785000D01*
G75*
G02*
X14410000Y-15935000I-150000J0D01*
G01*
X12760000Y-15935000D01*
G75*
G02*
X12610000Y-15785000I0J150000D01*
G01*
G37*
%TD.AperFunction*%
%TO.P,U1,13*%
%TO.N,Net-(U1-Pad13)*%
%TA.AperFunction,SMDPad,CuDef*%
G36*
G01*
X12610000Y-17055000D02*
X12610000Y-16755000D01*
G75*
G02*
X12760000Y-16605000I150000J0D01*
G01*
X14410000Y-16605000D01*
G75*
G02*
X14560000Y-16755000I0J-150000D01*
G01*
X14560000Y-17055000D01*
G75*
G02*
X14410000Y-17205000I-150000J0D01*
G01*
X12760000Y-17205000D01*
G75*
G02*
X12610000Y-17055000I0J150000D01*
G01*
G37*
%TD.AperFunction*%
%TO.P,U1,12*%
%TO.N,Net-(U1-Pad12)*%
%TA.AperFunction,SMDPad,CuDef*%
G36*
G01*
X12610000Y-18325000D02*
X12610000Y-18025000D01*
G75*
G02*
X12760000Y-17875000I150000J0D01*
G01*
X14410000Y-17875000D01*
G75*
G02*
X14560000Y-18025000I0J-150000D01*
G01*
X14560000Y-18325000D01*
G75*
G02*
X14410000Y-18475000I-150000J0D01*
G01*
X12760000Y-18475000D01*
G75*
G02*
X12610000Y-18325000I0J150000D01*
G01*
G37*
%TD.AperFunction*%
%TO.P,U1,11*%
%TO.N,Net-(U1-Pad11)*%
%TA.AperFunction,SMDPad,CuDef*%
G36*
G01*
X12610000Y-19595000D02*
X12610000Y-19295000D01*
G75*
G02*
X12760000Y-19145000I150000J0D01*
G01*
X14410000Y-19145000D01*
G75*
G02*
X14560000Y-19295000I0J-150000D01*
G01*
X14560000Y-19595000D01*
G75*
G02*
X14410000Y-19745000I-150000J0D01*
G01*
X12760000Y-19745000D01*
G75*
G02*
X12610000Y-19595000I0J150000D01*
G01*
G37*
%TD.AperFunction*%
%TO.P,U1,10*%
%TO.N,Net-(R6-Pad2)*%
%TA.AperFunction,SMDPad,CuDef*%
G36*
G01*
X12610000Y-20865000D02*
X12610000Y-20565000D01*
G75*
G02*
X12760000Y-20415000I150000J0D01*
G01*
X14410000Y-20415000D01*
G75*
G02*
X14560000Y-20565000I0J-150000D01*
G01*
X14560000Y-20865000D01*
G75*
G02*
X14410000Y-21015000I-150000J0D01*
G01*
X12760000Y-21015000D01*
G75*
G02*
X12610000Y-20865000I0J150000D01*
G01*
G37*
%TD.AperFunction*%
%TO.P,U1,9*%
%TO.N,Net-(R5-Pad1)*%
%TA.AperFunction,SMDPad,CuDef*%
G36*
G01*
X12610000Y-22135000D02*
X12610000Y-21835000D01*
G75*
G02*
X12760000Y-21685000I150000J0D01*
G01*
X14410000Y-21685000D01*
G75*
G02*
X14560000Y-21835000I0J-150000D01*
G01*
X14560000Y-22135000D01*
G75*
G02*
X14410000Y-22285000I-150000J0D01*
G01*
X12760000Y-22285000D01*
G75*
G02*
X12610000Y-22135000I0J150000D01*
G01*
G37*
%TD.AperFunction*%
%TO.P,U1,8*%
%TO.N,/Rx1*%
%TA.AperFunction,SMDPad,CuDef*%
G36*
G01*
X7660000Y-22135000D02*
X7660000Y-21835000D01*
G75*
G02*
X7810000Y-21685000I150000J0D01*
G01*
X9460000Y-21685000D01*
G75*
G02*
X9610000Y-21835000I0J-150000D01*
G01*
X9610000Y-22135000D01*
G75*
G02*
X9460000Y-22285000I-150000J0D01*
G01*
X7810000Y-22285000D01*
G75*
G02*
X7660000Y-22135000I0J150000D01*
G01*
G37*
%TD.AperFunction*%
%TO.P,U1,7*%
%TO.N,/Tx1*%
%TA.AperFunction,SMDPad,CuDef*%
G36*
G01*
X7660000Y-20865000D02*
X7660000Y-20565000D01*
G75*
G02*
X7810000Y-20415000I150000J0D01*
G01*
X9460000Y-20415000D01*
G75*
G02*
X9610000Y-20565000I0J-150000D01*
G01*
X9610000Y-20865000D01*
G75*
G02*
X9460000Y-21015000I-150000J0D01*
G01*
X7810000Y-21015000D01*
G75*
G02*
X7660000Y-20865000I0J150000D01*
G01*
G37*
%TD.AperFunction*%
%TO.P,U1,6*%
%TO.N,Net-(C3-Pad1)*%
%TA.AperFunction,SMDPad,CuDef*%
G36*
G01*
X7660000Y-19595000D02*
X7660000Y-19295000D01*
G75*
G02*
X7810000Y-19145000I150000J0D01*
G01*
X9460000Y-19145000D01*
G75*
G02*
X9610000Y-19295000I0J-150000D01*
G01*
X9610000Y-19595000D01*
G75*
G02*
X9460000Y-19745000I-150000J0D01*
G01*
X7810000Y-19745000D01*
G75*
G02*
X7660000Y-19595000I0J150000D01*
G01*
G37*
%TD.AperFunction*%
%TO.P,U1,5*%
%TO.N,Net-(C2-Pad2)*%
%TA.AperFunction,SMDPad,CuDef*%
G36*
G01*
X7660000Y-18325000D02*
X7660000Y-18025000D01*
G75*
G02*
X7810000Y-17875000I150000J0D01*
G01*
X9460000Y-17875000D01*
G75*
G02*
X9610000Y-18025000I0J-150000D01*
G01*
X9610000Y-18325000D01*
G75*
G02*
X9460000Y-18475000I-150000J0D01*
G01*
X7810000Y-18475000D01*
G75*
G02*
X7660000Y-18325000I0J150000D01*
G01*
G37*
%TD.AperFunction*%
%TO.P,U1,4*%
%TO.N,Net-(C2-Pad1)*%
%TA.AperFunction,SMDPad,CuDef*%
G36*
G01*
X7660000Y-17055000D02*
X7660000Y-16755000D01*
G75*
G02*
X7810000Y-16605000I150000J0D01*
G01*
X9460000Y-16605000D01*
G75*
G02*
X9610000Y-16755000I0J-150000D01*
G01*
X9610000Y-17055000D01*
G75*
G02*
X9460000Y-17205000I-150000J0D01*
G01*
X7810000Y-17205000D01*
G75*
G02*
X7660000Y-17055000I0J150000D01*
G01*
G37*
%TD.AperFunction*%
%TO.P,U1,3*%
%TO.N,Net-(C1-Pad2)*%
%TA.AperFunction,SMDPad,CuDef*%
G36*
G01*
X7660000Y-15785000D02*
X7660000Y-15485000D01*
G75*
G02*
X7810000Y-15335000I150000J0D01*
G01*
X9460000Y-15335000D01*
G75*
G02*
X9610000Y-15485000I0J-150000D01*
G01*
X9610000Y-15785000D01*
G75*
G02*
X9460000Y-15935000I-150000J0D01*
G01*
X7810000Y-15935000D01*
G75*
G02*
X7660000Y-15785000I0J150000D01*
G01*
G37*
%TD.AperFunction*%
%TO.P,U1,2*%
%TO.N,Net-(C4-Pad1)*%
%TA.AperFunction,SMDPad,CuDef*%
G36*
G01*
X7660000Y-14515000D02*
X7660000Y-14215000D01*
G75*
G02*
X7810000Y-14065000I150000J0D01*
G01*
X9460000Y-14065000D01*
G75*
G02*
X9610000Y-14215000I0J-150000D01*
G01*
X9610000Y-14515000D01*
G75*
G02*
X9460000Y-14665000I-150000J0D01*
G01*
X7810000Y-14665000D01*
G75*
G02*
X7660000Y-14515000I0J150000D01*
G01*
G37*
%TD.AperFunction*%
%TO.P,U1,1*%
%TO.N,Net-(C1-Pad1)*%
%TA.AperFunction,SMDPad,CuDef*%
G36*
G01*
X7660000Y-13245000D02*
X7660000Y-12945000D01*
G75*
G02*
X7810000Y-12795000I150000J0D01*
G01*
X9460000Y-12795000D01*
G75*
G02*
X9610000Y-12945000I0J-150000D01*
G01*
X9610000Y-13245000D01*
G75*
G02*
X9460000Y-13395000I-150000J0D01*
G01*
X7810000Y-13395000D01*
G75*
G02*
X7660000Y-13245000I0J150000D01*
G01*
G37*
%TD.AperFunction*%
%TD*%
D10*
%TO.P,J2,5*%
%TO.N,/Gnd2*%
X38000000Y-20540000D03*
%TO.P,J2,4*%
%TO.N,Net-(J2-Pad4)*%
X38000000Y-17770000D03*
%TO.P,J2,3*%
%TO.N,Net-(J2-Pad3)*%
X38000000Y-15000000D03*
%TO.P,J2,2*%
%TO.N,Net-(J2-Pad2)*%
X38000000Y-12230000D03*
%TO.P,J2,1*%
%TO.N,Net-(J2-Pad1)*%
X38000000Y-9460000D03*
%TD*%
D11*
%TO.P,U3,8*%
%TO.N,/5V1*%
X16190000Y-12460000D03*
%TO.P,U3,4*%
%TO.N,N/C*%
X23810000Y-4840000D03*
%TO.P,U3,7*%
%TO.N,/5V1*%
X16190000Y-9920000D03*
%TO.P,U3,3*%
%TO.N,/Gnd2*%
X23810000Y-7380000D03*
%TO.P,U3,6*%
%TO.N,Net-(R6-Pad2)*%
X16190000Y-7380000D03*
%TO.P,U3,2*%
%TO.N,Net-(R8-Pad2)*%
X23810000Y-9920000D03*
%TO.P,U3,5*%
%TO.N,/Gnd1*%
X16190000Y-4840000D03*
D12*
%TO.P,U3,1*%
%TO.N,Net-(U3-Pad1)*%
X23810000Y-12460000D03*
%TD*%
D11*
%TO.P,U2,8*%
%TO.N,/5V2*%
X23810000Y-17540000D03*
%TO.P,U2,4*%
%TO.N,N/C*%
X16190000Y-25160000D03*
%TO.P,U2,7*%
%TO.N,/5V2*%
X23810000Y-20080000D03*
%TO.P,U2,3*%
%TO.N,/Gnd1*%
X16190000Y-22620000D03*
%TO.P,U2,6*%
%TO.N,Net-(R7-Pad2)*%
X23810000Y-22620000D03*
%TO.P,U2,2*%
%TO.N,Net-(R5-Pad2)*%
X16190000Y-20080000D03*
%TO.P,U2,5*%
%TO.N,/Gnd2*%
X23810000Y-25160000D03*
D12*
%TO.P,U2,1*%
%TO.N,Net-(U2-Pad1)*%
X16190000Y-17540000D03*
%TD*%
%TO.P,R12,2*%
%TO.N,Net-(J2-Pad3)*%
%TA.AperFunction,SMDPad,CuDef*%
G36*
G01*
X36110000Y-5659999D02*
X36110000Y-6560001D01*
G75*
G02*
X35860001Y-6810000I-249999J0D01*
G01*
X35159999Y-6810000D01*
G75*
G02*
X34910000Y-6560001I0J249999D01*
G01*
X34910000Y-5659999D01*
G75*
G02*
X35159999Y-5410000I249999J0D01*
G01*
X35860001Y-5410000D01*
G75*
G02*
X36110000Y-5659999I0J-249999D01*
G01*
G37*
%TD.AperFunction*%
%TO.P,R12,1*%
%TO.N,/Tx2*%
%TA.AperFunction,SMDPad,CuDef*%
G36*
G01*
X38110000Y-5659999D02*
X38110000Y-6560001D01*
G75*
G02*
X37860001Y-6810000I-249999J0D01*
G01*
X37159999Y-6810000D01*
G75*
G02*
X36910000Y-6560001I0J249999D01*
G01*
X36910000Y-5659999D01*
G75*
G02*
X37159999Y-5410000I249999J0D01*
G01*
X37860001Y-5410000D01*
G75*
G02*
X38110000Y-5659999I0J-249999D01*
G01*
G37*
%TD.AperFunction*%
%TD*%
%TO.P,R11,2*%
%TO.N,Net-(J2-Pad3)*%
%TA.AperFunction,SMDPad,CuDef*%
G36*
G01*
X33100000Y-6560001D02*
X33100000Y-5659999D01*
G75*
G02*
X33349999Y-5410000I249999J0D01*
G01*
X34050001Y-5410000D01*
G75*
G02*
X34300000Y-5659999I0J-249999D01*
G01*
X34300000Y-6560001D01*
G75*
G02*
X34050001Y-6810000I-249999J0D01*
G01*
X33349999Y-6810000D01*
G75*
G02*
X33100000Y-6560001I0J249999D01*
G01*
G37*
%TD.AperFunction*%
%TO.P,R11,1*%
%TO.N,/Rx2*%
%TA.AperFunction,SMDPad,CuDef*%
G36*
G01*
X31100000Y-6560001D02*
X31100000Y-5659999D01*
G75*
G02*
X31349999Y-5410000I249999J0D01*
G01*
X32050001Y-5410000D01*
G75*
G02*
X32300000Y-5659999I0J-249999D01*
G01*
X32300000Y-6560001D01*
G75*
G02*
X32050001Y-6810000I-249999J0D01*
G01*
X31349999Y-6810000D01*
G75*
G02*
X31100000Y-6560001I0J249999D01*
G01*
G37*
%TD.AperFunction*%
%TD*%
%TO.P,R10,2*%
%TO.N,Net-(J2-Pad2)*%
%TA.AperFunction,SMDPad,CuDef*%
G36*
G01*
X36110000Y-3119999D02*
X36110000Y-4020001D01*
G75*
G02*
X35860001Y-4270000I-249999J0D01*
G01*
X35159999Y-4270000D01*
G75*
G02*
X34910000Y-4020001I0J249999D01*
G01*
X34910000Y-3119999D01*
G75*
G02*
X35159999Y-2870000I249999J0D01*
G01*
X35860001Y-2870000D01*
G75*
G02*
X36110000Y-3119999I0J-249999D01*
G01*
G37*
%TD.AperFunction*%
%TO.P,R10,1*%
%TO.N,/Tx2*%
%TA.AperFunction,SMDPad,CuDef*%
G36*
G01*
X38110000Y-3119999D02*
X38110000Y-4020001D01*
G75*
G02*
X37860001Y-4270000I-249999J0D01*
G01*
X37159999Y-4270000D01*
G75*
G02*
X36910000Y-4020001I0J249999D01*
G01*
X36910000Y-3119999D01*
G75*
G02*
X37159999Y-2870000I249999J0D01*
G01*
X37860001Y-2870000D01*
G75*
G02*
X38110000Y-3119999I0J-249999D01*
G01*
G37*
%TD.AperFunction*%
%TD*%
%TO.P,R9,2*%
%TO.N,Net-(J2-Pad2)*%
%TA.AperFunction,SMDPad,CuDef*%
G36*
G01*
X33100000Y-4020001D02*
X33100000Y-3119999D01*
G75*
G02*
X33349999Y-2870000I249999J0D01*
G01*
X34050001Y-2870000D01*
G75*
G02*
X34300000Y-3119999I0J-249999D01*
G01*
X34300000Y-4020001D01*
G75*
G02*
X34050001Y-4270000I-249999J0D01*
G01*
X33349999Y-4270000D01*
G75*
G02*
X33100000Y-4020001I0J249999D01*
G01*
G37*
%TD.AperFunction*%
%TO.P,R9,1*%
%TO.N,/Rx2*%
%TA.AperFunction,SMDPad,CuDef*%
G36*
G01*
X31100000Y-4020001D02*
X31100000Y-3119999D01*
G75*
G02*
X31349999Y-2870000I249999J0D01*
G01*
X32050001Y-2870000D01*
G75*
G02*
X32300000Y-3119999I0J-249999D01*
G01*
X32300000Y-4020001D01*
G75*
G02*
X32050001Y-4270000I-249999J0D01*
G01*
X31349999Y-4270000D01*
G75*
G02*
X31100000Y-4020001I0J249999D01*
G01*
G37*
%TD.AperFunction*%
%TD*%
%TO.P,R8,2*%
%TO.N,Net-(R8-Pad2)*%
%TA.AperFunction,SMDPad,CuDef*%
G36*
G01*
X26800001Y-6980000D02*
X25899999Y-6980000D01*
G75*
G02*
X25650000Y-6730001I0J249999D01*
G01*
X25650000Y-6029999D01*
G75*
G02*
X25899999Y-5780000I249999J0D01*
G01*
X26800001Y-5780000D01*
G75*
G02*
X27050000Y-6029999I0J-249999D01*
G01*
X27050000Y-6730001D01*
G75*
G02*
X26800001Y-6980000I-249999J0D01*
G01*
G37*
%TD.AperFunction*%
%TO.P,R8,1*%
%TO.N,Net-(R8-Pad1)*%
%TA.AperFunction,SMDPad,CuDef*%
G36*
G01*
X26800001Y-8980000D02*
X25899999Y-8980000D01*
G75*
G02*
X25650000Y-8730001I0J249999D01*
G01*
X25650000Y-8029999D01*
G75*
G02*
X25899999Y-7780000I249999J0D01*
G01*
X26800001Y-7780000D01*
G75*
G02*
X27050000Y-8029999I0J-249999D01*
G01*
X27050000Y-8730001D01*
G75*
G02*
X26800001Y-8980000I-249999J0D01*
G01*
G37*
%TD.AperFunction*%
%TD*%
%TO.P,R7,2*%
%TO.N,Net-(R7-Pad2)*%
%TA.AperFunction,SMDPad,CuDef*%
G36*
G01*
X33519999Y-23020000D02*
X34420001Y-23020000D01*
G75*
G02*
X34670000Y-23269999I0J-249999D01*
G01*
X34670000Y-23970001D01*
G75*
G02*
X34420001Y-24220000I-249999J0D01*
G01*
X33519999Y-24220000D01*
G75*
G02*
X33270000Y-23970001I0J249999D01*
G01*
X33270000Y-23269999D01*
G75*
G02*
X33519999Y-23020000I249999J0D01*
G01*
G37*
%TD.AperFunction*%
%TO.P,R7,1*%
%TO.N,/5V2*%
%TA.AperFunction,SMDPad,CuDef*%
G36*
G01*
X33519999Y-21020000D02*
X34420001Y-21020000D01*
G75*
G02*
X34670000Y-21269999I0J-249999D01*
G01*
X34670000Y-21970001D01*
G75*
G02*
X34420001Y-22220000I-249999J0D01*
G01*
X33519999Y-22220000D01*
G75*
G02*
X33270000Y-21970001I0J249999D01*
G01*
X33270000Y-21269999D01*
G75*
G02*
X33519999Y-21020000I249999J0D01*
G01*
G37*
%TD.AperFunction*%
%TD*%
%TO.P,R6,2*%
%TO.N,Net-(R6-Pad2)*%
%TA.AperFunction,SMDPad,CuDef*%
G36*
G01*
X10659999Y-5875000D02*
X11560001Y-5875000D01*
G75*
G02*
X11810000Y-6124999I0J-249999D01*
G01*
X11810000Y-6825001D01*
G75*
G02*
X11560001Y-7075000I-249999J0D01*
G01*
X10659999Y-7075000D01*
G75*
G02*
X10410000Y-6825001I0J249999D01*
G01*
X10410000Y-6124999D01*
G75*
G02*
X10659999Y-5875000I249999J0D01*
G01*
G37*
%TD.AperFunction*%
%TO.P,R6,1*%
%TO.N,/5V1*%
%TA.AperFunction,SMDPad,CuDef*%
G36*
G01*
X10659999Y-3875000D02*
X11560001Y-3875000D01*
G75*
G02*
X11810000Y-4124999I0J-249999D01*
G01*
X11810000Y-4825001D01*
G75*
G02*
X11560001Y-5075000I-249999J0D01*
G01*
X10659999Y-5075000D01*
G75*
G02*
X10410000Y-4825001I0J249999D01*
G01*
X10410000Y-4124999D01*
G75*
G02*
X10659999Y-3875000I249999J0D01*
G01*
G37*
%TD.AperFunction*%
%TD*%
%TO.P,R5,2*%
%TO.N,Net-(R5-Pad2)*%
%TA.AperFunction,SMDPad,CuDef*%
G36*
G01*
X13199999Y-25560000D02*
X14100001Y-25560000D01*
G75*
G02*
X14350000Y-25809999I0J-249999D01*
G01*
X14350000Y-26510001D01*
G75*
G02*
X14100001Y-26760000I-249999J0D01*
G01*
X13199999Y-26760000D01*
G75*
G02*
X12950000Y-26510001I0J249999D01*
G01*
X12950000Y-25809999D01*
G75*
G02*
X13199999Y-25560000I249999J0D01*
G01*
G37*
%TD.AperFunction*%
%TO.P,R5,1*%
%TO.N,Net-(R5-Pad1)*%
%TA.AperFunction,SMDPad,CuDef*%
G36*
G01*
X13199999Y-23560000D02*
X14100001Y-23560000D01*
G75*
G02*
X14350000Y-23809999I0J-249999D01*
G01*
X14350000Y-24510001D01*
G75*
G02*
X14100001Y-24760000I-249999J0D01*
G01*
X13199999Y-24760000D01*
G75*
G02*
X12950000Y-24510001I0J249999D01*
G01*
X12950000Y-23809999D01*
G75*
G02*
X13199999Y-23560000I249999J0D01*
G01*
G37*
%TD.AperFunction*%
%TD*%
%TO.P,R4,2*%
%TO.N,Net-(J1-Pad3)*%
%TA.AperFunction,SMDPad,CuDef*%
G36*
G01*
X6900000Y-23439999D02*
X6900000Y-24340001D01*
G75*
G02*
X6650001Y-24590000I-249999J0D01*
G01*
X5949999Y-24590000D01*
G75*
G02*
X5700000Y-24340001I0J249999D01*
G01*
X5700000Y-23439999D01*
G75*
G02*
X5949999Y-23190000I249999J0D01*
G01*
X6650001Y-23190000D01*
G75*
G02*
X6900000Y-23439999I0J-249999D01*
G01*
G37*
%TD.AperFunction*%
%TO.P,R4,1*%
%TO.N,/Tx1*%
%TA.AperFunction,SMDPad,CuDef*%
G36*
G01*
X8900000Y-23439999D02*
X8900000Y-24340001D01*
G75*
G02*
X8650001Y-24590000I-249999J0D01*
G01*
X7949999Y-24590000D01*
G75*
G02*
X7700000Y-24340001I0J249999D01*
G01*
X7700000Y-23439999D01*
G75*
G02*
X7949999Y-23190000I249999J0D01*
G01*
X8650001Y-23190000D01*
G75*
G02*
X8900000Y-23439999I0J-249999D01*
G01*
G37*
%TD.AperFunction*%
%TD*%
%TO.P,R3,2*%
%TO.N,Net-(J1-Pad3)*%
%TA.AperFunction,SMDPad,CuDef*%
G36*
G01*
X3890000Y-24340001D02*
X3890000Y-23439999D01*
G75*
G02*
X4139999Y-23190000I249999J0D01*
G01*
X4840001Y-23190000D01*
G75*
G02*
X5090000Y-23439999I0J-249999D01*
G01*
X5090000Y-24340001D01*
G75*
G02*
X4840001Y-24590000I-249999J0D01*
G01*
X4139999Y-24590000D01*
G75*
G02*
X3890000Y-24340001I0J249999D01*
G01*
G37*
%TD.AperFunction*%
%TO.P,R3,1*%
%TO.N,/Rx1*%
%TA.AperFunction,SMDPad,CuDef*%
G36*
G01*
X1890000Y-24340001D02*
X1890000Y-23439999D01*
G75*
G02*
X2139999Y-23190000I249999J0D01*
G01*
X2840001Y-23190000D01*
G75*
G02*
X3090000Y-23439999I0J-249999D01*
G01*
X3090000Y-24340001D01*
G75*
G02*
X2840001Y-24590000I-249999J0D01*
G01*
X2139999Y-24590000D01*
G75*
G02*
X1890000Y-24340001I0J249999D01*
G01*
G37*
%TD.AperFunction*%
%TD*%
%TO.P,R2,2*%
%TO.N,Net-(J1-Pad2)*%
%TA.AperFunction,SMDPad,CuDef*%
G36*
G01*
X6900000Y-25979999D02*
X6900000Y-26880001D01*
G75*
G02*
X6650001Y-27130000I-249999J0D01*
G01*
X5949999Y-27130000D01*
G75*
G02*
X5700000Y-26880001I0J249999D01*
G01*
X5700000Y-25979999D01*
G75*
G02*
X5949999Y-25730000I249999J0D01*
G01*
X6650001Y-25730000D01*
G75*
G02*
X6900000Y-25979999I0J-249999D01*
G01*
G37*
%TD.AperFunction*%
%TO.P,R2,1*%
%TO.N,/Tx1*%
%TA.AperFunction,SMDPad,CuDef*%
G36*
G01*
X8900000Y-25979999D02*
X8900000Y-26880001D01*
G75*
G02*
X8650001Y-27130000I-249999J0D01*
G01*
X7949999Y-27130000D01*
G75*
G02*
X7700000Y-26880001I0J249999D01*
G01*
X7700000Y-25979999D01*
G75*
G02*
X7949999Y-25730000I249999J0D01*
G01*
X8650001Y-25730000D01*
G75*
G02*
X8900000Y-25979999I0J-249999D01*
G01*
G37*
%TD.AperFunction*%
%TD*%
%TO.P,R1,2*%
%TO.N,Net-(J1-Pad2)*%
%TA.AperFunction,SMDPad,CuDef*%
G36*
G01*
X3890000Y-26880001D02*
X3890000Y-25979999D01*
G75*
G02*
X4139999Y-25730000I249999J0D01*
G01*
X4840001Y-25730000D01*
G75*
G02*
X5090000Y-25979999I0J-249999D01*
G01*
X5090000Y-26880001D01*
G75*
G02*
X4840001Y-27130000I-249999J0D01*
G01*
X4139999Y-27130000D01*
G75*
G02*
X3890000Y-26880001I0J249999D01*
G01*
G37*
%TD.AperFunction*%
%TO.P,R1,1*%
%TO.N,/Rx1*%
%TA.AperFunction,SMDPad,CuDef*%
G36*
G01*
X1890000Y-26880001D02*
X1890000Y-25979999D01*
G75*
G02*
X2139999Y-25730000I249999J0D01*
G01*
X2840001Y-25730000D01*
G75*
G02*
X3090000Y-25979999I0J-249999D01*
G01*
X3090000Y-26880001D01*
G75*
G02*
X2840001Y-27130000I-249999J0D01*
G01*
X2139999Y-27130000D01*
G75*
G02*
X1890000Y-26880001I0J249999D01*
G01*
G37*
%TD.AperFunction*%
%TD*%
D10*
%TO.P,J1,5*%
%TO.N,/Gnd1*%
X2000000Y-20540000D03*
%TO.P,J1,4*%
%TO.N,Net-(J1-Pad4)*%
X2000000Y-17770000D03*
%TO.P,J1,3*%
%TO.N,Net-(J1-Pad3)*%
X2000000Y-15000000D03*
%TO.P,J1,2*%
%TO.N,Net-(J1-Pad2)*%
X2000000Y-12230000D03*
%TO.P,J1,1*%
%TO.N,Net-(J1-Pad1)*%
X2000000Y-9460000D03*
%TD*%
%TO.P,C12,2*%
%TO.N,/Gnd2*%
%TA.AperFunction,SMDPad,CuDef*%
G36*
G01*
X29365000Y-6930000D02*
X28415000Y-6930000D01*
G75*
G02*
X28165000Y-6680000I0J250000D01*
G01*
X28165000Y-6005000D01*
G75*
G02*
X28415000Y-5755000I250000J0D01*
G01*
X29365000Y-5755000D01*
G75*
G02*
X29615000Y-6005000I0J-250000D01*
G01*
X29615000Y-6680000D01*
G75*
G02*
X29365000Y-6930000I-250000J0D01*
G01*
G37*
%TD.AperFunction*%
%TO.P,C12,1*%
%TO.N,Net-(C12-Pad1)*%
%TA.AperFunction,SMDPad,CuDef*%
G36*
G01*
X29365000Y-9005000D02*
X28415000Y-9005000D01*
G75*
G02*
X28165000Y-8755000I0J250000D01*
G01*
X28165000Y-8080000D01*
G75*
G02*
X28415000Y-7830000I250000J0D01*
G01*
X29365000Y-7830000D01*
G75*
G02*
X29615000Y-8080000I0J-250000D01*
G01*
X29615000Y-8755000D01*
G75*
G02*
X29365000Y-9005000I-250000J0D01*
G01*
G37*
%TD.AperFunction*%
%TD*%
%TO.P,C11,2*%
%TO.N,Net-(C11-Pad2)*%
%TA.AperFunction,SMDPad,CuDef*%
G36*
G01*
X34445000Y-14550000D02*
X33495000Y-14550000D01*
G75*
G02*
X33245000Y-14300000I0J250000D01*
G01*
X33245000Y-13625000D01*
G75*
G02*
X33495000Y-13375000I250000J0D01*
G01*
X34445000Y-13375000D01*
G75*
G02*
X34695000Y-13625000I0J-250000D01*
G01*
X34695000Y-14300000D01*
G75*
G02*
X34445000Y-14550000I-250000J0D01*
G01*
G37*
%TD.AperFunction*%
%TO.P,C11,1*%
%TO.N,Net-(C11-Pad1)*%
%TA.AperFunction,SMDPad,CuDef*%
G36*
G01*
X34445000Y-16625000D02*
X33495000Y-16625000D01*
G75*
G02*
X33245000Y-16375000I0J250000D01*
G01*
X33245000Y-15700000D01*
G75*
G02*
X33495000Y-15450000I250000J0D01*
G01*
X34445000Y-15450000D01*
G75*
G02*
X34695000Y-15700000I0J-250000D01*
G01*
X34695000Y-16375000D01*
G75*
G02*
X34445000Y-16625000I-250000J0D01*
G01*
G37*
%TD.AperFunction*%
%TD*%
%TO.P,C10,2*%
%TO.N,/Gnd2*%
%TA.AperFunction,SMDPad,CuDef*%
G36*
G01*
X33495000Y-19260000D02*
X34445000Y-19260000D01*
G75*
G02*
X34695000Y-19510000I0J-250000D01*
G01*
X34695000Y-20185000D01*
G75*
G02*
X34445000Y-20435000I-250000J0D01*
G01*
X33495000Y-20435000D01*
G75*
G02*
X33245000Y-20185000I0J250000D01*
G01*
X33245000Y-19510000D01*
G75*
G02*
X33495000Y-19260000I250000J0D01*
G01*
G37*
%TD.AperFunction*%
%TO.P,C10,1*%
%TO.N,Net-(C10-Pad1)*%
%TA.AperFunction,SMDPad,CuDef*%
G36*
G01*
X33495000Y-17185000D02*
X34445000Y-17185000D01*
G75*
G02*
X34695000Y-17435000I0J-250000D01*
G01*
X34695000Y-18110000D01*
G75*
G02*
X34445000Y-18360000I-250000J0D01*
G01*
X33495000Y-18360000D01*
G75*
G02*
X33245000Y-18110000I0J250000D01*
G01*
X33245000Y-17435000D01*
G75*
G02*
X33495000Y-17185000I250000J0D01*
G01*
G37*
%TD.AperFunction*%
%TD*%
%TO.P,C9,2*%
%TO.N,/Gnd2*%
%TA.AperFunction,SMDPad,CuDef*%
G36*
G01*
X28415000Y-23070000D02*
X29365000Y-23070000D01*
G75*
G02*
X29615000Y-23320000I0J-250000D01*
G01*
X29615000Y-23995000D01*
G75*
G02*
X29365000Y-24245000I-250000J0D01*
G01*
X28415000Y-24245000D01*
G75*
G02*
X28165000Y-23995000I0J250000D01*
G01*
X28165000Y-23320000D01*
G75*
G02*
X28415000Y-23070000I250000J0D01*
G01*
G37*
%TD.AperFunction*%
%TO.P,C9,1*%
%TO.N,/5V2*%
%TA.AperFunction,SMDPad,CuDef*%
G36*
G01*
X28415000Y-20995000D02*
X29365000Y-20995000D01*
G75*
G02*
X29615000Y-21245000I0J-250000D01*
G01*
X29615000Y-21920000D01*
G75*
G02*
X29365000Y-22170000I-250000J0D01*
G01*
X28415000Y-22170000D01*
G75*
G02*
X28165000Y-21920000I0J250000D01*
G01*
X28165000Y-21245000D01*
G75*
G02*
X28415000Y-20995000I250000J0D01*
G01*
G37*
%TD.AperFunction*%
%TD*%
%TO.P,C8,2*%
%TO.N,Net-(C8-Pad2)*%
%TA.AperFunction,SMDPad,CuDef*%
G36*
G01*
X30955000Y-23070000D02*
X31905000Y-23070000D01*
G75*
G02*
X32155000Y-23320000I0J-250000D01*
G01*
X32155000Y-23995000D01*
G75*
G02*
X31905000Y-24245000I-250000J0D01*
G01*
X30955000Y-24245000D01*
G75*
G02*
X30705000Y-23995000I0J250000D01*
G01*
X30705000Y-23320000D01*
G75*
G02*
X30955000Y-23070000I250000J0D01*
G01*
G37*
%TD.AperFunction*%
%TO.P,C8,1*%
%TO.N,Net-(C8-Pad1)*%
%TA.AperFunction,SMDPad,CuDef*%
G36*
G01*
X30955000Y-20995000D02*
X31905000Y-20995000D01*
G75*
G02*
X32155000Y-21245000I0J-250000D01*
G01*
X32155000Y-21920000D01*
G75*
G02*
X31905000Y-22170000I-250000J0D01*
G01*
X30955000Y-22170000D01*
G75*
G02*
X30705000Y-21920000I0J250000D01*
G01*
X30705000Y-21245000D01*
G75*
G02*
X30955000Y-20995000I250000J0D01*
G01*
G37*
%TD.AperFunction*%
%TD*%
%TO.P,C7,2*%
%TO.N,/Gnd2*%
%TA.AperFunction,SMDPad,CuDef*%
G36*
G01*
X25875000Y-23070000D02*
X26825000Y-23070000D01*
G75*
G02*
X27075000Y-23320000I0J-250000D01*
G01*
X27075000Y-23995000D01*
G75*
G02*
X26825000Y-24245000I-250000J0D01*
G01*
X25875000Y-24245000D01*
G75*
G02*
X25625000Y-23995000I0J250000D01*
G01*
X25625000Y-23320000D01*
G75*
G02*
X25875000Y-23070000I250000J0D01*
G01*
G37*
%TD.AperFunction*%
%TO.P,C7,1*%
%TO.N,/5V2*%
%TA.AperFunction,SMDPad,CuDef*%
G36*
G01*
X25875000Y-20995000D02*
X26825000Y-20995000D01*
G75*
G02*
X27075000Y-21245000I0J-250000D01*
G01*
X27075000Y-21920000D01*
G75*
G02*
X26825000Y-22170000I-250000J0D01*
G01*
X25875000Y-22170000D01*
G75*
G02*
X25625000Y-21920000I0J250000D01*
G01*
X25625000Y-21245000D01*
G75*
G02*
X25875000Y-20995000I250000J0D01*
G01*
G37*
%TD.AperFunction*%
%TD*%
%TO.P,C6,2*%
%TO.N,/Gnd1*%
%TA.AperFunction,SMDPad,CuDef*%
G36*
G01*
X14125000Y-5025000D02*
X13175000Y-5025000D01*
G75*
G02*
X12925000Y-4775000I0J250000D01*
G01*
X12925000Y-4100000D01*
G75*
G02*
X13175000Y-3850000I250000J0D01*
G01*
X14125000Y-3850000D01*
G75*
G02*
X14375000Y-4100000I0J-250000D01*
G01*
X14375000Y-4775000D01*
G75*
G02*
X14125000Y-5025000I-250000J0D01*
G01*
G37*
%TD.AperFunction*%
%TO.P,C6,1*%
%TO.N,/5V1*%
%TA.AperFunction,SMDPad,CuDef*%
G36*
G01*
X14125000Y-7100000D02*
X13175000Y-7100000D01*
G75*
G02*
X12925000Y-6850000I0J250000D01*
G01*
X12925000Y-6175000D01*
G75*
G02*
X13175000Y-5925000I250000J0D01*
G01*
X14125000Y-5925000D01*
G75*
G02*
X14375000Y-6175000I0J-250000D01*
G01*
X14375000Y-6850000D01*
G75*
G02*
X14125000Y-7100000I-250000J0D01*
G01*
G37*
%TD.AperFunction*%
%TD*%
%TO.P,C5,2*%
%TO.N,/Gnd1*%
%TA.AperFunction,SMDPad,CuDef*%
G36*
G01*
X10635000Y-10370000D02*
X11585000Y-10370000D01*
G75*
G02*
X11835000Y-10620000I0J-250000D01*
G01*
X11835000Y-11295000D01*
G75*
G02*
X11585000Y-11545000I-250000J0D01*
G01*
X10635000Y-11545000D01*
G75*
G02*
X10385000Y-11295000I0J250000D01*
G01*
X10385000Y-10620000D01*
G75*
G02*
X10635000Y-10370000I250000J0D01*
G01*
G37*
%TD.AperFunction*%
%TO.P,C5,1*%
%TO.N,/5V1*%
%TA.AperFunction,SMDPad,CuDef*%
G36*
G01*
X10635000Y-8295000D02*
X11585000Y-8295000D01*
G75*
G02*
X11835000Y-8545000I0J-250000D01*
G01*
X11835000Y-9220000D01*
G75*
G02*
X11585000Y-9470000I-250000J0D01*
G01*
X10635000Y-9470000D01*
G75*
G02*
X10385000Y-9220000I0J250000D01*
G01*
X10385000Y-8545000D01*
G75*
G02*
X10635000Y-8295000I250000J0D01*
G01*
G37*
%TD.AperFunction*%
%TD*%
%TO.P,C4,2*%
%TO.N,/Gnd1*%
%TA.AperFunction,SMDPad,CuDef*%
G36*
G01*
X6505000Y-13280000D02*
X5555000Y-13280000D01*
G75*
G02*
X5305000Y-13030000I0J250000D01*
G01*
X5305000Y-12355000D01*
G75*
G02*
X5555000Y-12105000I250000J0D01*
G01*
X6505000Y-12105000D01*
G75*
G02*
X6755000Y-12355000I0J-250000D01*
G01*
X6755000Y-13030000D01*
G75*
G02*
X6505000Y-13280000I-250000J0D01*
G01*
G37*
%TD.AperFunction*%
%TO.P,C4,1*%
%TO.N,Net-(C4-Pad1)*%
%TA.AperFunction,SMDPad,CuDef*%
G36*
G01*
X6505000Y-15355000D02*
X5555000Y-15355000D01*
G75*
G02*
X5305000Y-15105000I0J250000D01*
G01*
X5305000Y-14430000D01*
G75*
G02*
X5555000Y-14180000I250000J0D01*
G01*
X6505000Y-14180000D01*
G75*
G02*
X6755000Y-14430000I0J-250000D01*
G01*
X6755000Y-15105000D01*
G75*
G02*
X6505000Y-15355000I-250000J0D01*
G01*
G37*
%TD.AperFunction*%
%TD*%
%TO.P,C3,2*%
%TO.N,/Gnd1*%
%TA.AperFunction,SMDPad,CuDef*%
G36*
G01*
X10635000Y-25610000D02*
X11585000Y-25610000D01*
G75*
G02*
X11835000Y-25860000I0J-250000D01*
G01*
X11835000Y-26535000D01*
G75*
G02*
X11585000Y-26785000I-250000J0D01*
G01*
X10635000Y-26785000D01*
G75*
G02*
X10385000Y-26535000I0J250000D01*
G01*
X10385000Y-25860000D01*
G75*
G02*
X10635000Y-25610000I250000J0D01*
G01*
G37*
%TD.AperFunction*%
%TO.P,C3,1*%
%TO.N,Net-(C3-Pad1)*%
%TA.AperFunction,SMDPad,CuDef*%
G36*
G01*
X10635000Y-23535000D02*
X11585000Y-23535000D01*
G75*
G02*
X11835000Y-23785000I0J-250000D01*
G01*
X11835000Y-24460000D01*
G75*
G02*
X11585000Y-24710000I-250000J0D01*
G01*
X10635000Y-24710000D01*
G75*
G02*
X10385000Y-24460000I0J250000D01*
G01*
X10385000Y-23785000D01*
G75*
G02*
X10635000Y-23535000I250000J0D01*
G01*
G37*
%TD.AperFunction*%
%TD*%
%TO.P,C2,2*%
%TO.N,Net-(C2-Pad2)*%
%TA.AperFunction,SMDPad,CuDef*%
G36*
G01*
X5555000Y-17990000D02*
X6505000Y-17990000D01*
G75*
G02*
X6755000Y-18240000I0J-250000D01*
G01*
X6755000Y-18915000D01*
G75*
G02*
X6505000Y-19165000I-250000J0D01*
G01*
X5555000Y-19165000D01*
G75*
G02*
X5305000Y-18915000I0J250000D01*
G01*
X5305000Y-18240000D01*
G75*
G02*
X5555000Y-17990000I250000J0D01*
G01*
G37*
%TD.AperFunction*%
%TO.P,C2,1*%
%TO.N,Net-(C2-Pad1)*%
%TA.AperFunction,SMDPad,CuDef*%
G36*
G01*
X5555000Y-15915000D02*
X6505000Y-15915000D01*
G75*
G02*
X6755000Y-16165000I0J-250000D01*
G01*
X6755000Y-16840000D01*
G75*
G02*
X6505000Y-17090000I-250000J0D01*
G01*
X5555000Y-17090000D01*
G75*
G02*
X5305000Y-16840000I0J250000D01*
G01*
X5305000Y-16165000D01*
G75*
G02*
X5555000Y-15915000I250000J0D01*
G01*
G37*
%TD.AperFunction*%
%TD*%
%TO.P,C1,2*%
%TO.N,Net-(C1-Pad2)*%
%TA.AperFunction,SMDPad,CuDef*%
G36*
G01*
X9045000Y-9470000D02*
X8095000Y-9470000D01*
G75*
G02*
X7845000Y-9220000I0J250000D01*
G01*
X7845000Y-8545000D01*
G75*
G02*
X8095000Y-8295000I250000J0D01*
G01*
X9045000Y-8295000D01*
G75*
G02*
X9295000Y-8545000I0J-250000D01*
G01*
X9295000Y-9220000D01*
G75*
G02*
X9045000Y-9470000I-250000J0D01*
G01*
G37*
%TD.AperFunction*%
%TO.P,C1,1*%
%TO.N,Net-(C1-Pad1)*%
%TA.AperFunction,SMDPad,CuDef*%
G36*
G01*
X9045000Y-11545000D02*
X8095000Y-11545000D01*
G75*
G02*
X7845000Y-11295000I0J250000D01*
G01*
X7845000Y-10620000D01*
G75*
G02*
X8095000Y-10370000I250000J0D01*
G01*
X9045000Y-10370000D01*
G75*
G02*
X9295000Y-10620000I0J-250000D01*
G01*
X9295000Y-11295000D01*
G75*
G02*
X9045000Y-11545000I-250000J0D01*
G01*
G37*
%TD.AperFunction*%
%TD*%
D13*
%TO.N,/Gnd1*%
X6284000Y-20588000D03*
X11110000Y-27446000D03*
X6030000Y-11444000D03*
X12126000Y-14365000D03*
X10856000Y-13095000D03*
%TO.N,/5V1*%
X4760000Y-10936000D03*
%TO.N,/Gnd2*%
X26350000Y-24906000D03*
X28890000Y-24906000D03*
X28890000Y-18175000D03*
X35494000Y-20588000D03*
X28890000Y-5094000D03*
%TO.N,/5V2*%
X36002000Y-22620000D03*
%TO.N,Net-(C8-Pad2)*%
X31430000Y-24906000D03*
X29652000Y-19064000D03*
%TO.N,Net-(J1-Pad3)*%
X4506000Y-22366000D03*
X4506000Y-15762000D03*
%TO.N,Net-(J1-Pad2)*%
X5268000Y-25160000D03*
X4506000Y-14746000D03*
%TO.N,Net-(J2-Pad2)*%
X35748000Y-2300000D03*
X35748000Y-7634000D03*
%TO.N,Net-(R6-Pad2)*%
X12126000Y-20588000D03*
X12380000Y-7634000D03*
%TO.N,Net-(R7-Pad2)*%
X28128000Y-11825000D03*
X33970000Y-24906000D03*
%TO.N,/Tx2*%
X32700000Y-7634000D03*
X37526000Y-7634000D03*
%TD*%
D14*
%TO.N,Net-(C1-Pad2)*%
X10094000Y-15381000D02*
X9840000Y-15635000D01*
X10094000Y-12460000D02*
X10094000Y-15381000D01*
X9840000Y-12206000D02*
X10094000Y-12460000D01*
X9840000Y-9920000D02*
X9840000Y-12206000D01*
X9840000Y-15635000D02*
X8635000Y-15635000D01*
X8802500Y-8882500D02*
X9840000Y-9920000D01*
X8570000Y-8882500D02*
X8802500Y-8882500D01*
%TO.N,Net-(C1-Pad1)*%
X8570000Y-13030000D02*
X8635000Y-13095000D01*
X8570000Y-10957500D02*
X8570000Y-13030000D01*
%TO.N,Net-(C2-Pad2)*%
X6432500Y-18175000D02*
X6030000Y-18577500D01*
X8635000Y-18175000D02*
X6432500Y-18175000D01*
%TO.N,Net-(C2-Pad1)*%
X6432500Y-16905000D02*
X6030000Y-16502500D01*
X8635000Y-16905000D02*
X6432500Y-16905000D01*
%TO.N,/Gnd1*%
X6236000Y-20540000D02*
X6284000Y-20588000D01*
X2000000Y-20540000D02*
X6236000Y-20540000D01*
X11110000Y-27446000D02*
X11110000Y-26197500D01*
X6030000Y-11444000D02*
X6030000Y-12692500D01*
X12126000Y-14365000D02*
X13585000Y-14365000D01*
X10856000Y-11211500D02*
X11110000Y-10957500D01*
X10856000Y-13095000D02*
X10856000Y-11211500D01*
X12126000Y-14365000D02*
X10856000Y-13095000D01*
X14052500Y-4840000D02*
X13650000Y-4437500D01*
X16190000Y-4840000D02*
X14052500Y-4840000D01*
%TO.N,Net-(C3-Pad1)*%
X8635000Y-19445000D02*
X9713000Y-19445000D01*
X9713000Y-19445000D02*
X10094000Y-19826000D01*
X10094000Y-23106500D02*
X11110000Y-24122500D01*
X10094000Y-19826000D02*
X10094000Y-23106500D01*
%TO.N,Net-(C4-Pad1)*%
X6432500Y-14365000D02*
X6030000Y-14767500D01*
X8635000Y-14365000D02*
X6432500Y-14365000D01*
%TO.N,/5V1*%
X16190000Y-12460000D02*
X16190000Y-9920000D01*
X4760000Y-8142000D02*
X4760000Y-10936000D01*
X9840000Y-7634000D02*
X5268000Y-7634000D01*
X5268000Y-7634000D02*
X4760000Y-8142000D01*
X11088500Y-8882500D02*
X9840000Y-7634000D01*
X11110000Y-8882500D02*
X11088500Y-8882500D01*
X9840000Y-5745000D02*
X11110000Y-4475000D01*
X9840000Y-7634000D02*
X9840000Y-5745000D01*
X13650000Y-7380000D02*
X16190000Y-9920000D01*
X13650000Y-6512500D02*
X13650000Y-7380000D01*
X13585000Y-11357500D02*
X11110000Y-8882500D01*
X13585000Y-13095000D02*
X13585000Y-11357500D01*
X12147500Y-8882500D02*
X13650000Y-7380000D01*
X11110000Y-8882500D02*
X12147500Y-8882500D01*
%TO.N,/Gnd2*%
X26350000Y-23657500D02*
X26350000Y-24906000D01*
X28890000Y-23657500D02*
X28890000Y-24906000D01*
X26415000Y-18175000D02*
X28890000Y-18175000D01*
X26350000Y-23657500D02*
X28890000Y-23657500D01*
X35542000Y-20540000D02*
X35494000Y-20588000D01*
X38000000Y-20540000D02*
X35542000Y-20540000D01*
X34753500Y-19847500D02*
X35494000Y-20588000D01*
X33970000Y-19847500D02*
X34753500Y-19847500D01*
X25312500Y-23657500D02*
X23810000Y-25160000D01*
X26350000Y-23657500D02*
X25312500Y-23657500D01*
X28890000Y-5094000D02*
X28890000Y-6342500D01*
%TO.N,/5V2*%
X23810000Y-17540000D02*
X23810000Y-20080000D01*
X24847500Y-20080000D02*
X26350000Y-21582500D01*
X23810000Y-20080000D02*
X24847500Y-20080000D01*
X28890000Y-20588000D02*
X28890000Y-21582500D01*
X27747000Y-19445000D02*
X28890000Y-20588000D01*
X26415000Y-19445000D02*
X27747000Y-19445000D01*
X26350000Y-21582500D02*
X28890000Y-21582500D01*
X30160000Y-22620000D02*
X29122500Y-21582500D01*
X29122500Y-21582500D02*
X28890000Y-21582500D01*
X33970000Y-21620000D02*
X33970000Y-22620000D01*
X33970000Y-22620000D02*
X30160000Y-22620000D01*
X36002000Y-22620000D02*
X33970000Y-22620000D01*
%TO.N,Net-(C8-Pad2)*%
X31430000Y-23657500D02*
X31430000Y-24906000D01*
X29652000Y-19064000D02*
X29652000Y-17286000D01*
X30033000Y-16905000D02*
X29652000Y-17286000D01*
X31365000Y-16905000D02*
X30033000Y-16905000D01*
%TO.N,Net-(C8-Pad1)*%
X31365000Y-21517500D02*
X31430000Y-21582500D01*
X31365000Y-19445000D02*
X31365000Y-21517500D01*
%TO.N,Net-(C10-Pad1)*%
X33567500Y-18175000D02*
X33970000Y-17772500D01*
X31365000Y-18175000D02*
X33567500Y-18175000D01*
%TO.N,Net-(C11-Pad2)*%
X33567500Y-14365000D02*
X33970000Y-13962500D01*
X31365000Y-14365000D02*
X33567500Y-14365000D01*
%TO.N,Net-(C11-Pad1)*%
X33567500Y-15635000D02*
X33970000Y-16037500D01*
X31365000Y-15635000D02*
X33567500Y-15635000D01*
%TO.N,Net-(C12-Pad1)*%
X31365000Y-13095000D02*
X30287000Y-13095000D01*
X30287000Y-13095000D02*
X29906000Y-12714000D01*
X29906000Y-9433500D02*
X28890000Y-8417500D01*
X29906000Y-12714000D02*
X29906000Y-9433500D01*
%TO.N,Net-(J1-Pad3)*%
X4490000Y-23890000D02*
X6300000Y-23890000D01*
X4506000Y-23874000D02*
X4490000Y-23890000D01*
X4506000Y-22366000D02*
X4506000Y-23874000D01*
X3744000Y-15000000D02*
X4506000Y-15762000D01*
X2000000Y-15000000D02*
X3744000Y-15000000D01*
%TO.N,Net-(J1-Pad2)*%
X4490000Y-26430000D02*
X6300000Y-26430000D01*
X5268000Y-25652000D02*
X4490000Y-26430000D01*
X5268000Y-25160000D02*
X5268000Y-25652000D01*
X4506000Y-14746000D02*
X4506000Y-14736000D01*
X4506000Y-14746000D02*
X4506000Y-12714000D01*
X4022000Y-12230000D02*
X2000000Y-12230000D01*
X4506000Y-12714000D02*
X4022000Y-12230000D01*
%TO.N,Net-(J2-Pad3)*%
X35748000Y-6348000D02*
X35510000Y-6110000D01*
X38000000Y-15000000D02*
X35748000Y-15000000D01*
X35748000Y-15000000D02*
X35240000Y-14492000D01*
X35240000Y-14492000D02*
X35240000Y-8396000D01*
X35240000Y-8396000D02*
X34605000Y-7761000D01*
X34605000Y-7761000D02*
X34605000Y-6110000D01*
X34605000Y-6110000D02*
X35510000Y-6110000D01*
X34605000Y-6110000D02*
X33700000Y-6110000D01*
%TO.N,Net-(J2-Pad2)*%
X35748000Y-3332000D02*
X35510000Y-3570000D01*
X35748000Y-2300000D02*
X35748000Y-3332000D01*
X33700000Y-3570000D02*
X35510000Y-3570000D01*
X36026000Y-12230000D02*
X38000000Y-12230000D01*
X35748000Y-11952000D02*
X36026000Y-12230000D01*
X35748000Y-7634000D02*
X35748000Y-11952000D01*
%TO.N,/Rx1*%
X2490000Y-26430000D02*
X2490000Y-23890000D01*
X8635000Y-22431000D02*
X8635000Y-21985000D01*
X8824000Y-22620000D02*
X8635000Y-22431000D01*
X9586000Y-27446000D02*
X9586000Y-22874000D01*
X9332000Y-27700000D02*
X9586000Y-27446000D01*
X2728000Y-27700000D02*
X9332000Y-27700000D01*
X2490000Y-27462000D02*
X2728000Y-27700000D01*
X2490000Y-26430000D02*
X2490000Y-27462000D01*
X9586000Y-22874000D02*
X9332000Y-22620000D01*
X9332000Y-22620000D02*
X8824000Y-22620000D01*
%TO.N,/Tx1*%
X8300000Y-26430000D02*
X8300000Y-23890000D01*
X8300000Y-23890000D02*
X8300000Y-23874000D01*
X8300000Y-23874000D02*
X7046000Y-22620000D01*
X7046000Y-22620000D02*
X7046000Y-21096000D01*
X7427000Y-20715000D02*
X8635000Y-20715000D01*
X7046000Y-21096000D02*
X7427000Y-20715000D01*
%TO.N,Net-(R5-Pad2)*%
X16190000Y-20080000D02*
X14920000Y-21350000D01*
X14920000Y-24890000D02*
X13650000Y-26160000D01*
X14920000Y-21350000D02*
X14920000Y-24890000D01*
%TO.N,Net-(R5-Pad1)*%
X13650000Y-22050000D02*
X13585000Y-21985000D01*
X13650000Y-24160000D02*
X13650000Y-22050000D01*
%TO.N,Net-(R6-Pad2)*%
X12253000Y-20715000D02*
X12126000Y-20588000D01*
X13585000Y-20715000D02*
X12253000Y-20715000D01*
X11221000Y-6475000D02*
X11110000Y-6475000D01*
X12380000Y-7634000D02*
X11221000Y-6475000D01*
X11983000Y-5602000D02*
X11110000Y-6475000D01*
X14412000Y-5602000D02*
X11983000Y-5602000D01*
X16190000Y-7380000D02*
X14412000Y-5602000D01*
%TO.N,Net-(R7-Pad2)*%
X26415000Y-11825000D02*
X28128000Y-11825000D01*
X23810000Y-22620000D02*
X23810000Y-23128000D01*
X33970000Y-24906000D02*
X33970000Y-23620000D01*
%TO.N,Net-(R8-Pad2)*%
X23810000Y-9920000D02*
X25080000Y-8650000D01*
X25080000Y-7650000D02*
X26350000Y-6380000D01*
X25080000Y-8650000D02*
X25080000Y-7650000D01*
%TO.N,Net-(R8-Pad1)*%
X26350000Y-10490000D02*
X26415000Y-10555000D01*
X26350000Y-8380000D02*
X26350000Y-10490000D01*
%TO.N,/Rx2*%
X31700000Y-3570000D02*
X31700000Y-6110000D01*
X31365000Y-6445000D02*
X31700000Y-6110000D01*
X31365000Y-10555000D02*
X31365000Y-6445000D01*
%TO.N,/Tx2*%
X37510000Y-3570000D02*
X37510000Y-6110000D01*
X37526000Y-6126000D02*
X37510000Y-6110000D01*
X37526000Y-7634000D02*
X37526000Y-6126000D01*
X32700000Y-11698000D02*
X32700000Y-7634000D01*
X32573000Y-11825000D02*
X32700000Y-11698000D01*
X31365000Y-11825000D02*
X32573000Y-11825000D01*
%TD*%
M02*
