M48
; DRILL file {KiCad 5.1.8} date Sun Nov 15 21:37:55 2020
; FORMAT={-:-/ absolute / metric / decimal}
; #@! TF.CreationDate,2020-11-15T21:37:55+00:00
; #@! TF.GenerationSoftware,Kicad,Pcbnew,5.1.8
; #@! TF.FileFunction,NonPlated,1,2,NPTH
FMAT,2
METRIC
T1C0.500
%
G90
G05
T1
X91.25Y-68.25
X91.25Y-69.0
X91.25Y-69.75
X92.75Y-68.25
X92.75Y-69.0
X92.75Y-69.75
X49.25Y-88.25
X49.25Y-89.0
X49.25Y-89.75
X50.75Y-88.25
X50.75Y-89.0
X50.75Y-89.75
X7.25Y-88.25
X7.25Y-89.0
X7.25Y-89.75
X8.75Y-88.25
X8.75Y-89.0
X8.75Y-89.75
X91.25Y-88.25
X91.25Y-89.0
X91.25Y-89.75
X92.75Y-88.25
X92.75Y-89.0
X92.75Y-89.75
X7.25Y-68.25
X7.25Y-69.0
X7.25Y-69.75
X8.75Y-68.25
X8.75Y-69.0
X8.75Y-69.75
X91.25Y-24.25
X91.25Y-25.0
X91.25Y-25.75
X92.75Y-24.25
X92.75Y-25.0
X92.75Y-25.75
X55.25Y-62.25
X55.25Y-63.75
X56.0Y-62.25
X56.0Y-63.75
X56.75Y-62.25
X56.75Y-63.75
X85.25Y-62.25
X85.25Y-63.75
X86.0Y-62.25
X86.0Y-63.75
X86.75Y-62.25
X86.75Y-63.75
X85.25Y-30.25
X85.25Y-31.75
X86.0Y-30.25
X86.0Y-31.75
X86.75Y-30.25
X86.75Y-31.75
X43.25Y-62.25
X43.25Y-63.75
X44.0Y-62.25
X44.0Y-63.75
X44.75Y-62.25
X44.75Y-63.75
X7.25Y-36.25
X7.25Y-37.0
X7.25Y-37.75
X8.75Y-36.25
X8.75Y-37.0
X8.75Y-37.75
X7.25Y-24.25
X7.25Y-25.0
X7.25Y-25.75
X8.75Y-24.25
X8.75Y-25.0
X8.75Y-25.75
X7.25Y-4.25
X7.25Y-5.0
X7.25Y-5.75
X8.75Y-4.25
X8.75Y-5.0
X8.75Y-5.75
X91.25Y-56.25
X91.25Y-57.0
X91.25Y-57.75
X92.75Y-56.25
X92.75Y-57.0
X92.75Y-57.75
X7.25Y-56.25
X7.25Y-57.0
X7.25Y-57.75
X8.75Y-56.25
X8.75Y-57.0
X8.75Y-57.75
X49.25Y-36.25
X49.25Y-37.0
X49.25Y-37.75
X50.75Y-36.25
X50.75Y-37.0
X50.75Y-37.75
X49.25Y-24.25
X49.25Y-25.0
X49.25Y-25.75
X50.75Y-24.25
X50.75Y-25.0
X50.75Y-25.75
X43.25Y-30.25
X43.25Y-31.75
X44.0Y-30.25
X44.0Y-31.75
X44.75Y-30.25
X44.75Y-31.75
X49.25Y-68.25
X49.25Y-69.0
X49.25Y-69.75
X50.75Y-68.25
X50.75Y-69.0
X50.75Y-69.75
X91.25Y-36.25
X91.25Y-37.0
X91.25Y-37.75
X92.75Y-36.25
X92.75Y-37.0
X92.75Y-37.75
X55.25Y-30.25
X55.25Y-31.75
X56.0Y-30.25
X56.0Y-31.75
X56.75Y-30.25
X56.75Y-31.75
X13.25Y-62.25
X13.25Y-63.75
X14.0Y-62.25
X14.0Y-63.75
X14.75Y-62.25
X14.75Y-63.75
X49.25Y-56.25
X49.25Y-57.0
X49.25Y-57.75
X50.75Y-56.25
X50.75Y-57.0
X50.75Y-57.75
X49.25Y-4.25
X49.25Y-5.0
X49.25Y-5.75
X50.75Y-4.25
X50.75Y-5.0
X50.75Y-5.75
X91.25Y-4.25
X91.25Y-5.0
X91.25Y-5.75
X92.75Y-4.25
X92.75Y-5.0
X92.75Y-5.75
X13.25Y-30.25
X13.25Y-31.75
X14.0Y-30.25
X14.0Y-31.75
X14.75Y-30.25
X14.75Y-31.75
T0
M30
