%TF.GenerationSoftware,KiCad,Pcbnew,5.1.8*%
%TF.CreationDate,2020-11-15T21:37:53+00:00*%
%TF.ProjectId,rs232_isolator_panel,72733233-325f-4697-936f-6c61746f725f,rev?*%
%TF.SameCoordinates,PX1d905c0PY2625a00*%
%TF.FileFunction,Soldermask,Bot*%
%TF.FilePolarity,Negative*%
%FSLAX46Y46*%
G04 Gerber Fmt 4.6, Leading zero omitted, Abs format (unit mm)*
G04 Created by KiCad (PCBNEW 5.1.8) date 2020-11-15 21:37:53*
%MOMM*%
%LPD*%
G01*
G04 APERTURE LIST*
%ADD10C,0.500000*%
%ADD11O,1.600000X1.600000*%
%ADD12R,1.600000X1.600000*%
%ADD13R,3.480000X1.846667*%
G04 APERTURE END LIST*
D10*
%TO.C,mouse-bite-2mm-slot*%
X91250000Y-37000000D03*
X92750000Y-37000000D03*
X91250000Y-36250000D03*
X91250000Y-37750000D03*
X92750000Y-37750000D03*
X92750000Y-36250000D03*
%TD*%
%TO.C,mouse-bite-2mm-slot*%
X49250000Y-37000000D03*
X50750000Y-37000000D03*
X49250000Y-36250000D03*
X49250000Y-37750000D03*
X50750000Y-37750000D03*
X50750000Y-36250000D03*
%TD*%
%TO.C,mouse-bite-2mm-slot*%
X7250000Y-37000000D03*
X8750000Y-37000000D03*
X7250000Y-36250000D03*
X7250000Y-37750000D03*
X8750000Y-37750000D03*
X8750000Y-36250000D03*
%TD*%
%TO.C,mouse-bite-2mm-slot*%
X91250000Y-69000000D03*
X92750000Y-69000000D03*
X91250000Y-68250000D03*
X91250000Y-69750000D03*
X92750000Y-69750000D03*
X92750000Y-68250000D03*
%TD*%
%TO.C,mouse-bite-2mm-slot*%
X49250000Y-69000000D03*
X50750000Y-69000000D03*
X49250000Y-68250000D03*
X49250000Y-69750000D03*
X50750000Y-69750000D03*
X50750000Y-68250000D03*
%TD*%
%TO.C,mouse-bite-2mm-slot*%
X7250000Y-69000000D03*
X8750000Y-69000000D03*
X7250000Y-68250000D03*
X7250000Y-69750000D03*
X8750000Y-69750000D03*
X8750000Y-68250000D03*
%TD*%
%TO.C,mouse-bite-2mm-slot*%
X7250000Y-5000000D03*
X8750000Y-5000000D03*
X7250000Y-4250000D03*
X7250000Y-5750000D03*
X8750000Y-5750000D03*
X8750000Y-4250000D03*
%TD*%
%TO.C,mouse-bite-2mm-slot*%
X8750000Y-56250000D03*
X8750000Y-57750000D03*
X7250000Y-57750000D03*
X7250000Y-56250000D03*
X8750000Y-57000000D03*
X7250000Y-57000000D03*
%TD*%
%TO.C,mouse-bite-2mm-slot*%
X56000000Y-63750000D03*
X56000000Y-62250000D03*
X55250000Y-63750000D03*
X56750000Y-63750000D03*
X56750000Y-62250000D03*
X55250000Y-62250000D03*
%TD*%
%TO.C,mouse-bite-2mm-slot*%
X14000000Y-63750000D03*
X14000000Y-62250000D03*
X13250000Y-63750000D03*
X14750000Y-63750000D03*
X14750000Y-62250000D03*
X13250000Y-62250000D03*
%TD*%
%TO.C,mouse-bite-2mm-slot*%
X44000000Y-63750000D03*
X44000000Y-62250000D03*
X43250000Y-63750000D03*
X44750000Y-63750000D03*
X44750000Y-62250000D03*
X43250000Y-62250000D03*
%TD*%
%TO.C,mouse-bite-2mm-slot*%
X49250000Y-57000000D03*
X50750000Y-57000000D03*
X49250000Y-56250000D03*
X49250000Y-57750000D03*
X50750000Y-57750000D03*
X50750000Y-56250000D03*
%TD*%
%TO.C,mouse-bite-2mm-slot*%
X49250000Y-89000000D03*
X50750000Y-89000000D03*
X49250000Y-88250000D03*
X49250000Y-89750000D03*
X50750000Y-89750000D03*
X50750000Y-88250000D03*
%TD*%
%TO.C,mouse-bite-2mm-slot*%
X8750000Y-24250000D03*
X8750000Y-25750000D03*
X7250000Y-25750000D03*
X7250000Y-24250000D03*
X8750000Y-25000000D03*
X7250000Y-25000000D03*
%TD*%
%TO.C,mouse-bite-2mm-slot*%
X43250000Y-30250000D03*
X44750000Y-30250000D03*
X44750000Y-31750000D03*
X43250000Y-31750000D03*
X44000000Y-30250000D03*
X44000000Y-31750000D03*
%TD*%
%TO.C,mouse-bite-2mm-slot*%
X91250000Y-89000000D03*
X92750000Y-89000000D03*
X91250000Y-88250000D03*
X91250000Y-89750000D03*
X92750000Y-89750000D03*
X92750000Y-88250000D03*
%TD*%
%TO.C,mouse-bite-2mm-slot*%
X91250000Y-25000000D03*
X92750000Y-25000000D03*
X91250000Y-24250000D03*
X91250000Y-25750000D03*
X92750000Y-25750000D03*
X92750000Y-24250000D03*
%TD*%
%TO.C,mouse-bite-2mm-slot*%
X91250000Y-57000000D03*
X92750000Y-57000000D03*
X91250000Y-56250000D03*
X91250000Y-57750000D03*
X92750000Y-57750000D03*
X92750000Y-56250000D03*
%TD*%
%TO.C,mouse-bite-2mm-slot*%
X92750000Y-4250000D03*
X92750000Y-5750000D03*
X91250000Y-5750000D03*
X91250000Y-4250000D03*
X92750000Y-5000000D03*
X91250000Y-5000000D03*
%TD*%
%TO.C,mouse-bite-2mm-slot*%
X55250000Y-30250000D03*
X56750000Y-30250000D03*
X56750000Y-31750000D03*
X55250000Y-31750000D03*
X56000000Y-30250000D03*
X56000000Y-31750000D03*
%TD*%
%TO.C,mouse-bite-2mm-slot*%
X49250000Y-25000000D03*
X50750000Y-25000000D03*
X49250000Y-24250000D03*
X49250000Y-25750000D03*
X50750000Y-25750000D03*
X50750000Y-24250000D03*
%TD*%
%TO.C,mouse-bite-2mm-slot*%
X8750000Y-88250000D03*
X8750000Y-89750000D03*
X7250000Y-89750000D03*
X7250000Y-88250000D03*
X8750000Y-89000000D03*
X7250000Y-89000000D03*
%TD*%
%TO.C,mouse-bite-2mm-slot*%
X85250000Y-30250000D03*
X86750000Y-30250000D03*
X86750000Y-31750000D03*
X85250000Y-31750000D03*
X86000000Y-30250000D03*
X86000000Y-31750000D03*
%TD*%
%TO.C,mouse-bite-2mm-slot*%
X50750000Y-4250000D03*
X50750000Y-5750000D03*
X49250000Y-5750000D03*
X49250000Y-4250000D03*
X50750000Y-5000000D03*
X49250000Y-5000000D03*
%TD*%
%TO.C,mouse-bite-2mm-slot*%
X13250000Y-30250000D03*
X14750000Y-30250000D03*
X14750000Y-31750000D03*
X13250000Y-31750000D03*
X14000000Y-30250000D03*
X14000000Y-31750000D03*
%TD*%
%TO.C,mouse-bite-2mm-slot*%
X86000000Y-63750000D03*
X86000000Y-62250000D03*
X85250000Y-63750000D03*
X86750000Y-63750000D03*
X86750000Y-62250000D03*
X85250000Y-62250000D03*
%TD*%
D11*
%TO.C,U2*%
X74810000Y-81540000D03*
X67190000Y-89160000D03*
X74810000Y-84080000D03*
X67190000Y-86620000D03*
X74810000Y-86620000D03*
X67190000Y-84080000D03*
X74810000Y-89160000D03*
D12*
X67190000Y-81540000D03*
%TD*%
D11*
%TO.C,U2*%
X32810000Y-81540000D03*
X25190000Y-89160000D03*
X32810000Y-84080000D03*
X25190000Y-86620000D03*
X32810000Y-86620000D03*
X25190000Y-84080000D03*
X32810000Y-89160000D03*
D12*
X25190000Y-81540000D03*
%TD*%
D11*
%TO.C,U2*%
X74810000Y-49540000D03*
X67190000Y-57160000D03*
X74810000Y-52080000D03*
X67190000Y-54620000D03*
X74810000Y-54620000D03*
X67190000Y-52080000D03*
X74810000Y-57160000D03*
D12*
X67190000Y-49540000D03*
%TD*%
D11*
%TO.C,U2*%
X32810000Y-49540000D03*
X25190000Y-57160000D03*
X32810000Y-52080000D03*
X25190000Y-54620000D03*
X32810000Y-54620000D03*
X25190000Y-52080000D03*
X32810000Y-57160000D03*
D12*
X25190000Y-49540000D03*
%TD*%
D11*
%TO.C,U2*%
X74810000Y-17540000D03*
X67190000Y-25160000D03*
X74810000Y-20080000D03*
X67190000Y-22620000D03*
X74810000Y-22620000D03*
X67190000Y-20080000D03*
X74810000Y-25160000D03*
D12*
X67190000Y-17540000D03*
%TD*%
D13*
%TO.C,J2*%
X89000000Y-83155000D03*
X89000000Y-80385000D03*
X89000000Y-77615000D03*
X89000000Y-74845000D03*
%TD*%
%TO.C,J2*%
X47000000Y-83155000D03*
X47000000Y-80385000D03*
X47000000Y-77615000D03*
X47000000Y-74845000D03*
%TD*%
%TO.C,J2*%
X89000000Y-51155000D03*
X89000000Y-48385000D03*
X89000000Y-45615000D03*
X89000000Y-42845000D03*
%TD*%
%TO.C,J2*%
X47000000Y-51155000D03*
X47000000Y-48385000D03*
X47000000Y-45615000D03*
X47000000Y-42845000D03*
%TD*%
%TO.C,J2*%
X89000000Y-19155000D03*
X89000000Y-16385000D03*
X89000000Y-13615000D03*
X89000000Y-10845000D03*
%TD*%
D11*
%TO.C,U3*%
X67190000Y-76460000D03*
X74810000Y-68840000D03*
X67190000Y-73920000D03*
X74810000Y-71380000D03*
X67190000Y-71380000D03*
X74810000Y-73920000D03*
X67190000Y-68840000D03*
D12*
X74810000Y-76460000D03*
%TD*%
D11*
%TO.C,U3*%
X25190000Y-76460000D03*
X32810000Y-68840000D03*
X25190000Y-73920000D03*
X32810000Y-71380000D03*
X25190000Y-71380000D03*
X32810000Y-73920000D03*
X25190000Y-68840000D03*
D12*
X32810000Y-76460000D03*
%TD*%
D11*
%TO.C,U3*%
X67190000Y-44460000D03*
X74810000Y-36840000D03*
X67190000Y-41920000D03*
X74810000Y-39380000D03*
X67190000Y-39380000D03*
X74810000Y-41920000D03*
X67190000Y-36840000D03*
D12*
X74810000Y-44460000D03*
%TD*%
D11*
%TO.C,U3*%
X25190000Y-44460000D03*
X32810000Y-36840000D03*
X25190000Y-41920000D03*
X32810000Y-39380000D03*
X25190000Y-39380000D03*
X32810000Y-41920000D03*
X25190000Y-36840000D03*
D12*
X32810000Y-44460000D03*
%TD*%
D11*
%TO.C,U3*%
X67190000Y-12460000D03*
X74810000Y-4840000D03*
X67190000Y-9920000D03*
X74810000Y-7380000D03*
X67190000Y-7380000D03*
X74810000Y-9920000D03*
X67190000Y-4840000D03*
D12*
X74810000Y-12460000D03*
%TD*%
D13*
%TO.C,J1*%
X53000000Y-83155000D03*
X53000000Y-80385000D03*
X53000000Y-77615000D03*
X53000000Y-74845000D03*
%TD*%
%TO.C,J1*%
X11000000Y-83155000D03*
X11000000Y-80385000D03*
X11000000Y-77615000D03*
X11000000Y-74845000D03*
%TD*%
%TO.C,J1*%
X53000000Y-51155000D03*
X53000000Y-48385000D03*
X53000000Y-45615000D03*
X53000000Y-42845000D03*
%TD*%
%TO.C,J1*%
X11000000Y-51155000D03*
X11000000Y-48385000D03*
X11000000Y-45615000D03*
X11000000Y-42845000D03*
%TD*%
%TO.C,J1*%
X53000000Y-19155000D03*
X53000000Y-16385000D03*
X53000000Y-13615000D03*
X53000000Y-10845000D03*
%TD*%
%TO.C,J1*%
X11000000Y-10845000D03*
X11000000Y-13615000D03*
X11000000Y-16385000D03*
X11000000Y-19155000D03*
%TD*%
D12*
%TO.C,U2*%
X25190000Y-17540000D03*
D11*
X32810000Y-25160000D03*
X25190000Y-20080000D03*
X32810000Y-22620000D03*
X25190000Y-22620000D03*
X32810000Y-20080000D03*
X25190000Y-25160000D03*
X32810000Y-17540000D03*
%TD*%
D12*
%TO.C,U3*%
X32810000Y-12460000D03*
D11*
X25190000Y-4840000D03*
X32810000Y-9920000D03*
X25190000Y-7380000D03*
X32810000Y-7380000D03*
X25190000Y-9920000D03*
X32810000Y-4840000D03*
X25190000Y-12460000D03*
%TD*%
D13*
%TO.C,J2*%
X47000000Y-10845000D03*
X47000000Y-13615000D03*
X47000000Y-16385000D03*
X47000000Y-19155000D03*
%TD*%
M02*
