%TF.GenerationSoftware,KiCad,Pcbnew,5.1.8*%
%TF.CreationDate,2020-11-15T10:57:14+00:00*%
%TF.ProjectId,rs232Isolator,72733233-3249-4736-9f6c-61746f722e6b,rev?*%
%TF.SameCoordinates,PX4421680PY42d7d10*%
%TF.FileFunction,Legend,Top*%
%TF.FilePolarity,Positive*%
%FSLAX46Y46*%
G04 Gerber Fmt 4.6, Leading zero omitted, Abs format (unit mm)*
G04 Created by KiCad (PCBNEW 5.1.8) date 2020-11-15 10:57:14*
%MOMM*%
%LPD*%
G01*
G04 APERTURE LIST*
%ADD10C,0.120000*%
%ADD11C,0.150000*%
G04 APERTURE END LIST*
D10*
%TO.C,U4*%
X28890000Y-9940000D02*
X26940000Y-9940000D01*
X28890000Y-9940000D02*
X30840000Y-9940000D01*
X28890000Y-20060000D02*
X26940000Y-20060000D01*
X28890000Y-20060000D02*
X32340000Y-20060000D01*
%TO.C,U1*%
X11110000Y-22600000D02*
X13060000Y-22600000D01*
X11110000Y-22600000D02*
X9160000Y-22600000D01*
X11110000Y-12480000D02*
X13060000Y-12480000D01*
X11110000Y-12480000D02*
X7660000Y-12480000D01*
%TO.C,J2*%
X39740000Y-8276667D02*
X36000000Y-8276667D01*
X36000000Y-8276667D02*
X36000000Y-21723333D01*
X36000000Y-21723333D02*
X39740000Y-21723333D01*
X38000000Y-8036667D02*
X35760000Y-8036667D01*
X35760000Y-8036667D02*
X35760000Y-12230000D01*
%TO.C,U3*%
X21000000Y-13790000D02*
X22650000Y-13790000D01*
X22650000Y-13790000D02*
X22650000Y-3510000D01*
X22650000Y-3510000D02*
X17350000Y-3510000D01*
X17350000Y-3510000D02*
X17350000Y-13790000D01*
X17350000Y-13790000D02*
X19000000Y-13790000D01*
X19000000Y-13790000D02*
G75*
G02*
X21000000Y-13790000I1000000J0D01*
G01*
%TO.C,U2*%
X19000000Y-16210000D02*
X17350000Y-16210000D01*
X17350000Y-16210000D02*
X17350000Y-26490000D01*
X17350000Y-26490000D02*
X22650000Y-26490000D01*
X22650000Y-26490000D02*
X22650000Y-16210000D01*
X22650000Y-16210000D02*
X21000000Y-16210000D01*
X21000000Y-16210000D02*
G75*
G02*
X19000000Y-16210000I-1000000J0D01*
G01*
%TO.C,R12*%
X36737064Y-6845000D02*
X36282936Y-6845000D01*
X36737064Y-5375000D02*
X36282936Y-5375000D01*
%TO.C,R11*%
X32472936Y-5375000D02*
X32927064Y-5375000D01*
X32472936Y-6845000D02*
X32927064Y-6845000D01*
%TO.C,R10*%
X36737064Y-4305000D02*
X36282936Y-4305000D01*
X36737064Y-2835000D02*
X36282936Y-2835000D01*
%TO.C,R9*%
X32472936Y-2835000D02*
X32927064Y-2835000D01*
X32472936Y-4305000D02*
X32927064Y-4305000D01*
%TO.C,R8*%
X25615000Y-7607064D02*
X25615000Y-7152936D01*
X27085000Y-7607064D02*
X27085000Y-7152936D01*
%TO.C,R7*%
X34705000Y-22392936D02*
X34705000Y-22847064D01*
X33235000Y-22392936D02*
X33235000Y-22847064D01*
%TO.C,R6*%
X11845000Y-5247936D02*
X11845000Y-5702064D01*
X10375000Y-5247936D02*
X10375000Y-5702064D01*
%TO.C,R5*%
X14385000Y-24932936D02*
X14385000Y-25387064D01*
X12915000Y-24932936D02*
X12915000Y-25387064D01*
%TO.C,R4*%
X7527064Y-24625000D02*
X7072936Y-24625000D01*
X7527064Y-23155000D02*
X7072936Y-23155000D01*
%TO.C,R3*%
X3262936Y-23155000D02*
X3717064Y-23155000D01*
X3262936Y-24625000D02*
X3717064Y-24625000D01*
%TO.C,R2*%
X7527064Y-27165000D02*
X7072936Y-27165000D01*
X7527064Y-25695000D02*
X7072936Y-25695000D01*
%TO.C,R1*%
X3262936Y-25695000D02*
X3717064Y-25695000D01*
X3262936Y-27165000D02*
X3717064Y-27165000D01*
%TO.C,J1*%
X260000Y-21723333D02*
X4000000Y-21723333D01*
X4000000Y-21723333D02*
X4000000Y-8276667D01*
X4000000Y-8276667D02*
X260000Y-8276667D01*
X2000000Y-8036667D02*
X4240000Y-8036667D01*
X4240000Y-8036667D02*
X4240000Y-12230000D01*
%TO.C,C12*%
X28155000Y-7641252D02*
X28155000Y-7118748D01*
X29625000Y-7641252D02*
X29625000Y-7118748D01*
%TO.C,C11*%
X33235000Y-15261252D02*
X33235000Y-14738748D01*
X34705000Y-15261252D02*
X34705000Y-14738748D01*
%TO.C,C10*%
X34705000Y-18548748D02*
X34705000Y-19071252D01*
X33235000Y-18548748D02*
X33235000Y-19071252D01*
%TO.C,C9*%
X29625000Y-22358748D02*
X29625000Y-22881252D01*
X28155000Y-22358748D02*
X28155000Y-22881252D01*
%TO.C,C8*%
X32165000Y-22358748D02*
X32165000Y-22881252D01*
X30695000Y-22358748D02*
X30695000Y-22881252D01*
%TO.C,C7*%
X27085000Y-22358748D02*
X27085000Y-22881252D01*
X25615000Y-22358748D02*
X25615000Y-22881252D01*
%TO.C,C6*%
X12915000Y-5736252D02*
X12915000Y-5213748D01*
X14385000Y-5736252D02*
X14385000Y-5213748D01*
%TO.C,C5*%
X11845000Y-9658748D02*
X11845000Y-10181252D01*
X10375000Y-9658748D02*
X10375000Y-10181252D01*
%TO.C,C4*%
X5295000Y-13991252D02*
X5295000Y-13468748D01*
X6765000Y-13991252D02*
X6765000Y-13468748D01*
%TO.C,C3*%
X11845000Y-24898748D02*
X11845000Y-25421252D01*
X10375000Y-24898748D02*
X10375000Y-25421252D01*
%TO.C,C2*%
X6765000Y-17278748D02*
X6765000Y-17801252D01*
X5295000Y-17278748D02*
X5295000Y-17801252D01*
%TO.C,C1*%
X7835000Y-10181252D02*
X7835000Y-9658748D01*
X9305000Y-10181252D02*
X9305000Y-9658748D01*
%TO.C,U4*%
D11*
X32954095Y-9880380D02*
X32954095Y-10689904D01*
X33001714Y-10785142D01*
X33049333Y-10832761D01*
X33144571Y-10880380D01*
X33335047Y-10880380D01*
X33430285Y-10832761D01*
X33477904Y-10785142D01*
X33525523Y-10689904D01*
X33525523Y-9880380D01*
X34430285Y-10213714D02*
X34430285Y-10880380D01*
X34192190Y-9832761D02*
X33954095Y-10547047D01*
X34573142Y-10547047D01*
%TO.C,U1*%
X12126095Y-11150380D02*
X12126095Y-11959904D01*
X12173714Y-12055142D01*
X12221333Y-12102761D01*
X12316571Y-12150380D01*
X12507047Y-12150380D01*
X12602285Y-12102761D01*
X12649904Y-12055142D01*
X12697523Y-11959904D01*
X12697523Y-11150380D01*
X13697523Y-12150380D02*
X13126095Y-12150380D01*
X13411809Y-12150380D02*
X13411809Y-11150380D01*
X13316571Y-11293238D01*
X13221333Y-11388476D01*
X13126095Y-11436095D01*
%TO.C,J2*%
X37452380Y-24796666D02*
X38166666Y-24796666D01*
X38309523Y-24844285D01*
X38404761Y-24939523D01*
X38452380Y-25082380D01*
X38452380Y-25177618D01*
X37547619Y-24368094D02*
X37500000Y-24320475D01*
X37452380Y-24225237D01*
X37452380Y-23987142D01*
X37500000Y-23891904D01*
X37547619Y-23844285D01*
X37642857Y-23796666D01*
X37738095Y-23796666D01*
X37880952Y-23844285D01*
X38452380Y-24415713D01*
X38452380Y-23796666D01*
%TO.C,U3*%
X19238095Y-1752380D02*
X19238095Y-2561904D01*
X19285714Y-2657142D01*
X19333333Y-2704761D01*
X19428571Y-2752380D01*
X19619047Y-2752380D01*
X19714285Y-2704761D01*
X19761904Y-2657142D01*
X19809523Y-2561904D01*
X19809523Y-1752380D01*
X20190476Y-1752380D02*
X20809523Y-1752380D01*
X20476190Y-2133333D01*
X20619047Y-2133333D01*
X20714285Y-2180952D01*
X20761904Y-2228571D01*
X20809523Y-2323809D01*
X20809523Y-2561904D01*
X20761904Y-2657142D01*
X20714285Y-2704761D01*
X20619047Y-2752380D01*
X20333333Y-2752380D01*
X20238095Y-2704761D01*
X20190476Y-2657142D01*
%TO.C,U2*%
X19238095Y-27152380D02*
X19238095Y-27961904D01*
X19285714Y-28057142D01*
X19333333Y-28104761D01*
X19428571Y-28152380D01*
X19619047Y-28152380D01*
X19714285Y-28104761D01*
X19761904Y-28057142D01*
X19809523Y-27961904D01*
X19809523Y-27152380D01*
X20238095Y-27247619D02*
X20285714Y-27200000D01*
X20380952Y-27152380D01*
X20619047Y-27152380D01*
X20714285Y-27200000D01*
X20761904Y-27247619D01*
X20809523Y-27342857D01*
X20809523Y-27438095D01*
X20761904Y-27580952D01*
X20190476Y-28152380D01*
X20809523Y-28152380D01*
%TO.C,R12*%
X35867142Y-8086380D02*
X35533809Y-7610190D01*
X35295714Y-8086380D02*
X35295714Y-7086380D01*
X35676666Y-7086380D01*
X35771904Y-7134000D01*
X35819523Y-7181619D01*
X35867142Y-7276857D01*
X35867142Y-7419714D01*
X35819523Y-7514952D01*
X35771904Y-7562571D01*
X35676666Y-7610190D01*
X35295714Y-7610190D01*
X36819523Y-8086380D02*
X36248095Y-8086380D01*
X36533809Y-8086380D02*
X36533809Y-7086380D01*
X36438571Y-7229238D01*
X36343333Y-7324476D01*
X36248095Y-7372095D01*
X37200476Y-7181619D02*
X37248095Y-7134000D01*
X37343333Y-7086380D01*
X37581428Y-7086380D01*
X37676666Y-7134000D01*
X37724285Y-7181619D01*
X37771904Y-7276857D01*
X37771904Y-7372095D01*
X37724285Y-7514952D01*
X37152857Y-8086380D01*
X37771904Y-8086380D01*
%TO.C,R11*%
X32057142Y-8086380D02*
X31723809Y-7610190D01*
X31485714Y-8086380D02*
X31485714Y-7086380D01*
X31866666Y-7086380D01*
X31961904Y-7134000D01*
X32009523Y-7181619D01*
X32057142Y-7276857D01*
X32057142Y-7419714D01*
X32009523Y-7514952D01*
X31961904Y-7562571D01*
X31866666Y-7610190D01*
X31485714Y-7610190D01*
X33009523Y-8086380D02*
X32438095Y-8086380D01*
X32723809Y-8086380D02*
X32723809Y-7086380D01*
X32628571Y-7229238D01*
X32533333Y-7324476D01*
X32438095Y-7372095D01*
X33961904Y-8086380D02*
X33390476Y-8086380D01*
X33676190Y-8086380D02*
X33676190Y-7086380D01*
X33580952Y-7229238D01*
X33485714Y-7324476D01*
X33390476Y-7372095D01*
%TO.C,R10*%
X35867142Y-2498380D02*
X35533809Y-2022190D01*
X35295714Y-2498380D02*
X35295714Y-1498380D01*
X35676666Y-1498380D01*
X35771904Y-1546000D01*
X35819523Y-1593619D01*
X35867142Y-1688857D01*
X35867142Y-1831714D01*
X35819523Y-1926952D01*
X35771904Y-1974571D01*
X35676666Y-2022190D01*
X35295714Y-2022190D01*
X36819523Y-2498380D02*
X36248095Y-2498380D01*
X36533809Y-2498380D02*
X36533809Y-1498380D01*
X36438571Y-1641238D01*
X36343333Y-1736476D01*
X36248095Y-1784095D01*
X37438571Y-1498380D02*
X37533809Y-1498380D01*
X37629047Y-1546000D01*
X37676666Y-1593619D01*
X37724285Y-1688857D01*
X37771904Y-1879333D01*
X37771904Y-2117428D01*
X37724285Y-2307904D01*
X37676666Y-2403142D01*
X37629047Y-2450761D01*
X37533809Y-2498380D01*
X37438571Y-2498380D01*
X37343333Y-2450761D01*
X37295714Y-2403142D01*
X37248095Y-2307904D01*
X37200476Y-2117428D01*
X37200476Y-1879333D01*
X37248095Y-1688857D01*
X37295714Y-1593619D01*
X37343333Y-1546000D01*
X37438571Y-1498380D01*
%TO.C,R9*%
X32533333Y-2498380D02*
X32200000Y-2022190D01*
X31961904Y-2498380D02*
X31961904Y-1498380D01*
X32342857Y-1498380D01*
X32438095Y-1546000D01*
X32485714Y-1593619D01*
X32533333Y-1688857D01*
X32533333Y-1831714D01*
X32485714Y-1926952D01*
X32438095Y-1974571D01*
X32342857Y-2022190D01*
X31961904Y-2022190D01*
X33009523Y-2498380D02*
X33200000Y-2498380D01*
X33295238Y-2450761D01*
X33342857Y-2403142D01*
X33438095Y-2260285D01*
X33485714Y-2069809D01*
X33485714Y-1688857D01*
X33438095Y-1593619D01*
X33390476Y-1546000D01*
X33295238Y-1498380D01*
X33104761Y-1498380D01*
X33009523Y-1546000D01*
X32961904Y-1593619D01*
X32914285Y-1688857D01*
X32914285Y-1926952D01*
X32961904Y-2022190D01*
X33009523Y-2069809D01*
X33104761Y-2117428D01*
X33295238Y-2117428D01*
X33390476Y-2069809D01*
X33438095Y-2022190D01*
X33485714Y-1926952D01*
%TO.C,R8*%
X26802380Y-4752666D02*
X26326190Y-5086000D01*
X26802380Y-5324095D02*
X25802380Y-5324095D01*
X25802380Y-4943142D01*
X25850000Y-4847904D01*
X25897619Y-4800285D01*
X25992857Y-4752666D01*
X26135714Y-4752666D01*
X26230952Y-4800285D01*
X26278571Y-4847904D01*
X26326190Y-4943142D01*
X26326190Y-5324095D01*
X26230952Y-4181238D02*
X26183333Y-4276476D01*
X26135714Y-4324095D01*
X26040476Y-4371714D01*
X25992857Y-4371714D01*
X25897619Y-4324095D01*
X25850000Y-4276476D01*
X25802380Y-4181238D01*
X25802380Y-3990761D01*
X25850000Y-3895523D01*
X25897619Y-3847904D01*
X25992857Y-3800285D01*
X26040476Y-3800285D01*
X26135714Y-3847904D01*
X26183333Y-3895523D01*
X26230952Y-3990761D01*
X26230952Y-4181238D01*
X26278571Y-4276476D01*
X26326190Y-4324095D01*
X26421428Y-4371714D01*
X26611904Y-4371714D01*
X26707142Y-4324095D01*
X26754761Y-4276476D01*
X26802380Y-4181238D01*
X26802380Y-3990761D01*
X26754761Y-3895523D01*
X26707142Y-3847904D01*
X26611904Y-3800285D01*
X26421428Y-3800285D01*
X26326190Y-3847904D01*
X26278571Y-3895523D01*
X26230952Y-3990761D01*
%TO.C,R7*%
X34422380Y-25580666D02*
X33946190Y-25914000D01*
X34422380Y-26152095D02*
X33422380Y-26152095D01*
X33422380Y-25771142D01*
X33470000Y-25675904D01*
X33517619Y-25628285D01*
X33612857Y-25580666D01*
X33755714Y-25580666D01*
X33850952Y-25628285D01*
X33898571Y-25675904D01*
X33946190Y-25771142D01*
X33946190Y-26152095D01*
X33422380Y-25247333D02*
X33422380Y-24580666D01*
X34422380Y-25009238D01*
%TO.C,R6*%
X11562380Y-2720666D02*
X11086190Y-3054000D01*
X11562380Y-3292095D02*
X10562380Y-3292095D01*
X10562380Y-2911142D01*
X10610000Y-2815904D01*
X10657619Y-2768285D01*
X10752857Y-2720666D01*
X10895714Y-2720666D01*
X10990952Y-2768285D01*
X11038571Y-2815904D01*
X11086190Y-2911142D01*
X11086190Y-3292095D01*
X10562380Y-1863523D02*
X10562380Y-2054000D01*
X10610000Y-2149238D01*
X10657619Y-2196857D01*
X10800476Y-2292095D01*
X10990952Y-2339714D01*
X11371904Y-2339714D01*
X11467142Y-2292095D01*
X11514761Y-2244476D01*
X11562380Y-2149238D01*
X11562380Y-1958761D01*
X11514761Y-1863523D01*
X11467142Y-1815904D01*
X11371904Y-1768285D01*
X11133809Y-1768285D01*
X11038571Y-1815904D01*
X10990952Y-1863523D01*
X10943333Y-1958761D01*
X10943333Y-2149238D01*
X10990952Y-2244476D01*
X11038571Y-2292095D01*
X11133809Y-2339714D01*
%TO.C,R5*%
X14102380Y-28120666D02*
X13626190Y-28454000D01*
X14102380Y-28692095D02*
X13102380Y-28692095D01*
X13102380Y-28311142D01*
X13150000Y-28215904D01*
X13197619Y-28168285D01*
X13292857Y-28120666D01*
X13435714Y-28120666D01*
X13530952Y-28168285D01*
X13578571Y-28215904D01*
X13626190Y-28311142D01*
X13626190Y-28692095D01*
X13102380Y-27215904D02*
X13102380Y-27692095D01*
X13578571Y-27739714D01*
X13530952Y-27692095D01*
X13483333Y-27596857D01*
X13483333Y-27358761D01*
X13530952Y-27263523D01*
X13578571Y-27215904D01*
X13673809Y-27168285D01*
X13911904Y-27168285D01*
X14007142Y-27215904D01*
X14054761Y-27263523D01*
X14102380Y-27358761D01*
X14102380Y-27596857D01*
X14054761Y-27692095D01*
X14007142Y-27739714D01*
%TO.C,R4*%
X6117333Y-22945380D02*
X5784000Y-22469190D01*
X5545904Y-22945380D02*
X5545904Y-21945380D01*
X5926857Y-21945380D01*
X6022095Y-21993000D01*
X6069714Y-22040619D01*
X6117333Y-22135857D01*
X6117333Y-22278714D01*
X6069714Y-22373952D01*
X6022095Y-22421571D01*
X5926857Y-22469190D01*
X5545904Y-22469190D01*
X6974476Y-22278714D02*
X6974476Y-22945380D01*
X6736380Y-21897761D02*
X6498285Y-22612047D01*
X7117333Y-22612047D01*
%TO.C,R3*%
X3323333Y-22945380D02*
X2990000Y-22469190D01*
X2751904Y-22945380D02*
X2751904Y-21945380D01*
X3132857Y-21945380D01*
X3228095Y-21993000D01*
X3275714Y-22040619D01*
X3323333Y-22135857D01*
X3323333Y-22278714D01*
X3275714Y-22373952D01*
X3228095Y-22421571D01*
X3132857Y-22469190D01*
X2751904Y-22469190D01*
X3656666Y-21945380D02*
X4275714Y-21945380D01*
X3942380Y-22326333D01*
X4085238Y-22326333D01*
X4180476Y-22373952D01*
X4228095Y-22421571D01*
X4275714Y-22516809D01*
X4275714Y-22754904D01*
X4228095Y-22850142D01*
X4180476Y-22897761D01*
X4085238Y-22945380D01*
X3799523Y-22945380D01*
X3704285Y-22897761D01*
X3656666Y-22850142D01*
%TO.C,R2*%
X7133333Y-28532380D02*
X6800000Y-28056190D01*
X6561904Y-28532380D02*
X6561904Y-27532380D01*
X6942857Y-27532380D01*
X7038095Y-27580000D01*
X7085714Y-27627619D01*
X7133333Y-27722857D01*
X7133333Y-27865714D01*
X7085714Y-27960952D01*
X7038095Y-28008571D01*
X6942857Y-28056190D01*
X6561904Y-28056190D01*
X7514285Y-27627619D02*
X7561904Y-27580000D01*
X7657142Y-27532380D01*
X7895238Y-27532380D01*
X7990476Y-27580000D01*
X8038095Y-27627619D01*
X8085714Y-27722857D01*
X8085714Y-27818095D01*
X8038095Y-27960952D01*
X7466666Y-28532380D01*
X8085714Y-28532380D01*
%TO.C,R1*%
X3323333Y-28406380D02*
X2990000Y-27930190D01*
X2751904Y-28406380D02*
X2751904Y-27406380D01*
X3132857Y-27406380D01*
X3228095Y-27454000D01*
X3275714Y-27501619D01*
X3323333Y-27596857D01*
X3323333Y-27739714D01*
X3275714Y-27834952D01*
X3228095Y-27882571D01*
X3132857Y-27930190D01*
X2751904Y-27930190D01*
X4275714Y-28406380D02*
X3704285Y-28406380D01*
X3990000Y-28406380D02*
X3990000Y-27406380D01*
X3894761Y-27549238D01*
X3799523Y-27644476D01*
X3704285Y-27692095D01*
%TO.C,J1*%
X1452380Y-5870000D02*
X2166666Y-5870000D01*
X2309523Y-5917619D01*
X2404761Y-6012857D01*
X2452380Y-6155714D01*
X2452380Y-6250952D01*
X2452380Y-4870000D02*
X2452380Y-5441428D01*
X2452380Y-5155714D02*
X1452380Y-5155714D01*
X1595238Y-5250952D01*
X1690476Y-5346190D01*
X1738095Y-5441428D01*
%TO.C,C12*%
X29247142Y-4720857D02*
X29294761Y-4768476D01*
X29342380Y-4911333D01*
X29342380Y-5006571D01*
X29294761Y-5149428D01*
X29199523Y-5244666D01*
X29104285Y-5292285D01*
X28913809Y-5339904D01*
X28770952Y-5339904D01*
X28580476Y-5292285D01*
X28485238Y-5244666D01*
X28390000Y-5149428D01*
X28342380Y-5006571D01*
X28342380Y-4911333D01*
X28390000Y-4768476D01*
X28437619Y-4720857D01*
X29342380Y-3768476D02*
X29342380Y-4339904D01*
X29342380Y-4054190D02*
X28342380Y-4054190D01*
X28485238Y-4149428D01*
X28580476Y-4244666D01*
X28628095Y-4339904D01*
X28437619Y-3387523D02*
X28390000Y-3339904D01*
X28342380Y-3244666D01*
X28342380Y-3006571D01*
X28390000Y-2911333D01*
X28437619Y-2863714D01*
X28532857Y-2816095D01*
X28628095Y-2816095D01*
X28770952Y-2863714D01*
X29342380Y-3435142D01*
X29342380Y-2816095D01*
%TO.C,C11*%
X35724142Y-15642857D02*
X35771761Y-15690476D01*
X35819380Y-15833333D01*
X35819380Y-15928571D01*
X35771761Y-16071428D01*
X35676523Y-16166666D01*
X35581285Y-16214285D01*
X35390809Y-16261904D01*
X35247952Y-16261904D01*
X35057476Y-16214285D01*
X34962238Y-16166666D01*
X34867000Y-16071428D01*
X34819380Y-15928571D01*
X34819380Y-15833333D01*
X34867000Y-15690476D01*
X34914619Y-15642857D01*
X35819380Y-14690476D02*
X35819380Y-15261904D01*
X35819380Y-14976190D02*
X34819380Y-14976190D01*
X34962238Y-15071428D01*
X35057476Y-15166666D01*
X35105095Y-15261904D01*
X35819380Y-13738095D02*
X35819380Y-14309523D01*
X35819380Y-14023809D02*
X34819380Y-14023809D01*
X34962238Y-14119047D01*
X35057476Y-14214285D01*
X35105095Y-14309523D01*
%TO.C,C10*%
X35724142Y-19452857D02*
X35771761Y-19500476D01*
X35819380Y-19643333D01*
X35819380Y-19738571D01*
X35771761Y-19881428D01*
X35676523Y-19976666D01*
X35581285Y-20024285D01*
X35390809Y-20071904D01*
X35247952Y-20071904D01*
X35057476Y-20024285D01*
X34962238Y-19976666D01*
X34867000Y-19881428D01*
X34819380Y-19738571D01*
X34819380Y-19643333D01*
X34867000Y-19500476D01*
X34914619Y-19452857D01*
X35819380Y-18500476D02*
X35819380Y-19071904D01*
X35819380Y-18786190D02*
X34819380Y-18786190D01*
X34962238Y-18881428D01*
X35057476Y-18976666D01*
X35105095Y-19071904D01*
X34819380Y-17881428D02*
X34819380Y-17786190D01*
X34867000Y-17690952D01*
X34914619Y-17643333D01*
X35009857Y-17595714D01*
X35200333Y-17548095D01*
X35438428Y-17548095D01*
X35628904Y-17595714D01*
X35724142Y-17643333D01*
X35771761Y-17690952D01*
X35819380Y-17786190D01*
X35819380Y-17881428D01*
X35771761Y-17976666D01*
X35724142Y-18024285D01*
X35628904Y-18071904D01*
X35438428Y-18119523D01*
X35200333Y-18119523D01*
X35009857Y-18071904D01*
X34914619Y-18024285D01*
X34867000Y-17976666D01*
X34819380Y-17881428D01*
%TO.C,C9*%
X29247142Y-25580666D02*
X29294761Y-25628285D01*
X29342380Y-25771142D01*
X29342380Y-25866380D01*
X29294761Y-26009238D01*
X29199523Y-26104476D01*
X29104285Y-26152095D01*
X28913809Y-26199714D01*
X28770952Y-26199714D01*
X28580476Y-26152095D01*
X28485238Y-26104476D01*
X28390000Y-26009238D01*
X28342380Y-25866380D01*
X28342380Y-25771142D01*
X28390000Y-25628285D01*
X28437619Y-25580666D01*
X29342380Y-25104476D02*
X29342380Y-24914000D01*
X29294761Y-24818761D01*
X29247142Y-24771142D01*
X29104285Y-24675904D01*
X28913809Y-24628285D01*
X28532857Y-24628285D01*
X28437619Y-24675904D01*
X28390000Y-24723523D01*
X28342380Y-24818761D01*
X28342380Y-25009238D01*
X28390000Y-25104476D01*
X28437619Y-25152095D01*
X28532857Y-25199714D01*
X28770952Y-25199714D01*
X28866190Y-25152095D01*
X28913809Y-25104476D01*
X28961428Y-25009238D01*
X28961428Y-24818761D01*
X28913809Y-24723523D01*
X28866190Y-24675904D01*
X28770952Y-24628285D01*
%TO.C,C8*%
X31787142Y-25580666D02*
X31834761Y-25628285D01*
X31882380Y-25771142D01*
X31882380Y-25866380D01*
X31834761Y-26009238D01*
X31739523Y-26104476D01*
X31644285Y-26152095D01*
X31453809Y-26199714D01*
X31310952Y-26199714D01*
X31120476Y-26152095D01*
X31025238Y-26104476D01*
X30930000Y-26009238D01*
X30882380Y-25866380D01*
X30882380Y-25771142D01*
X30930000Y-25628285D01*
X30977619Y-25580666D01*
X31310952Y-25009238D02*
X31263333Y-25104476D01*
X31215714Y-25152095D01*
X31120476Y-25199714D01*
X31072857Y-25199714D01*
X30977619Y-25152095D01*
X30930000Y-25104476D01*
X30882380Y-25009238D01*
X30882380Y-24818761D01*
X30930000Y-24723523D01*
X30977619Y-24675904D01*
X31072857Y-24628285D01*
X31120476Y-24628285D01*
X31215714Y-24675904D01*
X31263333Y-24723523D01*
X31310952Y-24818761D01*
X31310952Y-25009238D01*
X31358571Y-25104476D01*
X31406190Y-25152095D01*
X31501428Y-25199714D01*
X31691904Y-25199714D01*
X31787142Y-25152095D01*
X31834761Y-25104476D01*
X31882380Y-25009238D01*
X31882380Y-24818761D01*
X31834761Y-24723523D01*
X31787142Y-24675904D01*
X31691904Y-24628285D01*
X31501428Y-24628285D01*
X31406190Y-24675904D01*
X31358571Y-24723523D01*
X31310952Y-24818761D01*
%TO.C,C7*%
X26707142Y-25580666D02*
X26754761Y-25628285D01*
X26802380Y-25771142D01*
X26802380Y-25866380D01*
X26754761Y-26009238D01*
X26659523Y-26104476D01*
X26564285Y-26152095D01*
X26373809Y-26199714D01*
X26230952Y-26199714D01*
X26040476Y-26152095D01*
X25945238Y-26104476D01*
X25850000Y-26009238D01*
X25802380Y-25866380D01*
X25802380Y-25771142D01*
X25850000Y-25628285D01*
X25897619Y-25580666D01*
X25802380Y-25247333D02*
X25802380Y-24580666D01*
X26802380Y-25009238D01*
%TO.C,C6*%
X14007142Y-2720666D02*
X14054761Y-2768285D01*
X14102380Y-2911142D01*
X14102380Y-3006380D01*
X14054761Y-3149238D01*
X13959523Y-3244476D01*
X13864285Y-3292095D01*
X13673809Y-3339714D01*
X13530952Y-3339714D01*
X13340476Y-3292095D01*
X13245238Y-3244476D01*
X13150000Y-3149238D01*
X13102380Y-3006380D01*
X13102380Y-2911142D01*
X13150000Y-2768285D01*
X13197619Y-2720666D01*
X13102380Y-1863523D02*
X13102380Y-2054000D01*
X13150000Y-2149238D01*
X13197619Y-2196857D01*
X13340476Y-2292095D01*
X13530952Y-2339714D01*
X13911904Y-2339714D01*
X14007142Y-2292095D01*
X14054761Y-2244476D01*
X14102380Y-2149238D01*
X14102380Y-1958761D01*
X14054761Y-1863523D01*
X14007142Y-1815904D01*
X13911904Y-1768285D01*
X13673809Y-1768285D01*
X13578571Y-1815904D01*
X13530952Y-1863523D01*
X13483333Y-1958761D01*
X13483333Y-2149238D01*
X13530952Y-2244476D01*
X13578571Y-2292095D01*
X13673809Y-2339714D01*
%TO.C,C5*%
X12991142Y-10086666D02*
X13038761Y-10134285D01*
X13086380Y-10277142D01*
X13086380Y-10372380D01*
X13038761Y-10515238D01*
X12943523Y-10610476D01*
X12848285Y-10658095D01*
X12657809Y-10705714D01*
X12514952Y-10705714D01*
X12324476Y-10658095D01*
X12229238Y-10610476D01*
X12134000Y-10515238D01*
X12086380Y-10372380D01*
X12086380Y-10277142D01*
X12134000Y-10134285D01*
X12181619Y-10086666D01*
X12086380Y-9181904D02*
X12086380Y-9658095D01*
X12562571Y-9705714D01*
X12514952Y-9658095D01*
X12467333Y-9562857D01*
X12467333Y-9324761D01*
X12514952Y-9229523D01*
X12562571Y-9181904D01*
X12657809Y-9134285D01*
X12895904Y-9134285D01*
X12991142Y-9181904D01*
X13038761Y-9229523D01*
X13086380Y-9324761D01*
X13086380Y-9562857D01*
X13038761Y-9658095D01*
X12991142Y-9705714D01*
%TO.C,C4*%
X4990142Y-13896666D02*
X5037761Y-13944285D01*
X5085380Y-14087142D01*
X5085380Y-14182380D01*
X5037761Y-14325238D01*
X4942523Y-14420476D01*
X4847285Y-14468095D01*
X4656809Y-14515714D01*
X4513952Y-14515714D01*
X4323476Y-14468095D01*
X4228238Y-14420476D01*
X4133000Y-14325238D01*
X4085380Y-14182380D01*
X4085380Y-14087142D01*
X4133000Y-13944285D01*
X4180619Y-13896666D01*
X4418714Y-13039523D02*
X5085380Y-13039523D01*
X4037761Y-13277619D02*
X4752047Y-13515714D01*
X4752047Y-12896666D01*
%TO.C,C3*%
X11467142Y-28120666D02*
X11514761Y-28168285D01*
X11562380Y-28311142D01*
X11562380Y-28406380D01*
X11514761Y-28549238D01*
X11419523Y-28644476D01*
X11324285Y-28692095D01*
X11133809Y-28739714D01*
X10990952Y-28739714D01*
X10800476Y-28692095D01*
X10705238Y-28644476D01*
X10610000Y-28549238D01*
X10562380Y-28406380D01*
X10562380Y-28311142D01*
X10610000Y-28168285D01*
X10657619Y-28120666D01*
X10562380Y-27787333D02*
X10562380Y-27168285D01*
X10943333Y-27501619D01*
X10943333Y-27358761D01*
X10990952Y-27263523D01*
X11038571Y-27215904D01*
X11133809Y-27168285D01*
X11371904Y-27168285D01*
X11467142Y-27215904D01*
X11514761Y-27263523D01*
X11562380Y-27358761D01*
X11562380Y-27644476D01*
X11514761Y-27739714D01*
X11467142Y-27787333D01*
%TO.C,C2*%
X4990142Y-17706666D02*
X5037761Y-17754285D01*
X5085380Y-17897142D01*
X5085380Y-17992380D01*
X5037761Y-18135238D01*
X4942523Y-18230476D01*
X4847285Y-18278095D01*
X4656809Y-18325714D01*
X4513952Y-18325714D01*
X4323476Y-18278095D01*
X4228238Y-18230476D01*
X4133000Y-18135238D01*
X4085380Y-17992380D01*
X4085380Y-17897142D01*
X4133000Y-17754285D01*
X4180619Y-17706666D01*
X4180619Y-17325714D02*
X4133000Y-17278095D01*
X4085380Y-17182857D01*
X4085380Y-16944761D01*
X4133000Y-16849523D01*
X4180619Y-16801904D01*
X4275857Y-16754285D01*
X4371095Y-16754285D01*
X4513952Y-16801904D01*
X5085380Y-17373333D01*
X5085380Y-16754285D01*
%TO.C,C1*%
X7403142Y-10086666D02*
X7450761Y-10134285D01*
X7498380Y-10277142D01*
X7498380Y-10372380D01*
X7450761Y-10515238D01*
X7355523Y-10610476D01*
X7260285Y-10658095D01*
X7069809Y-10705714D01*
X6926952Y-10705714D01*
X6736476Y-10658095D01*
X6641238Y-10610476D01*
X6546000Y-10515238D01*
X6498380Y-10372380D01*
X6498380Y-10277142D01*
X6546000Y-10134285D01*
X6593619Y-10086666D01*
X7498380Y-9134285D02*
X7498380Y-9705714D01*
X7498380Y-9420000D02*
X6498380Y-9420000D01*
X6641238Y-9515238D01*
X6736476Y-9610476D01*
X6784095Y-9705714D01*
%TD*%
M02*
