%TF.GenerationSoftware,KiCad,Pcbnew,5.1.8*%
%TF.CreationDate,2020-11-15T10:57:14+00:00*%
%TF.ProjectId,rs232Isolator,72733233-3249-4736-9f6c-61746f722e6b,rev?*%
%TF.SameCoordinates,PX4421680PY42d7d10*%
%TF.FileFunction,Soldermask,Top*%
%TF.FilePolarity,Negative*%
%FSLAX46Y46*%
G04 Gerber Fmt 4.6, Leading zero omitted, Abs format (unit mm)*
G04 Created by KiCad (PCBNEW 5.1.8) date 2020-11-15 10:57:14*
%MOMM*%
%LPD*%
G01*
G04 APERTURE LIST*
%ADD10R,3.480000X1.846667*%
%ADD11O,1.600000X1.600000*%
%ADD12R,1.600000X1.600000*%
G04 APERTURE END LIST*
%TO.C,U4*%
G36*
G01*
X27390000Y-19295000D02*
X27390000Y-19595000D01*
G75*
G02*
X27240000Y-19745000I-150000J0D01*
G01*
X25590000Y-19745000D01*
G75*
G02*
X25440000Y-19595000I0J150000D01*
G01*
X25440000Y-19295000D01*
G75*
G02*
X25590000Y-19145000I150000J0D01*
G01*
X27240000Y-19145000D01*
G75*
G02*
X27390000Y-19295000I0J-150000D01*
G01*
G37*
G36*
G01*
X27390000Y-18025000D02*
X27390000Y-18325000D01*
G75*
G02*
X27240000Y-18475000I-150000J0D01*
G01*
X25590000Y-18475000D01*
G75*
G02*
X25440000Y-18325000I0J150000D01*
G01*
X25440000Y-18025000D01*
G75*
G02*
X25590000Y-17875000I150000J0D01*
G01*
X27240000Y-17875000D01*
G75*
G02*
X27390000Y-18025000I0J-150000D01*
G01*
G37*
G36*
G01*
X27390000Y-16755000D02*
X27390000Y-17055000D01*
G75*
G02*
X27240000Y-17205000I-150000J0D01*
G01*
X25590000Y-17205000D01*
G75*
G02*
X25440000Y-17055000I0J150000D01*
G01*
X25440000Y-16755000D01*
G75*
G02*
X25590000Y-16605000I150000J0D01*
G01*
X27240000Y-16605000D01*
G75*
G02*
X27390000Y-16755000I0J-150000D01*
G01*
G37*
G36*
G01*
X27390000Y-15485000D02*
X27390000Y-15785000D01*
G75*
G02*
X27240000Y-15935000I-150000J0D01*
G01*
X25590000Y-15935000D01*
G75*
G02*
X25440000Y-15785000I0J150000D01*
G01*
X25440000Y-15485000D01*
G75*
G02*
X25590000Y-15335000I150000J0D01*
G01*
X27240000Y-15335000D01*
G75*
G02*
X27390000Y-15485000I0J-150000D01*
G01*
G37*
G36*
G01*
X27390000Y-14215000D02*
X27390000Y-14515000D01*
G75*
G02*
X27240000Y-14665000I-150000J0D01*
G01*
X25590000Y-14665000D01*
G75*
G02*
X25440000Y-14515000I0J150000D01*
G01*
X25440000Y-14215000D01*
G75*
G02*
X25590000Y-14065000I150000J0D01*
G01*
X27240000Y-14065000D01*
G75*
G02*
X27390000Y-14215000I0J-150000D01*
G01*
G37*
G36*
G01*
X27390000Y-12945000D02*
X27390000Y-13245000D01*
G75*
G02*
X27240000Y-13395000I-150000J0D01*
G01*
X25590000Y-13395000D01*
G75*
G02*
X25440000Y-13245000I0J150000D01*
G01*
X25440000Y-12945000D01*
G75*
G02*
X25590000Y-12795000I150000J0D01*
G01*
X27240000Y-12795000D01*
G75*
G02*
X27390000Y-12945000I0J-150000D01*
G01*
G37*
G36*
G01*
X27390000Y-11675000D02*
X27390000Y-11975000D01*
G75*
G02*
X27240000Y-12125000I-150000J0D01*
G01*
X25590000Y-12125000D01*
G75*
G02*
X25440000Y-11975000I0J150000D01*
G01*
X25440000Y-11675000D01*
G75*
G02*
X25590000Y-11525000I150000J0D01*
G01*
X27240000Y-11525000D01*
G75*
G02*
X27390000Y-11675000I0J-150000D01*
G01*
G37*
G36*
G01*
X27390000Y-10405000D02*
X27390000Y-10705000D01*
G75*
G02*
X27240000Y-10855000I-150000J0D01*
G01*
X25590000Y-10855000D01*
G75*
G02*
X25440000Y-10705000I0J150000D01*
G01*
X25440000Y-10405000D01*
G75*
G02*
X25590000Y-10255000I150000J0D01*
G01*
X27240000Y-10255000D01*
G75*
G02*
X27390000Y-10405000I0J-150000D01*
G01*
G37*
G36*
G01*
X32340000Y-10405000D02*
X32340000Y-10705000D01*
G75*
G02*
X32190000Y-10855000I-150000J0D01*
G01*
X30540000Y-10855000D01*
G75*
G02*
X30390000Y-10705000I0J150000D01*
G01*
X30390000Y-10405000D01*
G75*
G02*
X30540000Y-10255000I150000J0D01*
G01*
X32190000Y-10255000D01*
G75*
G02*
X32340000Y-10405000I0J-150000D01*
G01*
G37*
G36*
G01*
X32340000Y-11675000D02*
X32340000Y-11975000D01*
G75*
G02*
X32190000Y-12125000I-150000J0D01*
G01*
X30540000Y-12125000D01*
G75*
G02*
X30390000Y-11975000I0J150000D01*
G01*
X30390000Y-11675000D01*
G75*
G02*
X30540000Y-11525000I150000J0D01*
G01*
X32190000Y-11525000D01*
G75*
G02*
X32340000Y-11675000I0J-150000D01*
G01*
G37*
G36*
G01*
X32340000Y-12945000D02*
X32340000Y-13245000D01*
G75*
G02*
X32190000Y-13395000I-150000J0D01*
G01*
X30540000Y-13395000D01*
G75*
G02*
X30390000Y-13245000I0J150000D01*
G01*
X30390000Y-12945000D01*
G75*
G02*
X30540000Y-12795000I150000J0D01*
G01*
X32190000Y-12795000D01*
G75*
G02*
X32340000Y-12945000I0J-150000D01*
G01*
G37*
G36*
G01*
X32340000Y-14215000D02*
X32340000Y-14515000D01*
G75*
G02*
X32190000Y-14665000I-150000J0D01*
G01*
X30540000Y-14665000D01*
G75*
G02*
X30390000Y-14515000I0J150000D01*
G01*
X30390000Y-14215000D01*
G75*
G02*
X30540000Y-14065000I150000J0D01*
G01*
X32190000Y-14065000D01*
G75*
G02*
X32340000Y-14215000I0J-150000D01*
G01*
G37*
G36*
G01*
X32340000Y-15485000D02*
X32340000Y-15785000D01*
G75*
G02*
X32190000Y-15935000I-150000J0D01*
G01*
X30540000Y-15935000D01*
G75*
G02*
X30390000Y-15785000I0J150000D01*
G01*
X30390000Y-15485000D01*
G75*
G02*
X30540000Y-15335000I150000J0D01*
G01*
X32190000Y-15335000D01*
G75*
G02*
X32340000Y-15485000I0J-150000D01*
G01*
G37*
G36*
G01*
X32340000Y-16755000D02*
X32340000Y-17055000D01*
G75*
G02*
X32190000Y-17205000I-150000J0D01*
G01*
X30540000Y-17205000D01*
G75*
G02*
X30390000Y-17055000I0J150000D01*
G01*
X30390000Y-16755000D01*
G75*
G02*
X30540000Y-16605000I150000J0D01*
G01*
X32190000Y-16605000D01*
G75*
G02*
X32340000Y-16755000I0J-150000D01*
G01*
G37*
G36*
G01*
X32340000Y-18025000D02*
X32340000Y-18325000D01*
G75*
G02*
X32190000Y-18475000I-150000J0D01*
G01*
X30540000Y-18475000D01*
G75*
G02*
X30390000Y-18325000I0J150000D01*
G01*
X30390000Y-18025000D01*
G75*
G02*
X30540000Y-17875000I150000J0D01*
G01*
X32190000Y-17875000D01*
G75*
G02*
X32340000Y-18025000I0J-150000D01*
G01*
G37*
G36*
G01*
X32340000Y-19295000D02*
X32340000Y-19595000D01*
G75*
G02*
X32190000Y-19745000I-150000J0D01*
G01*
X30540000Y-19745000D01*
G75*
G02*
X30390000Y-19595000I0J150000D01*
G01*
X30390000Y-19295000D01*
G75*
G02*
X30540000Y-19145000I150000J0D01*
G01*
X32190000Y-19145000D01*
G75*
G02*
X32340000Y-19295000I0J-150000D01*
G01*
G37*
%TD*%
%TO.C,U1*%
G36*
G01*
X12610000Y-13245000D02*
X12610000Y-12945000D01*
G75*
G02*
X12760000Y-12795000I150000J0D01*
G01*
X14410000Y-12795000D01*
G75*
G02*
X14560000Y-12945000I0J-150000D01*
G01*
X14560000Y-13245000D01*
G75*
G02*
X14410000Y-13395000I-150000J0D01*
G01*
X12760000Y-13395000D01*
G75*
G02*
X12610000Y-13245000I0J150000D01*
G01*
G37*
G36*
G01*
X12610000Y-14515000D02*
X12610000Y-14215000D01*
G75*
G02*
X12760000Y-14065000I150000J0D01*
G01*
X14410000Y-14065000D01*
G75*
G02*
X14560000Y-14215000I0J-150000D01*
G01*
X14560000Y-14515000D01*
G75*
G02*
X14410000Y-14665000I-150000J0D01*
G01*
X12760000Y-14665000D01*
G75*
G02*
X12610000Y-14515000I0J150000D01*
G01*
G37*
G36*
G01*
X12610000Y-15785000D02*
X12610000Y-15485000D01*
G75*
G02*
X12760000Y-15335000I150000J0D01*
G01*
X14410000Y-15335000D01*
G75*
G02*
X14560000Y-15485000I0J-150000D01*
G01*
X14560000Y-15785000D01*
G75*
G02*
X14410000Y-15935000I-150000J0D01*
G01*
X12760000Y-15935000D01*
G75*
G02*
X12610000Y-15785000I0J150000D01*
G01*
G37*
G36*
G01*
X12610000Y-17055000D02*
X12610000Y-16755000D01*
G75*
G02*
X12760000Y-16605000I150000J0D01*
G01*
X14410000Y-16605000D01*
G75*
G02*
X14560000Y-16755000I0J-150000D01*
G01*
X14560000Y-17055000D01*
G75*
G02*
X14410000Y-17205000I-150000J0D01*
G01*
X12760000Y-17205000D01*
G75*
G02*
X12610000Y-17055000I0J150000D01*
G01*
G37*
G36*
G01*
X12610000Y-18325000D02*
X12610000Y-18025000D01*
G75*
G02*
X12760000Y-17875000I150000J0D01*
G01*
X14410000Y-17875000D01*
G75*
G02*
X14560000Y-18025000I0J-150000D01*
G01*
X14560000Y-18325000D01*
G75*
G02*
X14410000Y-18475000I-150000J0D01*
G01*
X12760000Y-18475000D01*
G75*
G02*
X12610000Y-18325000I0J150000D01*
G01*
G37*
G36*
G01*
X12610000Y-19595000D02*
X12610000Y-19295000D01*
G75*
G02*
X12760000Y-19145000I150000J0D01*
G01*
X14410000Y-19145000D01*
G75*
G02*
X14560000Y-19295000I0J-150000D01*
G01*
X14560000Y-19595000D01*
G75*
G02*
X14410000Y-19745000I-150000J0D01*
G01*
X12760000Y-19745000D01*
G75*
G02*
X12610000Y-19595000I0J150000D01*
G01*
G37*
G36*
G01*
X12610000Y-20865000D02*
X12610000Y-20565000D01*
G75*
G02*
X12760000Y-20415000I150000J0D01*
G01*
X14410000Y-20415000D01*
G75*
G02*
X14560000Y-20565000I0J-150000D01*
G01*
X14560000Y-20865000D01*
G75*
G02*
X14410000Y-21015000I-150000J0D01*
G01*
X12760000Y-21015000D01*
G75*
G02*
X12610000Y-20865000I0J150000D01*
G01*
G37*
G36*
G01*
X12610000Y-22135000D02*
X12610000Y-21835000D01*
G75*
G02*
X12760000Y-21685000I150000J0D01*
G01*
X14410000Y-21685000D01*
G75*
G02*
X14560000Y-21835000I0J-150000D01*
G01*
X14560000Y-22135000D01*
G75*
G02*
X14410000Y-22285000I-150000J0D01*
G01*
X12760000Y-22285000D01*
G75*
G02*
X12610000Y-22135000I0J150000D01*
G01*
G37*
G36*
G01*
X7660000Y-22135000D02*
X7660000Y-21835000D01*
G75*
G02*
X7810000Y-21685000I150000J0D01*
G01*
X9460000Y-21685000D01*
G75*
G02*
X9610000Y-21835000I0J-150000D01*
G01*
X9610000Y-22135000D01*
G75*
G02*
X9460000Y-22285000I-150000J0D01*
G01*
X7810000Y-22285000D01*
G75*
G02*
X7660000Y-22135000I0J150000D01*
G01*
G37*
G36*
G01*
X7660000Y-20865000D02*
X7660000Y-20565000D01*
G75*
G02*
X7810000Y-20415000I150000J0D01*
G01*
X9460000Y-20415000D01*
G75*
G02*
X9610000Y-20565000I0J-150000D01*
G01*
X9610000Y-20865000D01*
G75*
G02*
X9460000Y-21015000I-150000J0D01*
G01*
X7810000Y-21015000D01*
G75*
G02*
X7660000Y-20865000I0J150000D01*
G01*
G37*
G36*
G01*
X7660000Y-19595000D02*
X7660000Y-19295000D01*
G75*
G02*
X7810000Y-19145000I150000J0D01*
G01*
X9460000Y-19145000D01*
G75*
G02*
X9610000Y-19295000I0J-150000D01*
G01*
X9610000Y-19595000D01*
G75*
G02*
X9460000Y-19745000I-150000J0D01*
G01*
X7810000Y-19745000D01*
G75*
G02*
X7660000Y-19595000I0J150000D01*
G01*
G37*
G36*
G01*
X7660000Y-18325000D02*
X7660000Y-18025000D01*
G75*
G02*
X7810000Y-17875000I150000J0D01*
G01*
X9460000Y-17875000D01*
G75*
G02*
X9610000Y-18025000I0J-150000D01*
G01*
X9610000Y-18325000D01*
G75*
G02*
X9460000Y-18475000I-150000J0D01*
G01*
X7810000Y-18475000D01*
G75*
G02*
X7660000Y-18325000I0J150000D01*
G01*
G37*
G36*
G01*
X7660000Y-17055000D02*
X7660000Y-16755000D01*
G75*
G02*
X7810000Y-16605000I150000J0D01*
G01*
X9460000Y-16605000D01*
G75*
G02*
X9610000Y-16755000I0J-150000D01*
G01*
X9610000Y-17055000D01*
G75*
G02*
X9460000Y-17205000I-150000J0D01*
G01*
X7810000Y-17205000D01*
G75*
G02*
X7660000Y-17055000I0J150000D01*
G01*
G37*
G36*
G01*
X7660000Y-15785000D02*
X7660000Y-15485000D01*
G75*
G02*
X7810000Y-15335000I150000J0D01*
G01*
X9460000Y-15335000D01*
G75*
G02*
X9610000Y-15485000I0J-150000D01*
G01*
X9610000Y-15785000D01*
G75*
G02*
X9460000Y-15935000I-150000J0D01*
G01*
X7810000Y-15935000D01*
G75*
G02*
X7660000Y-15785000I0J150000D01*
G01*
G37*
G36*
G01*
X7660000Y-14515000D02*
X7660000Y-14215000D01*
G75*
G02*
X7810000Y-14065000I150000J0D01*
G01*
X9460000Y-14065000D01*
G75*
G02*
X9610000Y-14215000I0J-150000D01*
G01*
X9610000Y-14515000D01*
G75*
G02*
X9460000Y-14665000I-150000J0D01*
G01*
X7810000Y-14665000D01*
G75*
G02*
X7660000Y-14515000I0J150000D01*
G01*
G37*
G36*
G01*
X7660000Y-13245000D02*
X7660000Y-12945000D01*
G75*
G02*
X7810000Y-12795000I150000J0D01*
G01*
X9460000Y-12795000D01*
G75*
G02*
X9610000Y-12945000I0J-150000D01*
G01*
X9610000Y-13245000D01*
G75*
G02*
X9460000Y-13395000I-150000J0D01*
G01*
X7810000Y-13395000D01*
G75*
G02*
X7660000Y-13245000I0J150000D01*
G01*
G37*
%TD*%
D10*
%TO.C,J2*%
X38000000Y-20540000D03*
X38000000Y-17770000D03*
X38000000Y-15000000D03*
X38000000Y-12230000D03*
X38000000Y-9460000D03*
%TD*%
D11*
%TO.C,U3*%
X16190000Y-12460000D03*
X23810000Y-4840000D03*
X16190000Y-9920000D03*
X23810000Y-7380000D03*
X16190000Y-7380000D03*
X23810000Y-9920000D03*
X16190000Y-4840000D03*
D12*
X23810000Y-12460000D03*
%TD*%
D11*
%TO.C,U2*%
X23810000Y-17540000D03*
X16190000Y-25160000D03*
X23810000Y-20080000D03*
X16190000Y-22620000D03*
X23810000Y-22620000D03*
X16190000Y-20080000D03*
X23810000Y-25160000D03*
D12*
X16190000Y-17540000D03*
%TD*%
%TO.C,R12*%
G36*
G01*
X36110000Y-5659999D02*
X36110000Y-6560001D01*
G75*
G02*
X35860001Y-6810000I-249999J0D01*
G01*
X35159999Y-6810000D01*
G75*
G02*
X34910000Y-6560001I0J249999D01*
G01*
X34910000Y-5659999D01*
G75*
G02*
X35159999Y-5410000I249999J0D01*
G01*
X35860001Y-5410000D01*
G75*
G02*
X36110000Y-5659999I0J-249999D01*
G01*
G37*
G36*
G01*
X38110000Y-5659999D02*
X38110000Y-6560001D01*
G75*
G02*
X37860001Y-6810000I-249999J0D01*
G01*
X37159999Y-6810000D01*
G75*
G02*
X36910000Y-6560001I0J249999D01*
G01*
X36910000Y-5659999D01*
G75*
G02*
X37159999Y-5410000I249999J0D01*
G01*
X37860001Y-5410000D01*
G75*
G02*
X38110000Y-5659999I0J-249999D01*
G01*
G37*
%TD*%
%TO.C,R11*%
G36*
G01*
X33100000Y-6560001D02*
X33100000Y-5659999D01*
G75*
G02*
X33349999Y-5410000I249999J0D01*
G01*
X34050001Y-5410000D01*
G75*
G02*
X34300000Y-5659999I0J-249999D01*
G01*
X34300000Y-6560001D01*
G75*
G02*
X34050001Y-6810000I-249999J0D01*
G01*
X33349999Y-6810000D01*
G75*
G02*
X33100000Y-6560001I0J249999D01*
G01*
G37*
G36*
G01*
X31100000Y-6560001D02*
X31100000Y-5659999D01*
G75*
G02*
X31349999Y-5410000I249999J0D01*
G01*
X32050001Y-5410000D01*
G75*
G02*
X32300000Y-5659999I0J-249999D01*
G01*
X32300000Y-6560001D01*
G75*
G02*
X32050001Y-6810000I-249999J0D01*
G01*
X31349999Y-6810000D01*
G75*
G02*
X31100000Y-6560001I0J249999D01*
G01*
G37*
%TD*%
%TO.C,R10*%
G36*
G01*
X36110000Y-3119999D02*
X36110000Y-4020001D01*
G75*
G02*
X35860001Y-4270000I-249999J0D01*
G01*
X35159999Y-4270000D01*
G75*
G02*
X34910000Y-4020001I0J249999D01*
G01*
X34910000Y-3119999D01*
G75*
G02*
X35159999Y-2870000I249999J0D01*
G01*
X35860001Y-2870000D01*
G75*
G02*
X36110000Y-3119999I0J-249999D01*
G01*
G37*
G36*
G01*
X38110000Y-3119999D02*
X38110000Y-4020001D01*
G75*
G02*
X37860001Y-4270000I-249999J0D01*
G01*
X37159999Y-4270000D01*
G75*
G02*
X36910000Y-4020001I0J249999D01*
G01*
X36910000Y-3119999D01*
G75*
G02*
X37159999Y-2870000I249999J0D01*
G01*
X37860001Y-2870000D01*
G75*
G02*
X38110000Y-3119999I0J-249999D01*
G01*
G37*
%TD*%
%TO.C,R9*%
G36*
G01*
X33100000Y-4020001D02*
X33100000Y-3119999D01*
G75*
G02*
X33349999Y-2870000I249999J0D01*
G01*
X34050001Y-2870000D01*
G75*
G02*
X34300000Y-3119999I0J-249999D01*
G01*
X34300000Y-4020001D01*
G75*
G02*
X34050001Y-4270000I-249999J0D01*
G01*
X33349999Y-4270000D01*
G75*
G02*
X33100000Y-4020001I0J249999D01*
G01*
G37*
G36*
G01*
X31100000Y-4020001D02*
X31100000Y-3119999D01*
G75*
G02*
X31349999Y-2870000I249999J0D01*
G01*
X32050001Y-2870000D01*
G75*
G02*
X32300000Y-3119999I0J-249999D01*
G01*
X32300000Y-4020001D01*
G75*
G02*
X32050001Y-4270000I-249999J0D01*
G01*
X31349999Y-4270000D01*
G75*
G02*
X31100000Y-4020001I0J249999D01*
G01*
G37*
%TD*%
%TO.C,R8*%
G36*
G01*
X26800001Y-6980000D02*
X25899999Y-6980000D01*
G75*
G02*
X25650000Y-6730001I0J249999D01*
G01*
X25650000Y-6029999D01*
G75*
G02*
X25899999Y-5780000I249999J0D01*
G01*
X26800001Y-5780000D01*
G75*
G02*
X27050000Y-6029999I0J-249999D01*
G01*
X27050000Y-6730001D01*
G75*
G02*
X26800001Y-6980000I-249999J0D01*
G01*
G37*
G36*
G01*
X26800001Y-8980000D02*
X25899999Y-8980000D01*
G75*
G02*
X25650000Y-8730001I0J249999D01*
G01*
X25650000Y-8029999D01*
G75*
G02*
X25899999Y-7780000I249999J0D01*
G01*
X26800001Y-7780000D01*
G75*
G02*
X27050000Y-8029999I0J-249999D01*
G01*
X27050000Y-8730001D01*
G75*
G02*
X26800001Y-8980000I-249999J0D01*
G01*
G37*
%TD*%
%TO.C,R7*%
G36*
G01*
X33519999Y-23020000D02*
X34420001Y-23020000D01*
G75*
G02*
X34670000Y-23269999I0J-249999D01*
G01*
X34670000Y-23970001D01*
G75*
G02*
X34420001Y-24220000I-249999J0D01*
G01*
X33519999Y-24220000D01*
G75*
G02*
X33270000Y-23970001I0J249999D01*
G01*
X33270000Y-23269999D01*
G75*
G02*
X33519999Y-23020000I249999J0D01*
G01*
G37*
G36*
G01*
X33519999Y-21020000D02*
X34420001Y-21020000D01*
G75*
G02*
X34670000Y-21269999I0J-249999D01*
G01*
X34670000Y-21970001D01*
G75*
G02*
X34420001Y-22220000I-249999J0D01*
G01*
X33519999Y-22220000D01*
G75*
G02*
X33270000Y-21970001I0J249999D01*
G01*
X33270000Y-21269999D01*
G75*
G02*
X33519999Y-21020000I249999J0D01*
G01*
G37*
%TD*%
%TO.C,R6*%
G36*
G01*
X10659999Y-5875000D02*
X11560001Y-5875000D01*
G75*
G02*
X11810000Y-6124999I0J-249999D01*
G01*
X11810000Y-6825001D01*
G75*
G02*
X11560001Y-7075000I-249999J0D01*
G01*
X10659999Y-7075000D01*
G75*
G02*
X10410000Y-6825001I0J249999D01*
G01*
X10410000Y-6124999D01*
G75*
G02*
X10659999Y-5875000I249999J0D01*
G01*
G37*
G36*
G01*
X10659999Y-3875000D02*
X11560001Y-3875000D01*
G75*
G02*
X11810000Y-4124999I0J-249999D01*
G01*
X11810000Y-4825001D01*
G75*
G02*
X11560001Y-5075000I-249999J0D01*
G01*
X10659999Y-5075000D01*
G75*
G02*
X10410000Y-4825001I0J249999D01*
G01*
X10410000Y-4124999D01*
G75*
G02*
X10659999Y-3875000I249999J0D01*
G01*
G37*
%TD*%
%TO.C,R5*%
G36*
G01*
X13199999Y-25560000D02*
X14100001Y-25560000D01*
G75*
G02*
X14350000Y-25809999I0J-249999D01*
G01*
X14350000Y-26510001D01*
G75*
G02*
X14100001Y-26760000I-249999J0D01*
G01*
X13199999Y-26760000D01*
G75*
G02*
X12950000Y-26510001I0J249999D01*
G01*
X12950000Y-25809999D01*
G75*
G02*
X13199999Y-25560000I249999J0D01*
G01*
G37*
G36*
G01*
X13199999Y-23560000D02*
X14100001Y-23560000D01*
G75*
G02*
X14350000Y-23809999I0J-249999D01*
G01*
X14350000Y-24510001D01*
G75*
G02*
X14100001Y-24760000I-249999J0D01*
G01*
X13199999Y-24760000D01*
G75*
G02*
X12950000Y-24510001I0J249999D01*
G01*
X12950000Y-23809999D01*
G75*
G02*
X13199999Y-23560000I249999J0D01*
G01*
G37*
%TD*%
%TO.C,R4*%
G36*
G01*
X6900000Y-23439999D02*
X6900000Y-24340001D01*
G75*
G02*
X6650001Y-24590000I-249999J0D01*
G01*
X5949999Y-24590000D01*
G75*
G02*
X5700000Y-24340001I0J249999D01*
G01*
X5700000Y-23439999D01*
G75*
G02*
X5949999Y-23190000I249999J0D01*
G01*
X6650001Y-23190000D01*
G75*
G02*
X6900000Y-23439999I0J-249999D01*
G01*
G37*
G36*
G01*
X8900000Y-23439999D02*
X8900000Y-24340001D01*
G75*
G02*
X8650001Y-24590000I-249999J0D01*
G01*
X7949999Y-24590000D01*
G75*
G02*
X7700000Y-24340001I0J249999D01*
G01*
X7700000Y-23439999D01*
G75*
G02*
X7949999Y-23190000I249999J0D01*
G01*
X8650001Y-23190000D01*
G75*
G02*
X8900000Y-23439999I0J-249999D01*
G01*
G37*
%TD*%
%TO.C,R3*%
G36*
G01*
X3890000Y-24340001D02*
X3890000Y-23439999D01*
G75*
G02*
X4139999Y-23190000I249999J0D01*
G01*
X4840001Y-23190000D01*
G75*
G02*
X5090000Y-23439999I0J-249999D01*
G01*
X5090000Y-24340001D01*
G75*
G02*
X4840001Y-24590000I-249999J0D01*
G01*
X4139999Y-24590000D01*
G75*
G02*
X3890000Y-24340001I0J249999D01*
G01*
G37*
G36*
G01*
X1890000Y-24340001D02*
X1890000Y-23439999D01*
G75*
G02*
X2139999Y-23190000I249999J0D01*
G01*
X2840001Y-23190000D01*
G75*
G02*
X3090000Y-23439999I0J-249999D01*
G01*
X3090000Y-24340001D01*
G75*
G02*
X2840001Y-24590000I-249999J0D01*
G01*
X2139999Y-24590000D01*
G75*
G02*
X1890000Y-24340001I0J249999D01*
G01*
G37*
%TD*%
%TO.C,R2*%
G36*
G01*
X6900000Y-25979999D02*
X6900000Y-26880001D01*
G75*
G02*
X6650001Y-27130000I-249999J0D01*
G01*
X5949999Y-27130000D01*
G75*
G02*
X5700000Y-26880001I0J249999D01*
G01*
X5700000Y-25979999D01*
G75*
G02*
X5949999Y-25730000I249999J0D01*
G01*
X6650001Y-25730000D01*
G75*
G02*
X6900000Y-25979999I0J-249999D01*
G01*
G37*
G36*
G01*
X8900000Y-25979999D02*
X8900000Y-26880001D01*
G75*
G02*
X8650001Y-27130000I-249999J0D01*
G01*
X7949999Y-27130000D01*
G75*
G02*
X7700000Y-26880001I0J249999D01*
G01*
X7700000Y-25979999D01*
G75*
G02*
X7949999Y-25730000I249999J0D01*
G01*
X8650001Y-25730000D01*
G75*
G02*
X8900000Y-25979999I0J-249999D01*
G01*
G37*
%TD*%
%TO.C,R1*%
G36*
G01*
X3890000Y-26880001D02*
X3890000Y-25979999D01*
G75*
G02*
X4139999Y-25730000I249999J0D01*
G01*
X4840001Y-25730000D01*
G75*
G02*
X5090000Y-25979999I0J-249999D01*
G01*
X5090000Y-26880001D01*
G75*
G02*
X4840001Y-27130000I-249999J0D01*
G01*
X4139999Y-27130000D01*
G75*
G02*
X3890000Y-26880001I0J249999D01*
G01*
G37*
G36*
G01*
X1890000Y-26880001D02*
X1890000Y-25979999D01*
G75*
G02*
X2139999Y-25730000I249999J0D01*
G01*
X2840001Y-25730000D01*
G75*
G02*
X3090000Y-25979999I0J-249999D01*
G01*
X3090000Y-26880001D01*
G75*
G02*
X2840001Y-27130000I-249999J0D01*
G01*
X2139999Y-27130000D01*
G75*
G02*
X1890000Y-26880001I0J249999D01*
G01*
G37*
%TD*%
D10*
%TO.C,J1*%
X2000000Y-20540000D03*
X2000000Y-17770000D03*
X2000000Y-15000000D03*
X2000000Y-12230000D03*
X2000000Y-9460000D03*
%TD*%
%TO.C,C12*%
G36*
G01*
X29365000Y-6930000D02*
X28415000Y-6930000D01*
G75*
G02*
X28165000Y-6680000I0J250000D01*
G01*
X28165000Y-6005000D01*
G75*
G02*
X28415000Y-5755000I250000J0D01*
G01*
X29365000Y-5755000D01*
G75*
G02*
X29615000Y-6005000I0J-250000D01*
G01*
X29615000Y-6680000D01*
G75*
G02*
X29365000Y-6930000I-250000J0D01*
G01*
G37*
G36*
G01*
X29365000Y-9005000D02*
X28415000Y-9005000D01*
G75*
G02*
X28165000Y-8755000I0J250000D01*
G01*
X28165000Y-8080000D01*
G75*
G02*
X28415000Y-7830000I250000J0D01*
G01*
X29365000Y-7830000D01*
G75*
G02*
X29615000Y-8080000I0J-250000D01*
G01*
X29615000Y-8755000D01*
G75*
G02*
X29365000Y-9005000I-250000J0D01*
G01*
G37*
%TD*%
%TO.C,C11*%
G36*
G01*
X34445000Y-14550000D02*
X33495000Y-14550000D01*
G75*
G02*
X33245000Y-14300000I0J250000D01*
G01*
X33245000Y-13625000D01*
G75*
G02*
X33495000Y-13375000I250000J0D01*
G01*
X34445000Y-13375000D01*
G75*
G02*
X34695000Y-13625000I0J-250000D01*
G01*
X34695000Y-14300000D01*
G75*
G02*
X34445000Y-14550000I-250000J0D01*
G01*
G37*
G36*
G01*
X34445000Y-16625000D02*
X33495000Y-16625000D01*
G75*
G02*
X33245000Y-16375000I0J250000D01*
G01*
X33245000Y-15700000D01*
G75*
G02*
X33495000Y-15450000I250000J0D01*
G01*
X34445000Y-15450000D01*
G75*
G02*
X34695000Y-15700000I0J-250000D01*
G01*
X34695000Y-16375000D01*
G75*
G02*
X34445000Y-16625000I-250000J0D01*
G01*
G37*
%TD*%
%TO.C,C10*%
G36*
G01*
X33495000Y-19260000D02*
X34445000Y-19260000D01*
G75*
G02*
X34695000Y-19510000I0J-250000D01*
G01*
X34695000Y-20185000D01*
G75*
G02*
X34445000Y-20435000I-250000J0D01*
G01*
X33495000Y-20435000D01*
G75*
G02*
X33245000Y-20185000I0J250000D01*
G01*
X33245000Y-19510000D01*
G75*
G02*
X33495000Y-19260000I250000J0D01*
G01*
G37*
G36*
G01*
X33495000Y-17185000D02*
X34445000Y-17185000D01*
G75*
G02*
X34695000Y-17435000I0J-250000D01*
G01*
X34695000Y-18110000D01*
G75*
G02*
X34445000Y-18360000I-250000J0D01*
G01*
X33495000Y-18360000D01*
G75*
G02*
X33245000Y-18110000I0J250000D01*
G01*
X33245000Y-17435000D01*
G75*
G02*
X33495000Y-17185000I250000J0D01*
G01*
G37*
%TD*%
%TO.C,C9*%
G36*
G01*
X28415000Y-23070000D02*
X29365000Y-23070000D01*
G75*
G02*
X29615000Y-23320000I0J-250000D01*
G01*
X29615000Y-23995000D01*
G75*
G02*
X29365000Y-24245000I-250000J0D01*
G01*
X28415000Y-24245000D01*
G75*
G02*
X28165000Y-23995000I0J250000D01*
G01*
X28165000Y-23320000D01*
G75*
G02*
X28415000Y-23070000I250000J0D01*
G01*
G37*
G36*
G01*
X28415000Y-20995000D02*
X29365000Y-20995000D01*
G75*
G02*
X29615000Y-21245000I0J-250000D01*
G01*
X29615000Y-21920000D01*
G75*
G02*
X29365000Y-22170000I-250000J0D01*
G01*
X28415000Y-22170000D01*
G75*
G02*
X28165000Y-21920000I0J250000D01*
G01*
X28165000Y-21245000D01*
G75*
G02*
X28415000Y-20995000I250000J0D01*
G01*
G37*
%TD*%
%TO.C,C8*%
G36*
G01*
X30955000Y-23070000D02*
X31905000Y-23070000D01*
G75*
G02*
X32155000Y-23320000I0J-250000D01*
G01*
X32155000Y-23995000D01*
G75*
G02*
X31905000Y-24245000I-250000J0D01*
G01*
X30955000Y-24245000D01*
G75*
G02*
X30705000Y-23995000I0J250000D01*
G01*
X30705000Y-23320000D01*
G75*
G02*
X30955000Y-23070000I250000J0D01*
G01*
G37*
G36*
G01*
X30955000Y-20995000D02*
X31905000Y-20995000D01*
G75*
G02*
X32155000Y-21245000I0J-250000D01*
G01*
X32155000Y-21920000D01*
G75*
G02*
X31905000Y-22170000I-250000J0D01*
G01*
X30955000Y-22170000D01*
G75*
G02*
X30705000Y-21920000I0J250000D01*
G01*
X30705000Y-21245000D01*
G75*
G02*
X30955000Y-20995000I250000J0D01*
G01*
G37*
%TD*%
%TO.C,C7*%
G36*
G01*
X25875000Y-23070000D02*
X26825000Y-23070000D01*
G75*
G02*
X27075000Y-23320000I0J-250000D01*
G01*
X27075000Y-23995000D01*
G75*
G02*
X26825000Y-24245000I-250000J0D01*
G01*
X25875000Y-24245000D01*
G75*
G02*
X25625000Y-23995000I0J250000D01*
G01*
X25625000Y-23320000D01*
G75*
G02*
X25875000Y-23070000I250000J0D01*
G01*
G37*
G36*
G01*
X25875000Y-20995000D02*
X26825000Y-20995000D01*
G75*
G02*
X27075000Y-21245000I0J-250000D01*
G01*
X27075000Y-21920000D01*
G75*
G02*
X26825000Y-22170000I-250000J0D01*
G01*
X25875000Y-22170000D01*
G75*
G02*
X25625000Y-21920000I0J250000D01*
G01*
X25625000Y-21245000D01*
G75*
G02*
X25875000Y-20995000I250000J0D01*
G01*
G37*
%TD*%
%TO.C,C6*%
G36*
G01*
X14125000Y-5025000D02*
X13175000Y-5025000D01*
G75*
G02*
X12925000Y-4775000I0J250000D01*
G01*
X12925000Y-4100000D01*
G75*
G02*
X13175000Y-3850000I250000J0D01*
G01*
X14125000Y-3850000D01*
G75*
G02*
X14375000Y-4100000I0J-250000D01*
G01*
X14375000Y-4775000D01*
G75*
G02*
X14125000Y-5025000I-250000J0D01*
G01*
G37*
G36*
G01*
X14125000Y-7100000D02*
X13175000Y-7100000D01*
G75*
G02*
X12925000Y-6850000I0J250000D01*
G01*
X12925000Y-6175000D01*
G75*
G02*
X13175000Y-5925000I250000J0D01*
G01*
X14125000Y-5925000D01*
G75*
G02*
X14375000Y-6175000I0J-250000D01*
G01*
X14375000Y-6850000D01*
G75*
G02*
X14125000Y-7100000I-250000J0D01*
G01*
G37*
%TD*%
%TO.C,C5*%
G36*
G01*
X10635000Y-10370000D02*
X11585000Y-10370000D01*
G75*
G02*
X11835000Y-10620000I0J-250000D01*
G01*
X11835000Y-11295000D01*
G75*
G02*
X11585000Y-11545000I-250000J0D01*
G01*
X10635000Y-11545000D01*
G75*
G02*
X10385000Y-11295000I0J250000D01*
G01*
X10385000Y-10620000D01*
G75*
G02*
X10635000Y-10370000I250000J0D01*
G01*
G37*
G36*
G01*
X10635000Y-8295000D02*
X11585000Y-8295000D01*
G75*
G02*
X11835000Y-8545000I0J-250000D01*
G01*
X11835000Y-9220000D01*
G75*
G02*
X11585000Y-9470000I-250000J0D01*
G01*
X10635000Y-9470000D01*
G75*
G02*
X10385000Y-9220000I0J250000D01*
G01*
X10385000Y-8545000D01*
G75*
G02*
X10635000Y-8295000I250000J0D01*
G01*
G37*
%TD*%
%TO.C,C4*%
G36*
G01*
X6505000Y-13280000D02*
X5555000Y-13280000D01*
G75*
G02*
X5305000Y-13030000I0J250000D01*
G01*
X5305000Y-12355000D01*
G75*
G02*
X5555000Y-12105000I250000J0D01*
G01*
X6505000Y-12105000D01*
G75*
G02*
X6755000Y-12355000I0J-250000D01*
G01*
X6755000Y-13030000D01*
G75*
G02*
X6505000Y-13280000I-250000J0D01*
G01*
G37*
G36*
G01*
X6505000Y-15355000D02*
X5555000Y-15355000D01*
G75*
G02*
X5305000Y-15105000I0J250000D01*
G01*
X5305000Y-14430000D01*
G75*
G02*
X5555000Y-14180000I250000J0D01*
G01*
X6505000Y-14180000D01*
G75*
G02*
X6755000Y-14430000I0J-250000D01*
G01*
X6755000Y-15105000D01*
G75*
G02*
X6505000Y-15355000I-250000J0D01*
G01*
G37*
%TD*%
%TO.C,C3*%
G36*
G01*
X10635000Y-25610000D02*
X11585000Y-25610000D01*
G75*
G02*
X11835000Y-25860000I0J-250000D01*
G01*
X11835000Y-26535000D01*
G75*
G02*
X11585000Y-26785000I-250000J0D01*
G01*
X10635000Y-26785000D01*
G75*
G02*
X10385000Y-26535000I0J250000D01*
G01*
X10385000Y-25860000D01*
G75*
G02*
X10635000Y-25610000I250000J0D01*
G01*
G37*
G36*
G01*
X10635000Y-23535000D02*
X11585000Y-23535000D01*
G75*
G02*
X11835000Y-23785000I0J-250000D01*
G01*
X11835000Y-24460000D01*
G75*
G02*
X11585000Y-24710000I-250000J0D01*
G01*
X10635000Y-24710000D01*
G75*
G02*
X10385000Y-24460000I0J250000D01*
G01*
X10385000Y-23785000D01*
G75*
G02*
X10635000Y-23535000I250000J0D01*
G01*
G37*
%TD*%
%TO.C,C2*%
G36*
G01*
X5555000Y-17990000D02*
X6505000Y-17990000D01*
G75*
G02*
X6755000Y-18240000I0J-250000D01*
G01*
X6755000Y-18915000D01*
G75*
G02*
X6505000Y-19165000I-250000J0D01*
G01*
X5555000Y-19165000D01*
G75*
G02*
X5305000Y-18915000I0J250000D01*
G01*
X5305000Y-18240000D01*
G75*
G02*
X5555000Y-17990000I250000J0D01*
G01*
G37*
G36*
G01*
X5555000Y-15915000D02*
X6505000Y-15915000D01*
G75*
G02*
X6755000Y-16165000I0J-250000D01*
G01*
X6755000Y-16840000D01*
G75*
G02*
X6505000Y-17090000I-250000J0D01*
G01*
X5555000Y-17090000D01*
G75*
G02*
X5305000Y-16840000I0J250000D01*
G01*
X5305000Y-16165000D01*
G75*
G02*
X5555000Y-15915000I250000J0D01*
G01*
G37*
%TD*%
%TO.C,C1*%
G36*
G01*
X9045000Y-9470000D02*
X8095000Y-9470000D01*
G75*
G02*
X7845000Y-9220000I0J250000D01*
G01*
X7845000Y-8545000D01*
G75*
G02*
X8095000Y-8295000I250000J0D01*
G01*
X9045000Y-8295000D01*
G75*
G02*
X9295000Y-8545000I0J-250000D01*
G01*
X9295000Y-9220000D01*
G75*
G02*
X9045000Y-9470000I-250000J0D01*
G01*
G37*
G36*
G01*
X9045000Y-11545000D02*
X8095000Y-11545000D01*
G75*
G02*
X7845000Y-11295000I0J250000D01*
G01*
X7845000Y-10620000D01*
G75*
G02*
X8095000Y-10370000I250000J0D01*
G01*
X9045000Y-10370000D01*
G75*
G02*
X9295000Y-10620000I0J-250000D01*
G01*
X9295000Y-11295000D01*
G75*
G02*
X9045000Y-11545000I-250000J0D01*
G01*
G37*
%TD*%
M02*
